<?xml version="1.0" encoding="UTF-8"?>
<svg id="Layer_1" xmlns="http://www.w3.org/2000/svg" version="1.1" viewBox="0 0 2463 600">
  <!-- Generator: Adobe Illustrator 29.8.2, SVG Export Plug-In . SVG Version: 2.1.1 Build 3)  -->
  <defs>
    <style>
      .st0 {
        fill: #ff6801;
      }

      .st1 {
        fill: #0d1955;
      }
    </style>
  </defs>
  <path class="st0" d="M284,0l.1,4.52-116.1,146.97c-7.2,10.19,8.54,7.64,15.26,8.76,103.06,17.14,163.94,108.17,138.26,210.76-33.21,132.62-198.42,170.33-284.49,62.47-22.6-28.31-28.21-53.64-34.88-88.18-.36-1.85.85-3.89-2.14-3.3v-25c3.06.56,1.9-1.54,2-3.46,1.61-30.29,12.83-59.59,29.19-84.85L208,0h76ZM157.78,221.28c-46.72,4.15-91.5,45.84-95.76,93.24-9.19,102.26,112.36,164.43,180.96,81.96,56.29-67.67,3.95-183.11-85.2-175.2Z"/>
  <path class="st1" d="M370,600l-1.05-6.45.07-422.02c.52-2.74,1.89-3.24,4.43-3.57,10.01-1.33,41.85-1.17,52.07.03,2.25.26,3.95.74,5.48,2.52v27l2.35,1.38c12.6-11.01,25.7-20.46,41.67-26.36,55.7-20.6,123.46-7.03,163.49,37.47,86.8,96.49,41.6,280.57-99.97,288.06-34.92,1.85-64.49-4.78-92.86-25.23-2.62-1.89-12.57-11.86-14.68-9.82l-1,137h-60ZM517.8,222.3c-121.07,7.77-116.97,209.11-3.29,216.69,143.2,9.55,138.41-225.36,3.29-216.69Z"/>
  <path class="st1" d="M2463,55v76h-66V55.5c.88-1.43-1.46-1.38,0-1.55,14.53-1.7,50.72-.71,66,.01,1.89.09-1.78.48,0,1.04Z"/>
  <path class="st1" d="M2279.5,491c-4.95-1.6,2.09-30.33-3.99-30.79-21.88,19.7-49.48,32.14-79.02,34.78-113.03,10.09-180.26-82.81-169.48-189.48,6.56-64.84,48.59-124.8,113.95-140.05,41.06-9.58,86.54-5.26,120.95,20.12,2.47,1.82,12.42,11.75,14.1,10.97.28-.13,1.99-1.91,1.99-2.05v-27l1.5-1.5h58c.17,0,1.76,1.54,1.98,2.02v320.97c-.22.47-1.81,2.02-1.98,2.02h-58ZM2173.8,220.3c-112.02,9.98-115.89,200.45-3.18,215.58,137.81,18.5,145.74-207.73,22.87-215.87-6.06-.4-13.63-.25-19.69.29Z"/>
  <path class="st1" d="M1324,464.5l-2.35-1.38c-23.08,20.45-51.99,32.94-83.11,34.92-120.98,7.7-184.96-102.24-161.23-212.23,18.42-85.36,95.46-136.22,181.91-119.54,23.51,4.54,44.72,16.92,62.27,32.77,1.69.09,2.24-1.09,2.5-2.55,1.23-6.86-.96-16.87-.04-24.04.22-1.7.37-3.03,2.04-3.96l57.99.02c.47.22,2.02,1.81,2.02,1.98v321c-.88,1.43-1.99,1.38-3.45,1.55-13.81,1.62-34.48-.02-49.09-.1-1.44,0-9.46,1.94-9.46-1.45v-27ZM1230.83,222.24c-132.13,2.04-128.71,225.72,9.71,216.8,117.2-7.55,115.33-218.73-9.71-216.8Z"/>
  <path class="st1" d="M1632,380h60.5c3.14,0,3.34,13.3,3.94,16.06,10.98,50.31,86.15,55.23,123.45,35.33,23.57-12.58,25.2-41.56,1.78-55.56-57.59-34.43-183.1-17.35-182.75-116.34.29-79.77,77.18-101.03,143.57-95.47,54.74,4.58,106.87,38.87,108.58,98.48.06,2.02.3,4.25-1.57,5.51h-58c-2.91,0-5.05-16.26-6.77-20.23-14.11-32.52-78.76-33.65-105.77-20.32-23.44,11.57-24.53,39.14-1.31,52.4,53.41,30.5,168.81,18.59,181.21,100.79,14.36,95.19-77.42,125.4-155.24,116.24-54.95-6.47-104.92-42.79-111.61-100.39-.19-1.67-1.16-16.49-.01-16.49Z"/>
  <path class="st1" d="M1621,224.5c-1.17,4.19-17.26,2.17-21.54,2.46-53.05,3.63-84.84,55.09-90.44,103.56l-1.14,162.35-60.18.23-1.73-5.55.07-316.01c.52-2.74,1.89-3.24,4.43-3.57,11.38-1.51,40.09-.95,52.09,0,1.93.15,3.62.59,5.45,1.05v39.5c0,1.27,3.81,2.24,5.01,1.01,7.25-9.17,16.07-17.7,25.68-24.32,22.33-15.39,43.75-21.07,70.82-22.17,2.08-.08,11.49-.69,11.49,2.49v59Z"/>
  <polygon class="st1" points="847.5 46 906.5 46 908 47.5 908 491.5 906.5 493 847.5 493 846 491.5 846 47.5 847.5 46"/>
  <path class="st1" d="M1030,491.5c-.88,1.43-1.99,1.38-3.45,1.55-14.02,1.65-34.26-.16-49.09-.1-5.35.02-8.37,3.44-9.34-4.56V48.72s3.41-2.69,3.41-2.69c16.66-.26,33.35.23,50.01.02,1.61-.02,8.46-2.13,8.46,1.45v444Z"/>
  <path class="st1" d="M724,169c1.83-.46,3.53-.9,5.45-1.05,12.08-.95,40.61-1.5,52.09,0,1.4.18,2.59.23,3.55,1.45l.63,320.87-.87,2.58-57.34,1.14c-1.05.11-3.52-2.03-3.52-2.5V169Z"/>
  <path class="st1" d="M2463,167v323l-66,1V166.49c19.8-.52,46.31-1.44,66,.51Z"/>
  <path class="st1" d="M2007,493h-72.5l-1.5-1.5v-76c0-1.21,3.13-2.44,4.48-2.58,20.62-2.08,45,1.77,66.07.03l3.55,1.45-.1,78.6Z"/>
  <path class="st1" d="M786.75,57.24l.11,75.62-63.46.24-.91-75.11c1.61-1.8,3.74-1.84,5.96-2.04,13.64-1.22,39.37-1.12,53.09,0,1.82.15,3.66.15,5.21,1.28Z"/>
</svg>