<?xml version="1.0" encoding="UTF-8"?>
<svg id="Black" xmlns="http://www.w3.org/2000/svg" version="1.1" viewBox="0 0 1661.13 147.8">
  <!-- Generator: Adobe Illustrator 29.8.2, SVG Export Plug-In . SVG Version: 2.1.1 Build 3)  -->
  <defs>
    <style>
      .st0 {
        fill: #6639b7;
      }

      .st1 {
        fill: #10e2ff;
      }
    </style>
  </defs>
  <path class="st0" d="M139.79,138.56v-64.54c24.63,0,30.42-7.02,42.98-22.29,15.15-18.35,37.81-45.82,91.14-47.54,2.96,0,5.42,2.34,5.42,5.3v64.54c-24.51,0-30.18,7.02-42.86,22.29-15.15,18.35-37.81,45.82-91.39,47.54-2.96,0-5.42-2.34-5.42-5.3,0,0,.12,0,0,0h.12Z"/>
  <path class="st0" d="M.12,138.56v-64.54c24.63,0,30.42-7.02,42.98-22.29C58.26,33.38,80.92,5.91,134.25,4.19c2.96,0,5.42,2.34,5.42,5.3v64.54c-24.51,0-30.18,7.02-42.86,22.29-15.15,18.35-37.81,45.82-91.39,47.54-2.96,0-5.42-2.34-5.42-5.3,0,0,.12,0,.12,0Z"/>
  <path class="st1" d="M344,74.02h-64.54v64.54c0,2.96,2.34,5.3,5.3,5.3h64.54v-64.54c0-2.96-2.34-5.3-5.3-5.3Z"/>
  <path class="st0" d="M144.97,74.02h-.86c-2.46-.37-4.31-2.59-4.31-5.17l-5.3,5.3h.86c2.46.37,4.43,2.59,4.43,5.17l5.3-5.3s-.12,0,0,0h-.12Z"/>
  <g>
    <path d="M622.85,57.4c0-34.36-17.74-55.92-48.53-55.92-20.2,0-37.07,6.9-45.69,24.39-6.65-15.52-19.71-24.39-39.04-24.39-18.23,0-31.9,9.36-37.69,22.66V4.19h-33.01v139.55h33.01V63.43c0-19.09,11.58-32.39,27.1-32.39s24.88,12.19,24.88,31.04v81.66h33.01V63.43c0-19.09,11.58-32.39,27.71-32.39s24.88,12.19,24.88,31.04v81.66h50.74v-34.86h-17.49v-51.61h0l.12.12Z"/>
    <path d="M722.24,0c-42.37,0-76.12,32.15-76.12,73.9s33.75,73.9,76.12,73.9,76.12-32.15,76.12-73.9S764.24,0,722.24,0ZM722.24,117.75c-24.63,0-43.23-19.09-43.23-43.72s18.6-43.72,43.23-43.72,43.23,19.09,43.23,43.72-18.84,43.72-43.23,43.72Z"/>
    <path d="M945.79,57.4c0-34.36-19.34-55.92-52.84-55.92-20.2,0-35.96,9.36-42.37,22.66V4.19h-33.01v139.55h33.01V63.43c0-19.09,13.55-32.39,32.39-32.39s29.68,12.19,29.68,31.04v81.66h50.74v-34.86h-17.49v-51.61h-.12v.12Z"/>
    <path d="M1045.18,0c-42.37,0-76.12,32.15-76.12,73.9s33.75,73.9,76.12,73.9,76.12-32.15,76.12-73.9S1087.18,0,1045.18,0ZM1045.18,117.75c-24.63,0-43.23-19.09-43.23-43.72s18.6-43.72,43.23-43.72,43.23,19.09,43.23,43.72-18.84,43.72-43.23,43.72Z"/>
    <path d="M1211.95,0c-42.37,0-76.12,32.15-76.12,73.9s33.75,73.9,76.12,73.9,76.12-32.15,76.12-73.9S1253.95,0,1211.95,0ZM1211.95,117.75c-24.63,0-43.23-19.09-43.23-43.72s18.6-43.72,43.23-43.72,43.23,19.09,43.23,43.72-18.84,43.72-43.23,43.72Z"/>
    <polygon points="1372.92 108.88 1358.88 108.88 1328.21 4.06 1288.68 4.06 1333.63 143.86 1395.46 143.86 1440.42 4.06 1403.22 4.06 1372.92 108.88"/>
    <path d="M1588.71,108.88V4.19h-33.25v20.2c-4.68-13.06-21.06-23.28-44.59-23.28-39.29,0-69.83,31.53-69.83,72.79s30.42,72.79,69.83,72.79c23.52,0,39.91-10.22,44.59-23.28v20.2h50.62v-34.86h-17.37v.12ZM1515.3,116.64c-23.52,0-41.26-18.23-41.26-42.62s17.74-42.62,41.26-42.62,42.62,18.23,42.62,42.62-18.6,42.62-42.62,42.62Z"/>
  </g>
  <path d="M1633.66,57.03c-5.54,0-10.35-1.23-14.41-3.57s-7.27-5.54-9.61-9.48-3.45-8.38-3.45-13.43,1.11-9.48,3.45-13.43,5.54-7.14,9.61-9.48,8.87-3.57,14.41-3.57,10.35,1.23,14.41,3.57,7.27,5.54,9.61,9.48,3.45,8.5,3.45,13.43-1.11,9.24-3.45,13.43c-2.34,3.94-5.54,7.14-9.61,9.48s-8.87,3.57-14.41,3.57ZM1633.66,50.74c4.31,0,8.01-.86,11.08-2.71s5.3-4.06,7.14-7.14c1.6-3.08,2.46-6.4,2.46-10.35s-.86-7.51-2.46-10.47-3.94-5.3-7.14-7.14c-3.08-1.72-6.77-2.71-11.08-2.71s-7.88.86-11.08,2.71c-3.08,1.72-5.54,4.06-7.14,7.14s-2.46,6.65-2.46,10.47.86,7.27,2.46,10.35,4.06,5.54,7.14,7.14c3.08,1.72,6.77,2.71,11.08,2.71ZM1623.07,43.48v-26.23h11.95c3.45,0,5.91.74,7.64,2.09,1.72,1.48,2.71,3.57,2.71,6.28,0,1.97-.49,3.69-1.48,5.05-1.11,1.23-2.46,2.34-4.43,2.83l7.14,9.85h-9.11l-6.04-9.24h-1.11v9.24h-7.27v.12ZM1630.34,28.57h3.45c1.48,0,2.46-.12,3.08-.74s.86-1.11.86-1.97-.37-1.6-.86-2.09c-.49-.37-1.6-.74-3.08-.74h-3.45v5.3h0v.25Z"/>
</svg>