<?xml version="1.0" encoding="UTF-8"?>
<svg id="Layer_1" xmlns="http://www.w3.org/2000/svg" xmlns:xlink="http://www.w3.org/1999/xlink" version="1.1" viewBox="0 0 1679.32 659.26">
  <!-- Generator: Adobe Illustrator 29.8.2, SVG Export Plug-In . SVG Version: 2.1.1 Build 3)  -->
  <defs>
    <style>
      .st0 {
        fill: url(#linear-gradient);
      }

      .st1 {
        fill-rule: evenodd;
      }

      .st1, .st2 {
        fill: #070606;
      }
    </style>
    <linearGradient id="linear-gradient" x1="329.63" y1="622.74" x2="329.63" y2="1282" gradientTransform="translate(0 1282) scale(1 -1)" gradientUnits="userSpaceOnUse">
      <stop offset="0" stop-color="#6738bd"/>
      <stop offset="1" stop-color="#ee3932"/>
    </linearGradient>
  </defs>
  <path class="st0" d="M422.86,93.23v131.85l104.54,104.54-151.16,151.16V46.62S329.63,0,329.63,0L0,329.63l236.4,236.4v-131.85l-104.54-104.54,151.16-151.16v434.17l46.62,46.62,329.63-329.63-236.4-236.39Z"/>
  <path class="st1" d="M1410.52,146.19v-22.73h101.57v412.37h-101.57v-21.98c-28.04,18.6-62.26,28.36-99.84,28.36-120.73,0-211.76-91.39-211.76-212.57s91.03-212.56,211.76-212.56c37.09,0,71.31,10.02,99.84,29.11ZM1202.87,329.64c0,66.63,45.68,114.99,108.61,114.99,40.31,0,78.05-18.87,99.04-49.37v-131.25c-20.99-30.49-58.73-49.36-99.04-49.36-62.94,0-108.61,48.35-108.61,114.98Z"/>
  <path class="st2" d="M1133.1,535.82l-62.24-91.99h-172.19l216.77-320.38h-389.95l62.24,91.99h150.1l-216.77,320.37h412.04Z"/>
  <path class="st2" d="M1577.76,0l101.56,101.55V0h-101.56Z"/>
  <path class="st2" d="M1547.78,123.46l29.98,44.31v368.06h101.56V123.46h-131.54Z"/>
</svg>