<?xml version="1.0" encoding="UTF-8"?>
<svg id="Layer_1" xmlns="http://www.w3.org/2000/svg" version="1.1" viewBox="0 0 3912.09 772.14">
  <!-- Generator: Adobe Illustrator 29.8.2, SVG Export Plug-In . SVG Version: 2.1.1 Build 3)  -->
  <defs>
    <style>
      .st0 {
        fill: #016dca;
      }

      .st1 {
        fill: #fff;
      }

      .st2 {
        fill: #04cfe9;
      }
    </style>
  </defs>
  <path class="st2" d="M250.59.05c108.71-2.22,191.56,73.04,284.36,117.81,40.91,27.52,26.48,91.85-21.21,101.17-16.52,3.23-28.87-1.74-43.37-8.8-52.02-25.33-103.19-62.38-155.64-85.99-48.62-21.88-104.65-15.69-147.29,16.07-80.22,59.75-74.06,182.16,8.63,236.63,50.13,33.02,112.59,56.75,161.72,90.46,59.58,40.88,11.63,125.62-52.52,98.53C175.13,498.72,51.32,467.12,10.79,329.33-37.24,166.04,80.84,3.51,250.59.05Z"/>
  <path class="st0" d="M246.72,202.3c10.59-1.43,22.04-.22,31.77,4.17,79.34,50.83,182.34,81.02,238.71,160.17,105.65,148.36,30.2,357.13-147.49,398.65-137.44,32.11-229.37-56.07-342.82-113.64-50.12-44.34,2.97-123.14,63.13-91.88,53.86,25.49,106.24,63.91,160.12,88.23,47.4,21.4,103.23,16.41,145.34-14.17,83.44-60.6,77.97-184.69-8.61-239.49-46.11-29.18-99.08-52.84-146.33-80.93-24.73-14.7-42.44-28.89-39.67-61.08,2-23.17,22.32-46.87,45.83-50.05l.02.02Z"/>
  <path class="st1" d="M3037.51,432.14c-9.66-121.17,136.4-191.95,225.38-106.91,1.54,1.47,11.18,11.85,11.39,12.67.55,2.1-1.47,3.34-2.77,4.61-9.6,9.36-21.15,17.25-31.07,26.31-28.22-37.1-79.69-45.67-118.83-19.91-34.49,22.7-47.87,68.1-31.8,106.2,25.84,61.26,109.1,71.92,149.25,19.39l1.26-.29,33.17,27.37c.51.55.92,1.21.92,1.98-.01,3.21-21.1,21.92-25.05,24.84-62.71,46.51-153.81,28.09-193.16-38.75-2.32-.38-1.16,1.09-1.39,2.43-13.59,80.75-117.35,80.56-155.22,14.18-1.11-1.95-4.02-6.82-2.88-8.77l41.45-23.25c10.42,21.3,31.34,42.49,56.84,29.97,4.84-2.38,10.75-8.47,12.12-13.77,4.83-18.65-10.21-29.84-22.35-40.58-36.41-32.22-110.12-81.33-62.37-137.1,34.83-40.68,88.61-26.91,121.84,7.67,1.92,1.99,7.32,7.71,6.24,10.07l-33.79,29.64c-3.02.79-5.12-4.26-6.97-6.15-10.54-10.73-20.23-20.52-36.84-18.56-15.26,1.8-22.24,17.88-11.66,29.66,14.82,16.5,39.88,34.02,57.12,49.31,6.49,5.76,12.58,12.08,19.16,17.75h.01Z"/>
  <polygon class="st1" points="1654.7 288.33 1692.11 456.11 1741.05 288.38 1782.62 288.28 1831.63 457.07 1871.91 288.33 1921.29 288.33 1860.42 552.96 1811.11 553.79 1761.63 384.19 1711.8 553.96 1665.35 553.79 1604.84 288.33 1654.7 288.33"/>
  <path class="st1" d="M2842.85,496.37c.72.62-4.51,6.78-5.26,7.68-101.17,121.64-291.5,5.35-233.29-140.24,36.93-92.37,167.87-117.12,230.86-37.59,43.25,54.62,24.6,134.87-39.6,162.64-16.33,7.06-46.4,14.49-49.56-10.71-31.67,31.07-80.4,15.61-92.3-26.12-12.55-43.99,13.44-103.02,63.08-107.13,22.04-1.83,38.45,4.98,52.24,22.03l4.33-17.25h33.08l-18.49,115.71c4.55,11.68,22.16-2.5,27.14-7.83,31.81-34.07,23.05-102.38-13.53-130.33-69.14-52.83-170.96-12.18-180.2,75.67-11.28,107.25,111.41,165.12,188.43,93.46h33.08-.01ZM2726.65,384.46c-36.92,2.17-47.73,70.26-6.03,72.6,44.14,2.48,51.87-75.29,6.03-72.6Z"/>
  <path class="st1" d="M2296.73,288.33c31.94,3.24,63.21,31.39,71.17,62.11,11.47,44.26-6.78,86.72-48.71,105.27l50.9,98.18h-54.66l-48.43-91.08h-29.25v91.08h-50.82v-265.56h109.8ZM2237.75,413.92h46.51c2.99,0,11.68-3.85,14.57-5.57,23.89-14.21,25.35-49.79,1.17-64.82-2.33-1.45-10.63-5.35-12.87-5.35h-49.39v75.74h.01Z"/>
  <path class="st1" d="M1013.93,288.62c86.87-7.11,154.77,64.39,144.98,150.69-14.26,125.78-184.68,157.59-246.94,48.45-47.06-82.51,6.36-191.31,101.95-199.14h0ZM1020.64,335.59c-84.14,5.39-106.09,122.16-34.01,161.9,29.73,16.39,66.69,13.7,92.72-8.3,62.83-53.11,24.67-158.94-58.7-153.6h0Z"/>
  <polygon class="st1" points="3912.09 288.33 3912.09 338.19 3801.81 338.19 3801.81 396.67 3912.09 396.67 3912.09 445.56 3801.81 445.56 3801.81 504.04 3912.09 504.04 3912.09 553.89 3751.95 553.89 3751.95 288.33 3912.09 288.33"/>
  <polygon class="st1" points="2555.17 288.33 2555.17 336.75 2553.73 338.19 2444.89 338.19 2444.89 396.67 2555.17 396.67 2555.17 445.56 2444.89 445.56 2444.89 504.04 2555.17 504.04 2555.17 553.89 2395.02 553.89 2395.02 288.33 2555.17 288.33"/>
  <polygon class="st1" points="2053.63 288.33 2053.17 295.06 1992.26 450.35 2064.18 450.35 2046.95 406.83 2073.76 340.11 2156.24 553.89 2102.54 553.89 2081.96 499.18 1974.67 499.4 1950.54 553.89 1899.24 553.89 2002.33 288.33 2053.63 288.33"/>
  <path class="st1" d="M3380.83,450.35h70.96l-16.29-44.49,24.7-63.58,2.13-1.23,81.52,212.83h-52.26l-21.23-54.51-108.13-.19-23.12,54.71h-51.3l103.09-265.56h49.87c.52,0,1.52,1.63,1.48,2.42l-61.42,159.6h0Z"/>
  <polygon class="st1" points="1342.08 288.33 1342.08 336.75 1340.64 338.19 1245.23 338.19 1245.23 396.67 1340.64 396.67 1342.08 398.1 1342.08 444.12 1340.64 445.56 1245.23 445.56 1245.23 552.45 1243.79 553.89 1193.44 553.89 1193.44 288.33 1342.08 288.33"/>
  <path class="st1" d="M716.05,497.5l39.65-23.22,1.89.99c10.39,19.16,26.77,38.34,51.11,30.97,21.63-6.55,23.36-27.91,9.2-43.33-32.71-35.61-107.82-71.54-87.66-130.98,7.87-23.21,32.76-41.42,57.09-43.59,34.97-3.13,61.93,14.81,82.97,40.73l-35.21,31.03-1.23-.29c-8.93-10.64-20.17-23.26-35.03-24.5-18.12-1.51-30.36,12.62-19.2,28.77,29.55,32.52,87.74,59.87,94.37,106.98,11.64,82.66-93.54,110.48-143.26,52.15-2.92-3.43-16.75-22.2-14.68-25.73v.02Z"/>
  <polygon class="st1" points="1566.48 288.33 1566.48 338.19 1493.6 338.19 1493.6 553.89 1441.81 553.89 1441.81 338.19 1369.89 338.19 1369.89 288.33 1566.48 288.33"/>
  <polygon class="st1" points="3624.41 288.33 3624.41 504.52 3625.85 505.96 3723.18 505.96 3723.18 553.89 3574.54 553.89 3574.54 288.33 3624.41 288.33"/>
</svg>