<?xml version="1.0" encoding="UTF-8"?>
<svg id="svg1366" xmlns="http://www.w3.org/2000/svg" xmlns:svg="http://www.w3.org/2000/svg" xmlns:sodipodi="http://sodipodi.sourceforge.net/DTD/sodipodi-0.dtd" xmlns:rdf="http://www.w3.org/1999/02/22-rdf-syntax-ns#" xmlns:inkscape="http://www.inkscape.org/namespaces/inkscape" xmlns:dc="http://purl.org/dc/elements/1.1/" xmlns:cc="http://creativecommons.org/ns#" version="1.1" viewBox="0 0 1872 347.44">
  <!-- Generator: Adobe Illustrator 29.8.2, SVG Export Plug-In . SVG Version: 2.1.1 Build 3)  -->
  <defs>
    <style>
      .st0 {
        fill: #c00;
      }
    </style>
  </defs>
  <sodipodi:namedview id="base" bordercolor="#666666" borderopacity="1.0" fit-margin-bottom="0" fit-margin-left="0" fit-margin-right="0" fit-margin-top="0" inkscape:current-layer="layer1" inkscape:cx="62.500004" inkscape:cy="11.60005" inkscape:document-units="mm" inkscape:pageopacity="0.0" inkscape:pageshadow="2" inkscape:window-height="744" inkscape:window-maximized="1" inkscape:window-width="1280" inkscape:window-x="-4" inkscape:window-y="-4" inkscape:zoom="7.1759995" pagecolor="#ffffff" showgrid="false" units="px"/>
  <g id="layer1" inkscape:groupmode="layer" inkscape:label="Layer 1">
    <path id="path1112" class="st0" d="M587.06,151.26v106.33h-58.41v-82.37c0-32.95-11.98-41.93-26.96-41.93-23.96,0-35.94,16.47-35.94,52.42v71.89h-58.41V14.97h46.43c7.49,0,11.98,2.99,11.98,11.98v85.36h1.5c11.98-17.97,31.45-28.45,56.91-28.45,44.93,0,62.9,32.95,62.9,67.39h0ZM277.06,173.72c0-28.45,19.47-46.43,46.43-46.43,8.99,0,17.97,1.5,25.46,4.49,1.99,1,3.49,1.5,4.49,1.5h1.5c2.99,0,5.99-1.5,5.99-5.99v-35.94c-11.98-5.99-26.96-8.99-43.43-8.99-56.91,0-98.84,32.95-98.84,88.36s41.93,88.36,98.84,88.36c14.98,0,32.95-1.5,46.43-7.49v-43.43c-10.48,4.49-22.46,8.99-35.94,8.99-26.96,1.5-50.92-16.47-50.92-43.43h0ZM865.61,83.87c-23.96,0-46.43,8.99-59.9,32.95-8.99-22.46-28.45-32.95-52.42-32.95-25.46,0-43.43,8.99-62.9,28.45,0,0-4.49,4.49-7.49,4.49-1.5,0-4.49-1.5-5.99-1.5l-22.46-23.96c-1.5-1.5-4.49-2.99-5.99-2.99-4.49,0-8.99,4.49-8.99,8.99v160.24h56.91v-71.89c0-35.94,11.98-52.42,32.95-52.42,16.47,0,22.46,14.98,22.46,32.95v91.35h58.41v-71.89c0-35.94,11.98-52.42,32.95-52.42,16.47,0,22.46,14.98,22.46,32.95v91.35h58.41v-100.34c1.5-44.93-8.99-73.38-58.41-73.38h0v.02ZM176.72,101.84v142.27c0,4.49-4.49,8.99-8.99,8.99-2.99,0-4.49-1.5-5.99-2.99l-8.99-8.99c-1.5-1.5-4.49-2.99-5.99-2.99s-4.49,1.49-5.99,1.49c-14.98,13.48-29.95,19.47-52.42,19.47-49.41-.01-88.35-38.94-88.35-88.37s38.94-88.36,88.36-88.36c22.46,0,37.44,7.49,52.42,19.47,1.5,1.5,4.49,1.5,5.99,1.5s4.49-1.5,5.99-2.99l8.99-8.99c1.5-1.5,4.49-2.99,5.99-2.99,4.49,4.49,8.99,8.99,8.99,13.48h-.01ZM128.79,173.72c0-22.46-16.47-38.94-37.44-38.94s-37.44,17.97-37.44,38.94,16.47,38.94,37.44,38.94,37.44-17.97,37.44-38.94ZM1356.83,101.84v142.27c0,4.49-4.49,8.99-8.99,8.99-2.99,0-4.49-1.5-5.99-2.99l-8.99-8.99c-1.5-1.5-4.49-2.99-5.99-2.99s-4.49,1.49-5.99,1.49c-14.98,13.48-29.95,19.47-52.42,19.47-49.42,0-88.36-38.94-88.36-88.36s38.94-88.36,88.36-88.36c20.97,0,37.44,7.49,52.42,19.47,1.5,1.5,4.49,1.5,5.99,1.5s4.49-1.5,5.99-2.99l7.49-5.99c1.5-1.5,4.49-2.99,5.99-2.99,5.99,1.5,10.48,5.99,10.48,10.48h.01ZM1308.9,173.72c0-22.46-16.47-38.94-37.44-38.94s-37.44,17.97-37.44,38.94,16.47,38.94,37.44,38.94,37.44-17.97,37.44-38.94ZM1142.67,179.71v10.48h-116.81c2.99,22.46,20.97,32.95,49.42,32.95,14.98,0,32.95-2.99,50.92-11.98v41.93c-17.97,7.49-40.44,10.48-61.4,10.48-55.41,0-97.34-32.95-97.34-88.36s37.44-88.36,89.86-88.36c64.4-1.5,85.36,43.43,85.36,92.85h-.01ZM1090.25,149.76c-1.5-14.98-11.98-28.45-32.95-28.45-19.47,0-28.45,11.98-31.45,28.45-1.5,4.49,1.5,7.49,5.99,7.49h50.92c4.49,0,7.49-1.5,7.49-7.49h0ZM1698.28,0c-41.93,0-82.37,13.48-110.82,38.94-2.99,2.99-7.49,4.49-11.98,4.49s-8.99-1.5-11.98-4.49l-19.47-19.47c-1.5-1.5-4.49-2.99-8.99-2.99-5.99,0-11.98,4.49-11.98,11.98v290.53c0,5.99,4.49,11.98,11.98,11.98,2.99,0,5.99-1.5,8.99-2.99l19.47-19.47c2.99-2.99,7.49-4.49,11.98-4.49s8.99,1.5,11.98,4.49c28.45,25.46,68.89,38.94,110.82,38.94,95.85,0,173.72-77.87,173.72-173.72S1794.12,0,1698.28,0h0ZM1693.78,65.89c25.46,0,50.92,8.99,68.89,25.46,1.5,1.5,4.49,2.99,7.49,2.99s5.99-1.5,7.49-2.99l11.98-11.98c1.5-1.5,2.99-1.5,4.49-1.5,4.49,0,7.49,2.99,7.49,7.49v179.71c0,4.49-2.99,7.49-7.49,7.49-1.5,0-4.49-1.5-4.49-1.5l-11.98-11.98c-1.5-1.5-4.49-2.99-7.49-2.99s-4.49,1.49-7.49,2.99c-17.97,16.47-41.93,25.46-68.89,25.46-59.9,0-107.83-47.92-107.83-107.83-1.5-62.9,47.92-110.82,107.83-110.82h0ZM1695.28,220.15c23.96,0,43.43-20.97,43.43-46.43s-19.47-46.43-43.43-46.43-43.43,20.97-43.43,46.43,19.47,46.43,43.43,46.43h0Z" inkscape:connector-curvature="0"/>
  </g>
</svg>