<?xml version="1.0" encoding="UTF-8"?>
<svg id="Layer_1" xmlns="http://www.w3.org/2000/svg" version="1.1" viewBox="0 0 160 38.21">
  <!-- Generator: Adobe Illustrator 29.8.2, SVG Export Plug-In . SVG Version: 2.1.1 Build 3)  -->
  <defs>
    <style>
      .st0 {
        fill: #fff;
      }
    </style>
  </defs>
  <path class="st0" d="M16.1,5c-.28.05-.5.03-.67-.04-.39-.86-.87-1.69-1.43-2.47,6.09-1.41,12.53.42,16.95,4.88,3.69,3.75,5.6,8.87,5.18,14.17h-5.05c.05-.47.08-.94.08-1.43s-.03-.96-.08-1.43h2.19c-.4-3.86-2.01-7.06-4.77-9.72-3.32-3.1-7.91-4.56-12.39-3.97"/>
  <path class="st0" d="M11.41,20.09V3.75c2.36,2.96,2.85,6.79,2.85,9.72v6.64c0,2.12,1.72,3.84,3.84,3.84s3.84-1.72,3.84-3.84-1.72-3.84-3.84-3.84c-.35,0-.69.05-1.01.13v-2.91c.33-.05.67-.08,1.01-.08,3.69,0,6.69,2.99,6.69,6.69s-2.99,6.69-6.69,6.69-6.69-2.99-6.69-6.69v-.02Z"/>
  <path class="st0" d="M18.1,38.21C8.1,38.21,0,30.1,0,20.11c0-3.59,1.05-6.94,2.85-9.76v9.51c0,.08,0,.16,0,.25,0,8.42,6.82,15.24,15.24,15.24.36,0,.72-.01,1.08-.04h0c2.94-.2,5.85-1.26,8.34-3.22h0c.4-.32.79-.65,1.16-1.01.25-.24.38-.37.95-.38.58-.01,1.44.79,1.45,1.39.01.6-.16.8-.44,1.06-.43.42-.88.81-1.36,1.18h0c-3.01,2.37-6.54,3.62-10.1,3.83h0s0,0,0,0c-.36.02-.71.03-1.08.03"/>
  <path class="st0" d="M5.7,20.11h0V0c1.08.33,2.02.76,2.86,1.26v10.94s0,0,0,0v7.73s0,.1,0,.15h0v.02h0v.02h0s0,0,0,0c0,5.27,4.28,9.54,9.54,9.54s9.54-4.27,9.54-9.54-4.27-9.54-9.54-9.54c-.39,0-.78.02-1.16.07-.11-.95-.27-1.89-.5-2.81.55-.07,1.1-.11,1.67-.11,6.85,0,12.4,5.55,12.4,12.4s-5.55,12.4-12.4,12.4-12.39-5.55-12.4-12.39"/>
  <path class="st0" d="M160,21.34h-2.97l-4.72-5.31v5.31h-2.48V5.23h2.48v9.71l4.46-5.11h3.04l-5.06,5.64,5.25,5.87ZM144.63,11.77c.63-1.43,1.81-2.14,3.54-2.14v2.69c-.95-.06-1.78.16-2.48.68-.71.51-1.06,1.36-1.06,2.54v5.8h-2.49v-11.51h2.49v1.93ZM130.72,18.22c.69.7,1.56,1.05,2.6,1.05s1.91-.35,2.6-1.05c.69-.7,1.04-1.58,1.04-2.64s-.35-1.94-1.04-2.64c-.69-.7-1.56-1.05-2.6-1.05s-1.91.35-2.6,1.05c-.69.7-1.04,1.58-1.04,2.64s.35,1.94,1.04,2.64M136.95,9.83h2.48v11.51h-2.48v-1.66c-.94,1.3-2.28,1.96-4.03,1.96-1.58,0-2.93-.59-4.05-1.76-1.12-1.17-1.68-2.6-1.68-4.29s.56-3.14,1.68-4.3c1.12-1.17,2.47-1.75,4.05-1.75,1.75,0,3.09.64,4.03,1.93v-1.63ZM121.01,9.54c1.3,0,2.35.42,3.15,1.27.8.84,1.2,1.98,1.2,3.41v7.13h-2.48v-6.97c0-.8-.2-1.41-.6-1.85-.4-.44-.94-.66-1.63-.66-.77,0-1.38.25-1.83.76-.45.51-.68,1.27-.68,2.28v6.44h-2.49v-6.97c0-.8-.19-1.41-.56-1.85-.38-.44-.91-.66-1.6-.66-.75,0-1.36.26-1.84.77-.48.51-.71,1.27-.71,2.27v6.44h-2.48v-11.51h2.48v1.38c.74-1.12,1.83-1.68,3.29-1.68s2.56.61,3.27,1.82c.77-1.21,1.94-1.82,3.52-1.82M101.55,9.54c1.32,0,2.39.42,3.2,1.27.81.84,1.22,2,1.22,3.47v7.06h-2.48v-6.81c0-.86-.23-1.52-.69-1.98-.46-.46-1.09-.69-1.89-.69-.88,0-1.58.27-2.12.82-.54.54-.8,1.38-.8,2.5v6.17h-2.49V5.23h2.49v6.07c.75-1.18,1.94-1.77,3.57-1.77M88.72,21.64c-1.73,0-3.18-.58-4.34-1.75-1.16-1.17-1.74-2.6-1.74-4.3s.58-3.16,1.74-4.32c1.16-1.16,2.6-1.74,4.34-1.74,1.12,0,2.14.27,3.06.8.92.54,1.61,1.26,2.07,2.16l-2.14,1.24c-.26-.55-.66-.99-1.18-1.3-.53-.32-1.14-.47-1.83-.47-1.01,0-1.86.34-2.54,1.04-.68.69-1.02,1.55-1.02,2.58s.34,1.89,1.02,2.58c.68.69,1.53,1.03,2.54,1.03.67,0,1.28-.16,1.83-.48.55-.32.96-.75,1.23-1.29l2.14,1.22c-.49.92-1.2,1.65-2.12,2.19-.92.54-1.94.81-3.06.81M76.39,9.54c1.32,0,2.39.42,3.2,1.27.81.84,1.22,2,1.22,3.47v7.06h-2.49v-6.81c0-.86-.23-1.52-.69-1.98-.46-.46-1.09-.69-1.89-.69-.87,0-1.58.27-2.12.82-.54.54-.8,1.38-.8,2.5v6.17h-2.49v-11.51h2.49v1.47c.75-1.18,1.94-1.77,3.57-1.77M59.07,14.62h6.77c-.17-.94-.56-1.64-1.16-2.12-.61-.48-1.32-.71-2.13-.71-.92,0-1.69.25-2.3.76-.61.51-1,1.2-1.17,2.07M59.09,16.65c.18.87.61,1.55,1.26,2.01.66.47,1.46.7,2.42.7,1.32,0,2.31-.48,2.97-1.43l2.05,1.2c-1.14,1.67-2.82,2.51-5.04,2.51-1.87,0-3.38-.57-4.53-1.72-1.15-1.14-1.73-2.59-1.73-4.34s.57-3.16,1.7-4.32c1.14-1.16,2.59-1.74,4.37-1.74s3.07.59,4.15,1.77c1.08,1.18,1.62,2.62,1.62,4.3,0,.26-.03.61-.09,1.03h-9.16ZM46.35,18.22c.69.7,1.56,1.05,2.6,1.05s1.91-.35,2.6-1.05c.69-.7,1.03-1.58,1.03-2.64s-.35-1.94-1.03-2.64c-.69-.7-1.56-1.05-2.6-1.05s-1.91.35-2.6,1.05c-.69.7-1.04,1.58-1.04,2.64s.35,1.94,1.04,2.64M49.34,9.54c1.58,0,2.93.58,4.05,1.75,1.12,1.16,1.68,2.6,1.68,4.3s-.56,3.12-1.68,4.29c-1.12,1.17-2.47,1.76-4.05,1.76-1.75,0-3.09-.65-4.03-1.96v1.66h-2.48V5.23h2.48v6.24c.94-1.29,2.28-1.93,4.03-1.93"/>
  <path class="st0" d="M116.2,31.61c-.41.24-.85.33-1.31.33-1.34,0-2.3-.95-2.3-2.24s.95-2.23,2.31-2.23c.68,0,1.25.23,1.75.73l.74-.73c-.6-.68-1.49-1.04-2.55-1.04-1.99,0-3.44,1.37-3.44,3.27s1.45,3.27,3.42,3.27c.9,0,1.83-.27,2.49-.81v-2.53h-1.12v1.98ZM106.97,26.53v4.31l-3.51-4.31h-.97v6.36h1.17v-4.3l3.51,4.3h.97v-6.36h-1.17ZM97.58,32.88h1.18v-6.36h-1.18v6.36ZM91.4,32.88h1.18v-5.36h2.11v-1h-5.4v1h2.11v5.36ZM82.96,30.49l1.19-2.78,1.2,2.78h-2.39ZM86.37,32.88h1.24l-2.87-6.36h-1.16l-2.86,6.36h1.22l.63-1.47h3.18l.64,1.47ZM77.9,32.88v-6.36h-.98l-2.48,4.21-2.53-4.21h-.97v6.36h1.13v-4.16l2.09,3.43h.53l2.09-3.49v4.21h1.13ZM66.03,32.88h1.18v-6.36h-1.18v6.36ZM59.84,32.88h1.18v-5.36h2.11v-1h-5.39v1h2.11v5.36ZM52.89,32.97c1.74,0,2.57-.87,2.57-1.89,0-2.33-3.77-1.45-3.77-2.8,0-.48.4-.87,1.38-.87.55,0,1.18.16,1.75.5l.37-.92c-.55-.36-1.35-.56-2.12-.56-1.74,0-2.56.87-2.56,1.9,0,2.36,3.78,1.46,3.78,2.83,0,.47-.42.83-1.41.83-.78,0-1.59-.29-2.1-.7l-.41.92c.53.45,1.52.76,2.51.76M44.01,31.89v-1.75h3.07v-.97h-3.07v-1.65h3.46v-.99h-4.64v6.36h4.77v-.99h-3.59Z"/>
</svg>