<?xml version="1.0" encoding="UTF-8"?>
<svg id="svg4965" xmlns="http://www.w3.org/2000/svg" xmlns:svg="http://www.w3.org/2000/svg" xmlns:rdf="http://www.w3.org/1999/02/22-rdf-syntax-ns#" xmlns:dc="http://purl.org/dc/elements/1.1/" xmlns:cc="http://creativecommons.org/ns#" version="1.1" viewBox="0 0 300 81.23">
  <!-- Generator: Adobe Illustrator 29.8.2, SVG Export Plug-In . SVG Version: 2.1.1 Build 3)  -->
  <defs>
    <style>
      .st0 {
        fill-rule: evenodd;
      }

      .st0, .st1 {
        fill: #fff;
      }
    </style>
  </defs>
  <g id="layer1">
    <g id="g4940">
      <path id="path1274" class="st1" d="M38.4,64.21l-.21.21c-3.45,3.51-7.44,5.37-11.55,5.37-8.58,0-14.81-6.44-14.81-15.32s6.23-15.31,14.81-15.31c4.11,0,8.1,1.87,11.55,5.39l.21.21,5.52-6.67-.15-.18c-4.59-5.42-10.1-8.06-16.86-8.06s-13,2.29-17.48,6.41c-4.86,4.46-7.43,10.76-7.43,18.22s2.57,13.76,7.43,18.23c4.48,4.14,10.68,6.42,17.48,6.42s12.28-2.64,16.86-8.06l.15-.17-5.52-6.67Z"/>
      <path id="path1276" class="st1" d="M49.49,78.21h9.75V30.62h-9.75v47.59h0Z"/>
      <path id="path1278" class="st1" d="M97.43,67.86c-2.6,1.58-5.02,2.38-7.19,2.38-3.15,0-4.57-1.66-4.57-5.36v-25.25h9.93v-8.96h-9.93v-14.81l-9.55,5.11v9.69h-8.24v8.96h8.24v26.86c0,7.32,4.33,12.32,10.81,12.45,4.39.09,7.04-1.22,8.65-2.18l.09-.07,2.35-9.18-.58.35h0Z"/>
      <path id="path1280" class="st1" d="M105.5,78.21h9.75V30.62h-9.75v47.59h0Z"/>
      <path id="path1282" class="st1" d="M270.73,12.52v45.39l3.04-4.73s13.64-19.74,15.39-22.26h6.08c-1.29,1.74-12.02,16.5-12.02,16.5,0,0,13.98,29.12,14.78,30.78h-5.97c-.33-.68-12.33-26.1-12.33-26.1l-8.96,12.56v13.54h-5.56V15.7c.49-.28,4.25-2.44,5.56-3.18h0ZM225.03,36.56c2.87-4.29,7.37-6.66,12.63-6.66,10.49,0,16.05,6.69,16.05,19.35v28.95h-5.58v-27.75c0-10.77-3.74-15.77-11.84-15.77s-12.38,5.9-12.38,15.77v27.75h-5.56V30.93h5.56v7.33l1.13-1.7ZM190.83,29.91c10.79,0,16.04,4.94,16.04,15.09v33.21h-5.56v-6.9l-1.08,1.19c-4.09,4.52-8.79,6.73-14.39,6.73-4.39,0-14.59-1.45-14.59-14.91,0-11,9.08-14.91,17.59-14.91,4.27,0,8.49.98,11.56,2.7l.92.51v-6.79c0-7.53-3.68-11.34-10.94-11.34-4.48,0-8.52,1.13-12.67,3.47-.37-.84-1.65-3.68-2.01-4.49,4.33-2.28,9.68-3.56,15.14-3.56h0ZM176.7,63.86c0,7.07,3.66,10.96,10.32,10.96,5.66,0,10.69-2.68,14.19-7.54l.1-.17v-10.37l-.31-.18c-3.55-2.02-7.19-2.84-12.53-2.84-7.36,0-11.76,3.79-11.76,10.13ZM133.74,12.52v25.3l1.08-1.18c4.1-4.53,8.63-6.73,13.85-6.73,10.44,0,16.43,8.7,16.43,23.87s-6.8,25.46-17.34,25.46c-5.13,0-9.24-1.99-12.93-6.26l-1.08-1.26v6.5h-5.55V15.7c.47-.28,4.25-2.44,5.55-3.18h0ZM133.87,41.93l-.13.17v24.61l.1.15c3.07,4.75,8.07,7.59,13.39,7.59,8.22,0,12.38-6.93,12.38-20.59,0-12.2-4.62-19.19-12.66-19.19-4.88,0-9.28,2.44-13.08,7.25"/>
      <path id="path1284" class="st0" d="M121.09,22.18C112.17,9.54,97.35,2,82.27,2s-29.89,7.54-38.8,20.18l-.46.65h11.24l.12-.13c7.65-7.89,17.63-12.07,27.9-12.07s20.25,4.17,27.91,12.07l.12.13h11.23l-.45-.65Z"/>
    </g>
  </g>
</svg>