<?xml version="1.0" encoding="UTF-8"?>
<svg id="Layer_1" xmlns="http://www.w3.org/2000/svg" version="1.1" viewBox="0 0 2022 501">
  <!-- Generator: Adobe Illustrator 29.8.2, SVG Export Plug-In . SVG Version: 2.1.1 Build 3)  -->
  <defs>
    <style>
      .st0 {
        fill: #fff;
      }
    </style>
  </defs>
  <polygon class="st0" points="0 2.25 226.5 3.38 226.5 67.12 225.38 68.25 66 68.25 66 228 0 228 0 2.25"/>
  <path class="st0" d="M0,271.5h66v159.75h159.38l1.12,1.12v62.25c0,.39-.92,1.7-.86,2.51l-225.64.11v-225.75Z"/>
  <path class="st0" d="M2022,345.75v12c-6.16,29.2-48.1,33.18-58.32,4.7-12.95-36.11,36.66-57.9,55.19-25.19l3.13,8.49ZM1986.55,327.18c-29.11,4.88-24.17,53.67,9.38,49.13,31.03-4.2,26.35-55.12-9.38-49.13Z"/>
  <path class="st0" d="M1719,273.75c-.31-1.17-2.76-1.12-3,0-2.21.11-4.54.08-6.75,0-50.11-1.87-100.84-.13-151.17-.79-1.16-.58-2.44.77-2.58.79-.68.1-1.53,0-2.25,0l-.47-.64c-.56-.14-.82.57-1.03.64-1.36.44-2.53-.59-3,1.87-1.67,8.58,6.31,25.76,11.69,32.57,27.96,35.38,90.7,27.16,113.69-9.56l.99-.21,44.56,31.08c-18.33,26.47-46.24,43.57-77.79,49.76-68.37,13.42-134.09-14.51-149.15-86.62-15.86-75.89,24.1-148.73,105.86-153.17,81.6-4.43,118.76,46.62,121.19,123.37.06,1.9.43,10.48-.79,10.91ZM1660.5,231c.35-7.32-3.32-15.51-7.33-21.54-27.98-42.12-94.2-25.84-104.42,21.54h111.75Z"/>
  <path class="st0" d="M1313.25,377.25h-58.12c-5.05-5.38-5.18-13.42-6.76-20.26-28.65,21.58-68.03,32.08-103.13,21.39-35.4-10.78-55.39-43.47-50.15-80.17,5.16-36.15,35.37-53.34,68.02-60.98,28.36-6.64,57.67-9.73,85.57-18.31,1.23-12.74-1.54-24.69-13.67-30.81-13.56-6.83-45.2-7.41-58.76-.75-12.05,5.92-13.77,17.88-14.5,30.12l-55.49-2.24v-10.88c0-7.48,6.25-22.16,10.48-28.52,23.28-35.05,75.35-39.32,113.64-35.6,43.19,4.2,72.17,23.3,74.67,69.33,2.41,44.45-2.56,91.4-.07,135.82.63,11.22,3.35,21.8,8.28,31.84ZM1248.75,261.75c-20.49,8.03-42.74,9.8-63.9,15.22-13.57,3.48-28.51,8.7-31.01,24.49-7.71,48.71,78.51,42.37,92.81,5.06.34-.9,2.11-6.53,2.11-6.89v-37.88Z"/>
  <path class="st0" d="M942.6,139.72c83.11-5.47,134.58,50.28,129.94,132.19-4.36,76.93-66.84,120.17-141.19,108.88-133.06-20.22-128.55-231.86,11.25-241.06ZM951.62,190.67c-78.35,1.97-77.84,145.78,7.29,140.11,75.24-5.01,73.84-142.15-7.29-140.11Z"/>
  <path class="st0" d="M1830.6,136.72c46.58-3.27,92.38,10.82,118.58,51.28l-42.33,31.01-1.09-.36c-12.09-19.06-29.96-29.09-52.23-31.81-15.3-1.87-53.03,1.31-49.71,24.22,1.5,10.36,16.75,14.72,25.29,16.7,39.74,9.21,116.1,10.19,121.55,64.45,10.04,99.89-131.53,110.48-192.26,61.76-3.76-3.02-22.1-20.72-22.16-24.37-.04-2.61,37.76-26.66,42.39-30.39.93-.01,10.99,11.37,13.12,13.16,18.73,15.86,48.37,21.61,72.18,17.41,11.96-2.11,29.95-10.83,25.57-25.92-2.65-9.14-19.6-14.28-27.83-16.42-41.7-10.83-112.02-9.6-115.69-67.31-3.21-50.52,38.19-80.17,84.63-83.43Z"/>
  <path class="st0" d="M820.38,206.14l-48.62,21.86c-9.23-31.27-42.65-45.2-72.52-32.39-52.68,22.6-47.68,129.28,14.48,135.04,31.78,2.94,51.44-16.42,62.23-44.21l47.49,24.13c.55.76-.9,3.9-1.32,4.93-41.08,102.46-197.63,85.27-215.91-29.6-13.54-85.1,38.67-151.79,126.9-146.4,36.71,2.24,75.06,26.42,86.8,62.45.45,1.38.99,2.71.47,4.18Z"/>
  <polygon class="st0" points="495.75 271.5 495.75 497.25 270 497.25 270 431.25 429.75 430.5 429.75 272.62 430.88 271.5 495.75 271.5"/>
  <path class="st0" d="M1422,67.5v77.25h50.25v40.5h-49.12l-1.12,1.12v122.25c0,1.34,1.11,6.55,1.55,8.2,5.53,20.89,33.3,12.19,48.7,11.67v45.75c-30.16,6.21-82.47,13.81-99.89-18.99-4.9-9.22-5.68-19.16-6.64-29.36l.03-140.66h-33.75v-40.5h33.75v-46.88l56.25-30.38Z"/>
  <path class="st0" d="M271.5,3v64.5s147.43.06,147.43.06l1.45-1.57c1.73-.37.75,1.29,1.61,1.52,2.12.57,6.09-.42,8.51-.01v157.5c0,.15,2.2,1.06,2.59,1.55l61.91-.05.75.75-66,.75V69h-157.88c-.21,0-2.04-1.16-2.25-1.5V2.96s1.12-.71,1.12-.71l.75.75Z"/>
  <polygon class="st0" points="270.75 2.25 495.75 2.25 495.75 227.25 495 226.5 495 3 271.5 3 270.75 2.25"/>
  <path class="st0" d="M1709.25,273.75h-153.75c.13-.02,1.41-1.37,2.58-.79,50.34.66,101.06-1.08,151.17.79Z"/>
  <path class="st0" d="M1719,273.75c-1,.03-2-.05-3,0,.24-1.12,2.69-1.17,3,0Z"/>
  <path class="st0" d="M1553.25,273.75h-1.5c.2-.07.47-.78,1.03-.64l.47.64Z"/>
  <path class="st0" d="M271.5,3h223.5s0,223.5,0,223.5l-61.91.05c-.38-.49-2.59-1.4-2.59-1.55V67.5c-2.42-.41-6.4.58-8.51.01-.85-.23.12-1.89-1.61-1.52l-1.45,1.57-147.44-.06V3Z"/>
  <path class="st0" d="M1978.5,336.38c.66-1.07,1.5-1.04,2.59-1.16,3.72-.43,15.88.41,18.79,2.29,5.19,3.35,5.36,11.29.35,14.6-1.19.79-4.29.89-3.72,2.27,1.54,1.23,10.03,12.94,8.99,13.88l-6.63-.12c-2.87-5.98-6.07-15.03-14.37-13.38v13.5h-6v-31.88ZM1984.5,349.5h10.88c.22,0,2.29-2.15,2.48-2.78,2.38-7.8-8.72-6.21-13.36-6.22v9Z"/>
</svg>