<?xml version="1.0" encoding="UTF-8"?>
<svg id="svg2233" xmlns="http://www.w3.org/2000/svg" xmlns:svg="http://www.w3.org/2000/svg" xmlns:rdf="http://www.w3.org/1999/02/22-rdf-syntax-ns#" xmlns:dc="http://purl.org/dc/elements/1.1/" xmlns:cc="http://creativecommons.org/ns#" version="1.1" viewBox="0 0 1676.55 1162.62">
  <!-- Generator: Adobe Illustrator 29.8.2, SVG Export Plug-In . SVG Version: 2.1.1 Build 3)  -->
  <defs>
    <style>
      .st0 {
        fill: #fff;
      }
    </style>
  </defs>
  <g id="layer1">
    <path id="path1873" class="st0" d="M121.6,1132.5c-8.64,17.2-26.67,30.11-53.73,30.11-42.11,0-67.87-27.97-67.87-67.34,0-36.76,21.48-68.1,64.97-68.1s61.83,25.6,62.67,51.06h-43.64c-3.59-13.45-12-16.13-17.96-16.13-7.72,0-20.79,5.35-20.79,32.41s13.07,32.41,20.79,32.41c4.66,0,11.08-1.91,15.59-9.48,1.45-2.29,3.06-5.89,3.44-8.94h42.57c0,8.25-2.68,17.58-6.04,24"/>
    <path id="path1875" class="st0" d="M183.29,1162.62c-31.87,0-52.81-19.18-52.81-50.52s22.24-49.83,52.81-49.83,53.81,18.65,53.81,50.52-23.16,49.83-53.81,49.83M183.9,1089.85c-11.16,0-12.23,15.44-12.23,23.46s1.22,23.31,12.23,23.31,12.15-15.44,12.15-23.31-1.22-23.46-12.15-23.46"/>
    <path id="path1877" class="st0" d="M477.02,1158.49v-50.67c0-8.79-2.83-12.38-9.1-12.38s-10.39,5.73-10.39,13.07v49.99h-39.97v-50.52c0-8.79-2.83-12.15-9.1-12.15s-10.62,5.5-10.62,12.84v49.83h-39.21v-50.52c0-8.79-2.83-12.15-9.1-12.15s-10.62,5.5-10.62,12.84v49.83h-39.21v-50.52c0-8.79-2.83-12.15-9.17-12.15s-10.55,5.5-10.55,12.84v49.83h-39.21v-90.8h35.62l.92,8.03c5.89-7.34,15.97-12.69,28.51-12.69s25.22,6.04,29.5,13.99c4.89-7.57,17.04-13.83,29.96-13.83,14.83,0,24.69,7.49,29.35,14.37,4.28-6.88,16.13-14.37,28.66-14.37,15.75,0,24.23,6.42,30.11,14.37,9.1-12.23,21.17-14.37,28.51-14.37,27.9,0,34.55,18.12,34.55,38.37v56.94h-39.44Z"/>
    <path id="path1879" class="st0" d="M573.02,1162.62c-31.87,0-52.89-19.18-52.89-50.52s22.24-49.83,52.89-49.83,53.73,18.65,53.73,50.52-23.08,49.83-53.73,49.83M573.55,1089.85c-11.16,0-12.23,15.44-12.23,23.46s1.3,23.31,12.23,23.31,12.15-15.44,12.15-23.31-1.22-23.46-12.15-23.46"/>
    <path id="path1881" class="st0" d="M690.26,1158.34v-50.37c0-8.79-3.74-12.23-10.01-12.23s-10.62,5.58-10.62,12.92v49.68h-39.21v-90.65h36.23l.31,9.09c7.57-9.09,17.73-13.76,28.51-13.76,13.07,0,34.55,7.49,34.55,30.8v64.51h-39.74Z"/>
    <path id="path1883" class="st0" d="M860.55,1158.34l-41.04-.22s-5.35-15.9-7.49-25.99c-3.59-12.15-3.97-17.35-3.97-17.35,0,0-.16,5.2-3.59,17.35-1.91,9.32-7.49,26.22-7.49,26.22h-41.35l-27.29-90.65h42.65s4.89,15.59,6.65,24.38c2.68,10.01,3.21,15.9,3.21,15.9,0,0,.53-5.73,3.44-15.9,1.99-9.4,6.8-24.38,6.8-24.38h35.85s4.82,14.98,6.8,24.38c3.06,10.7,3.36,15.9,3.36,15.9,0,0,.38-5.04,3.44-15.9,1.76-8.64,6.57-24.38,6.57-24.38h40.66l-27.21,90.64Z"/>
    <path id="path1885" class="st0" d="M922.08,1119.28c.23,9.09,4.13,16.97,14.75,16.97,4.97,0,11.24-2.52,13.07-8.03h37.6c-.69,3.9-2.9,8.56-4.82,11.62-10.09,15.06-29.2,22.55-47.46,22.55-33.55,0-53.58-19.87-54.5-48.31-.69-25.3,13.99-51.82,51.59-51.82,34.78,0,55.87,21.32,55.87,57.02h-66.11ZM936.3,1085.42c-7.72,0-12.92,6.04-13.61,13.76h26.68c-.77-7.34-5.96-13.76-13.07-13.76"/>
    <path id="path1887" class="st0" d="M1056.76,1158.34l-1.07-8.1c-6.65,6.8-20.41,12.15-30.8,12.15-6.65,0-21.71-1.23-29.58-11.77-6.27-8.64-6.96-22.62-1.45-31.57,7.57-12,24.92-16.43,42.11-18.65,6.27-.69,15.06-2.67,15.06-8.18,0-4.36-2.29-8.1-8.03-8.1s-10.78,4.81-10.78,10.93h-37.3l.23-1.07c3.9-21.63,19.72-32.56,46.55-32.56,45.32,0,50.67,15.75,50.9,42.96l.31,25.45c.23,17.35,1.07,21.32,2.9,28.51h-39.05ZM1051.71,1118.21s-5.2,1.6-10.01,2.98c-3.06.92-10.7,2.37-10.7,8.48,0,3.06,2.45,6.8,7.87,6.57,10.17-.33,12.84-6.27,12.84-15.21v-2.83Z"/>
    <path id="path1889" class="st0" d="M1101.32,1030.39h39.21v127.95h-39.21v-127.95Z"/>
    <path id="path1891" class="st0" d="M1188.99,1161.32c-25.99,0-32.94-12.53-32.94-36.69v-31.87h-12v-25.07h12v-37.3h39.21v37.3h15.44v25.07h-15.44v24.69c0,8.79,2.9,14.37,11.69,14.37,1.38,0,3.21-.22,4.97-.55.92-.22.92-.39.92-.39v25.6c-7.34,3.36-15.75,4.81-23.85,4.81"/>
    <path id="path1893" class="st0" d="M1317.77,1158.34h-39.29v-50.22c0-8.79-3.9-12.38-10.24-12.38s-10.39,5.81-10.39,13.15v49.45h-40.82v-127.95h37.99v46.39c5.96-7.34,17.2-13.76,28.36-13.76,13.22,0,34.39,7.49,34.39,30.8v64.51Z"/>
    <path id="path1895" class="st0" d="M1406.21,1090.69c11.31-3.36,18.88-13.68,18.88-27.21,0-20.64-14.83-33.02-39.52-33.02h-49.22v128.1h50.6c27.44,0,43.8-13.61,43.8-36.54,0-20.18-15.13-29.27-24.53-31.34M1347.58,1097.11h39.36c12.15,0,32.56,3.21,32.56,24.76,0,23.08-20.41,26.52-32.56,26.52h-39.36v-51.29ZM1386.95,1086.8h-39.36v-46.17h37.99c10.55,0,28.28,2.98,28.28,23.16,0,14.83-9.55,23.01-26.9,23.01"/>
    <path id="path1897" class="st0" d="M1516.42,1149.01l-1.22.17-4.05.28c-2.14,0-5.12-.84-5.12-8.33v-49.83c0-17.35-11.08-26.52-32.1-26.52s-32.87,10.09-34.7,28.59l-.16,1.07h10.7l.08-.84c.54-4.51,1.99-8.41,4.2-11.39,3.97-5.27,10.7-8.03,19.34-8.03,20.56,0,22.17,12.84,22.17,16.82v2.67c0,5.73-3.67,7.34-9.17,7.95-13.15,1.84-29.5,4.74-39.06,10.39-4.05,2.22-7.49,5.58-9.25,8.87-3.9,6.96-4.13,17.81-.53,25.76,4.13,9.17,13.91,14.22,27.36,14.22s24.53-6.04,30.96-16.97v1.3c.23,9.25,4.66,13.76,13.53,13.76l7.18-1.3-.16-.77v-7.85ZM1495.56,1109.8v13.3c0,7.34-5.58,28.13-30.11,28.13-11.77,0-19.95-7.11-19.95-17.35,0-13.53,10.32-16.36,21.32-19.34,8.41-2.22,20.48-4.05,28.74-4.74"/>
    <path id="path1899" class="st0" d="M1560.52,1064.71c-12.46,0-23.24,6.8-28.43,16.89v-14.37h-10.55v91.34h10.55v-50.98c0-20.03,11.24-33.4,28.13-33.4,14.83,0,22.09,8.87,22.09,27.06v57.32h10.47v-57.32c0-9.02,0-36.54-32.25-36.54"/>
    <path id="path1901" class="st0" d="M1637.87,1101.55c1.15-1.15,35.92-34.32,35.92-34.32h-14.22s-42.73,40.82-45.86,43.8v-80.56h-10.55v128.1h10.55v-34.47c.61-.55,14.75-13.45,16.28-14.83,1.22,1.84,33.71,49.3,33.71,49.3h12.84s-37.76-55.64-38.67-57.02"/>
  </g>
  <polygon class="st0" points="997.03 480.11 999.51 477.63 1143.93 333.2 810.8 0 348.53 462.26 795.76 909.56 995.54 483.28 997.03 480.11"/>
  <polygon class="st0" points="810.8 924.61 1274.36 462.27 1158.11 347.31 1158.07 347.35 1158.11 347.39 1013.99 491.42 1013.65 491.77 810.8 924.61"/>
</svg>