<?xml version="1.0" encoding="UTF-8"?>
<svg id="Layer_1" xmlns="http://www.w3.org/2000/svg" version="1.1" viewBox="0 0 795.68 251.58">
  <!-- Generator: Adobe Illustrator 29.8.2, SVG Export Plug-In . SVG Version: 2.1.1 Build 3)  -->
  <defs>
    <style>
      .st0 {
        fill: #f2320a;
      }
    </style>
  </defs>
  <path class="st0" d="M754.51,0h41.17v247.25h-41.16V0ZM655.29,78.65c-48.79,0-86.66,39.31-86.66,87.09s37.87,85.64,86.66,85.64c27.8,0,52.49-10.29,68.56-32.32l-28-24.5c-8.85,11.53-21.42,19.15-40.56,19.15-21.4,0-39.53-13.6-45.5-33.97h122.09c.62-5.35,1.03-10.5,1.03-16.27,0-45.28-30.67-84.81-77.61-84.81h-.01ZM610.42,147.4c5.97-19.36,22.02-32.94,44.87-32.94s36.24,15.24,38.29,32.94h-83.16ZM519.82,26.14h-41.17v221.32h41.17V118.78h39.94v-36.22h-39.94V26.14ZM460.13,82.55h-48.79l-38.71,49.81-37.46-49.81h-49.41l60.52,78.84-65.88,86.06h49.41l41.17-55.17,40.56,55.17h49.62l-64.65-85.24,63.62-79.66Z"/>
  <path class="st0" d="M203.2,78.65c-47.56,0-87.09,38.5-87.09,86.47s39.53,86.47,87.09,86.47,87.09-38.5,87.09-86.47-39.53-86.47-87.09-86.47h0ZM203.2,214.11c-26.76,0-47.56-21.42-47.56-49.21s20.81-49.21,47.56-49.21,47.56,21.42,47.56,49.19-20.81,49.21-47.56,49.21h0ZM70.41,65.05c0-19.54,6.17-28.62,23.68-28.62h23.06V.21h-26.15C54.78.21,29.04,16.48,29.04,65.26v17.52H0v36.23h29.04v128.68h41.18V118.99h39.93v-36.22h-39.93v-17.7h.21v-.02Z"/>
</svg>