<?xml version="1.0" encoding="UTF-8"?>
<svg id="Layer_1" xmlns="http://www.w3.org/2000/svg" version="1.1" viewBox="0 0 403.6 82.6">
  <!-- Generator: Adobe Illustrator 29.8.2, SVG Export Plug-In . SVG Version: 2.1.1 Build 3)  -->
  <defs>
    <style>
      .st0 {
        fill: #79726f;
      }

      .st1 {
        fill: #63c9d5;
      }
    </style>
  </defs>
  <rect class="st0" x="294.7" y="1.1" width="11.8" height="64.3"/>
  <path class="st0" d="M349.8,32.2c3.3,0,5.9-2.6,5.9-5.9v-4.6h-11.2v-13.1h-11.7v43.9c0,8.4,5.3,13.5,13.9,13.5,3.5,0,5.6-.6,6.7-1.1v-9.8c-.6.2-2.2.4-3.6.4-3.4,0-5.2-1.2-5.2-5.1v-18.2h5.2Z"/>
  <path class="st1" d="M281.6,14.6c4.1,0,7.3-3.3,7.3-7.2C288.9,3.3,285.7,0,281.6,0s-7.3,3.3-7.3,7.4c0,3.9,3.3,7.2,7.3,7.2"/>
  <path class="st0" d="M275.7,59.5V21.7h11.8v43.7h-6c-3.2,0-5.8-2.7-5.8-5.9"/>
  <path class="st1" d="M319.4,14.6c4.1,0,7.3-3.3,7.3-7.2C326.7,3.3,323.5,0,319.4,0s-7.3,3.3-7.3,7.4,3.3,7.2,7.3,7.2"/>
  <path class="st0" d="M313.7,59.5V21.7h11.8v43.7h-6c-3.2,0-5.8-2.7-5.8-5.9"/>
  <path class="st0" d="M403.6,21.7h-6.3c-3.3,0-6.7,1.6-8.1,4.7l-9,19.7-9-19.7c-1.4-3.1-4.8-4.8-8.1-4.7h-7.5l18.5,37.8-10.6,23.1h12.5l27.6-60.9Z"/>
  <path class="st0" d="M29.3,43.3h19.9c-.7,4.4-5.2,12.3-16.9,12.3-10.6,0-19.9-7.4-19.9-21.6,0-14.9,10.3-21.4,19.8-21.4,7.7,0,12.5,3.6,15.2,7.8h13.6C57.9,10.7,48.7,1.1,32.3,1.1S0,13.6,0,33.9s14.5,32.8,31.5,32.8c9.5,0,15.7-4.3,18.6-8.5v.4h0v.9c0,3.2,2.6,5.9,5.8,5.9h4.9v-6.4h0v-26.4h-31.5v10.7Z"/>
  <path class="st0" d="M90.3,20.5c-.7-.1-1.4-.1-2.2-.1-12.6,0-22.8,10.2-22.8,22.8v22.3h11.8v-22.4c0-6.1,4.9-11,11-11,.7,0,1.5.1,2.2.2v-11.8Z"/>
  <path class="st0" d="M118,47.7c0,7.7-4.6,10.1-9.6,10.1-3.8,0-5.7-2.5-5.7-5.1,0-3.4,2.4-5.1,5.4-5.5l9.9-1.5s0,2,0,2ZM129.6,37c0-8.8-5.2-16.6-19-16.6-11.5,0-17.8,7.2-18.7,14h11.1c1.2-2.6,3.8-4.5,7.7-4.5,5,0,7.4,2.6,7.4,5.7,0,1.5-.8,2.8-3.3,3.1l-10.8,1.6c-7.3,1.1-13.1,5.4-13.1,13.2,0,6.8,5.7,13.2,15,13.2,6.5,0,10.7-3,12.9-6.5v.1h0c.4,2.9,2.8,5.1,5.8,5.1h4.9l.1-28.4Z"/>
  <path class="st0" d="M156.5,55.9c6,0,10.8-4.6,10.8-12.5s-4.7-12.2-10.8-12.2-10.8,4.4-10.8,12.3,4.6,12.4,10.8,12.4M178.7,65.4h-11.3v-5.1c-2,3.5-6.4,6.1-12.3,6.1-12.4,0-21.3-9.8-21.3-23s8.6-22.8,21-22.8c7.6,0,11.1,3.1,12.4,5.4V1h11.6l-.1,64.4Z"/>
  <path class="st0" d="M210,47.7c0,7.7-4.6,10.1-9.6,10.1-3.8,0-5.7-2.5-5.7-5.1,0-3.4,2.4-5.1,5.4-5.5l9.9-1.5v2h0ZM221.6,37c0-8.8-5.2-16.6-19-16.6-11.5,0-17.8,7.2-18.7,14h11.1c1.2-2.6,3.8-4.5,7.7-4.5,5,0,7.4,2.6,7.4,5.7,0,1.5-.8,2.8-3.3,3.1l-10.8,1.6c-7.3,1.1-13.1,5.4-13.1,13.2,0,6.8,5.7,13.2,15,13.2,6.5,0,10.7-3,12.9-6.5v.1h0c.4,2.9,2.8,5.1,5.8,5.1h4.9l.1-28.4Z"/>
  <path class="st0" d="M248.9,31.1c-6,0-10.9,4.4-10.9,12.4s5,12.4,10.9,12.4,10.8-4.4,10.8-12.4c0-8-4.8-12.4-10.8-12.4M226.5,65.4V1.1h11.6v25.4c2-3.1,6.8-6,13.2-6,12.8,0,20.2,9.9,20.2,22.8s-8.2,23.1-20.6,23.1c-6,0-10.7-2.7-13-6.4v5.3h-11.4v.1Z"/>
</svg>