<?xml version="1.0" encoding="UTF-8"?>
<svg id="Iress_Logos" xmlns="http://www.w3.org/2000/svg" version="1.1" viewBox="0 0 721.76 562.21">
  <!-- Generator: Adobe Illustrator 29.8.2, SVG Export Plug-In . SVG Version: 2.1.1 Build 3)  -->
  <defs>
    <style>
      .st0 {
        fill: #fff;
      }
    </style>
  </defs>
  <path class="st0" d="M650.35,383.02c26.45,0,51.23-13.11,51.23-40.75,0-45.04-65.05-33.84-65.05-49.09,0-4.29,5-8.34,13.58-8.34,7.86,0,13.82,3.57,13.82,9.53v2.38h35.27v-2.38c0-23.11-19.78-40.03-48.85-40.03s-49.09,16.68-49.09,41.23c0,44.08,64.82,31.93,64.82,48.85,0,5-5.96,8.1-14.3,8.1-9.05,0-16.68-3.81-16.68-10.72v-2.86h-35.5v2.86c0,23.83,20.25,41.23,50.76,41.23M537.64,383.02c26.45,0,51.23-13.11,51.23-40.75,0-45.04-65.05-33.84-65.05-49.09,0-4.29,5-8.34,13.58-8.34,7.86,0,13.82,3.57,13.82,9.53v2.38h35.27v-2.38c0-23.11-19.78-40.03-48.85-40.03s-49.09,16.68-49.09,41.23c0,44.08,64.82,31.93,64.82,48.85,0,5-5.96,8.1-14.3,8.1-9.05,0-16.68-3.81-16.68-10.72v-2.86h-35.5v2.86c0,23.83,20.25,41.23,50.76,41.23M399.91,303.67c.47-13.58,6.91-20.73,19.3-20.73,11.44,0,16.68,5.96,16.68,17.87v2.86h-35.98ZM418.98,254.34c-34.32,0-54.81,20.49-54.81,52.66v22.64c0,32.17,20.49,53.38,54.81,53.38,31.69,0,53.14-16.44,53.14-42.18h-35.74v2.38c0,6.67-9.05,11.2-16.92,11.2-11.2,0-19.54-6.67-19.54-23.12v-2.15h72.44v-28.36c0-26.45-22.16-46.47-53.38-46.47M346.06,255.29c-12.15,0-25.26,4.05-35.27,12.39l-6.91-9.77h-23.59v121.53h35.74v-64.57c0-16.92,11.75-28.54,32.6-28.54h3.15v-30.8c-1.91-.24-3.81-.24-5.72-.24M218.81,379.45h35.74v-121.53h-35.74v121.53ZM218.81,245.05h35.74v-34.79h-35.74v34.79Z"/>
  <path class="st0" d="M423.54,236.55l-43.41-202.31c-1.12-5.23-4.89-11.65-12.1-13.99-6.1-1.98-12.6-.42-17.83,4.27L27.45,314.21c-1.5,1.35-6.44,6.37-6.86,14.23-.28,5.28,1.62,10.47,5.34,14.6l165.51,183.44c2.4,2.66,6.12,5.33,10.69,6.81,3.66,1.19,7.87,1.62,12.37.66l240.97-51.36c1.98-.42,8.76-2.31,13.03-8.91,2.88-4.44,3.82-9.88,2.65-15.31l-14.22-66.24c-8.41,3.97-18.31,6.49-29.4,7.31l11.93,55.61-227.88,48.57L55.05,330.12,354.9,60.98l38.44,179.16c7.82-2.42,16.53-3.76,26.15-3.76,1.38,0,2.7.1,4.05.16"/>
</svg>