<?xml version="1.0" encoding="UTF-8"?>
<svg id="svg2" xmlns="http://www.w3.org/2000/svg" xmlns:svg="http://www.w3.org/2000/svg" version="1.1" viewBox="0 0 450 340.99">
  <!-- Generator: Adobe Illustrator 29.8.2, SVG Export Plug-In . SVG Version: 2.1.1 Build 3)  -->
  <defs>
    <style>
      .st0 {
        fill: #fff;
      }

      .st0, .st1, .st2 {
        fill-rule: evenodd;
      }

      .st1 {
        fill: #d52b1e;
      }

      .st2 {
        fill: #fdc82f;
      }
    </style>
  </defs>
  <g id="g12">
    <path id="path18" class="st1" d="M22.73,0C10.18,0,0,10.18,0,22.73v295.52C0,330.81,10.18,340.99,22.73,340.99h404.54c12.55,0,22.73-10.18,22.73-22.73V22.73c0-12.55-10.18-22.73-22.73-22.73H22.73"/>
    <path id="path20" class="st2" d="M190.28,153.86c6.12-45.28,26.31-126.94,64.8-126.94,44.94,0,97.75,150.96,97.73,275.95h-41.44c0-131.09-32.11-249.2-55.21-249.21-24.1,0-45.22,80.34-45.22,233.42h-41.39c0-153.08-20.99-233.42-45.22-233.42s-55.15,118.14-55.15,249.21H27.74c.04-125.09,52.71-275.96,97.73-275.95,38.44.01,58.63,81.65,64.81,126.94"/>
    <path id="path22" class="st1" d="M163.2,252.64h190.9v-48.24h-190.9v48.24h0Z"/>
    <path id="path24" class="st0" d="M334.84,247.8h12.01v-39.52h-12.01v39.52Z"/>
    <path id="path26" class="st0" d="M391.03,208.28h8.18l-2.78,10.77h-5.95l.55-10.77"/>
    <path id="path28" class="st0" d="M413.3,214.13c7.99,0,15.5,2.02,15.53,9.86h-11.41c0-2.7-1.58-3.93-4.24-3.93-1.58,0-3.72.66-3.72,3.13,0,4.11,6.5,3.29,12.02,4.93,4.96,1.47,8.39,4.43,8.39,9.2,0,7.32-5.74,11.36-16.58,11.41-11.37.05-15.65-4.05-15.69-11.41h11.56c0,2.78,1.73,4.43,4.16,4.43,2.92,0,4.24-1.11,4.24-3.17,0-4.3-7.97-4.18-12.67-5.72-3.2-1.05-6.1-3.42-6.1-8.44,0-4.2,3.15-10.28,14.49-10.28"/>
    <path id="path30" class="st0" d="M167.29,235.82c-1.99,7.86-8.51,12.95-16.64,12.95-9.81,0-17.28-7.43-17.27-18.17,0-10.73,6.64-18.16,17.27-18.17,8.81,0,14.88,5.11,16.7,12.98h-11.24c-.86-2.36-2.52-4.21-5.46-4.21-4.96,0-6.27,5.26-6.27,9.4,0,4.15,1.31,9.4,6.27,9.4,2.93,0,4.58-1.83,5.45-4.18h11.19"/>
    <path id="path32" class="st0" d="M84.42,208.28h14.35l6.25,23.35,6.25-23.35h14.36l6.28,40.49h-11.84l-3.13-23.66-6.47,23.66h-10.89l-6.47-23.66-3.13,23.66h-11.85l6.29-40.49"/>
    <path id="path34" class="st0" d="M268.5,228.44v19.37h-11.88v-34.53h11.88v2.7c3.01-2.34,5.72-3.55,11.89-3.55,6.69,0,12.09,4.47,12.09,9.17v26.21h-11.96v-19c0-3.16-2.82-5.73-5.9-5.73-3.96,0-5.93,3.5-6.11,5.37"/>
    <path id="path36" class="st0" d="M374.45,216.7v-8.42h12.01v39.52h-12.01v-1.92c-1.58,1.42-3.65,2.88-8.82,2.88-5.83,0-15.08-3.24-15.09-17.14,0-13.88,9.25-17.49,15.84-17.49,4.78,0,7.04,1.65,8.07,2.57ZM361.99,231.62c0,5.4,2.51,8.86,6.64,8.86,2.48,0,4.55-1.08,5.83-3.33v-10.37c-.64-2.29-2.86-3.98-5.83-3.98-4.14,0-6.64,3.41-6.64,8.82"/>
    <path id="path38" class="st0" d="M216.75,230.61c0-10.73,6.97-18.16,18.12-18.17,11.15,0,18.11,7.44,18.12,18.17,0,10.75-6.97,18.17-18.12,18.17-11.14,0-18.13-7.43-18.12-18.17ZM241.75,230.61c0-4.15-1.43-9.4-6.88-9.4-5.45,0-6.88,5.25-6.88,9.4,0,4.15,1.44,9.4,6.88,9.4s6.88-5.25,6.88-9.4"/>
    <path id="path40" class="st0" d="M171.47,208.28h20.64c12.91,0,21.71,8.02,21.71,20.24s-8.8,20.25-21.71,20.25h-20.64v-40.49ZM185.13,239.2h6.24c4.04,0,8.96-2.47,8.96-10.67s-4.92-10.67-8.96-10.67h-6.24v21.35"/>
    <path id="path42" class="st0" d="M313.9,212.43c8.52,0,15.55,3.13,16.1,10.01v25.36h-12.02v-3.42c-2.92,2.5-5.83,4.38-11.08,4.38-6.12,0-11.05-4.84-11.05-10.51s3.49-11.97,17.48-11.97c3.61,0,4.65-1.42,4.66-3.11,0-2.07-2.39-3.23-4.39-3.23s-4.27.83-4.27,3h-11.26c0-5.09,3.42-10.5,15.85-10.51ZM313.23,231.89c-2.77,0-5.34,1.48-5.34,4.32,0,1.84,1.09,3.42,3.92,3.42,2.71,0,5.6-1.61,6.16-4.94v-3.16c-.92.5-2.99.37-4.74.37"/>
    <path id="path44" class="st2" d="M371.2,275.92h7.38c3.65,0,6.09,1.96,6.09,4.55,0,2.39-1.84,3.97-4.12,4.16v.08c3.5,1.18,4,3.61,4.05,6.91h-3.3c-.12-3.97-.98-5.69-4.48-5.69h-2.71v5.69h-2.9s0-15.71,0-15.71ZM374.1,283.42h3.46c2.71,0,3.81-.94,3.81-2.71,0-1.34-.82-2.28-3.34-2.28h-3.93s0,4.99,0,4.99ZM377.24,270.46c7.46,0,13.51,6.01,13.51,13.51s-6.05,13.51-13.51,13.51-13.51-6.01-13.51-13.51,6.05-13.51,13.51-13.51ZM377.24,296.02c6.64,0,12.05-5.38,12.05-12.05s-5.42-12.05-12.05-12.05-12.05,5.38-12.05,12.05,5.42,12.05,12.05,12.05"/>
  </g>
</svg>