<?xml version="1.0" encoding="UTF-8"?>
<svg id="svg2" xmlns="http://www.w3.org/2000/svg" xmlns:svg="http://www.w3.org/2000/svg" version="1.1" viewBox="0 0 450 340.99">
  <!-- Generator: Adobe Illustrator 29.8.2, SVG Export Plug-In . SVG Version: 2.1.1 Build 3)  -->
  <defs>
    <style>
      .st0 {
        fill: #fff;
      }
    </style>
  </defs>
  <path class="st0" d="M374.46,237.15v-10.37c-.64-2.29-2.86-3.98-5.83-3.98-4.14,0-6.64,3.41-6.64,8.82s2.51,8.86,6.64,8.86c2.48,0,4.55-1.08,5.83-3.33Z"/>
  <path class="st0" d="M377.24,271.92c-6.63,0-12.05,5.38-12.05,12.05s5.42,12.05,12.05,12.05,12.05-5.38,12.05-12.05-5.42-12.05-12.05-12.05ZM384.58,291.63h-3.3c-.12-3.97-.98-5.69-4.48-5.69h-2.71v5.69h-2.9v-15.71h7.38c3.65,0,6.09,1.96,6.09,4.55,0,2.39-1.84,3.97-4.12,4.16v.08c3.5,1.18,4,3.61,4.05,6.91Z"/>
  <path class="st0" d="M381.36,280.71c0-1.34-.82-2.28-3.34-2.28h-3.93v4.99h3.46c2.71,0,3.81-.94,3.81-2.71Z"/>
  <path class="st0" d="M427.27,0H22.73C10.18,0,0,10.18,0,22.73v295.52c0,12.55,10.18,22.73,22.73,22.73h404.54c12.55,0,22.73-10.18,22.73-22.73V22.73C450,10.18,439.82,0,427.27,0ZM346.85,225.35v22.45h-12.01v-39.52h12.01v17.07ZM27.74,302.87c.04-125.09,52.71-275.96,97.73-275.95,38.44.01,58.63,81.65,64.81,126.94,6.12-45.28,26.31-126.94,64.8-126.94,33.4,0,71.13,83.36,88.31,177.48h-37.89c-10.33-86.4-32.29-150.73-49.34-150.74-19.3,0-36.69,51.56-42.85,150.74h-46.11c-6.13-99.18-23.46-150.74-42.86-150.74-23.06,0-55.15,118.14-55.15,249.21H27.74ZM309.58,248.55c-.83.12-1.71.21-2.69.21-6.12,0-11.05-4.84-11.05-10.51,0-4.85,2.55-10.15,12.01-11.59,1.61-.25,3.42-.38,5.46-.38,3.61,0,4.65-1.42,4.66-3.11,0-2.07-2.39-3.23-4.39-3.23s-4.27.83-4.27,3h-11.26c0-3.88,2-7.94,8.46-9.66,2.01-.53,4.44-.85,7.38-.85,8.52,0,15.55,3.13,16.1,10.01v25.36h-12.02v-3.42c-2.37,2.03-4.76,3.64-8.39,4.17ZM274.61,223.07c-3.96,0-5.93,3.5-6.11,5.37v19.37h-11.88v-34.53h11.88v2.7c3.01-2.34,5.72-3.55,11.89-3.55,6.69,0,12.09,4.47,12.09,9.17v26.21h-11.96v-19c0-3.16-2.82-5.73-5.9-5.73ZM252.99,230.61c.01,10.75-6.97,18.17-18.12,18.17-11.14,0-18.13-7.43-18.12-18.17,0-10.73,6.97-18.16,18.12-18.17,11.15,0,18.11,7.44,18.12,18.17ZM211.73,237.92c-3.33,6.76-10.42,10.85-19.62,10.85h-20.64v-40.49h20.64c9.89,0,17.35,4.72,20.31,12.41.9,2.35,1.4,4.97,1.4,7.83,0,3.51-.75,6.67-2.09,9.4ZM120.06,248.77l-3.13-23.66-6.47,23.66h-10.89l-6.47-23.66-3.13,23.66h-11.85l6.29-40.49h14.35l6.25,23.35,6.25-23.35h14.36l6.28,40.49h-11.84ZM133.38,230.6c0-10.73,6.64-18.16,17.27-18.17,5.28,0,9.56,1.84,12.55,5,2,2.12,3.42,4.82,4.15,7.97h-4.15s-7.09,0-7.09,0c-.86-2.36-2.52-4.21-5.46-4.21-4.96,0-6.27,5.26-6.27,9.4,0,4.15,1.31,9.4,6.27,9.4,2.93,0,4.58-1.83,5.45-4.18h7.1s4.09,0,4.09,0c-.76,2.99-2.18,5.58-4.09,7.65-3.11,3.35-7.52,5.3-12.55,5.31-9.81,0-17.28-7.43-17.27-18.17ZM210.94,287.08h-41.39c0-11.92-.13-23.4-.37-34.44h42.14c-.25,11.04-.38,22.52-.38,34.44ZM311.38,302.87c0-17.04-.55-33.86-1.54-50.23h40.38c1.69,16.92,2.6,33.8,2.6,50.23h-41.44ZM354.1,243.55c-2.11-2.62-3.55-6.44-3.56-11.93,0-5.45,1.43-9.31,3.56-12,3.3-4.16,8.28-5.49,12.28-5.49,4.78,0,7.04,1.65,8.07,2.57v-8.42h12.01v39.52h-12.01v-1.92c-1.58,1.42-3.65,2.88-8.82,2.88-3.53,0-8.3-1.19-11.53-5.21ZM377.24,297.48c-7.46,0-13.51-6.01-13.51-13.51s6.05-13.51,13.51-13.51,13.51,6.01,13.51,13.51-6.05,13.51-13.51,13.51ZM390.48,219.05l.55-10.77h8.18l-2.78,10.77h-5.95ZM413.3,248.73c-11.37.05-15.65-4.05-15.69-11.41h11.56c0,2.78,1.73,4.43,4.16,4.43,2.92,0,4.24-1.11,4.24-3.17,0-4.3-7.97-4.18-12.67-5.72-3.2-1.05-6.1-3.42-6.1-8.44,0-4.2,3.15-10.28,14.49-10.28h0c7.99,0,15.5,2.02,15.53,9.86h-11.41c0-2.7-1.58-3.93-4.24-3.93-1.58,0-3.72.66-3.72,3.13,0,4.11,6.5,3.29,12.02,4.93,4.96,1.47,8.39,4.43,8.39,9.2,0,7.32-5.74,11.36-16.58,11.41Z"/>
  <path class="st0" d="M227.99,230.61c0,4.15,1.44,9.4,6.88,9.4s6.88-5.25,6.88-9.4c0-4.15-1.43-9.4-6.88-9.4-5.45,0-6.88,5.25-6.88,9.4Z"/>
  <path class="st0" d="M191.37,217.85h-6.24v21.35h0s6.24,0,6.24,0c4.04,0,8.96-2.47,8.96-10.67s-4.92-10.67-8.96-10.67Z"/>
  <path class="st0" d="M313.23,231.89c-1.96,0-3.81.74-4.73,2.18-.38.59-.61,1.31-.61,2.14,0,.95.3,1.83.98,2.46.63.59,1.58.96,2.94.96,2.71,0,5.6-1.61,6.16-4.94v-3.16c-.92.5-2.99.37-4.74.37Z"/>
</svg>