<?xml version="1.0" encoding="UTF-8"?>
<svg id="Layer_1" xmlns="http://www.w3.org/2000/svg" version="1.1" viewBox="0 0 647.41 632.55">
  <!-- Generator: Adobe Illustrator 29.8.2, SVG Export Plug-In . SVG Version: 2.1.1 Build 3)  -->
  <defs>
    <style>
      .st0 {
        fill: #fff;
      }
    </style>
  </defs>
  <path class="st0" d="M164.04,291.99h-88.64c-2.42,0-4.37,1.95-4.37,4.37v28.86c0,2.42,1.95,4.37,4.37,4.37h58.91v58.91c0,2.43,1.96,4.38,4.38,4.38h28.85c2.42,0,4.38-1.95,4.38-4.38v-88.64c0-4.35-3.53-7.87-7.88-7.87"/>
  <path class="st0" d="M256.39,160.6c0,13.38-3.93,17.31-17.32,17.31h-12.95c-13.38,0-17.32-3.93-17.32-17.31v-89.43c0-23.69-5.84-36.86-24.74-36.86s-31.76,15.3-31.76,37.82v88.47c0,13.38-3.94,17.31-17.32,17.31h-12.75c-13.38,0-17.31-3.93-17.31-17.31v-89.43c0-23.69-5.95-36.86-24.86-36.86s-31.76,18.38-31.76,39.73v86.56c0,13.38-3.93,17.31-17.31,17.31h-12.75c-13.39,0-17.32-3.93-17.32-17.31V21.24C.95,7.86,4.87,3.94,18.26,3.94h8.6c16.67,0,21.45,4.78,21.45,21.03l.21.11C57.45,11.16,74.34,0,95.48,0c26.55,0,40.78,10.62,48.33,27.62C154.95,11.47,172.9,0,197.54,0c50.14,0,58.85,34.1,58.85,79.76v80.83Z"/>
  <path class="st0" d="M233.16,258.47c-13.16,0-23.83-10.5-23.83-23.74s10.68-23.39,23.83-23.39,23.56,10.14,23.56,23.39-10.32,23.74-23.56,23.74"/>
  <path class="st0" d="M239.4,289.03c13.38,0,17.31,3.93,17.31,17.31v139.46c0,13.39-3.93,17.32-17.31,17.32h-12.75c-13.38,0-17.31-3.93-17.31-17.32v-139.46c0-13.38,3.93-17.31,17.31-17.31h12.75Z"/>
  <path class="st0" d="M311.35,463.11c-13.38,0-17.32-3.93-17.32-17.31v-139.35c0-13.39,3.94-17.32,17.32-17.32h8.71c16.67,0,21.45,4.78,21.45,21.03l.21.11c8.93-13.92,27.51-25.06,49.92-25.06,50.45,0,59.59,34.09,59.59,79.76v80.83c0,13.38-3.94,17.31-17.32,17.31h-12.75c-13.39,0-17.32-3.93-17.32-17.31v-89.44c0-23.68-6.9-36.86-27.62-36.86s-34.73,18.38-34.73,39.72v86.57c0,13.38-3.93,17.31-17.31,17.31h-12.85Z"/>
  <path class="st0" d="M600.23,353.38c0-15.38-10.49-36.78-36.16-36.78-28.47,0-38.97,26.6-38.97,36.78h75.13ZM564.9,463.11c-55.39,0-89.16-37.61-89.16-88.54s35.75-89.37,89.16-89.37c22.23,0,75.33,7.59,82.31,80.64.1,1.45.21,2.7.21,3.95,0,9.87-4.69,12.98-16.32,12.98h-106.62c0,19.44,13.51,47.91,47.49,47.91,16.41,0,31.59-5.82,43.95-18.82,3.75-3.95,6.44-6.02,9.77-6.02,2.07,0,4.36.83,7.37,2.7l.83.52c4.78,2.6,7.17,5.1,7.17,8.32,0,1.97-.93,4.26-2.7,7.06-13.92,21.93-36.06,38.66-73.47,38.66"/>
  <path class="st0" d="M167.24,215.24H4.38c-2.42,0-4.38,1.95-4.38,4.37v30.59c0,2.42,1.96,4.38,4.38,4.38h162.85c2.41,0,4.37-1.96,4.37-4.38v-30.59c0-2.42-1.95-4.37-4.37-4.37"/>
  <path class="st0" d="M239.67,553.41c-17.28-4.98-28.77-9.85-28.77-25.4,0-17.76,16.91-26.49,33.37-26.49,13.92,0,24.26,6.4,30.33,17.33.71,1.25,1.03,2.22,1.03,3.1,0,1.51-1.13,2.54-3.52,3.57l-.49.21c-1.3.6-2.28.87-3.14.87-1.67,0-2.76-1.08-4.38-3.14-4.45-5.69-10.46-9.05-18.41-9.05s-16.75,3.69-16.75,12.09c0,7.52,8.07,9.53,21.46,13.33,18.31,5.14,28.71,11.21,28.71,26.43,0,19.89-18.57,28.01-36.13,28.01s-27.84-8.51-33.75-18.74c-.76-1.36-1.13-2.38-1.13-3.25,0-1.52,1.13-2.6,3.46-3.78l.54-.29c1.36-.7,2.44-1.03,3.37-1.03,1.56,0,2.76,1.03,4.44,3.09,5.19,6.56,11.86,10.84,22.48,10.84,8.88,0,18.15-3.52,18.15-12.78s-8.35-11.33-20.86-14.9"/>
  <path class="st0" d="M370.21,585.59c0,5.15-1.52,6.66-6.66,6.66h-5.1c-5.14,0-6.66-1.51-6.66-6.66v-6.67l-.12-.04c-5.74,9.1-16.25,15.38-28.54,15.38-25.4,0-29.79-18.31-29.79-40.46v-43.6c0-5.15,1.52-6.67,6.66-6.67h5.04c5.14,0,6.66,1.52,6.66,6.67v48.21c0,13.92,4.01,21.67,17.44,21.67,12.13,0,22.65-10.73,22.65-23.24v-46.64c0-5.15,1.52-6.67,6.66-6.67h5.1c5.14,0,6.66,1.52,6.66,6.67v75.4Z"/>
  <path class="st0" d="M402.74,503.52c5.15,0,6.67,1.52,6.67,6.67v6.5l.11.05c6.06-9.64,16.36-15.23,28.48-15.23,26.39,0,41.11,22.65,41.11,46.97s-14.94,45.78-41.05,45.78c-14.09,0-23.46-7.7-28.65-14.19v45.82c0,5.15-1.52,6.67-6.67,6.67h-5.09c-5.15,0-6.67-1.52-6.67-6.67v-115.7c0-5.15,1.52-6.67,6.67-6.67h5.09ZM433.94,581.2c18.08,0,25.35-15.87,25.35-33.75,0-16.91-8.24-32.71-25.95-32.71-10.72,0-23.94,8.28-23.94,23.34v19.99c0,12.61,11.16,23.13,24.54,23.13"/>
  <path class="st0" d="M538.88,594.26c-28.06,0-45.12-19.62-45.12-46.16s18.09-46.59,45.07-46.59c11.37,0,38.73,3.95,41.59,42.36.38,5.15-1.29,6.67-6.44,6.67h-60.83c0,11.42,7.48,30.17,28.44,30.17,10.35,0,18.85-4.33,25.46-12.24,1.41-1.74,2.49-2.65,3.86-2.65.86,0,1.83.37,3.03,1.13l.44.27c2,1.13,2.98,2.12,2.98,3.46,0,.81-.33,1.74-1.04,2.93-6.77,11.59-17.93,20.65-37.43,20.65M561.8,538.62c0-9.42-5.86-24.15-23.4-24.15-19.82,0-25.02,19.12-25.02,24.15h48.42Z"/>
  <path class="st0" d="M595.63,510.19c0-5.15,1.52-6.66,6.66-6.66h2.6c7.2,0,9.27,1.51,9.27,6.66v5.63h.11c4.28-8.07,13.54-14.3,23.89-14.3l1.51.05c5.47.6,6.56,2.44,6.56,7.91v3.46c0,3.63-.92,5.1-3.41,5.1-.82,0-1.79-.16-2.93-.43-1.68-.38-3.53-.65-5.47-.65-11,0-20.26,8.56-20.26,21.45v47.17c0,5.15-1.52,6.67-6.66,6.67h-5.2c-5.14,0-6.66-1.52-6.66-6.67v-75.4Z"/>
</svg>