<?xml version="1.0" encoding="UTF-8"?>
<svg id="Layer_1" xmlns="http://www.w3.org/2000/svg" version="1.1" viewBox="0 0 673.5 259.37">
  <!-- Generator: Adobe Illustrator 29.8.2, SVG Export Plug-In . SVG Version: 2.1.1 Build 3)  -->
  <defs>
    <style>
      .st0 {
        fill: #fff;
      }
    </style>
  </defs>
  <path class="st0" d="M370.83,73.12c-14.35-.49-28.2,5.26-37.98,15.77l-2.23-12.22-35.67,1.98v18.49l10.07,1.24v96.43h33.02v-79.09c9.74-10.32,15.69-14.7,26.01-14.7s16.51,8.26,16.51,25.59v68.19h33.02v-74.3c0-30.96-14.78-47.39-42.77-47.39Z"/>
  <path class="st0" d="M625.7,73.45c-12.16-.16-23.94,4.22-33.02,12.3V31.02l-43.51,1.65v18.41l11.97,1.49v137.05c15.74,4.85,32.08,7.43,48.55,7.68,40.54,0,63.82-23.94,63.82-66.05,0-35.5-18.33-57.79-47.8-57.79ZM611.66,170.71c-6.46-.07-12.84-1.36-18.82-3.8v-50.03c6.12-8.97,16-14.66,26.83-15.44,13.13,0,19.81,11.31,19.81,33.52,0,16.51-4.79,35.75-27.82,35.75Z"/>
  <path class="st0" d="M532.24,115.31c0-28.15-16.51-41.86-49.54-41.86-14.7.07-29.3,2.58-43.18,7.43l-1.82.66,5.94,24.77,2.31-.91c10.52-4.17,21.71-6.38,33.02-6.52,18.16,0,21.63,6.6,21.63,18.91v3.88h-12.05c-39.3,0-59.11,13.13-59.11,39.22,0,23.12,15.36,36.9,41.28,36.9,12.61.2,24.87-4.17,34.51-12.3.66,3.22,1.82,9.16,1.82,9.16l36.24-1.07v-18.49l-11.06-1.07v-58.7ZM500.21,162.62c-6.02,6.3-14.25,10.03-22.95,10.4-7.11,1.16-13.81-3.67-14.97-10.78-.16-.99-.21-2-.14-3.01,0-6.44,2.72-14.94,26.01-14.94h12.05v18.33Z"/>
  <path class="st0" d="M253.76,71.57c-.81-1.12-2.22-1.62-3.55-1.25h-17.59c-1.22,0-2.38.51-3.22,1.4l-64.4,68.52c-.58.66-1.16.91-1.49.66s0-.74,0-1.49l55.32-66.87c.3-.48.3-1.09,0-1.57-.3-.55-.86-.89-1.49-.91h-22.54c-1.82.16-3.51,1.01-4.71,2.39-10.49,11.15-62.58,66.63-63.65,67.86-1.07,1.24-1.16.91-1.49.66s0-.74,0-1.49l54.08-66.05c1.19-.97,1.86-2.43,1.82-3.96,0-.74-14.61-66.05-14.78-66.71-.29-1.8-1.98-3.03-3.78-2.74-.87.14-1.65.62-2.16,1.34l-43.18,53.17-61.59-29.89c-1.34-1.24-3.43-1.15-4.67.19-.97,1.05-1.15,2.61-.45,3.86l14.2,66.71L2.78,125.05c-1.8.29-3.03,1.98-2.74,3.78.23,1.41,1.33,2.52,2.74,2.74l61.67,30.22-15.19,66.87c-.9,1.58-.35,3.6,1.23,4.51,1.22.7,2.75.54,3.8-.38l61.59-29.14,42.93,53.66c.69,1.69,2.61,2.5,4.3,1.81,1.3-.53,2.12-1.82,2.05-3.22l15.52-66.46h68.77c1.74.56,3.6-.39,4.16-2.13.45-1.39-.07-2.91-1.27-3.74l-42.35-53.75,43.01-53.66c1.48-1.07,1.81-3.13.74-4.61Z"/>
</svg>