<?xml version="1.0" encoding="UTF-8"?>
<svg id="Layer_1" xmlns="http://www.w3.org/2000/svg" version="1.1" viewBox="0 0 366 219.91">
  <!-- Generator: Adobe Illustrator 29.8.2, SVG Export Plug-In . SVG Version: 2.1.1 Build 3)  -->
  <g>
    <path d="M125.23,130.69h1.42l4.74,11.69c.45,1.1.61,1.42,1.84,1.45v1.03h-6.54v-1.03c.32,0,1.06.06,1.32-.23.26-.26.1-.55,0-.84l-.81-2.19h-4.77c-.19.58-.55,1.22-.55,1.9,0,1.1,1,1.35,1.87,1.32v1.03h-5.35v-1.03c1.48-.16,2.13-1.71,2.64-2.93l4.22-10.21h0l-.03.03ZM126.68,139.42l-1.84-4.8-1.93,4.8h3.77Z"/>
    <path d="M134.92,130.98h7.15v1.03c-.55.06-1.35-.13-1.77.29-.19.19-.16.64-.16.87v6.38c0,.74,0,1.84.26,2.54.29.68.58.97,1.26,1.26.58.26,1.1.35,1.74.35,1.03,0,2.13-.35,2.74-1.26.64-.9.64-1.96.64-3.03v-4.99c0-.93,0-2.03-1.1-2.32-.29-.13-.64-.1-.97-.13v-1.03h5.32v1.03c-1.77.06-2,1.03-2.06,2.61v5.48c0,.68-.06,1.22-.26,1.87-.32,1.13-1.13,2.16-2.16,2.64-.87.45-2.16.55-3.12.55-1.22,0-3-.23-4.03-.97-1.26-.9-1.61-2.16-1.61-3.67v-7.83c0-.26-.03-.45-.32-.58-.35-.13-1.35-.13-1.58-.13v-1.03.06h.03Z"/>
    <path d="M152.9,139.61h.9c.74,2.19,2.51,4.54,5.03,4.54,1.32,0,2.71-.61,2.71-2.19,0-1.29-.87-1.8-2-2.03l-1.35-.26c-1.39-.29-2.54-.55-3.7-1.42-.97-.74-1.58-1.93-1.58-3.16,0-2.96,2.29-4.38,4.93-4.38,1.19,0,2.29.32,3.29,1.06l1-.93h.81l.23,5.03h-.93c-.71-2.06-2.32-4.16-4.64-4.16-1.19,0-2.54.58-2.54,2s1.22,1.77,2.32,2l1.16.23c2.67.58,5.22,1.39,5.22,4.74,0,1.32-.55,2.54-1.58,3.41-.93.77-2.22,1.06-3.45,1.06-1.35,0-2.67-.42-3.7-1.29l-1.19,1.16h-.84l-.16-5.41h.1Z"/>
    <path d="M166.46,136.2l.29-5.22h12.34l.29,5.22h-.93c-.26-1.8-1.13-4.28-3.22-4.28-.23,0-.61.06-.64.35v10.57c0,.71,0,.87.71.97.48.06.97,0,1.42.03v1.03h-7.54v-1.03c.58,0,1.1-.06,1.64-.1.16,0,.35-.19.39-.39.1-.23.06-.52.06-.74v-10.34c0-.29-.42-.35-.64-.35-2.09,0-2.96,2.58-3.22,4.28,0,0-.93,0-.93,0Z"/>
    <path d="M189.17,130.98h1.42c1.1.06,2.09.19,3.06.81.81.55,1.35,1.64,1.35,2.67,0,2.38-2,3.32-4.03,3.45h0c1.55.39,2.42,1.29,2.8,2.93l.29,1.19c.1.45.19.87.35,1.26,0,.06.1.13.16.23.97.39,1.06-1.19,1.13-1.8h.93c0,.39,0,.77-.1,1.13-.29,1.64-1.64,2.29-3.16,2.29-.81,0-1.55-.26-2.13-.87-.52-.55-.64-1.29-.71-2.03l-.06-1.16c-.1-1.61-.19-2.77-1.96-2.87h-1.42v5.06c.1.39.23.48.61.52.32.06.64.03.97.06h.48v1.03h-7.34v-1.03h1.03c.9,0,.9-.32.93-1.13v-8.92c0-.32.06-1.29-.16-1.55-.32-.32-.77-.23-1.22-.26h-.58v-1.03h7.38l-.03.03ZM187.08,137.16c.52,0,1,0,1.48-.03,1.84-.06,2.87-.68,2.87-2.74,0-1.87-.93-2.42-2.64-2.42-.45,0-.93,0-1.35.13-.35.19-.39.71-.39,1.1v3.99h0l.03-.03Z"/>
    <path d="M204.95,130.69h1.42l4.74,11.69c.45,1.1.61,1.42,1.84,1.45v1.03h-6.54v-1.03c.32,0,1.06.06,1.32-.23.23-.26.1-.55,0-.84l-.81-2.19h-4.77c-.23.58-.55,1.22-.55,1.9,0,1.1,1,1.35,1.87,1.32v1.03h-5.35v-1.03c1.48-.16,2.13-1.71,2.64-2.93l4.22-10.21h-.03v.03ZM206.4,139.42l-1.84-4.8-1.93,4.8h3.77Z"/>
    <path d="M214.71,144.86v-1.03c.48.03,1-.03,1.48-.06.45-.03.45-.58.45-.97v-9.12c0-1.61.13-1.64-1.45-1.71h-.48v-1.03h7.38v1.03h-1.19c-.84,0-.9.26-.9,1.03v9.5c0,.74,0,1.16.81,1.22.42.06.81.06,1.22.06,2.74,0,3.93-1.55,4.45-4.16h.97l-.23,5.19h-12.5v.03Z"/>
    <path d="M230.14,144.86v-1.03h1.19c.84-.1.77-.55.77-1.32v-9.99c-.1-.23-.06-.39-.32-.45-.32-.1-.68-.06-1-.1h-.58v-1.03h7.28v1.03h-.61c-.39,0-.9-.06-1.19.26-.1.1-.13.26-.16.35-.06.19,0,.42,0,.64v9.63c0,.29,0,.74.35.87.1.03.19,0,.29.03.29.06.58.03.9.06h.45v1.03h-7.38Z"/>
    <path d="M246.22,130.69h1.39l4.77,11.69c.45,1.1.61,1.42,1.84,1.45v1.03h-6.54v-1.03c.32,0,1.06.06,1.32-.23.23-.26.1-.55,0-.84l-.81-2.19h-4.77c-.23.58-.58,1.22-.58,1.9,0,1.1,1,1.35,1.87,1.32v1.03h-5.35v-1.03c1.48-.16,2.13-1.71,2.64-2.93l4.22-10.21h0v.03ZM247.67,139.42l-1.84-4.8-1.93,4.8h3.77Z"/>
    <path d="M163.59,148.6s6.44,2.67,9.44,9.08c0,0-5.8-1.77-9.44-9.08"/>
    <path d="M154.02,148.82s6.44,2.67,9.44,9.08c0,0-5.8-1.77-9.44-9.08"/>
    <path d="M126.64,149.34s5.93,2.45,8.7,8.34c0,0-5.35-1.64-8.7-8.34"/>
    <path d="M134.92,148.6s6.44,2.67,9.44,9.08c0,0-5.8-1.77-9.44-9.08"/>
    <path d="M144.17,148.41s6.44,2.64,9.47,9.08c0,0-5.8-1.77-9.47-9.08"/>
    <path d="M118.11,148.08s5.93,2.45,8.7,8.34c0,0-5.35-1.64-8.7-8.34"/>
    <path d="M110.44,144.93s5.35,3.61,6.93,9.95c0,0-4.93-2.67-6.93-9.95"/>
    <path d="M103.1,139.74s4.19,4.96,3.99,11.53c0,0-4.03-3.96-3.99-11.53"/>
    <path d="M95.43,135.94s4.32,4.86,4.28,11.44c0,0-4.12-3.87-4.28-11.44"/>
    <path d="M88.76,129.56s3.8,5.28,3.12,11.82c0,0-3.7-4.28-3.12-11.82"/>
    <path d="M79.84,140.13s6.35-.68,11.47,3.25c0,0-5.48,1.1-11.47-3.25"/>
    <path d="M87.09,149.27s6.06-2.06,11.89.61c0,0-5.09,2.29-11.89-.61"/>
    <path d="M95.01,156.46s5.44-3.45,11.69-2.22c0,0-4.45,3.45-11.69,2.22"/>
    <path d="M104.67,161.55s5.03-4.06,11.37-3.54c0,0-4.06,3.93-11.37,3.54"/>
    <path d="M114.53,165.38s4.28-4.9,10.6-5.51c0,0-3.32,4.61-10.6,5.51"/>
    <path d="M124.71,167.64s3.54-5.48,9.7-7.09c0,0-2.64,5.06-9.7,7.09"/>
    <path d="M133.51,168.73s3.74-6.09,10.28-7.86c0,0-2.8,5.64-10.28,7.86"/>
    <path d="M143.39,168.99s3.8-6.22,10.4-8.02c0,0-2.83,5.73-10.4,8.02"/>
    <path d="M154.06,169.28s2.74-5.93,8.63-8.41c0,0-1.93,5.38-8.63,8.41"/>
    <path d="M246.31,158.13s-15.46,1.55-57.15,1.1h-6.44c-41.68.45-57.15-1.1-57.15-1.1-21.9-2.45-37.17-19.04-37.17-19.04,9.66,12.18,26.41,18.59,37.17,19.91,9.37,1.16,41.49.93,54.63,1.1-4.51.93-10.05,2.83-14.88,6.67h3.45s5.15-5.12,17.2-6.38c12.02,1.22,17.2,6.38,17.2,6.38h3.45c-4.83-3.83-10.34-5.73-14.85-6.67,13.14-.13,45.26.06,54.63-1.1,10.76-1.32,27.51-7.73,37.17-19.91,0,0-15.24,16.59-37.17,19.04"/>
    <path d="M208.3,148.6s-6.44,2.67-9.47,9.08c0,0,5.8-1.77,9.47-9.08"/>
    <path d="M217.84,148.82s-6.44,2.67-9.44,9.08c0,0,5.8-1.77,9.44-9.08"/>
    <path d="M245.25,149.34s-5.93,2.45-8.7,8.34c0,0,5.35-1.64,8.7-8.34"/>
    <path d="M236.97,148.6s-6.44,2.67-9.47,9.08c0,0,5.8-1.77,9.47-9.08"/>
    <path d="M227.73,148.41s-6.44,2.64-9.44,9.08c0,0,5.8-1.77,9.44-9.08"/>
    <path d="M253.79,148.08s-5.93,2.45-8.7,8.34c0,0,5.35-1.64,8.7-8.34"/>
    <path d="M261.45,144.93s-5.35,3.61-6.89,9.95c0,0,4.9-2.67,6.89-9.95"/>
    <path d="M268.8,139.74s-4.19,4.96-3.99,11.53c0,0,3.99-3.96,3.99-11.53"/>
    <path d="M276.47,135.94s-4.28,4.86-4.28,11.44c0,0,4.12-3.87,4.28-11.44"/>
    <path d="M283.13,129.56s-3.8,5.28-3.12,11.82c0,0,3.7-4.28,3.12-11.82"/>
    <path d="M292.06,140.13s-6.35-.68-11.47,3.25c0,0,5.48,1.1,11.47-3.25"/>
    <path d="M284.81,149.27s-6.06-2.06-11.85.61c0,0,5.09,2.29,11.85-.61"/>
    <path d="M276.88,156.46s-5.44-3.45-11.69-2.22c0,0,4.45,3.45,11.69,2.22"/>
    <path d="M267.22,161.55s-5.03-4.06-11.37-3.54c0,0,4.06,3.93,11.37,3.54"/>
    <path d="M257.36,165.38s-4.28-4.9-10.63-5.51c0,0,3.32,4.61,10.63,5.51"/>
    <path d="M247.18,167.64s-3.54-5.48-9.73-7.09c0,0,2.64,5.06,9.73,7.09"/>
    <path d="M238.39,168.73s-3.74-6.09-10.28-7.86c0,0,2.8,5.64,10.28,7.86"/>
    <path d="M228.5,168.99s-3.8-6.22-10.44-8.02c0,0,2.83,5.73,10.44,8.02"/>
    <path d="M217.81,169.28s-2.74-5.93-8.63-8.41c0,0,1.93,5.38,8.63,8.41"/>
    <path d="M187.88,156.46c1,0,1.84-.84,1.84-1.87s-.81-1.87-1.84-1.87-1.84.84-1.84,1.87.81,1.87,1.84,1.87"/>
    <path d="M193.45,153.46c1.16,0,2.13-1,2.13-2.19s-.93-2.19-2.13-2.19-2.13.97-2.13,2.19.97,2.19,2.13,2.19"/>
    <path d="M179.73,157.2c.93,0,1.68-.77,1.68-1.74s-.74-1.71-1.68-1.71-1.68.77-1.68,1.71.74,1.74,1.68,1.74"/>
    <path d="M185.95,168.28c1.35,0,2.42-1.13,2.42-2.51s-1.1-2.51-2.42-2.51-2.45,1.13-2.45,2.51,1.1,2.51,2.45,2.51"/>
    <path d="M185.17,162.71c.23,0,.42-.19.42-.42s-.19-.42-.42-.42-.42.19-.42.42.19.42.42.42"/>
    <path d="M182.5,165.54c.23,0,.42-.19.42-.42s-.19-.42-.42-.42-.42.19-.42.42.19.42.42.42"/>
    <path d="M182.92,164.25c.23,0,.42-.19.42-.42s-.19-.42-.42-.42-.42.19-.42.42.19.42.42.42"/>
    <path d="M183.92,163.26c.23,0,.42-.19.42-.42s-.19-.42-.42-.42-.42.19-.42.42.19.42.42.42"/>
    <path d="M186.69,162.71c-.23,0-.42-.19-.42-.42s.19-.42.42-.42.42.19.42.42-.19.42-.42.42"/>
    <path d="M187.98,163.26c-.23,0-.42-.19-.42-.42s.19-.42.42-.42.42.19.42.42-.19.42-.42.42"/>
    <path d="M185.17,168.8c.23,0,.42.19.42.42s-.19.42-.42.42-.42-.19-.42-.42.19-.42.42-.42"/>
    <path d="M182.5,165.99c.23,0,.42.19.42.42s-.19.42-.42.42-.42-.19-.42-.42.19-.42.42-.42"/>
    <path d="M182.92,167.25c.23,0,.42.19.42.42s-.19.42-.42.42-.42-.19-.42-.42.19-.42.42-.42"/>
    <path d="M183.92,168.28c.23,0,.42.19.42.42,0,.26-.19.45-.42.45s-.42-.19-.42-.45c0-.23.19-.42.42-.42"/>
    <path d="M186.69,168.8c-.23,0-.42.19-.42.42s.19.42.42.42.42-.19.42-.42-.19-.42-.42-.42"/>
    <path d="M187.98,168.28c-.23,0-.42.19-.42.42,0,.26.19.45.42.45s.42-.19.42-.45c0-.23-.19-.42-.42-.42"/>
    <path d="M179.67,164.96c.23,0,.39-.19.39-.39s-.19-.39-.39-.39-.39.19-.39.39c0,.23.16.39.39.39"/>
    <path d="M177.19,167.6c.23,0,.39-.19.39-.39s-.16-.39-.39-.39-.39.19-.39.39.16.39.39.39"/>
    <path d="M177.54,166.44c.23,0,.39-.16.39-.39s-.16-.42-.39-.42-.39.19-.39.42.16.39.39.39"/>
    <path d="M178.47,165.48c.23,0,.39-.19.39-.39s-.16-.39-.39-.39-.39.19-.39.39.16.39.39.39"/>
    <path d="M181.08,164.96c-.19,0-.39-.19-.39-.39s.16-.39.39-.39.39.19.39.39c0,.23-.16.39-.39.39"/>
    <path d="M179.67,170.7c.23,0,.39.16.39.39s-.19.39-.39.39-.39-.19-.39-.39.16-.39.39-.39"/>
    <path d="M177.19,168.06c.23,0,.39.19.39.39s-.16.39-.39.39-.39-.19-.39-.39.16-.39.39-.39"/>
    <path d="M177.54,169.25c.23,0,.39.16.39.39s-.16.39-.39.39-.39-.19-.39-.39.16-.39.39-.39"/>
    <path d="M178.47,170.18c.23,0,.39.19.39.39s-.16.39-.39.39-.39-.19-.39-.39.16-.39.39-.39"/>
    <path d="M181.08,170.7c-.19,0-.39.16-.39.39s.16.39.39.39.39-.19.39-.39-.16-.39-.39-.39"/>
    <path d="M183.21,169.25c-.23,0-.39.16-.39.39s.16.39.39.39.39-.19.39-.39-.16-.39-.39-.39"/>
    <path d="M182.31,170.18c-.23,0-.39.19-.39.39s.16.39.39.39.39-.19.39-.39-.16-.39-.39-.39"/>
    <path d="M192.71,148.47c.23,0,.39-.16.39-.39s-.16-.39-.39-.39-.39.19-.39.39.16.39.39.39"/>
    <path d="M190.23,151.11c.19,0,.39-.19.39-.39s-.16-.39-.39-.39-.39.16-.39.39.16.39.39.39"/>
    <path d="M190.62,149.92c.23,0,.39-.19.39-.39s-.16-.39-.39-.39-.39.19-.39.39.16.39.39.39"/>
    <path d="M191.52,148.98c.23,0,.39-.19.39-.42s-.16-.39-.39-.39-.39.19-.39.39c0,.23.16.42.39.42"/>
    <path d="M194.13,148.47c-.23,0-.39-.16-.39-.39s.16-.39.39-.39.39.19.39.39-.16.39-.39.39"/>
    <path d="M196.61,151.11c-.19,0-.39-.19-.39-.39s.16-.39.39-.39.39.16.39.39-.16.39-.39.39"/>
    <path d="M196.22,149.92c-.19,0-.39-.19-.39-.39s.19-.39.39-.39.39.19.39.39-.16.39-.39.39"/>
    <path d="M195.32,148.98c-.23,0-.39-.19-.39-.42s.16-.39.39-.39.39.19.39.39c0,.23-.16.42-.39.42"/>
    <path d="M192.71,154.17c.23,0,.39.16.39.39s-.16.39-.39.39-.39-.19-.39-.39.16-.39.39-.39"/>
    <path d="M190.23,151.53c.19,0,.39.16.39.39s-.16.39-.39.39-.39-.19-.39-.39.16-.39.39-.39"/>
    <path d="M190.62,152.72c.23,0,.39.16.39.39s-.16.39-.39.39-.39-.19-.39-.39c0-.23.16-.39.39-.39"/>
    <path d="M191.52,153.66c.23,0,.39.19.39.39s-.16.39-.39.39-.39-.19-.39-.39.16-.39.39-.39"/>
    <path d="M194.13,154.17c-.23,0-.39.16-.39.39s.16.39.39.39.39-.19.39-.39-.16-.39-.39-.39"/>
    <path d="M196.61,151.53c-.19,0-.39.16-.39.39s.16.39.39.39.39-.19.39-.39-.16-.39-.39-.39"/>
    <path d="M196.22,152.72c-.19,0-.39.16-.39.39s.19.39.39.39.39-.19.39-.39c0-.23-.16-.39-.39-.39"/>
    <path d="M195.32,153.66c-.23,0-.39.19-.39.39s.16.39.39.39.39-.19.39-.39-.16-.39-.39-.39"/>
    <path d="M187.33,152.05c.19,0,.32-.16.32-.35s-.16-.35-.32-.35-.32.16-.32.35.16.35.32.35"/>
    <path d="M185.14,154.33c.19,0,.32-.16.32-.35s-.16-.35-.32-.35c-.19,0-.35.16-.35.35s.16.35.35.35"/>
    <path d="M185.46,153.3c.19,0,.32-.16.32-.35s-.16-.35-.32-.35-.35.16-.35.35.16.35.35.35"/>
    <path d="M186.27,152.46c.19,0,.32-.16.32-.32s-.16-.35-.32-.35-.32.16-.32.35.16.32.32.32"/>
    <path d="M188.56,152.05c-.19,0-.32-.16-.32-.35s.16-.35.32-.35.32.16.32.35-.16.35-.32.35"/>
    <path d="M187.33,157.01c.19,0,.32.16.32.35s-.16.32-.32.32-.32-.16-.32-.32c0-.19.16-.35.32-.35"/>
    <path d="M185.14,154.72c.19,0,.32.16.32.35s-.16.35-.32.35c-.19,0-.35-.16-.35-.35s.16-.35.35-.35"/>
    <path d="M185.46,155.75c.19,0,.32.16.32.32s-.16.35-.32.35-.35-.16-.35-.35.16-.32.35-.32"/>
    <path d="M186.27,156.55c.19,0,.32.16.32.35s-.16.32-.32.32-.32-.16-.32-.32.16-.35.32-.35"/>
    <path d="M188.56,157.01c-.19,0-.32.16-.32.35s.16.32.32.32.32-.16.32-.32c0-.19-.16-.35-.32-.35"/>
    <path d="M190.72,154.72c-.19,0-.32.16-.32.35s.16.35.32.35.32-.16.32-.35-.16-.35-.32-.35"/>
    <path d="M190.39,155.75c-.19,0-.32.16-.32.32s.13.35.32.35.32-.16.32-.35-.16-.32-.32-.32"/>
    <path d="M189.59,156.55c-.19,0-.32.16-.32.35s.16.32.32.32.32-.16.32-.32-.16-.35-.32-.35"/>
    <path d="M179.18,153.2s.32-.13.32-.29-.13-.32-.32-.32-.29.16-.29.32.13.29.29.29"/>
    <path d="M177.22,155.27s.29-.13.29-.29-.13-.29-.29-.29-.29.13-.29.29.13.29.29.29"/>
    <path d="M177.54,154.33s.29-.16.29-.32c0-.19-.13-.32-.29-.32s-.29.13-.29.32c0,.16.13.32.29.32"/>
    <path d="M178.25,153.59s.29-.13.29-.29-.13-.29-.29-.29-.29.13-.29.29.13.29.29.29"/>
    <path d="M180.28,153.2s-.29-.13-.29-.29.13-.32.29-.32.29.16.29.32-.13.29-.29.29"/>
    <path d="M182.24,155.27s-.29-.13-.29-.29.13-.29.29-.29.29.13.29.29-.13.29-.29.29"/>
    <path d="M181.95,154.33s-.29-.16-.29-.32c0-.19.13-.32.29-.32s.29.13.29.32c0,.16-.13.32-.29.32"/>
    <path d="M181.24,153.59s-.29-.13-.29-.29.13-.29.29-.29.29.13.29.29-.13.29-.29.29"/>
    <path d="M179.18,157.65s.32.13.32.32c0,.16-.13.29-.32.29s-.29-.13-.29-.29.13-.32.29-.32"/>
    <path d="M177.22,155.62s.29.13.29.29-.13.32-.29.32-.29-.16-.29-.32.13-.29.29-.29"/>
    <path d="M177.54,156.52s.29.13.29.29c0,.19-.13.32-.29.32s-.29-.13-.29-.32c0-.16.13-.29.29-.29"/>
    <path d="M178.25,157.26s.29.13.29.29c0,.19-.13.29-.29.29s-.29-.13-.29-.29.13-.29.29-.29"/>
    <path d="M180.28,157.65s-.29.13-.29.32c0,.16.13.29.29.29s.29-.13.29-.29-.13-.32-.29-.32"/>
    <path d="M182.24,155.62s-.29.13-.29.29.13.32.29.32.29-.16.29-.32-.13-.29-.29-.29"/>
    <path d="M181.95,156.52s-.29.13-.29.29c0,.19.13.32.29.32s.29-.13.29-.32c0-.16-.13-.29-.29-.29"/>
    <path d="M181.24,157.26s-.29.13-.29.29c0,.19.13.29.29.29s.29-.13.29-.29-.13-.29-.29-.29"/>
    <path d="M192.16,167.67c1.1,0,1.96-.9,1.96-2.03s-.87-2.03-1.96-2.03-1.96.9-1.96,2.03.87,2.03,1.96,2.03"/>
    <path d="M191.55,163.06c.19,0,.35-.16.35-.35s-.16-.39-.35-.39-.35.16-.35.39c0,.19.16.35.35.35"/>
    <path d="M189.27,165.48c.19,0,.35-.16.35-.35s-.16-.35-.35-.35-.35.16-.35.35.16.35.35.35"/>
    <path d="M189.62,164.41c.19,0,.35-.16.35-.35s-.16-.35-.35-.35-.35.16-.35.35.16.35.35.35"/>
    <path d="M190.46,163.51c.19,0,.35-.16.35-.35s-.16-.35-.35-.35-.35.16-.35.35.16.35.35.35"/>
    <path d="M192.87,163.06c-.19,0-.35-.16-.35-.35s.16-.39.35-.39.35.16.35.39c0,.19-.16.35-.35.35"/>
    <path d="M195.19,165.48c-.19,0-.35-.16-.35-.35s.16-.35.35-.35.35.16.35.35-.16.35-.35.35"/>
    <path d="M194.84,164.41c-.19,0-.35-.16-.35-.35s.16-.35.35-.35.35.16.35.35-.16.35-.35.35"/>
    <path d="M193.97,163.51c-.19,0-.35-.16-.35-.35s.16-.35.35-.35.35.16.35.35-.16.35-.35.35"/>
    <path d="M191.55,168.31c.19,0,.35.16.35.35s-.16.35-.35.35-.35-.16-.35-.35.16-.35.35-.35"/>
    <path d="M189.27,165.9c.19,0,.35.16.35.35s-.16.35-.35.35-.35-.16-.35-.35.16-.35.35-.35"/>
    <path d="M189.62,166.99c.19,0,.35.16.35.35s-.16.35-.35.35-.35-.16-.35-.35.16-.35.35-.35"/>
    <path d="M190.46,167.86c.19,0,.35.16.35.35s-.16.35-.35.35-.35-.16-.35-.35.16-.35.35-.35"/>
    <path d="M192.87,168.31c-.19,0-.35.16-.35.35s.16.35.35.35.35-.16.35-.35-.16-.35-.35-.35"/>
    <path d="M195.19,165.9c-.19,0-.35.16-.35.35s.16.35.35.35.35-.16.35-.35-.16-.35-.35-.35"/>
    <path d="M194.84,166.99c-.19,0-.35.16-.35.35s.16.35.35.35.35-.16.35-.35-.16-.35-.35-.35"/>
    <path d="M193.97,167.86c-.19,0-.35.16-.35.35s.16.35.35.35.35-.16.35-.35-.16-.35-.35-.35"/>
    <path d="M182.4,168.7c-.97-1.1-.84-2.74-.84-2.74-.35-.26-.74-.35-1.19-.35-1.22,0-2.19,1-2.19,2.25s1,2.25,2.19,2.25c.93,0,1.74-.58,2.06-1.45"/>
    <path d="M196.16,15.43l4.38-7.76-9.28,1.42-4.35-9.08-4.35,9.08-9.28-1.42,4.38,7.76-6.57,6.6,8.34,1v9.05l7.47-5.61,7.47,5.61v-9.05l8.34-1-6.57-6.6ZM199.06,33.47h-24.61c-1.16,0-2.16,1.03-2.16,2.25s.93,2.16,2.13,2.16h24.68c1.19,0,2.13-.93,2.13-2.16s-1-2.25-2.16-2.25M190.75,34.08l2.74,3.16h-4.51l-2.67-3.16h4.45M180.79,34.08l2.58,3.16h-4.22l-2.61-3.16h4.25M200.6,35.72c0,.87-.68,1.55-1.51,1.55h-.26l-2.74-3.16h2.96c.84,0,1.55.74,1.55,1.64M186.88,17.36l-11.69-8.31h0l7.92,1.19h0l3.77,7.12M186.88,17.36l-6.44,12.66v-7.83l6.44-4.83M186.88,17.36l6.44,4.83v7.83h0l-6.44-12.66M186.88,17.36l-13.75,4.09,5.73-5.8,8.02,1.71M186.88,17.36l4.22-7.18s6.15-.93,7.51-1.13h0l-11.69,8.31M186.88,17.36l8.02-1.71,5.67,5.73-13.69-4.03M186.88,17.36V2.35l3.58,7.47-3.58,7.54M186.88,25.19v-7.83l-.48,8.18.48-.35Z"/>
    <path d="M300.05,118.29c-1.29,4.22-5.61,3.99-5.61,3.99h-21.71c.39-.64.97-1.22.55-2.64-.55-1.87-.45-4.54-.45-11.05s.74-13.72.87-15.04c.1-1.32-1.61-3.54-2.35-4.64s-1.39-2.77-1.51-3.87c-.1-1.1,2.58-1.32,4.74-1.55s4.28-1.22,4.28-1.22v-1.32l.87,1.1c1.84,1.22,8.7,2.64,8.7,2.64l-.1-1.45c1.48,2,4.19,2.09,4.19,2.09-.23-.55-.1-1.55-.1-1.55.64,1,2.9,2.09,2.9,2.09.32-1.32.45-3,.45-3,.64-19.49-22.45-33.76-33.4-33.76s-13.34,5.19-21.71,5.32c-8.38.1-6.44-11.18-4.51-18.04,1.93-6.86,2.29-12.4,1.55-14.66-1.03-3.22-5.22-3.48-7.05-3.48s-2.58,2.87-3.87,3.32-5.57,2.77-4.93,2.87c2.35.45,6.25,1.1,6.25,1.1,0,0,3,1.1,2.35,4.86-1.22,7.09-6.54,10.15-7.8,19.26-.26-2.19-.52-4.09-.52-4.09h-49.96c.16-.42.26-.9.26-1.35,0-2-1.06-3-2.25-3s-2.16.68-3.32,1c-1.19.32-2.16,0-3.96.55-1.61.48-3.54,2.35-3.99,2.77h-5.25l-.32,2.29c-1.06,1.32-3.87,2.22-3.87,2.22,0-3.09-1.51-12.18-1.06-13.05s5.48-.68,6.76-.68,3.22,1.64,4.83-1.32c1.35-2.51-4.28-6.18-4.28-6.18-.64-2.45-5.61-4.64-5.61-4.64,3-3.09.23-8.18.23-8.18-2.8,1.1-4.93,5.09-4.93,5.09-1.06-2.87-5.15-5.32-5.15-5.32-1.93,6.18,1.29,10.86,1.29,10.86-1.51,2-1.93,5.54-2.35,9.08-.42,3.54-1.29,3.32-5.57,7.31s-3.87,8.86-16.33,15.49c-15.72,8.38-15.04,17.68-15.04,31.21s-1.1,21.23-4.51,24.77c-3.45,3.54-12.92,4.32-20.62,5.09-7.73.77-9.79,1.32-10.63,2.32-1.84,2.25.55,2.09.55,2.09h224.33c10.08,0,8.83-5.77,8.83-5.77M119.46,122.28h-14.95c2.83-1.71,5.32-5.8,7.09-11.73,2.35-7.96,6.44-8.63,7.73-8.63s1.51,5.96,1.51,9.05-1.51,6.86-1.51,8.63c0,1.06.06,2.03.13,2.64M147.9,59.21l4.38-2.74c-.68,6.09-1.48,13.88-1.87,20.52-1.58-4.45-6.38-10.47-6.38-10.47,1.71-2.64,3.87-7.31,3.87-7.31M152.77,122.28c-1.64-1.74-4.28-2.87-7.22-2.87-3.45,0-9.02.87-13.75.87s-3.87-3.77-3.87-6.64,1.06-10.4,1.51-13.95c.42-3.54,1.51-13.05,1.51-16.14s9.66-12.18,9.66-12.18l5.57,5.77c1.29,1.32.23,2.45.23,2.45-1.71-.87-1.29,1.32-1.29,1.32-3,.45,1.06,3.09,2.16,3.09.71,0,2.09-.19,2.93-1.55v2.67c.23,16.49,8.96,33.08,27.77,37.17h-25.19M246.44,116.64c-.55.77-1.74,2.67-1.74,2.67,0,0-1.06-.32-4.28-.32-3.93,0-6.51,2.25-7.47,3.32h-35.18c18.81-4.09,27.57-20.68,27.8-37.17.06-5.48-.58-13.92-1.35-21.55,4.99,11.85,18.91,19.17,21.16,20.2,2.67,1.22,5.48-.23,5.48-.23-.1,1.87,2.48,4.41,3.22,5.96s.74,3.22.74,4.64.42,2.87-.87,6.09c-1.29,3.22-5.03,12.5-5.8,13.95-.74,1.42-1.19,1.64-1.71,2.42M266.51,119.06c-.87.77-1.61-.45-5.57-.45-5.09,0-7.44,2.51-8.25,3.64h-1.93c1.42-6.12,2.09-8.7,4.48-14.91,2.48-6.41,5.25-10.86,5.8-11.73s0-3.77-.23-5.41c-.23-1.64,0-3.41,0-3.41,4.51,2.77,5.7,5.96,5.7,5.96.23,2.87,2.16,8.96,2.16,14.82s-1.29,10.73-2.16,11.5M219.8,46.84c.45,3.54,3.29,25.96,3.29,37.43v.84c-.23,18.23-11.24,36.63-35.24,36.95-24-.32-34.98-18.72-35.24-36.95-.16-11.18,2.8-34.63,3.29-38.27h63.88M215.33,52.57v-.39h-55.6l-.06.39c0,.19-2.32,20.17-2.32,33.6,0,17.52,12.69,30.25,30.15,30.25s30.15-12.72,30.15-30.25c0-13.47-2.32-33.4-2.32-33.6M196.61,53.05h17.94c.29,2.58,2.06,18.59,2.25,30.8h-20.2v-30.8M177.73,65.01h-5.73v-11.95h5.73v11.95ZM160.47,53.05h4.93v11.95h-6.09c.52-5.93,1.03-10.63,1.16-11.95M158.73,72.58h6.67v11.27h-7.18c.06-3.58.26-7.47.52-11.27M177.73,114.07c-11.73-3.77-19.55-14.37-19.55-27.9v-1.42h19.52v29.31M172,72.58h5.73v11.27h-5.73v-11.27ZM195.74,114.52c-2.58.68-5.35,1.06-8.25,1.06-3.16,0-6.15-.42-8.92-1.22v-29.57h17.14v29.76M195.74,83.85h-17.14v-30.8h17.14s0,30.8,0,30.8ZM196.61,114.29v-29.54h20.2v1.42c0,13.79-8.12,24.55-20.2,28.12M200.22,55.21l6.02,2.67,6.15-2.67-2.83,8.92,4.9-1.32-1.48,5.06,1.48,5.25-4.9-1.55,2.83,9.5-6.15-2.19-6.02,2.19,2.83-9.5-4.9,1.55,1.55-5.25-1.55-5.06,4.9,1.32-2.83-8.92M161.43,86.23c.52-.55,1.68,1.13,2.38,1.74s2.13,1.19,2.13,2.45-1.03,1.32-1.03,1.32l1.16.81s.26,1.8,1.1,1.8.84-.61.84-.93-.32-1.32-1.48-1.74c0,0,1.03-.26,1.29-.39s.39-.32.9-.32,1.35.39,1.35,1.8.52,1.74,1.03,1.74.84-.87.84-3.32,1.22-2.54,2.06-3c.84-.48,2-2.25,2.58-1.68.58.61-2.71,2.8-2.13,3.38.58.61,1.42-1.55,2.13-.68s-2.58,1.87-1.87,2.67c.71.81,1.48-1.32,2.06-.61.58.74-1.87,1.45-1.22,2.25s1.48-.68,1.48-.68c0,0,.19,1,.19,1.74s-.77,5.25-5.22,5.25c0,0,.06-3.25-.77-3.87,0,0,.26,1.45.26,2.32s-.45,1.87-.45,2.19c0,.61,1.55.55,1.55,1.19,0,2.06-2.22-.77-2.51-.74-.39.03-.32.23-.29.64,0,.97.61-.03,1.26,2.03.32,1.03,2.9,3.9,2.19,4.22s-1.03-1-1.45-.77.29.93-.26,1.1c-.55.16-.68-1.32-1.22-1.29-.55.03-.06,1.22-.87,1.22s-.29-1.26-.81-1.42-.58.81-1.13.48c-.52-.32.32-.87-.13-1.16-.29-.19-.45.55-.93.13-.61-.55.68-1.32,1.1-2.51.74-2.09,1.1-.93,1.1-2.06,0-.45,0-.52-.45-.52-.35,0-2.48,2.35-2.48.77,0-1.13,1.55-.55,1.55-1.32,0-.93-.48-1.42-.48-2.19s.16-2.22.16-2.22c0,0-.81,1-.71,3.77,0,0-5.22.26-5.22-5.06,0-1.39.13-1.64.13-1.64,0,0,1.32,1.13,1.74.55.39-.55-2.06-1.93-1.48-2.61.68-.77,1.35,1.55,2,.81.77-.87-2.51-2.09-1.8-3,.52-.68,1.42,1.68,2.06.93.64-.74-2.9-2.8-2.19-3.54M180.57,87.68s.58,1.45,1.8,2.45,4.64,2.38,5.83,3.87c1.16,1.45,1.55,5.51,1.87,7.31.32,1.8.71,3.32,1.61,3.32s1.16-1.74-.77-6.06c-1.93-4.32-.71-6.93.58-6.93s2.32,1.93,2.13,4.57c0,0-1.35-1.74-1.93-.87-.42.64.64,3.48,1.35,5.19.71,1.74,2.25,7.18.39,7.18h-10.15l-2.77-3.99s2.58,1.74,2.83,1.19c.26-.52-.84-.52.19-2,.87-1.22-.32-1.74.97-3.06,1-1.03-.19-1.61.97-2.8.93-.97,2.06-1.93.26-3.12-1.8-1.19-6.09-3.74-5.15-6.31M180.5,91.1s1.48,1.61,2.9,2.74c1.42,1.13,2.64,1.74,1.87,2.61-.77.87-2.38-1.32-2.96-1.8-.58-.48-1.87-2.13-1.8-3.54M180.7,94.64s1.26,1.29,1.93,2c.71.74,2.09,1.61,1.42,2.61-.58.87-1.8-1.06-2.13-1.48-.32-.39-1.29-1.74-1.22-3.12M181.21,98.89s.84,1.06,1.22,1.45c.39.39,1.1,1.06.71,1.87s-.9-.26-1.29-.68c-.39-.39-.71-1.87-.64-2.67M183.85,109.07h8.92l-.45.93h-7.83l-.64-.93M185.08,111.2h6.67l-.26.68h-6.02l-.39-.68M188.4,78.21l.93.97-.93.97v1.35h-1.32l-.93.97-.93-.97h-1.32v-1.35l-.93-.97.93-.97v-1.35h1.32l.93-.97.93.97h1.32v1.35M182.31,73.57v-.97l-.64-.68.64-.68v-.97h.93l.64-.68.64.68h.93v.97l.64.68-.64.68v.97h-.93l-.64.68-.64-.68h-.93M190.36,72.41v-.68l-.48-.48.48-.48v-.71h.68l.48-.48.48.48h.68v.71l.45.48-.45.48v.68h-.68l-.48.48-.48-.48h-.68M190.14,66.36l-.55.58v.81h-.81l-.55.58-.55-.58h-.81v-.81l-.55-.58.55-.58v-.81h.81l.55-.58.55.58h.81v.81l.55.58M192.65,76.18l.29.29-.29.29v.42h-.39l-.29.29-.29-.29h-.42v-.42l-.29-.29.29-.29v-.42h.42l.29-.29.29.29h.39v.42M186.01,55.95c0-.71.74-1.71.77-1.77h.19s.77,1.03.77,1.77c0,.48-.29.55-.48.58-.16.03-.19.06-.19.16s-.06.16-.16.16h-.16s-.16-.06-.16-.16,0-.13-.19-.16-.48-.1-.48-.58M186.69,57.02h.42v.9h-.45v-.9h0M190.3,59.5c-.32.39-.61.77-.64,1.35h.13s.06,0,.06.06v1.45s0,.06-.06.06h-5.73s-.06-.03-.06-.06v-1.45s0-.06.06-.06h.13c0-.58-.32-.97-.64-1.35-.32-.39-.68-.77-.68-1.39,0-1.16.61-1.8,1.71-1.8s1.68,1.16,1.68,1.22v.1h-.1c-.39-.55-.84-.58-1.39-.58-.45,0-1.06.55-1.06,1.13,0,.81.26,1.16.52,1.55.23.32.45.64.45,1.19h.61v-.29h0s-.32-.06-.32-.42c0-.42.42-1,.45-1.06h0s.06-.03.1-.03.06,0,.1.03h0s.45.64.45,1.06c0,.32-.23.39-.32.42h0v.29h.97v-.32h0s-.32-.06-.32-.39c0-.35.32-.84.42-1v-.06h0s.06-.03.1-.03.06,0,.1.03h0v.06c.13.16.42.64.42,1,0,.32-.23.39-.32.39h0v.32h.97v-.29h0s-.32-.06-.32-.42c0-.42.42-1,.48-1.06h0s.06-.03.1-.03.06,0,.1.03h0s.45.64.45,1.06c0,.32-.23.39-.32.42h0v.29h.61c0-.55.23-.87.45-1.19.26-.35.55-.74.55-1.55,0-.58-.61-1.13-1.06-1.13-.55,0-1,.03-1.39.58,0,.03-.06.03-.1,0v-.1c0-.06.55-1.22,1.68-1.22,1.06,0,1.71.64,1.71,1.8,0,.61-.32,1-.68,1.39M170.07,58.21h-.9l-.64.64-.64-.64h-.9v-.93l-.64-.64.64-.68v-.93h.9l.64-.68.64.68h.9v.93l.64.68-.64.64v.93M177.31,70.39h-.9l-.64.64-.64-.64h-.9v-.93l-.64-.64.64-.68v-.93h.9l.64-.68.64.68h.9v.93l.64.64-.64.64v.93M162.82,70.51h-.9l-.64.68-.64-.68h-.9v-.93l-.64-.68.64-.68v-.93h.9l.64-.64.64.64h.9v.93l.64.68-.64.68v.93M170.1,82.47h-.9l-.64.68-.64-.68h-.9v-.93l-.64-.68.64-.68v-.93h.9l.64-.64.64.64h.9v.93l.64.68-.64.68v.93M205.82,64.62c0,.61.29,1,.29,1,0,0-.74-.26-1.55-.26s-2.16.55-2.16,1.84c0,1.74,1.29,1.96,1.29,1.96v1.87h5.57v-1.87s1.29-.23,1.29-1.96c0-1.29-1.35-1.84-2.16-1.84s-1.55.26-1.55.26c0,0,.29-.39.29-1s-.64-.9-.64-.9c0,0-.64.29-.64.9M206.11,68.9h-.77c-.39-.84-1-.84-1-.84-.16.52,0,.84,0,.84h-.39s-.52-.61-.52-1.35.55-1.29,1.26-1.32c.55,0,1.42.26,1.42.26v2.42M206.89,66.46s.87-.29,1.42-.26c.71.03,1.26.58,1.26,1.32s-.52,1.35-.52,1.35h-.39s.16-.32,0-.84c0,0-.61,0-1,.84h-.77v-2.42M165.72,66.52s.61-.29,1.29-.29,1.29.26,1.29.26c0,0,.13,2.38-1.26,2.38-.93,0-1.03-.29-1.03-.29,0,0-2.64-1.1-2-1.9.58-.74.77.84,1.93,1.26,0,0-.32-.9-.23-1.42M171.19,66.42s-.52-.03-.74-.03-.52.13-.52.48.61.35,1.42.35,1.06.19,1.1,1.06c0,.87.81.71.81,1.61s-1.03,1.51-1.16,1.68c-.13.16-.32.19-.32.19h-.29c-.32,0,.06-.29.23-.45s.45-.55.48-.84c0-.29-.32-.55-.64-.55s-.42.06-.39.32c0,.26-.81.58-1,.77-.19.16-.61.23-.61.23h-.48c-.35,0-.23-.16,0-.32.19-.16.84-.35.84-.77s-1-.26-1.39-.26-.45.23-.74.29-.39,0-.87,0-1.39,1.1-1.51,1.32c-.13.23-.39.23-.39.23h-.71c-.42,0,.16-.29.52-.52.35-.19.87-1.1,1.26-1.58.39-.48.74-.35,1.29-.32.55,0,.84-.61,1.19-1.1.35-.48,2.77.39,2.74-.35,0-.26-.42-.13-.9-.19-.61-.1-1.26-.1-1.26-.84s1.03-.74,1.39-.74.74.03.74.03c.84-.26.93.29.93.29-.58.58-.97-.03-.97-.03M177.22,51.06v.55h-.64v-.55h-.97l1.29-3,1.22,3h-.9M198.61,51.06v.55h-.64v-.55h-.97l1.29-3,1.22,3h-.9M217.48,51.06v.55h-.64v-.55h-.97l1.29-3,1.22,3h-.9M156.22,70.03v.55h-.68v-.58l-.93-.06,1.48-2.9,1.03,3.06-.9-.06M155.96,91.87l.06.55-.64.06-.06-.52-.97.1.97-3.12,1.55,2.83-.9.1M164.08,109.2l.35.39-.48.45-.35-.39-.74.68-.97-3.12,2.83,1.39-.68.61M181.95,119.06l-.52-.13-.26.97-2.48-2.06,3.12-.45-.23.9.52.13-.16.64M220.48,71.19v.52h-.61v-.52l-.93.06,1.03-3.06,1.48,2.9-.97.06M220.42,93.1l-.06.52-.64-.06.06-.55-.9-.1,1.55-2.83.97,3.12-.97-.1M212.23,111.13l-.71-.64-.35.39-.48-.45.35-.39-.68-.61,2.87-1.42-.97,3.12M194.65,120.09l-.23-.97-.52.13-.16-.64.52-.16-.23-.9,3.12.45-2.48,2.06M157.89,51.06v.55h-.64v-.55h-.97l1.29-3,1.22,3h-.9M215.84,86.97l-.13.81s-.45.19-.45.81c0,0-.84-.87-1.1-1.26s-.77-.87-1.22-.87-1.61.19-1.61,2.32,1.61,3.32,1.61,4.61-1.74,3-1.16,3.74,1.48.39,1.48.39c0,0-.39,1.19-.39,1.8s-.97,2.06-1.93,2.45c0,0-.13-.61.52-1.13.64-.55.77-1.19.71-1.61,0,0-1.29.26-1.8.13,0,0,.13.74-.45,1s-.97.19-1.35.48c-.39.26-1.35,1.26-1.35,1.26l-.71-.06s2.64-2,1.93-2.51c-.71-.55-2.64-.19-3.93,2-1.29,2.19-.19,1.8-.9,2.61-.71.81-.77.13-1.29,1.06s-1.16,3.06-2.32,3.51c-1.16.48-1.48.13-1.48.13,0,0-.71-.19-.77.52-.06.74-.84-.52-.13-1.13.71-.61,1.8-.13,2.38-1.55.58-1.39,1.61-4.99,1.16-5.44,0,0-1.74-1.68-1.74-2.38s.52-2.38-.06-2.67c-.58-.26-1.22-.13-1.03-1s1.35-5.93.26-6.06c-1.1-.13-.26-.39-.19-.81.06-.39-.45-.39-.45-.81s.39-.06.39-.45-.32-.19-.26-.61c.06-.42,2.87.06,2.87,1.61,0,0-.52.61-.52,1s-.58,4.8.9,5.19c0,0,.97-.26,2-1.55,0,0-1.1-.68-1.29-1,0,0,.39-.39.9-.39s1.1.19,1.1-.32c0-1.19-1.68-.19-1.87-.55-.16-.26.71-1.42,2.19-1.84,0-.03-.06-.06-.06-.13,0-.16.26-.29.55-.29s.52.1.55.26h0c2.06,0,3.67,2.06,3.67,3.54s-1.1,3.54.58,3.99,2.45-1.87,2.45-2.61-1.35-3-1.35-4.38,1.03-2.8,2.25-2.8,1.68.13,1.68.13c0,0,.58-.55,1.22.87M204.82,88.78s.26-.29.55-.29.55.13.55.29-.26.29-.55.29-.55-.13-.55-.29"/>
  </g>
  <g>
    <path d="M3.15,210.17v8.46H0v-20.83h3.56c1.74,0,3.07.12,3.95.36.9.24,1.69.7,2.37,1.38,1.19,1.16,1.79,2.65,1.79,4.43,0,1.9-.64,3.41-1.91,4.54-1.27,1.11-3,1.67-5.17,1.67h-1.46.01ZM3.15,207.25h1.18c2.89,0,4.32-1.11,4.32-3.33s-1.49-3.23-4.47-3.23h-1.04v6.56h.01Z"/>
    <path d="M27.46,213.57h-8.92l-2.32,5.06h-3.39l10.31-22.15,9.95,22.15h-3.44l-2.18-5.06h-.01ZM26.19,210.61l-3.09-7.08-3.24,7.08s6.33,0,6.33,0Z"/>
    <path d="M43.06,209.76l6.45,8.88h-3.84l-5.95-8.53h-.56v8.53h-3.15v-20.83h3.68c2.76,0,4.74.52,5.96,1.55,1.35,1.15,2.02,2.68,2.02,4.57,0,1.47-.43,2.74-1.27,3.8s-1.95,1.74-3.35,2.04ZM39.14,207.36h1c2.97,0,4.47-1.14,4.47-3.41,0-2.13-1.45-3.2-4.34-3.2h-1.12v6.61s-.01,0-.01,0Z"/>
    <path d="M56.09,197.8v17.88h6.12v2.96h-9.27v-20.83s3.15,0,3.15,0Z"/>
    <path d="M68.64,197.8v20.83h-3.15v-20.83s3.15,0,3.15,0Z"/>
    <path d="M86.19,213.57h-8.92l-2.32,5.06h-3.39l10.31-22.15,9.95,22.15h-3.44l-2.18-5.06h-.01ZM84.91,210.61l-3.09-7.08-3.24,7.08s6.33,0,6.33,0Z"/>
    <path d="M94,218.63l4.38-22.4,7.15,16.19,7.4-16.19,3.94,22.4h-3.23l-2.01-12.57-6.16,13.54-5.99-13.55-2.24,12.59s-3.25,0-3.25,0Z"/>
    <path d="M133.08,200.74h-8.36v5.01h8.11v2.96h-8.11v6.96h8.36v2.96h-11.49v-20.83h11.49v2.96h0Z"/>
    <path d="M137.51,218.63v-22.25l15.2,15.89v-14.47h3.15v22.11l-15.2-15.85v14.58h-3.15Z"/>
    <path d="M166.91,200.74v17.88h-3.15v-17.88h-4.79v-2.96h12.71v2.96h-4.78.01Z"/>
    <path d="M182.42,211.97c0-1.9.68-3.51,2.04-4.85,1.35-1.33,3.01-2,4.97-2s3.63.67,4.99,2.01c1.35,1.34,2.02,2.99,2.02,4.94s-.68,3.62-2.04,4.95c-1.37,1.33-3.04,1.98-5.03,1.98s-3.62-.67-4.95-2.02c-1.33-1.33-2-3-2-5.02ZM185.52,212.02c0,1.31.35,2.36,1.06,3.12.72.78,1.67,1.16,2.85,1.16s2.13-.39,2.85-1.15c.71-.76,1.07-1.78,1.07-3.07s-.36-2.3-1.07-3.07c-.72-.78-1.67-1.16-2.85-1.16s-2.1.39-2.83,1.16-1.08,1.77-1.08,3Z"/>
    <path d="M203.1,208.32v10.31h-3.05v-10.31h-1.08v-2.84h1.08v-5.07c0-1.66.29-2.83.87-3.51.79-.95,1.94-1.43,3.45-1.43.54,0,1.22.16,2.04.47v3.11l-.31-.16c-.66-.33-1.19-.5-1.62-.5-.54,0-.9.19-1.1.58-.19.37-.28,1.11-.28,2.18v4.32h3.31v2.84h-3.31,0Z"/>
    <path d="M230.11,213.57h-8.92l-2.32,5.06h-3.39l10.31-22.15,9.95,22.15h-3.44l-2.18-5.06h-.01ZM228.82,210.61l-3.09-7.08-3.24,7.08s6.33,0,6.33,0Z"/>
    <path d="M241.78,197.8v12.55c0,1.79.29,3.09.88,3.92.87,1.19,2.1,1.79,3.68,1.79s2.83-.6,3.7-1.79c.59-.8.88-2.12.88-3.92v-12.55h3.15v13.42c0,2.2-.68,4-2.05,5.42-1.54,1.58-3.43,2.37-5.66,2.37s-4.12-.79-5.65-2.37c-1.37-1.42-2.05-3.23-2.05-5.42v-13.42h3.15-.03Z"/>
    <path d="M271.13,200.89l-2.54,1.51c-.48-.83-.94-1.37-1.37-1.62-.46-.28-1.03-.43-1.74-.43-.87,0-1.59.24-2.17.74-.58.48-.86,1.1-.86,1.83,0,1.02.75,1.83,2.26,2.45l2.08.86c1.69.68,2.93,1.51,3.71,2.5.78.99,1.18,2.2,1.18,3.63,0,1.91-.64,3.49-1.91,4.75-1.29,1.26-2.88,1.89-4.79,1.89-1.81,0-3.29-.54-4.47-1.61-1.16-1.07-1.89-2.57-2.17-4.53l3.19-.7c.15,1.22.39,2.06.75,2.53.64.9,1.59,1.35,2.84,1.35.98,0,1.79-.33,2.44-.99.64-.66.98-1.49.98-2.49,0-.4-.05-.78-.17-1.11s-.28-.64-.52-.94c-.24-.28-.55-.55-.92-.79s-.83-.48-1.35-.71l-2.01-.83c-2.85-1.21-4.27-2.97-4.27-5.29,0-1.57.6-2.88,1.79-3.92,1.19-1.06,2.68-1.59,4.46-1.59,2.4,0,4.27,1.16,5.62,3.51h-.01Z"/>
    <path d="M281.52,200.74v17.88h-3.15v-17.88h-4.79v-2.96h12.71v2.96h-4.78.01Z"/>
    <path d="M296.47,209.76l6.45,8.88h-3.84l-5.95-8.53h-.56v8.53h-3.15v-20.83h3.68c2.76,0,4.74.52,5.96,1.55,1.35,1.15,2.02,2.68,2.02,4.57,0,1.47-.43,2.74-1.27,3.8-.84,1.06-1.95,1.74-3.35,2.04ZM292.56,207.36h1c2.97,0,4.46-1.14,4.46-3.41,0-2.13-1.45-3.2-4.35-3.2h-1.12v6.61s.01,0,.01,0Z"/>
    <path d="M318.59,213.57h-8.92l-2.32,5.06h-3.39l10.31-22.15,9.95,22.15h-3.44l-2.18-5.06h-.01ZM317.3,210.61l-3.09-7.08-3.24,7.08s6.33,0,6.33,0Z"/>
    <path d="M330.26,197.8v17.88h6.13v2.96h-9.27v-20.83h3.15-.01Z"/>
    <path d="M342.82,197.8v20.83h-3.15v-20.83s3.15,0,3.15,0Z"/>
    <path d="M360.36,213.57h-8.92l-2.32,5.06h-3.39l10.31-22.15,9.95,22.15h-3.44l-2.18-5.06h-.01ZM359.08,210.61l-3.09-7.08-3.24,7.08s6.33,0,6.33,0Z"/>
  </g>
</svg>