<?xml version="1.0" encoding="UTF-8"?>
<svg id="Logo" xmlns="http://www.w3.org/2000/svg" version="1.1" viewBox="0 0 668.36 206.8">
  <!-- Generator: Adobe Illustrator 29.8.2, SVG Export Plug-In . SVG Version: 2.1.1 Build 3)  -->
  <defs>
    <style>
      .st0 {
        fill: #fff;
      }
    </style>
  </defs>
  <polygon class="st0" points="218.58 89.51 235.1 89.51 226.83 62.78 218.58 89.51"/>
  <path class="st0" d="M516.95,19.73h0,0V0H0v157.47h516.95v-19.64h151.41V19.73h-151.41ZM102.63,53.61h-25.47v68.3h-22.22V53.61h-24.94v-17.95h72.63v17.95ZM174.9,53.61h-37.86v15.46h31.81v17.24h-31.81v17.71h37.68v17.89h-59.95V35.66h60.13v17.95ZM245.13,121.91l-4.47-14.45h-27.62l-4.46,14.45h-23.87l31.63-86.25h20.85l31.81,86.25h-23.87ZM374.35,121.91h-18.81v-16.59l-.03-46.67-20.98,63.26h-14.63l-20.85-62.84.25,46.25v16.59h-19.15V35.66h29.15l17.95,56.99,17.89-56.99h29.21v86.25ZM652.49,121.91h-248.1V35.64h248.1v86.27Z"/>
  <path class="st0" d="M293.79,192.16h3.51v3.07c-.13.11-.33.23-.57.34-.25.11-.55.21-.92.29s-.81.12-1.34.12c-1.06,0-1.93-.23-2.6-.69-.67-.46-1.16-1.16-1.48-2.11-.31-.94-.47-2.14-.47-3.58v-1.05c0-1.48.17-2.69.5-3.63.33-.94.8-1.64,1.4-2.1.6-.45,1.31-.68,2.13-.68s1.42.12,1.9.36c.48.24.86.59,1.13,1.07.27.47.45,1.07.54,1.8h5.59c-.15-1.55-.55-2.92-1.22-4.1-.67-1.19-1.67-2.11-2.99-2.78-1.32-.67-3.04-1-5.16-1-1.88,0-3.55.43-5.02,1.29-1.47.86-2.62,2.11-3.45,3.76-.84,1.65-1.25,3.67-1.25,6.05v1.02c0,2.37.42,4.39,1.25,6.03.83,1.65,2,2.9,3.5,3.75,1.5.85,3.26,1.28,5.29,1.28,1.63,0,3.05-.17,4.26-.5,1.21-.34,2.21-.74,3.01-1.22.8-.48,1.4-.94,1.8-1.37v-9.51h-9.34v4.09Z"/>
  <polygon class="st0" points="249.78 177.79 246.02 177.79 246.02 200.34 261.69 200.34 261.69 195.66 251.84 195.66 251.84 191.03 260.16 191.03 260.16 186.52 251.84 186.52 251.84 182.48 261.74 182.48 261.74 177.79 249.79 177.79 249.78 177.79"/>
  <polygon class="st0" points="293.79 192.19 293.79 192.16 293.78 192.16 293.79 192.19"/>
  <polygon class="st0" points="314.46 187.11 314.45 187.09 314.44 187.11 314.46 187.11"/>
  <polygon class="st0" points="237.03 190.83 229.58 177.79 223.77 177.79 223.77 200.34 229.58 200.34 229.58 187.3 237.03 200.34 242.82 200.34 242.82 177.79 237.03 177.79 237.03 190.83"/>
  <path class="st0" d="M277.51,191.07c.58-.29,1.13-.61,1.6-.98.71-.56,1.26-1.27,1.66-2.14.4-.87.6-1.98.6-3.32,0-1.49-.35-2.75-1.05-3.76-.7-1.01-1.7-1.78-2.99-2.3-1.29-.52-2.81-.78-4.58-.78h-9.01v22.55h5.81v-7.67h2.57l3.78,7.67h6.23v-.25l-4.59-9.01h-.03ZM275.26,186.75c-.21.41-.53.71-.96.92-.43.21-.96.31-1.6.31h-3.15v-5.5h3.21c.93,0,1.64.24,2.11.73.47.49.71,1.16.71,2.03,0,.6-.11,1.1-.32,1.51Z"/>
  <polygon class="st0" points="209.82 177.79 206.06 177.79 206.06 200.34 221.73 200.34 221.73 195.66 211.88 195.66 211.88 191.03 220.2 191.03 220.2 186.52 211.88 186.52 211.88 182.48 221.78 182.48 221.78 177.79 209.83 177.79 209.82 177.79"/>
  <path class="st0" d="M93.2,182.33h.01c.43-.18.96-.26,1.59-.26s1.18.1,1.6.31c.42.21.73.5.93.87.2.37.3.8.3,1.29h5.79c0-1.47-.36-2.73-1.09-3.78-.73-1.05-1.73-1.86-3-2.42-1.27-.56-2.74-.84-4.41-.84s-3.18.26-4.51.78c-1.32.52-2.36,1.26-3.13,2.21-.76.95-1.15,2.09-1.15,3.41,0,1.04.22,1.95.65,2.73.43.78,1.02,1.46,1.75,2.03.73.57,1.56,1.07,2.48,1.49.92.42,1.86.8,2.83,1.13,1.08.36,1.89.69,2.42,1,.53.3.88.61,1.05.92s.26.67.26,1.07c0,.31-.08.6-.25.88-.17.28-.44.51-.81.68-.38.18-.89.26-1.52.26s-1.16-.05-1.63-.16c-.47-.11-.85-.29-1.16-.54s-.54-.59-.69-1c-.15-.41-.22-.93-.22-1.55h-5.82c0,1.37.27,2.55.81,3.54.54.99,1.27,1.79,2.18,2.42.91.63,1.94,1.09,3.07,1.39,1.13.3,2.28.45,3.46.45,1.7,0,3.18-.25,4.44-.74,1.26-.5,2.23-1.22,2.92-2.18.69-.95,1.03-2.12,1.03-3.49,0-1.29-.29-2.41-.88-3.35-.59-.94-1.44-1.76-2.56-2.45s-2.49-1.29-4.1-1.8c-.77-.26-1.46-.52-2.04-.77-.59-.26-1.05-.54-1.38-.84-.33-.3-.5-.65-.5-1.05,0-.35.11-.67.32-.95.21-.28.53-.51.96-.69Z"/>
  <path class="st0" d="M144.91,182.72c-.86-1.68-2.04-2.97-3.54-3.88-1.5-.91-3.2-1.36-5.15-1.36s-3.68.45-5.18,1.36c-1.5.91-2.67,2.2-3.52,3.88-.85,1.68-1.27,3.69-1.27,6.02v.67c0,2.34.43,4.34,1.28,6.02.85,1.68,2.03,2.97,3.54,3.87,1.51.91,3.26,1.36,5.19,1.36s3.64-.46,5.14-1.36c1.49-.9,2.67-2.19,3.52-3.87.85-1.68,1.28-3.69,1.28-6.02v-.67c0-2.34-.43-4.34-1.29-6.02h0ZM140.29,189.41c0,1.4-.15,2.58-.46,3.55-.31.97-.77,1.71-1.37,2.21-.61.5-1.3.75-2.21.75s-1.67-.25-2.27-.75c-.6-.5-1.06-1.24-1.36-2.21-.31-.97-.46-2.16-.46-3.55v-.7c0-1.43.15-2.62.45-3.58.3-.96.75-1.68,1.35-2.17.6-.49,1.4-.73,2.26-.73s1.6.24,2.21.73c.61.49,1.07,1.21,1.39,2.17.31.96.47,2.16.47,3.58h0v.7Z"/>
  <path class="st0" d="M123.02,181.61c-.72-1.18-1.74-2.11-3.07-2.79s-2.9-1.02-4.73-1.02h-9.15v22.55h5.82v-7.34h3.33c1.83,0,3.4-.31,4.73-.93s2.35-1.49,3.07-2.59c.72-1.11,1.08-2.35,1.08-3.86s-.36-2.85-1.08-4.03h0ZM117.88,187.03c-.21.4-.53.71-.96.94-.43.23-1,.34-1.7.34h-3.33v-5.82h3.33c.7,0,1.27.15,1.7.44.43.3.75.69.96,1.17s.31,1,.31,1.56c0,.52-.1.97-.31,1.37Z"/>
  <path class="st0" d="M190.05,200.13h-.01c0,.87-.1,1.61-.29,2.24-.19.62-.42,1.18-.68,1.67s-.5.97-.7,1.45l2.8,1.3c.92-.81,1.7-1.85,2.35-3.12s.97-2.57.97-3.89l.02-3.55h-4.46v3.9Z"/>
  <path class="st0" d="M162.58,191.07c.58-.29,1.13-.61,1.6-.98.71-.56,1.26-1.27,1.66-2.14.4-.87.6-1.98.6-3.32,0-1.49-.35-2.75-1.05-3.76-.7-1.01-1.7-1.78-2.99-2.3-1.29-.52-2.81-.78-4.58-.78h-9.01v22.55h5.81v-7.67h2.57l3.78,7.67h6.23v-.25l-4.59-9.01h-.03ZM160.33,186.75c-.21.41-.53.71-.96.92-.43.21-.96.31-1.6.31h-3.15v-5.5h3.21c.93,0,1.64.24,2.11.73.47.49.71,1.16.71,2.03,0,.6-.11,1.1-.32,1.51Z"/>
  <polygon class="st0" points="168.19 177.79 168.19 182.48 174.71 182.48 174.71 200.33 180.52 200.33 180.52 182.48 187.18 182.48 187.18 177.79 174.71 177.79 168.19 177.79"/>
  <polygon class="st0" points="77.11 190.83 69.66 177.79 63.85 177.79 63.85 200.34 69.66 200.34 69.66 187.3 77.11 200.34 82.9 200.34 82.9 177.79 77.11 177.79 77.11 190.83"/>
  <rect class="st0" x="466.62" y="177.78" width="5.79" height="22.55"/>
  <polygon class="st0" points="314.45 187.09 314.46 187.11 314.44 187.11 314.45 187.09 310.6 177.79 304.34 177.79 311.51 192.31 311.51 200.33 317.41 200.33 317.41 192.31 324.56 177.79 318.3 177.79 314.45 187.09"/>
  <polygon class="st0" points="489.21 190.83 481.76 177.79 475.95 177.79 475.95 200.34 481.76 200.34 481.76 187.3 489.21 200.34 495 200.34 495 177.79 489.21 177.79 489.21 190.83"/>
  <path class="st0" d="M507.54,192.16h3.51v3.07c-.13.11-.33.23-.57.34-.25.11-.55.21-.92.29-.37.08-.81.12-1.34.12-1.06,0-1.93-.23-2.6-.69-.67-.46-1.16-1.16-1.48-2.11-.32-.94-.47-2.14-.47-3.58v-1.05c0-1.48.17-2.69.5-3.63.33-.94.8-1.64,1.4-2.1.6-.45,1.31-.68,2.13-.68s1.42.12,1.9.36c.49.24.86.59,1.13,1.07.27.47.45,1.07.54,1.8h5.59c-.14-1.55-.55-2.92-1.22-4.1-.67-1.19-1.67-2.11-2.99-2.78-1.32-.67-3.04-1-5.16-1-1.88,0-3.55.43-5.02,1.29-1.47.86-2.62,2.11-3.45,3.76-.84,1.65-1.25,3.67-1.25,6.05v1.02c0,2.37.42,4.39,1.25,6.03.83,1.65,2,2.9,3.5,3.75,1.5.85,3.26,1.28,5.29,1.28,1.63,0,3.05-.17,4.26-.5,1.21-.34,2.21-.74,3.01-1.22s1.4-.94,1.8-1.37v-9.51h-9.34v4.09Z"/>
  <path class="st0" d="M34.93,191.07c.58-.29,1.13-.61,1.6-.98.71-.56,1.26-1.27,1.66-2.14s.6-1.98.6-3.32c0-1.49-.35-2.75-1.05-3.76-.7-1.01-1.7-1.78-2.99-2.3-1.29-.52-2.81-.78-4.58-.78h-9.01v22.55h5.81v-7.67h2.57l3.78,7.67h6.23v-.25l-4.59-9.01h-.03ZM32.67,186.75c-.21.41-.53.71-.96.92-.43.21-.96.31-1.6.31h-3.15v-5.5h3.21c.93,0,1.64.24,2.11.73.47.49.71,1.16.71,2.03,0,.6-.11,1.1-.32,1.51Z"/>
  <polygon class="st0" points="0 177.79 0 182.48 6.52 182.48 6.52 200.33 12.33 200.33 12.33 182.48 18.99 182.48 18.99 177.79 12.33 177.79 0 177.79"/>
  <path class="st0" d="M48.61,177.79l-8.27,22.55h6.24l1.17-3.78h7.22l1.17,3.78h6.24l-8.32-22.55h-5.45ZM49.19,191.86l2.16-6.99,2.16,6.99h-4.32Z"/>
  <path class="st0" d="M390.88,179.18c-1.58-.93-3.41-1.39-5.47-1.39h-7.34v22.55h7.43c2.03,0,3.83-.47,5.4-1.39,1.57-.93,2.8-2.21,3.7-3.85.9-1.64,1.35-3.52,1.35-5.65v-.76c0-2.14-.45-4.02-1.35-5.66-.89-1.64-2.14-2.92-3.72-3.85ZM390.03,189.45c0,1.39-.18,2.55-.53,3.47-.35.92-.86,1.61-1.53,2.06-.67.45-1.5.68-2.48.68h-1.61v-13.18h1.52c1.02,0,1.87.23,2.56.68s1.2,1.14,1.55,2.05c.35.92.52,2.07.52,3.45v.79Z"/>
  <polygon class="st0" points="369.06 190.83 361.61 177.79 355.8 177.79 355.8 200.34 361.61 200.34 361.61 187.3 369.06 200.34 374.85 200.34 374.85 177.79 369.06 177.79 369.06 190.83"/>
  <path class="st0" d="M340.56,177.79l-8.27,22.55h6.24l1.17-3.78h7.22l1.17,3.78h6.24l-8.32-22.55h-5.45ZM341.14,191.86l2.16-6.99,2.16,6.99h-4.32Z"/>
  <polygon class="st0" points="423.46 177.79 418.78 192.69 414.09 177.79 406.47 177.79 406.47 200.34 412.29 200.34 412.29 196 411.73 184.88 416.86 200.33 420.68 200.33 425.81 184.88 425.25 196 425.25 200.34 431.09 200.34 431.09 177.79 426.17 177.79 423.46 177.79"/>
  <polygon class="st0" points="457.26 190.83 449.81 177.79 444 177.79 444 200.34 449.81 200.34 449.81 187.3 457.26 200.34 463.05 200.34 463.05 177.79 457.26 177.79 457.26 190.83"/>
  <rect class="st0" x="434.67" y="177.78" width="5.79" height="22.55"/>
  <polygon class="st0" points="589.96 92.51 569.86 92.51 569.86 83.06 586.83 83.06 586.83 73.86 569.86 73.86 569.86 65.61 590.06 65.61 590.06 56.03 565.66 56.03 565.65 56.04 557.97 56.04 557.97 102.06 589.96 102.06 589.96 92.51"/>
  <polygon class="st0" points="607.97 76.83 607.97 76.83 607.96 76.83 607.97 76.83"/>
  <path class="st0" d="M447.22,92.85c-.77.36-1.84.54-3.11.54s-2.37-.11-3.32-.33c-.95-.22-1.74-.59-2.37-1.11-.64-.52-1.1-1.2-1.41-2.04-.31-.84-.46-1.9-.46-3.16h-11.89c0,2.8.55,5.21,1.66,7.22,1.11,2.02,2.6,3.66,4.46,4.95,1.87,1.28,3.96,2.23,6.26,2.84,2.3.61,4.66.92,7.06.92,3.47,0,6.5-.51,9.07-1.52,2.57-1.01,4.56-2.49,5.96-4.44,1.4-1.95,2.1-4.33,2.1-7.13,0-2.63-.6-4.92-1.8-6.84-1.2-1.92-2.94-3.59-5.23-4.99-2.29-1.4-5.07-2.63-8.36-3.68-1.58-.53-2.97-1.05-4.17-1.58-1.2-.53-2.14-1.1-2.81-1.71-.67-.61-1.01-1.33-1.01-2.15,0-.71.22-1.36.65-1.94h0c.43-.58,1.09-1.05,1.96-1.41s1.91-.54,3.24-.54,2.41.21,3.27.63c.86.42,1.49,1.01,1.9,1.77.41.75.62,1.63.62,2.62h11.82c0-2.99-.74-5.56-2.23-7.71-1.48-2.15-3.53-3.8-6.13-4.95s-5.55-1.72-8.99-1.72-6.5.54-9.2,1.6-4.83,2.57-6.39,4.52c-1.56,1.95-2.34,4.27-2.34,6.97,0,2.13.44,3.99,1.33,5.58.88,1.59,2.07,2.97,3.57,4.14,1.5,1.17,3.18,2.19,5.06,3.05,1.87.87,3.8,1.64,5.78,2.31,2.22.74,3.86,1.42,4.95,2.04,1.09.62,1.8,1.25,2.15,1.88s.52,1.36.52,2.18c0,.63-.17,1.23-.51,1.8-.34.57-.89,1.03-1.66,1.39Z"/>
  <path class="st0" d="M477.29,100.75c2.77,1.3,5.98,1.94,9.63,1.94s6.9-.65,9.63-1.94c2.73-1.3,4.85-3.2,6.35-5.71,1.51-2.51,2.26-5.57,2.26-9.2v-29.81h-11.85v29.81c0,1.75-.24,3.16-.71,4.24-.47,1.08-1.18,1.85-2.12,2.34-.94.48-2.12.73-3.56.73s-2.6-.24-3.57-.73c-.97-.48-1.7-1.26-2.18-2.34-.49-1.07-.73-2.49-.73-4.24v-29.81h-11.92v29.81c0,3.62.77,6.69,2.31,9.2,1.54,2.51,3.69,4.41,6.46,5.71Z"/>
  <path class="st0" d="M607.96,86.41h5.25l7.71,15.65h12.71v-.51h.01s-9.36-18.36-9.36-18.36c1.19-.61,2.27-1.29,3.24-2.04,1.44-1.13,2.57-2.58,3.38-4.36.81-1.78,1.22-4.04,1.22-6.78,0-3.05-.72-5.61-2.15-7.68-1.43-2.06-3.47-3.63-6.1-4.69-2.64-1.07-5.76-1.6-9.36-1.6h-18.4v46.02h11.85v-15.65ZM607.97,65.61h6.54c1.9,0,3.33.5,4.3,1.49.96.99,1.45,2.37,1.45,4.14,0,1.22-.22,2.25-.65,3.08-.43.83-1.09,1.46-1.96,1.88-.87.42-1.96.63-3.27.63h-6.41s-.01,0-.01,0h.01v-11.22Z"/>
  <path class="st0" d="M525.49,87.08h6.8c3.73,0,6.95-.64,9.66-1.9,2.71-1.27,4.79-3.03,6.26-5.28,1.47-2.25,2.2-4.79,2.2-7.87s-.74-5.82-2.2-8.22h-.01c-1.47-2.39-3.55-4.29-6.26-5.68-2.71-1.39-5.93-2.09-9.66-2.09h-18.68v46.02h11.89v-14.98ZM525.49,65.61h6.8c1.44,0,2.59.3,3.48.9.89.6,1.54,1.4,1.96,2.39s.63,2.05.63,3.19c0,1.06-.21,1.99-.63,2.8-.42.81-1.07,1.45-1.96,1.91-.89.47-2.05.7-3.48.7h-6.8v-11.89Z"/>
</svg>