<?xml version="1.0" encoding="UTF-8"?>
<svg id="Logo" xmlns="http://www.w3.org/2000/svg" version="1.1" viewBox="0 0 668.36 206.8">
  <defs>
    <style>
      .cls-1 {
        fill: #00265e;
      }

      .cls-1, .cls-2 {
        stroke-width: 0px;
      }

      .cls-2 {
        fill: #ef7e56;
      }
    </style>
  </defs>
  <path id="Background" class="cls-1" d="M516.95,19.73V0H0v157.47h516.95v-19.64h151.41V19.73h-151.41ZM652.49,121.91h-248.1V35.64h248.1v86.27Z"/>
  <path id="Tagline" class="cls-1" d="M12.33,177.79h6.66v4.69h-6.66v17.85h-5.81v-17.85H0v-4.69h12.33ZM34.96,191.08l4.59,9.01v.25h-6.23l-3.78-7.67h-2.57v7.67h-5.81v-22.55h9.01c1.77,0,3.29.26,4.58.78,1.29.52,2.29,1.29,2.99,2.3.7,1.01,1.05,2.27,1.05,3.76,0,1.34-.2,2.45-.6,3.32-.4.87-.95,1.58-1.66,2.14-.47.37-1.02.69-1.6.98ZM26.97,187.98h3.14c.64,0,1.17-.1,1.6-.31.43-.21.75-.51.96-.92.21-.41.32-.91.32-1.51,0-.87-.24-1.54-.71-2.03s-1.18-.73-2.11-.73h-3.21v5.5ZM54.06,177.79l8.32,22.55h-6.24l-1.17-3.78h-7.22l-1.17,3.78h-6.24l8.27-22.55h5.45ZM53.51,191.86l-2.16-6.99-2.16,6.99h4.32ZM77.11,190.83l-7.45-13.04h-5.81v22.55h5.81v-13.04l7.45,13.04h5.79v-22.55h-5.79v13.04ZM93.21,182.33c.43-.18.96-.26,1.59-.26s1.18.1,1.6.31c.42.21.73.5.93.87.2.37.3.8.3,1.29h5.79c0-1.47-.36-2.73-1.09-3.78-.73-1.05-1.73-1.86-3-2.42-1.27-.56-2.74-.84-4.41-.84s-3.18.26-4.51.78c-1.32.52-2.36,1.26-3.13,2.21-.76.95-1.15,2.09-1.15,3.41,0,1.04.22,1.95.65,2.73.43.78,1.02,1.46,1.75,2.03.73.57,1.56,1.07,2.48,1.49.92.42,1.86.8,2.83,1.13,1.08.36,1.89.69,2.42,1,.53.3.88.61,1.05.92.17.31.26.67.26,1.07,0,.31-.08.6-.25.88-.17.28-.44.51-.81.68-.38.18-.89.26-1.52.26s-1.16-.05-1.63-.16-.85-.29-1.16-.54c-.31-.25-.54-.59-.69-1-.15-.41-.22-.93-.22-1.55h-5.82c0,1.37.27,2.55.81,3.54.54.99,1.27,1.79,2.18,2.42.91.63,1.94,1.09,3.07,1.39,1.13.3,2.28.45,3.46.45,1.7,0,3.18-.25,4.44-.74,1.26-.5,2.23-1.22,2.92-2.18.69-.95,1.03-2.12,1.03-3.49,0-1.29-.29-2.41-.88-3.35-.59-.94-1.44-1.76-2.56-2.45-1.12-.69-2.49-1.29-4.1-1.8-.77-.26-1.46-.52-2.04-.77-.59-.26-1.05-.54-1.38-.84-.33-.3-.5-.65-.5-1.05,0-.35.11-.67.32-.95.21-.28.53-.51.96-.69ZM123.02,181.6c.72,1.18,1.08,2.52,1.08,4.03s-.36,2.75-1.08,3.86c-.72,1.1-1.74,1.97-3.07,2.59-1.33.62-2.9.93-4.73.93h-3.33v7.34h-5.82v-22.55h9.15c1.83,0,3.4.34,4.73,1.02,1.33.68,2.35,1.61,3.07,2.79ZM118.19,185.66c0-.56-.1-1.08-.31-1.56s-.53-.87-.96-1.17c-.43-.29-1-.44-1.7-.44h-3.33v5.82h3.33c.7,0,1.27-.11,1.7-.34.43-.23.75-.54.96-.94.21-.4.31-.85.31-1.37ZM144.91,182.72c.86,1.68,1.29,3.68,1.29,6.02v.67c0,2.33-.43,4.34-1.28,6.02-.85,1.68-2.03,2.97-3.52,3.87-1.5.9-3.21,1.36-5.14,1.36s-3.68-.45-5.19-1.36c-1.51-.9-2.69-2.19-3.54-3.87-.85-1.68-1.28-3.68-1.28-6.02v-.67c0-2.33.42-4.34,1.27-6.02.85-1.68,2.02-2.97,3.52-3.88,1.5-.91,3.23-1.36,5.18-1.36s3.65.45,5.15,1.36c1.5.91,2.68,2.2,3.54,3.88ZM140.29,188.71c0-1.42-.16-2.62-.47-3.58-.32-.96-.78-1.68-1.39-2.17-.61-.49-1.35-.73-2.21-.73s-1.66.24-2.26.73c-.6.49-1.05,1.21-1.35,2.17-.3.96-.45,2.15-.45,3.58v.7c0,1.39.15,2.58.46,3.55.3.97.76,1.71,1.36,2.21.6.5,1.36.75,2.27.75s1.6-.25,2.21-.75c.6-.5,1.06-1.24,1.37-2.21.31-.97.46-2.15.46-3.55v-.7ZM162.61,191.08l4.59,9.01v.25h-6.23l-3.78-7.67h-2.57v7.67h-5.81v-22.55h9.01c1.77,0,3.29.26,4.58.78,1.29.52,2.29,1.29,2.99,2.3.7,1.01,1.05,2.27,1.05,3.76,0,1.34-.2,2.45-.6,3.32-.4.87-.95,1.58-1.66,2.14-.47.37-1.02.69-1.6.98ZM154.63,187.98h3.14c.64,0,1.17-.1,1.6-.31.43-.21.75-.51.96-.92.21-.41.32-.91.32-1.51,0-.87-.24-1.54-.71-2.03s-1.18-.73-2.11-.73h-3.21v5.5ZM174.71,177.79h-6.52v4.69h6.52v17.85h5.81v-17.85h6.66v-4.69h-12.47ZM190.04,200.13c0,.87-.1,1.61-.29,2.24-.19.62-.42,1.18-.68,1.67-.26.49-.5.97-.7,1.45l2.8,1.3c.92-.81,1.7-1.85,2.35-3.12.65-1.27.97-2.57.97-3.89l.02-3.55h-4.46v3.9ZM209.82,177.79h-3.76v22.55h15.67v-4.68h-9.85v-4.63h8.32v-4.51h-8.32v-4.04h9.9v-4.69h-11.95ZM237.03,190.83l-7.45-13.04h-5.81v22.55h5.81v-13.04l7.45,13.04h5.79v-22.55h-5.79v13.04ZM249.78,177.79h-3.76v22.55h15.67v-4.68h-9.85v-4.63h8.32v-4.51h-8.32v-4.04h9.9v-4.69h-11.95ZM277.54,191.08l4.59,9.01v.25h-6.23l-3.78-7.67h-2.57v7.67h-5.81v-22.55h9.01c1.77,0,3.29.26,4.58.78,1.29.52,2.29,1.29,2.99,2.3.7,1.01,1.05,2.27,1.05,3.76,0,1.34-.2,2.45-.6,3.32-.4.87-.95,1.58-1.66,2.14-.47.37-1.02.69-1.6.98ZM269.56,187.98h3.14c.64,0,1.17-.1,1.6-.31.43-.21.75-.51.96-.92.21-.41.32-.91.32-1.51,0-.87-.24-1.54-.71-2.03s-1.18-.73-2.11-.73h-3.21v5.5ZM293.78,192.16h3.52v3.07c-.13.11-.33.23-.57.34-.25.11-.55.21-.92.29-.37.08-.81.12-1.34.12-1.06,0-1.93-.23-2.6-.69-.67-.46-1.16-1.16-1.48-2.11-.31-.94-.47-2.14-.47-3.58v-1.05c0-1.48.17-2.69.5-3.63.33-.94.8-1.64,1.4-2.1.6-.45,1.31-.68,2.13-.68s1.42.12,1.9.36c.48.24.86.59,1.13,1.07.27.47.45,1.07.54,1.8h5.59c-.15-1.55-.55-2.92-1.22-4.1-.67-1.19-1.67-2.11-2.99-2.78-1.32-.67-3.04-1-5.16-1-1.88,0-3.55.43-5.02,1.29-1.47.86-2.62,2.11-3.45,3.76-.84,1.65-1.25,3.67-1.25,6.05v1.02c0,2.37.42,4.39,1.25,6.03.83,1.65,2,2.9,3.5,3.75,1.5.85,3.26,1.28,5.29,1.28,1.63,0,3.05-.17,4.26-.5,1.21-.34,2.21-.74,3.01-1.22.8-.48,1.4-.94,1.8-1.37v-9.51h-9.34v4.12ZM314.46,187.11l-3.86-9.32h-6.26l7.17,14.52v8.02h5.9v-8.02l7.15-14.52h-6.26l-3.86,9.32ZM346.01,177.79l8.32,22.55h-6.24l-1.17-3.78h-7.22l-1.17,3.78h-6.24l8.27-22.55h5.45ZM345.46,191.86l-2.16-6.99-2.16,6.99h4.32ZM369.06,190.83l-7.45-13.04h-5.81v22.55h5.81v-13.04l7.45,13.04h5.79v-22.55h-5.79v13.04ZM394.6,183.03c.9,1.64,1.35,3.52,1.35,5.66v.76c0,2.13-.45,4.01-1.35,5.65-.9,1.64-2.13,2.92-3.7,3.85-1.57.92-3.37,1.39-5.4,1.39h-7.43v-22.55h7.34c2.06,0,3.89.46,5.47,1.39,1.58.93,2.83,2.21,3.72,3.85ZM390.03,188.66c0-1.38-.17-2.53-.52-3.45-.35-.91-.86-1.6-1.55-2.05s-1.54-.68-2.56-.68h-1.52v13.18h1.61c.98,0,1.81-.23,2.48-.68s1.18-1.14,1.53-2.06c.35-.92.53-2.08.53-3.47v-.79ZM426.17,177.79h-2.71l-4.68,14.9-4.69-14.9h-7.62v22.55h5.82v-4.34l-.56-11.12,5.13,15.45h3.82l5.13-15.45-.56,11.12v4.34h5.84v-22.55h-4.92ZM434.67,200.33h5.79v-22.55h-5.79v22.55ZM457.26,190.83l-7.45-13.04h-5.81v22.55h5.81v-13.04l7.45,13.04h5.79v-22.55h-5.79v13.04ZM466.62,200.33h5.79v-22.55h-5.79v22.55ZM489.21,190.83l-7.45-13.04h-5.81v22.55h5.81v-13.04l7.45,13.04h5.79v-22.55h-5.79v13.04ZM507.54,188.04v4.12h3.51v3.07c-.13.11-.33.23-.57.34-.25.11-.55.21-.92.29-.37.08-.81.12-1.34.12-1.06,0-1.93-.23-2.6-.69-.67-.46-1.16-1.16-1.48-2.11-.32-.94-.47-2.14-.47-3.58v-1.05c0-1.48.17-2.69.5-3.63.33-.94.8-1.64,1.4-2.1.6-.45,1.31-.68,2.13-.68s1.42.12,1.9.36c.49.24.86.59,1.13,1.07.27.47.45,1.07.54,1.8h5.59c-.14-1.55-.55-2.92-1.22-4.1-.67-1.19-1.67-2.11-2.99-2.78-1.32-.67-3.04-1-5.16-1-1.88,0-3.55.43-5.02,1.29-1.47.86-2.62,2.11-3.45,3.76-.84,1.65-1.25,3.67-1.25,6.05v1.02c0,2.37.42,4.39,1.25,6.03.83,1.65,2,2.9,3.5,3.75,1.5.85,3.26,1.28,5.29,1.28,1.63,0,3.05-.17,4.26-.5,1.21-.34,2.21-.74,3.01-1.22.8-.48,1.4-.94,1.8-1.37v-9.51h-9.34Z"/>
  <path id="TEAM" class="cls-2" d="M102.63,53.61h-25.47v68.3h-22.22V53.61h-24.94v-17.95h72.63v17.95ZM174.89,53.61h-37.85v15.46h31.81v17.24h-31.81v17.71h37.68v17.89h-59.95V35.66h60.13v17.95ZM237.19,35.66h-20.85l-31.63,86.25h23.87l4.46-14.45h27.62l4.47,14.45h23.87l-31.81-86.25ZM218.58,89.51l8.25-26.73,8.27,26.73h-16.52ZM374.34,121.91h-18.8v-16.59l-.03-46.67-20.98,63.26h-14.63l-20.85-62.84.25,46.25v16.59h-19.15V35.66h29.15l17.95,56.99,17.89-56.99h29.21v86.25Z"/>
  <path id="SUPER" class="cls-2" d="M438.5,66.7c-.43.58-.65,1.23-.65,1.94,0,.82.34,1.54,1.01,2.15.67.61,1.61,1.18,2.81,1.71,1.2.53,2.59,1.05,4.17,1.58,3.29,1.05,6.07,2.28,8.36,3.68,2.29,1.4,4.03,3.07,5.23,4.99s1.8,4.21,1.8,6.84c0,2.8-.7,5.18-2.1,7.13-1.4,1.95-3.39,3.43-5.96,4.44-2.57,1.01-5.6,1.52-9.07,1.52-2.4,0-4.76-.31-7.06-.92s-4.39-1.56-6.26-2.84c-1.86-1.29-3.35-2.93-4.46-4.95-1.11-2.01-1.66-4.42-1.66-7.22h11.89c0,1.26.15,2.32.46,3.16.31.84.77,1.52,1.41,2.04.63.52,1.42.89,2.37,1.11s2.05.33,3.32.33,2.34-.18,3.11-.54c.77-.36,1.32-.82,1.66-1.39.34-.57.51-1.17.51-1.8,0-.82-.17-1.55-.52-2.18s-1.06-1.26-2.15-1.88c-1.09-.62-2.73-1.3-4.95-2.04-1.98-.67-3.91-1.44-5.78-2.31-1.88-.86-3.56-1.88-5.06-3.05-1.5-1.17-2.69-2.55-3.57-4.14-.89-1.59-1.33-3.45-1.33-5.58,0-2.7.78-5.02,2.34-6.97,1.56-1.95,3.69-3.46,6.39-4.52,2.7-1.06,5.76-1.6,9.2-1.6s6.39.57,8.99,1.72c2.6,1.15,4.65,2.8,6.13,4.95,1.49,2.15,2.23,4.72,2.23,7.71h-11.82c0-.99-.21-1.87-.62-2.62-.41-.76-1.04-1.35-1.9-1.77s-1.94-.63-3.27-.63-2.37.18-3.24.54c-.87.36-1.53.83-1.96,1.41ZM493.31,85.84c0,1.75-.24,3.16-.71,4.24s-1.18,1.85-2.12,2.34c-.94.48-2.12.73-3.56.73s-2.6-.24-3.57-.73c-.97-.48-1.7-1.26-2.18-2.34-.49-1.07-.73-2.49-.73-4.24v-29.81h-11.92v29.81c0,3.62.77,6.69,2.31,9.2,1.54,2.51,3.69,4.41,6.46,5.71,2.77,1.3,5.98,1.94,9.63,1.94s6.9-.65,9.63-1.94c2.73-1.3,4.85-3.2,6.35-5.71,1.51-2.51,2.26-5.57,2.26-9.2v-29.81h-11.85v29.81ZM548.21,63.81c1.46,2.4,2.2,5.14,2.2,8.22s-.73,5.62-2.2,7.87c-1.47,2.25-3.55,4.01-6.26,5.28-2.71,1.26-5.93,1.9-9.66,1.9h-6.8v14.98h-11.89v-46.02h18.68c3.73,0,6.95.7,9.66,2.09,2.71,1.39,4.79,3.29,6.26,5.69ZM538.36,72.09c0-1.14-.21-2.2-.63-3.19-.42-.99-1.07-1.79-1.96-2.39-.89-.6-2.04-.9-3.48-.9h-6.8v11.89h6.8c1.43,0,2.59-.23,3.48-.7.89-.46,1.54-1.1,1.96-1.91.42-.81.63-1.74.63-2.8ZM565.65,56.04h-7.68v46.02h31.99v-9.55h-20.1v-9.45h16.97v-9.2h-16.97v-8.25h20.2v-9.58h-24.4ZM633.63,101.55v.51h-12.71l-7.71-15.65h-5.25v15.65h-11.85v-46.02h18.4c3.6,0,6.72.53,9.36,1.6,2.63,1.06,4.67,2.63,6.1,4.69,1.43,2.07,2.15,4.63,2.15,7.68,0,2.74-.41,5-1.22,6.78-.81,1.78-1.94,3.23-3.38,4.36-.97.75-2.05,1.43-3.24,2.04l9.36,18.37ZM607.96,76.83h6.42c1.31,0,2.4-.21,3.27-.63.87-.42,1.53-1.05,1.96-1.88.43-.83.65-1.86.65-3.08,0-1.77-.49-3.15-1.45-4.14-.97-.99-2.4-1.49-4.3-1.49h-6.54v11.22Z"/>
</svg>