<?xml version="1.0" encoding="UTF-8"?>
<svg id="Layer_1" xmlns="http://www.w3.org/2000/svg" version="1.1" viewBox="0 0 788.23 129.67">
  <!-- Generator: Adobe Illustrator 29.8.2, SVG Export Plug-In . SVG Version: 2.1.1 Build 3)  -->
  <defs>
    <style>
      .st0 {
        fill: #fff;
        fill-rule: evenodd;
      }
    </style>
  </defs>
  <path class="st0" d="M93.29,123.07c-10.43-6.54-18.12-29.09-18.12-55.9,0-.98,0-1.95.03-2.92h0c-29.03-4.55-50-17.05-50.54-31.83l-.08.17c-7.1,8.83-11.16,19.03-11.16,29.91,0,32,35.12,58.22,79.68,60.54l.19.03ZM0,64.83C0,29.03,44.56,0,99.52,0s99.52,29.03,99.52,64.83-44.56,64.84-99.52,64.84S0,100.64,0,64.83ZM99.52,9.35c10.61,0,19.64,16.1,22.98,38.56v-.04c20.66-3.21,35.11-10.62,35.11-19.25,0-11.58-26.01-20.95-58.09-20.95s-58.09,9.38-58.09,20.95c0,8.63,14.45,16.04,35.1,19.25v.04c3.36-22.46,12.38-38.56,22.99-38.56ZM105.95,123.03c44.55-2.32,79.68-28.54,79.68-60.54,0-10.87-4.06-21.08-11.16-29.91l-.09-.17c-.54,14.78-21.51,27.28-50.54,31.84h.01c.02.95.03,1.93.03,2.91,0,26.81-7.69,49.36-18.12,55.9l.18-.03ZM99.52,49.58c4.61,0,9.21-.19,13.8-.59h0c-2.2-14.39-7.55-24.55-13.79-24.55s-11.59,10.16-13.79,24.56h0c4.59.39,9.19.59,13.79.59ZM99.52,102.89c7.99,0,14.51-16.63,14.85-37.47h.04c-9.91.93-19.88.93-29.79.01h.04c.34,20.83,6.86,37.46,14.85,37.46ZM507.84,64.83c0-27.36,22.19-49.55,49.55-49.55s49.56,22.19,49.56,49.55-22.19,49.55-49.56,49.55-49.55-22.18-49.55-49.55h0ZM557.39,96.21c15.28,0,27.67-14.05,27.67-31.38s-12.39-31.38-27.67-31.38-27.67,14.05-27.67,31.38,12.39,31.38,27.67,31.38ZM663.18,35.93v76.21h-20.88V35.93h.07-29.2v-17.23h79.13v17.23h-29.12ZM717.56,91.11l-.02.02-8.01,21h-24.39l38.55-93.44h25.99l38.54,93.44h-24.38l-8.01-21-.02-.02h-38.25ZM736.69,75.34h13.14,0s-13.04-34.19-13.04-34.19h-.18l-13.04,34.2h0s13.14,0,13.14,0ZM278.31,35.93v76.21h-20.88V35.93h.07-29.2v-17.23h79.13v17.23h-29.13ZM312.78,64.83c0-27.36,22.19-49.55,49.56-49.55s49.55,22.19,49.55,49.55-22.19,49.55-49.55,49.55-49.56-22.18-49.56-49.55ZM362.34,96.21c15.28,0,27.67-14.05,27.67-31.38s-12.39-31.38-27.67-31.38-27.67,14.05-27.67,31.38,12.39,31.38,27.67,31.38ZM459.86,112.13h10.59v-35.48l36.43-57.96h-24.38l-22.63,39.27-22.62-39.27h-24.38l36.42,57.96v35.48h10.58,0Z"/>
</svg>