<?xml version="1.0" encoding="UTF-8"?>
<svg id="Layer_1" xmlns="http://www.w3.org/2000/svg" version="1.1" viewBox="0 0 2570 570">
  <!-- Generator: Adobe Illustrator 29.8.2, SVG Export Plug-In . SVG Version: 2.1.1 Build 3)  -->
  <defs>
    <style>
      .st0 {
        fill: #c49c6a;
      }
    </style>
  </defs>
  <path class="st0" d="M0,180c10.77-2.07,22.37-.66,33.36-.86l1.64,1.36v288c0,2.23,5.39,1.46,6.47-.53,64.03-96.22,130.38-190.84,196.11-285.89l2.42-2.08v288.5c1.55,2.2,4.34,2.14,6.03.03,53.46-77.28,105.78-155.38,159.54-232.46,13.38-19.19,26.69-38.54,40.94-57.06h39.5l-.97,3.53-233.05,333.02-1.46.46c-1.01-.03-1.77-1.01-2.02-1.01h-42.5v-226c-2.39-.47-1.59.28-2.21,1.3-8.05,13.33-17.7,25.63-26.62,38.37-42.98,61.38-85.61,123-128.66,184.34l-3.14,2.8-45.38-.81V180Z"/>
  <path class="st0" d="M1883,570c-4.69-3.42-12.56-6.9-3.5-11.05,2.2,0,3.26,3.29,5.18,3.87,2.81.86,6.75.2,7.28-3.23-3.4-4.81-13.36-5.05-14.75-11.29-2.1-9.4,5.49-13.93,14.09-12.09,2.86.61,9.44,4.9,6.06,7.85l-3.04,1.82-5.98-3.7-4.34,2.34c-.84,3.74,13.14,6.58,14.82,12.15,1.91,6.34-1.43,9.75-5.82,13.32h-10Z"/>
  <path class="st0" d="M748.5,178c52.88,77.51,105.44,155.28,157.93,233.07,8.85,13.11,17.91,26.29,26.42,39.61.64,1,.95,2.11,1.25,3.23l2.9.09c.65-1.46-1-3.07-1-3.5V179.5l1.5-1.5h32l1.5,1.5v333l-1.5,1.5h-33l-197.04-292.96c-.71-1.8-2.46.02-2.46.46v292.5h-33V178h44.5Z"/>
  <path class="st0" d="M1051,515V180.5l1.64-1.36,106.91-.18c43.68,3.21,86.07,12.75,119.47,42.53,62.06,55.31,74.39,149.47,27.8,218.85-33.42,49.77-83.57,70.6-142.28,74.72l-113.55-.05ZM1086,210v272.5l1.64,1.36c18.25-.2,36.65.72,54.91.18,25.45-.75,56.89-2.57,80.44-12.56,81.3-34.47,102.49-143.74,48-210.98-30.58-37.74-73.71-48.58-120.44-50.56-21.27-.9-43.21.77-64.55.05Z"/>
  <path class="st0" d="M2019.03,339.97l42.3,7.19,1.66,2.83-43.97,8.03c-.17,3.63-.5,7.81-1.13,11.37-10.68,60.38-62,105.7-122.96,111.04l-.76,1.24c-2.83,13.38-4.29,27.27-7.43,40.57-.41,1.72-.74,3.58-2.24,4.75l-9.57-46.92c-63.67-4.04-120-56.76-124.4-121.1-.89-.92-2.04-1.44-3.26-1.74-9.63-2.4-21.89-4.34-31.87-6.13-3.02-.54-6.39-.14-9.4-1.1-.73-2.55,1.92-2.28,3.78-2.7,5.21-1.16,39.6-6.52,40.79-8.22,4.95-64.8,58.99-116.95,123.49-121.51l10.44-47.55c1.42,1.13,1.9,3.03,2.26,4.73,2.17,10.37,3.38,21.07,5.53,31.47.54,2.6,1.42,9.52,3.12,10.88,4.22,1.89,9.54,1.33,13.85,2.15,58.54,11.19,105.89,60.41,109.77,120.73ZM1885,207v123c1.72.41,1.99-.66,3-1.5,3.77-3.14,7.34-7.56,10.97-11.03,2.51-2.39,6.94-3.73,7.12-7.97.15-3.6-2.5-14.34-3.34-18.77-5.08-26.91-9.87-54.51-15.76-81.27-.38-1.74,1.05-2.93-1.99-2.47ZM1870,242c-46.89,5.47-86.75,45.09-91.99,91.99l70.48-13.03,1.51.51,24.56,26.52v2.02s-27.07,27.03-27.07,27.03l-65.07-12.95c-1.75.23-5.75-1.42-5.4,1.38.67,5.38,3.59,15.26,5.48,20.53,13.04,36.25,48.37,63.33,85.93,69.95l1.54-2.37c-3.42-17.79-7.39-35.56-10.71-53.36-.61-3.27-2.67-12.17-2.3-14.7.51-3.41,9.39-9.46,12.05-12.01,2.43-2.34,13.62-14.58,15.48-14.58,10.36,7.17,19.12,17.1,28.37,25.75l-12.88,70.31c46.31-5,83.9-44.22,91.92-89.42-2.53-3.72-6.58-.31-9.64.2-20.57,3.46-41.05,7.37-61.58,11.1l-25.55-26.01c-1.03-1.44,1.45-4.46,2.44-5.78,2.58-3.44,8.21-9.29,11.39-12.61,2.02-2.1,10.73-11.37,12.54-11.51l68.07,13.01,2.37-1.54c-5.29-29.19-20.84-53.8-44.63-71.26-13.72-10.07-30.43-16.85-47.32-19.17l13.03,70.48c-.14,1.69-2.66,3.81-4.01,5.04-4.46,4.06-9.59,7.89-14.04,11.96-2.08,1.9-8.56,9.56-10.48,9.58-2.42.02-3.38-3.52-4.98-5.07-4.66-4.5-9.73-8.96-14.49-13.51-2.28-2.17-7.45-4.63-8.03-7.99l13-70.48ZM1865,348l-1.49-3-17.12-17.82c-31.46,6.27-63.02,12.58-94.6,18.1-1.25.22-6.76.92-6.77,2.22-.01,2.71,6.89.5,8.44.45,35.14-1.14,73.19-.56,108.25.75,1.2.04,2.13-.7,3.29-.71ZM1906.5,348h113c.46,0,2.01,1.57,3.99,1,.31-.09,1.97-1.47,1.02-2l-101.07-19.96-2,.89-13.42,15.6c-1.75,1.94-4.9,1.78-4.01,5.48,1.21.42,2.14-.96,2.5-1ZM1885,368v123c3.03.46,1.62-.72,2-2.47,7.15-33.15,11.9-66.89,19.1-100.04-.2-4.49-7.23-8.15-10.15-10.94-2.57-2.46-4.92-5.52-7.93-8.05-1.01-.85-1.3-1.9-3.01-1.5Z"/>
  <path class="st0" d="M1408,181.5l4.45-2.55c44.81,1.96,92.76-4.01,136.78,4.32,58.41,11.05,95.3,61.77,86.67,121.13-6.56,45.16-49.43,84.38-95.4,85.62-1.51.04-2.91-.77-2.5,1.47l92.02,119.99.98,3.52h-43c-1.22-3.73-5.01-6.9-7.43-10.07-23.83-31.25-46.68-63.33-70.15-94.85-10.32-13.87-23.6-28.95-32.84-43.16-.79-1.22-1.85-2.29-1.58-3.91,8.48-.28,17.06.35,25.54.04,20.09-.73,43.32-2.07,61.35-11.65,34.84-18.51,48.7-57.35,33.29-94.09-25.43-60.63-98.18-43.8-150.73-46.36l-3.38,1.62c.43,1.65.94,3.12.98,4.88,2.1,97.94-1.73,196.13,0,294.1l-1.55,3.45h-32l-1.5-1.5V181.5Z"/>
  <path class="st0" d="M2569,209h-148.5l-1.5,1.5v118l1.5,1.5h85l1.5,1.5v27l-4.45,2.55c-25.34-.65-50.77.67-76.1,0-1.64-.04-7.45-2.09-7.45.45v121l1.5,1.5h147l1.5,1.5v27l-1.5,1.5h-182.5V178h182.5l1.5,1.5v29.5Z"/>
  <path class="st0" d="M2302,208h-104.5c-26.23,0-50.84,27.14-52.51,52.49-3.83,58.05,70.17,57.18,107.33,77.7,75.15,41.49,62.41,146.22-16.77,172.85-34.6,11.63-83.41,1.45-120.09,5.01l-3.45-1.55v-27l1.5-1.5h99c5.42,0,19.74-6.26,24.81-9.19,25.24-14.57,38.37-46.68,29.17-74.79-20.93-63.96-134.42-36.99-152.2-113.8-12.16-52.5,22.11-102.16,75.32-109.13,34.52-4.52,73.82,1.15,108.95-1.14l3.45,1.55v28.5Z"/>
  <path class="st0" d="M573.5,179h32l1.55,3.45c2.12,108.58-2.98,217.56-.1,326.1.04,1.64,2.09,7.45-.45,7.45h-33l-1.5-1.5V180.5l1.5-1.5Z"/>
  <path class="st0" d="M1923,2l9.51,64.01c2.33-.06,3.28-4.25,3.97-6.03,7.41-19.17,12.92-39.18,21.15-58.03,3.41.68,16.34-1.18,17.9,1.03l21.98,61.01,12-61.99h16.5l-17.93,95.57-16.96.32c-.52-2.44-1.72-4.61-2.59-6.91-7.66-20.23-13.37-42.66-21.55-62.45-.52-1.25-.52-2.71-2.46-2.54l-26.99,71.02c-1.31,1.9-13.55.97-16.57.54l-16.81-93.24,1.36-2.31h17.5Z"/>
  <path class="st0" d="M837.5,2c1.23.17,6.11,1.88,7.51,2.49,12.84,5.63,14.91,23.44,7,34.01-3.22,4.3-7.73,5.92-11.01,9.49,7.11.99,13.27,6.21,15.52,12.99,3.57,10.8.12,25.78-9.82,32.22-2.73,1.77-10.19,4.8-13.2,4.8h-49.5V2h53.5ZM802,18v62.5l1.5,1.5h27c1.46,0,6.48-5.19,7.06-6.94,2.31-7.05-.97-16.45-8.52-18.59-4.29-1.22-8.82.29-13.1-.9-1.47-.98-1.54-11.08.03-12.1,1.39-.9,5.83-1.19,8.03-1.97,7.2-2.57,14.68-9.39,12.82-17.78-.41-1.85-3.71-5.71-5.31-5.71h-29.5Z"/>
  <path class="st0" d="M1036.5,2c8.76,1.06,18.75,8.68,20.27,17.73,2.43,14.37-3.1,24.9-14.84,32.7-3.07,2.04-7.29,1.79-5.76,5.89l26.85,36.16.98,3.52h-21.5l-28.37-39.64c-1.7-3.01-1.48-7.1-.7-10.43,11.22-3.01,28.91-8.73,24.12-23.99-.7-2.22-4.95-5.94-7.06-5.94h-27.5v77.5c0,.29-1.39,1.48-1,2.5h-16.5l-1.5-1.5V2h52.5Z"/>
  <polygon class="st0" points="2503 2 2503 39.5 2504.5 41 2549 41 2549 3.5 2550.5 2 2566.5 2 2568 3.5 2568 96.5 2566.5 98 2550.5 98 2549 96.5 2549 58.5 2547.5 57 2504.5 57 2503 58.5 2503 96.5 2501.5 98 2485.5 98 2484 96.5 2484 3.5 2485.5 2 2503 2"/>
  <path class="st0" d="M1641,2v16h-46.5l-1.5,1.5v20l1.5,1.5h43l1.5,1.5v14.5h-44.5l-1.4,1.66c.4,4.27-.17,8.53-.11,12.85.02,1.36.83,2.66.88,3.98.08,2.13-2.41,4.59.63,6.5h47.5v16h-65.5l-1.5-1.5V3.5l1.5-1.5h64.5Z"/>
  <polygon class="st0" points="276 2 276 18 228 18 228 39.5 229.5 41 272.5 41 274 42.5 274 57 229.5 57 228 58.5 228 80.5 229.5 82 277 82 277 98 210 98 210 2 276 2"/>
  <path class="st0" d="M655,2v14.5l-1.5,1.5h-46.5v21.5l1.5,1.5h43l1.36,1.64c-.3,4.49,1.62,10.88-1.36,14.36h-43l-1.5,1.5v22l1.5,1.5h47.5v16h-65.5l-1.5-1.5V3.5l1.5-1.5h64.5Z"/>
  <path class="st0" d="M1216,72l5-16h19l-12.2-31.3-2.8-1.69-30.01,75h-17.5c-.12,0-1.97-1.44-1.05-2.03l40.03-92.99c.76-1.05,1.85-.94,2.97-1.03,3.46-.29,11.86-.47,15.04.06,1.38.23,2.3.79,2.96,2.04l40.1,91.93c.92.59-.93,2.03-1.05,2.03h-18l-12-26h-30.5Z"/>
  <path class="st0" d="M82,22c-12.95-3.78-25.72-6.7-39.24-3.74-17.44,3.81-23.11,18.84-21.8,35.29,2.52,31.68,35.25,33.31,59.02,23.9.59-.92,2.03.94,2.03,1.05v15.5c-12.28,4.23-26.55,5.04-39.51,4.01-22.05-1.75-38.16-17.55-40.39-39.61C-1.32,24.56,12.63,3.29,47.49.99c10.93-.72,24.89.5,34.51,5.51v15.5Z"/>
  <polygon class="st0" points="2363 2 2363 16.5 2361.5 18 2336 18 2336 96.5 2334.5 98 2318.5 98 2317 96.5 2317 18 2290 18 2290 2 2363 2"/>
  <path class="st0" d="M1454,2v14.5l-1.5,1.5h-25l-1.41,1.58c.03.97.83,2.04.75,2.91-1.76,18.49-1.11,38.31-.62,56.73.11,4.13-.42,7.96-.29,11.25.11,2.63,2.62,5.49-.43,7.53h-16l-1.5-1.5V18h-27V2h73Z"/>
  <polygon class="st0" points="423 2 423 80.5 424.5 82 461 82 461 98 405 98 405 2 423 2"/>
  <polygon class="st0" points="2150 98 2150 2 2167.5 2 2169 3.5 2169 96.5 2167.5 98 2150 98"/>
  <path class="st0" d="M1685,347c1.74.34,2.02-.43,2.78-1.72,1.33-2.25,4.46-13.37,5.15-13.85l8.07-.43-12.95,32.55-3.04.45c-1.52-5.56-4.22-10.75-6.56-15.99-.55-1.23.06-2.46-1.94-2.01-2.05,1-5.46,14.31-8.01,16.99-1.16,1.22-1.92,1.15-3.49,1l-12.01-33,7.88.11,6.61,16.88c.87.01,5.79-13.82,7.06-15.93.55-.92,1.74-2.34,2.93-2.06,1.33.31,7.3,14.43,7.51,17Z"/>
  <path class="st0" d="M1901,125v26.5c0,1.72,3.51,6.74-2.36,6.37-5.72-4.31-9.18-10.83-14.64-15.38-1.01-.84-1.29-1.91-3-1.5v17l-6.37-.13-1.5-1.5c.22-10.69-1.2-21.95.88-32.37,1.71-.42,1.99.66,3,1.49,5.87,4.89,11.45,11.75,16.5,17.49,1.84-1.27,1.19-1.45,1.03-2.99-.48-4.48-.88-8.86-.4-13.37l1.5-1.5,5.37-.13Z"/>
  <path class="st0" d="M2090.5,331c2.08,1.25,2.32,5.09-.13,5.87l-13.37.13v6.01s9.38.12,9.38.12c2.15.7,1.83,3.87,1.52,5.77-3.48,1.95-6.37.59-9.91.55l-.98,7.55h14.5c2.25,1.7,2.25,5.3,0,7h-20l-1.31-1.68c-1.47-4.75.1-9.03-.14-13.87-.22-4.27-.16-6.94-.17-10.95,0-2.24-2.36-4.58.63-6.5h20Z"/>
</svg>