<?xml version="1.0" encoding="UTF-8"?>
<svg id="Layer_1" xmlns="http://www.w3.org/2000/svg" version="1.1" viewBox="0 0 503.8 219.5">
  <!-- Generator: Adobe Illustrator 29.8.2, SVG Export Plug-In . SVG Version: 2.1.1 Build 3)  -->
  <defs>
    <style>
      .st0 {
        fill: #fff;
      }
    </style>
  </defs>
  <path id="path-1" class="st0" d="M498.1,114.2c-8.1-1.6-13.7-2-29.1-2-9.9,0-19.1.8-27.1,1.9,6.4-5.2,12.6-9,19.7-11.8,7.3-2.9,15.5-4.8,25.5-6,8.4-.8,10.2-3.8,9.7-6.3s-3.4-4.6-9.4-3.9c-9.1.8-17.7,2.7-25.8,5.9s-15.6,7.6-22.4,13.6c-3.4,2.9-6.5,6.6-9.1,10.7-12.1,2.5-20.4,5.6-22.1,6.2.4-2.6.8-5.1,1.2-7.6,28.9-10.3,43-34.2,52.7-50.9,8.6-14.9,15.1-35.4,14.2-46.9-.5-7.3-4.2-9.1-9.7-7.3-32.7,11.5-54.9,41.7-64.5,94.3,0-.1,0-.2.1-.4-1.2-1.5-3.2-4.6-5.6-8.5.1-.2.1-.3.2-.5,4.5-13.4,7.3-26.1,7.3-34.7,0-16.2-5.8-29.4-15.3-47.5-2.5-5.3-8.1-3.8-9.2.4-7.2,23.9-7.4,42.2-4.5,54,2.4,9.7,7.8,20.3,13.1,29-.8,2.6-1.8,5-2.8,7.2-1.7-2.7-3.7-5.5-5.8-8.1-8.2-10.5-30.3-37.4-32.4-40,0,0-.2-.3-.4-.5-3.6-4.1-8-1.6-8.2,2.5-.2,5.4,6.8,26.1,11,36,8.9,21,16.1,31.7,23.3,31.4,3.7-.2,7.3-2.3,10.7-5.8.5,1.4.9,2.7,1.2,4-1.3,5.4-11.4,11.2-25.6,9.3-8.1-.7-17.2-5.2-24.3-9.6-7.1-4.4-10.7-7.7-12.2-8.8-6.7-5.5-15.2,3.1-6.4,9.2,10.5,8,28.8,15.6,42.3,16.7,8.6.7,18.1-.5,25.1-5l.1-.1c3.1-1.9,6.2-5,7.6-8.4,1.8-4.4.8-9.7-1.7-15.3,1.3-2.1,2.5-4.4,3.6-6.9,3.2,4.8,5.9,8.5,7.3,10.2.1-.7.2-1.5.3-2.2-.8,5.3-1.5,10.8-2.1,16.6-.5,5.3,4.6,4.7,8.3,3.5,6.6-2.2,12.5-4.4,18.5-6.1-.7,1.8-1.3,3.6-1.7,5.4h.1c-13.3,3.2-20,10.8-13.1,24.6,1.9,3.8,4.7,7.2,8.3,11.4.6.6,2.5,3,5.1,6.3.1,0,.1.1.2.1-5.3-3-11.1-5.9-16.9-8.5-2.7-18.8-9.4-39.9-47-13.6-17.7-2-37.4-1.2-52.2,4.8-11.8,4.5-8.6,15.6,4,10.7,13.4-5.5,26-7.9,38.1-7.8-10,8.6-18.5,18.8-22.2,26.8-3.3,6.9-1.3,10.4,8.2,8.4,19.9-4.1,30.4-15.2,42.8-26.7.5-.5,1-.9,1.3-1.3-.7,4.4-1.1,9.5-1.3,15.2-.4,11.4,2.4,27.6,7.6,35.4,2.3,3.3,5.7,3.9,10.3-1,7.3-7.7,12-24.8,11.3-40.8,9.8,5,18.9,11.9,29.6,23.4,6.1,7.1,13.2,3.7,11-3.8-.1-.6-.4-1.3-.7-1.9.1.2.2.4.3.5-1.4-4.2-4.7-9.3-9.1-15.5-1.8-2.5-14.5-17.3-17.2-20.5-3.8-4.6-8.3-10.8-2.7-16.1.9-.4,1.8-.7,2.8-1,.9,19.2,23.9,21.1,34.3,19.3,1.6,1.7,3.3,3.4,4.9,5.2,4.6,5,9.4,10.6,20.8,22.8,8.7,8.4,15.9-.1,7.4-8.5-7-7.1-16.6-16.1-24.2-22.5.2.2.4.3.6.5,8-2.9,16.2-7.5,23.8-12.7,4.2-3,4.5-7.6-4.7-9.6-19.5-4.6-40.1-6.8-55.2-4.9.2,0,.3-.1.5-.1.5-1.6,1.2-3.2,2-4.8.2-.4.5-.9.8-1.3,28.2-5.6,52.8-1.8,61.3-.4,11.8,2,11.6-7.4,3.5-9ZM466.1,20.4c.3,3.5-.7,9.2-3.3,17-7.6,22.3-24.4,55.9-51.7,67.2,9.6-43.9,29.5-72.7,55-84.2ZM373.7,114.7c-4.6,0-10.6-12.3-16.1-25-2.5-5.7-4.3-10.7-5.7-15.1,5.8,6.9,11.9,14.1,14.6,17.4,6.3,7.6,10.6,13.9,13.5,19.2-1.9,2.3-4,3.5-6.3,3.5ZM383.5,66.5c-3.1-12.6-2.5-25.2,1.3-40.8,5.9,12.4,9,22.5,9,34.7,0,6.8-1.1,15.8-3.1,24.5-3-6-5.8-12.5-7.2-18.4ZM398.6,161.2c-6-2.4-11.8-4.4-17-5.8-2.7-.8-5.7-1.4-8.7-2.1,13.5-8.6,22.6-10.7,25.7,7.9ZM339.5,184.5c6.2-9,15-17.8,23.6-24.4,3.5.5,6.9,1.3,10.3,2.2-12.8,13.7-23.6,19.8-33.9,22.2ZM392.9,205.8c-1.4-3.8-2.8-8-3.8-12.5-1.8-8-2.3-17-.3-26.1,3.8,1.3,7.4,2.6,10.9,4,.7,12-.7,25.8-6.8,34.6ZM478.1,141.3c-6.7,4.4-13.3,7.6-19.6,9.4q.1.1.2.2c-2.3-1.7-4.6-3.5-6.9-5.1-1.6-1.1-3.1-2.2-4.8-3.1-.6-.3-1.1-.6-1.7-.9-.9-.3-1.9-.5-2.7-.1-1,.6-.8,1.8-.3,2.7.4.5.8,1,1.2,1.5,1.4,1.6,2.9,3.1,4.3,4.6.6.6,1.2,1.2,1.8,1.8-7.5.4-19.6-2.6-20.1-13.6,14.4-2.3,34.1-.4,48.6,2.6ZM323.7,100.2c-9-5.4-18.2-8.3-22.6-10.1-7.8-2.9-2.7-12.7,6.3-9.8,21.6,7.2,36.6,25.4,40.8,30.8,1,1.3,3.9,4.6,2.3,5.9-1,.8-1.8.3-3.5-1.1-3.5-2.7-12.4-9.6-23.3-15.7ZM411.1,48.8c-.1-.3-.1-.8-.2-1.3-.1-1,0-2.3,0-4,.1-3.3.5-7.7.9-12.3.8-9.3,1.8-18.7,2.1-23.1.6-11.1,13.2-10.3,10.7.8-.6,2.3-2.7,11.9-4.9,21.3-1.1,5-2.3,9.8-3.3,13.4-.5,1.8-.9,3.4-1.3,4.4-.2.5-.4,1-.6,1.4-.7,1.2-1.8,1.2-2.3,1.1-.2-.3-.8-.7-1.1-1.7Z"/>
  <g id="Symbols">
    <g id="Global-header_x2F_01-Desktop_x2F_01-Default">
      <g id="Desktop-header">
        <g id="Lower-hedaer">
          <g id="Logo">
            <path id="Amp" class="st0" d="M212.5,189.4h-37.7v-11.3h12.5l-2.3-64.4-29.7,63.3h-5.8l-29.7-63.3-2.3,64.4h12.5v11.3h-61.9v-11.3h10.4l-8.6-23.1H31.9l-8.6,23.1h10.8v11.3H0v-11.3h7.8c1.6,0,3-1.5,3.5-2.8s28.3-74.4,28.3-74.4h-10.2v-11.2h21.5c7.2,0,9.8,6.5,10.6,8.6,0,0,28.9,76.1,29.4,77,.7,1.4,1.8,2.8,3.6,2.8h8.4c1.7,0,2.8-1.4,2.9-2.8.1-1.3,3-66.1,3.4-74.4h-13.3v-11.2h19.2c4.7,0,7.6,2.7,10.3,8.6,2.7,6,27.1,58.9,27.1,58.9,0,0,24.8-53.4,27.3-58.9,2.8-6,5.2-8.6,9.8-8.6h19.4v11.3h-13.2l3.3,74.4c.1,1.4,1.4,2.9,2.9,2.9h10.5v11.1h0ZM36.1,144h29.8l-14.9-40-14.9,40ZM256.8,189.4h-38.9v-11.3h10.1c1.5,0,2.8-1.4,2.9-2.8v-74.4h-13v-11.2h38.2c21.9,0,37.3,13,37.3,31.7s-14.4,32.3-36.7,32.3c-4.9,0-10.2-.1-13.5-.2v21.9c0,1.4,1.1,2.8,2.9,2.8h10.8l-.1,11.2h0ZM243.2,142.2c3.3.1,8.6.2,13.8.2,14.8,0,24-8,24-20.8,0-14.2-12.2-20.6-24.3-20.6h-13.5v41.2h0Z"/>
            <g id="spark">
              <g id="Mask">
                <path id="path-11" data-name="path-1" class="st0" d="M498.1,114.2c-8.1-1.6-13.7-2-29.1-2-9.9,0-19.1.8-27.1,1.9,6.4-5.2,12.6-9,19.7-11.8,7.3-2.9,15.5-4.8,25.5-6,8.4-.8,10.2-3.8,9.7-6.3s-3.4-4.6-9.4-3.9c-9.1.8-17.7,2.7-25.8,5.9-8.1,3.2-15.6,7.6-22.4,13.6-3.4,2.9-6.5,6.6-9.1,10.7-12.1,2.5-20.4,5.6-22.1,6.2.4-2.6.8-5.1,1.2-7.6,28.9-10.3,43-34.2,52.7-50.9,8.6-14.9,15.1-35.4,14.2-46.9-.5-7.3-4.2-9.1-9.7-7.3-32.7,11.5-54.9,41.7-64.5,94.3,0-.1,0-.2.1-.4-1.2-1.5-3.2-4.6-5.6-8.5.1-.2.1-.3.2-.5,4.5-13.4,7.3-26.1,7.3-34.7,0-16.2-5.8-29.4-15.3-47.5-2.5-5.3-8.1-3.8-9.2.4-7.2,23.9-7.4,42.2-4.5,54,2.4,9.7,7.8,20.3,13.1,29-.8,2.6-1.8,5-2.8,7.2-1.7-2.7-3.7-5.5-5.8-8.1-8.2-10.5-30.3-37.4-32.4-40,0,0-.2-.3-.4-.5-3.6-4.1-8-1.6-8.2,2.5-.2,5.4,6.8,26.1,11,36,8.9,21,16.1,31.7,23.3,31.4,3.7-.2,7.3-2.3,10.7-5.8.5,1.4.9,2.7,1.2,4-1.3,5.4-11.4,11.2-25.6,9.3-8.1-.7-17.2-5.2-24.3-9.6-7.1-4.4-10.7-7.7-12.2-8.8-6.7-5.5-15.2,3.1-6.4,9.2,10.5,8,28.8,15.6,42.3,16.7,8.6.7,18.1-.5,25.1-5l.1-.1c3.1-1.9,6.2-5,7.6-8.4,1.8-4.4.8-9.7-1.7-15.3,1.3-2.1,2.5-4.4,3.6-6.9,3.2,4.8,5.9,8.5,7.3,10.2.1-.7.2-1.5.3-2.2-.8,5.3-1.5,10.8-2.1,16.6-.5,5.3,4.6,4.7,8.3,3.5,6.6-2.2,12.5-4.4,18.5-6.1-.7,1.8-1.3,3.6-1.7,5.4h.1c-13.3,3.2-20,10.8-13.1,24.6,1.9,3.8,4.7,7.2,8.3,11.4.6.6,2.5,3,5.1,6.3.1,0,.1.1.2.1-5.3-3-11.1-5.9-16.9-8.5-2.7-18.8-9.4-39.9-47-13.6-17.7-2-37.4-1.2-52.2,4.8-11.8,4.5-8.6,15.6,4,10.7,13.4-5.5,26-7.9,38.1-7.8-10,8.6-18.5,18.8-22.2,26.8-3.3,6.9-1.3,10.4,8.2,8.4,19.9-4.1,30.4-15.2,42.8-26.7.5-.5,1-.9,1.3-1.3-.7,4.4-1.1,9.5-1.3,15.2-.4,11.4,2.4,27.6,7.6,35.4,2.3,3.3,5.7,3.9,10.3-1,7.3-7.7,12-24.8,11.3-40.8,9.8,5,18.9,11.9,29.6,23.4,6.1,7.1,13.2,3.7,11-3.8-.1-.6-.4-1.3-.7-1.9.1.2.2.4.3.5-1.4-4.2-4.7-9.3-9.1-15.5-1.8-2.5-14.5-17.3-17.2-20.5-3.8-4.6-8.3-10.8-2.7-16.1.9-.4,1.8-.7,2.8-1,.9,19.2,23.9,21.1,34.3,19.3,1.6,1.7,3.3,3.4,4.9,5.2,4.6,5,9.4,10.6,20.8,22.8,8.7,8.4,15.9-.1,7.4-8.5-7-7.1-16.6-16.1-24.2-22.5.2.2.4.3.6.5,8-2.9,16.2-7.5,23.8-12.7,4.2-3,4.5-7.6-4.7-9.6-19.5-4.6-40.1-6.8-55.2-4.9.2,0,.3-.1.5-.1.5-1.6,1.2-3.2,2-4.8.2-.4.5-.9.8-1.3,28.2-5.6,52.8-1.8,61.3-.4,11.8,2,11.6-7.4,3.5-9ZM466.1,20.4c.3,3.5-.7,9.2-3.3,17-7.6,22.3-24.4,55.9-51.7,67.2,9.6-43.9,29.5-72.7,55-84.2ZM373.7,114.7c-4.6,0-10.6-12.3-16.1-25-2.5-5.7-4.3-10.7-5.7-15.1,5.8,6.9,11.9,14.1,14.6,17.4,6.3,7.6,10.6,13.9,13.5,19.2-1.9,2.3-4,3.5-6.3,3.5ZM383.5,66.5c-3.1-12.6-2.5-25.2,1.3-40.8,5.9,12.4,9,22.5,9,34.7,0,6.8-1.1,15.8-3.1,24.5-3-6-5.8-12.5-7.2-18.4ZM398.6,161.2c-6-2.4-11.8-4.4-17-5.8-2.7-.8-5.7-1.4-8.7-2.1,13.5-8.6,22.6-10.7,25.7,7.9ZM339.5,184.5c6.2-9,15-17.8,23.6-24.4,3.5.5,6.9,1.3,10.3,2.2-12.8,13.7-23.6,19.8-33.9,22.2ZM392.9,205.8c-1.4-3.8-2.8-8-3.8-12.5-1.8-8-2.3-17-.3-26.1,3.8,1.3,7.4,2.6,10.9,4,.7,12-.7,25.8-6.8,34.6ZM478.1,141.3c-6.7,4.4-13.3,7.6-19.6,9.4q.1.1.2.2c-2.3-1.7-4.6-3.5-6.9-5.1-1.6-1.1-3.1-2.2-4.8-3.1-.6-.3-1.1-.6-1.7-.9-.9-.3-1.9-.5-2.7-.1-1,.6-.8,1.8-.3,2.7.4.5.8,1,1.2,1.5,1.4,1.6,2.9,3.1,4.3,4.6.6.6,1.2,1.2,1.8,1.8-7.5.4-19.6-2.6-20.1-13.6,14.4-2.3,34.1-.4,48.6,2.6ZM323.7,100.2c-9-5.4-18.2-8.3-22.6-10.1-7.8-2.9-2.7-12.7,6.3-9.8,21.6,7.2,36.6,25.4,40.8,30.8,1,1.3,3.9,4.6,2.3,5.9-1,.8-1.8.3-3.5-1.1-3.5-2.7-12.4-9.6-23.3-15.7ZM411.1,48.8c-.1-.3-.1-.8-.2-1.3-.1-1,0-2.3,0-4,.1-3.3.5-7.7.9-12.3.8-9.3,1.8-18.7,2.1-23.1.6-11.1,13.2-10.3,10.7.8-.6,2.3-2.7,11.9-4.9,21.3-1.1,5-2.3,9.8-3.3,13.4-.5,1.8-.9,3.4-1.3,4.4-.2.5-.4,1-.6,1.4-.7,1.2-1.8,1.2-2.3,1.1-.2-.3-.8-.7-1.1-1.7Z"/>
              </g>
              <g id="AMP_Logo_update">
                <g id="Group">
                  <path id="Path" class="st0" d="M411.1,48.8c.2,1,.9,1.4,1.3,1.5.5.1,1.6.1,2.3-1.1.2-.4.4-.8.6-1.4.4-1,.8-2.6,1.3-4.4,1-3.6,2.1-8.4,3.3-13.4,2.1-9.4,4.3-19.1,4.9-21.3,2.5-11.1-10.1-11.9-10.7-.8-.4,4.5-1.4,13.9-2.1,23.1-.4,4.7-.7,9.1-.9,12.3-.1,1.7-.1,3,0,4-.1.7,0,1.2,0,1.5Z"/>
                  <path id="Path1" data-name="Path" class="st0" d="M323.7,100.2c10.8,6.1,19.8,13,23.3,15.7,1.8,1.4,2.6,1.9,3.5,1.1,1.5-1.4-1.3-4.6-2.3-5.9-4.2-5.4-19.3-23.6-40.8-30.8-9-2.8-14.1,6.9-6.3,9.8,4.4,1.9,13.6,4.7,22.6,10.1Z"/>
                  <path id="Shape" class="st0" d="M498.1,114.2c-8.1-1.6-13.7-2-29.1-2-9.9,0-19.1.8-27.1,1.9,6.4-5.2,12.6-9,19.7-11.8,7.3-2.9,15.5-4.8,25.5-6,8.4-.8,10.2-3.8,9.7-6.3s-3.4-4.6-9.4-3.9c-9.1.8-17.7,2.7-25.8,5.9-8.1,3.2-15.6,7.6-22.4,13.6-3.4,2.9-6.5,6.6-9.1,10.7-12.1,2.5-20.4,5.6-22.1,6.2.4-2.6.8-5.1,1.2-7.6,28.9-10.3,43-34.2,52.7-50.9,8.6-14.9,15.1-35.4,14.2-46.9-.5-7.3-4.2-9.1-9.7-7.3-32.7,11.5-54.9,41.7-64.5,94.3,0-.1,0-.2.1-.4-1.2-1.5-3.2-4.6-5.6-8.5.1-.2.1-.3.2-.5,4.5-13.4,7.3-26.1,7.3-34.7,0-16.2-5.8-29.4-15.3-47.5-2.5-5.3-8.1-3.8-9.2.4-7.2,23.9-7.4,42.2-4.5,54,2.4,9.7,7.8,20.3,13.1,29-.8,2.6-1.8,5-2.8,7.2-1.7-2.7-3.7-5.5-5.8-8.1-8.2-10.5-30.3-37.4-32.4-40,0,0-.2-.3-.4-.5-3.6-4.1-8-1.6-8.2,2.5-.2,5.4,6.8,26.1,11,36,8.9,21,16.1,31.7,23.3,31.4,3.7-.2,7.3-2.3,10.7-5.8.5,1.4.9,2.7,1.2,4-1.3,5.4-11.4,11.2-25.6,9.3-8.1-.7-17.2-5.2-24.3-9.6-7.1-4.4-10.7-7.7-12.2-8.8-6.7-5.5-15.2,3.1-6.4,9.2,10.5,8,28.8,15.6,42.3,16.7,8.6.7,18.1-.5,25.1-5l.1-.1c3.1-1.9,6.2-5,7.6-8.4,1.8-4.4.8-9.7-1.7-15.3,1.3-2.1,2.5-4.4,3.6-6.9,3.2,4.8,5.9,8.5,7.3,10.2.1-.7.2-1.5.3-2.2-.8,5.3-1.5,10.8-2.1,16.6-.5,5.3,4.6,4.7,8.3,3.5,6.6-2.2,12.5-4.4,18.5-6.1-.7,1.8-1.3,3.6-1.7,5.4h.1c-13.3,3.2-20,10.8-13.1,24.6,1.9,3.8,4.7,7.2,8.3,11.4.6.6,2.5,3,5.1,6.3.1,0,.1.1.2.1-5.3-3-11.1-5.9-16.9-8.5-2.7-18.8-9.4-39.9-47-13.6-17.7-2-37.4-1.2-52.2,4.8-11.8,4.5-8.6,15.6,4,10.7,13.4-5.5,26-7.9,38.1-7.8-10,8.6-18.5,18.8-22.2,26.8-3.3,6.9-1.3,10.4,8.2,8.4,19.9-4.1,30.4-15.2,42.8-26.7.5-.5,1-.9,1.3-1.3-.7,4.4-1.1,9.5-1.3,15.2-.4,11.4,2.4,27.6,7.6,35.4,2.3,3.3,5.7,3.9,10.3-1,7.3-7.7,12-24.8,11.3-40.8,9.8,5,18.9,11.9,29.6,23.4,6.1,7.1,13.2,3.7,11-3.8-.1-.6-.4-1.3-.7-1.9.1.2.2.4.3.5-1.4-4.2-4.7-9.3-9.1-15.5-1.8-2.5-14.5-17.3-17.2-20.5-3.8-4.6-8.3-10.8-2.7-16.1.9-.4,1.8-.7,2.8-1,.9,19.2,23.9,21.1,34.3,19.3,1.6,1.7,3.3,3.4,4.9,5.2,4.6,5,9.4,10.6,20.8,22.8,8.7,8.4,15.9-.1,7.4-8.5-7-7.1-16.6-16.1-24.2-22.5.2.2.4.3.6.5,8-2.9,16.2-7.5,23.8-12.7,4.2-3,4.5-7.6-4.7-9.6-19.5-4.6-40.1-6.8-55.2-4.9.2,0,.3-.1.5-.1.5-1.6,1.2-3.2,2-4.8.2-.4.5-.9.8-1.3,28.2-5.6,52.8-1.8,61.3-.4,11.8,2,11.6-7.4,3.5-9ZM466.1,20.4c.3,3.5-.7,9.2-3.3,17-7.6,22.3-24.4,55.9-51.7,67.2,9.6-43.9,29.5-72.7,55-84.2ZM373.7,114.7c-4.6,0-10.6-12.3-16.1-25-2.5-5.7-4.3-10.7-5.7-15.1,5.8,6.9,11.9,14.1,14.6,17.4,6.3,7.6,10.6,13.9,13.5,19.2-1.9,2.3-4,3.5-6.3,3.5ZM383.5,66.5c-3.1-12.6-2.5-25.2,1.3-40.8,5.9,12.4,9,22.5,9,34.7,0,6.8-1.1,15.8-3.1,24.5-3-6-5.8-12.5-7.2-18.4ZM398.6,161.2c-6-2.4-11.8-4.4-17-5.8-2.7-.8-5.7-1.4-8.7-2.1,13.5-8.6,22.6-10.7,25.7,7.9ZM339.5,184.5c6.2-9,15-17.8,23.6-24.4,3.5.5,6.9,1.3,10.3,2.2-12.8,13.7-23.6,19.8-33.9,22.2ZM392.9,205.8c-1.4-3.8-2.8-8-3.8-12.5-1.8-8-2.3-17-.3-26.1,3.8,1.3,7.4,2.6,10.9,4,.7,12-.7,25.8-6.8,34.6ZM478.1,141.3c-6.7,4.4-13.3,7.6-19.6,9.4q.1.1.2.2c-2.3-1.7-4.6-3.5-6.9-5.1-1.6-1.1-3.1-2.2-4.8-3.1-.6-.3-1.1-.6-1.7-.9-.9-.3-1.9-.5-2.7-.1-1,.6-.8,1.8-.3,2.7.4.5.8,1,1.2,1.5,1.4,1.6,2.9,3.1,4.3,4.6.6.6,1.2,1.2,1.8,1.8-7.5.4-19.6-2.6-20.1-13.6,14.4-2.3,34.1-.4,48.6,2.6Z"/>
                </g>
                <g id="Group1" data-name="Group">
                  <path id="Path2" data-name="Path" class="st0" d="M414.1,144.6c.3-.3.6-.6,1-.8-.3.2-.7.5-1,.8Z"/>
                  <path id="Path3" data-name="Path" class="st0" d="M415.8,143.3c.4-.3.8-.5,1.2-.7-.5.2-.9.4-1.2.7Z"/>
                  <path id="Path4" data-name="Path" class="st0" d="M434.4,179.7l.1.1q0-.1-.1-.1Z"/>
                  <path id="Path5" data-name="Path" class="st0" d="M466.5,20.2c.7-.3,1.4-.6,2.1-.9-.7.3-1.4.6-2.1.9Z"/>
                  <path id="Path6" data-name="Path" class="st0" d="M412.6,146.1c.3-.4.6-.8,1-1.1-.4.4-.7.8-1,1.1Z"/>
                  <path id="Path7" data-name="Path" class="st0" d="M462.8,37.3c2.7-7.7,3.6-13.5,3.3-17-25.5,11.5-45.4,40.3-55,84.2,27.3-11.2,44-44.9,51.7-67.2Z"/>
                  <path id="Path8" data-name="Path" class="st0" d="M426.8,130.3c.2,0,.5-.1.7-.1-.2,0-.5.1-.7.1Z"/>
                  <path id="Path9" data-name="Path" class="st0" d="M436.3,181c.1,0,.1.1.2.1-.1-.1-.2-.1-.2-.1Z"/>
                  <path id="Path10" data-name="Path" class="st0" d="M469.7,18.9c1.1-.4,2.2-.8,3.4-1.2-1.1.4-2.3.7-3.4,1.2Z"/>
                  <path id="Path11" data-name="Path" class="st0" d="M406.7,131.7c.3-2.8.7-5.6,1.1-8.4-.4,2.8-.8,5.5-1.1,8.4Z"/>
                  <path id="Path12" data-name="Path" class="st0" d="M401.5,105.7c-.2,1.2-.4,2.4-.6,3.6.1-1.2.3-2.4.6-3.6Z"/>
                  <path id="Path13" data-name="Path" class="st0" d="M417.6,142.2c.5-.3,1-.5,1.6-.8-.5.3-1.1.5-1.6.8Z"/>
                  <path id="Path14" data-name="Path" class="st0" d="M378,163.6c-1.4-.5-2.8-.9-4.3-1.3,1.4.5,2.9.9,4.3,1.3Z"/>
                  <path id="Path15" data-name="Path" class="st0" d="M389.1,193.3c1.1,4.9,2.5,9.4,4.1,13.5-.1-.3-.2-.6-.4-.9,6.1-8.8,7.6-22.6,6.8-34.7-3.4-1.4-7-2.7-10.9-4-2,9.1-1.4,18,.4,26.1Z"/>
                  <path id="Path16" data-name="Path" class="st0" d="M336.3,185.2c-.6.1-1.2.2-1.8.3.6-.1,1.2-.2,1.8-.3Z"/>
                  <path id="Path17" data-name="Path" class="st0" d="M339.1,184.6c-.6.1-1.1.2-1.6.3.5,0,1-.1,1.6-.3Z"/>
                  <path id="Path18" data-name="Path" class="st0" d="M438.1,182.3c.1,0,.1.1.2.1-.1,0-.2-.1-.2-.1Z"/>
                  <path id="Path19" data-name="Path" class="st0" d="M447.8,191.9c.1.1.1.2.2.3-.1-.1-.2-.2-.2-.3Z"/>
                  <path id="Path20" data-name="Path" class="st0" d="M439.7,183.6c.1,0,.1.1.1.1,0,0,0-.1-.1-.1Z"/>
                  <path id="Path21" data-name="Path" class="st0" d="M333.6,185.6c-.7.1-1.3.1-2,.2.7-.1,1.4-.2,2-.2Z"/>
                  <path id="Path22" data-name="Path" class="st0" d="M441.3,184.9l.1.1q0-.1-.1-.1Z"/>
                  <path id="Path23" data-name="Path" class="st0" d="M442.8,186.2s.1,0,0,0h0Z"/>
                  <path id="Path24" data-name="Path" class="st0" d="M444.1,187.4s0,.1,0,0h0Z"/>
                  <path id="Path25" data-name="Path" class="st0" d="M383.4,134.1c.2-.3.3-.6.5-1-.2.4-.3.7-.5,1Z"/>
                  <path id="Path26" data-name="Path" class="st0" d="M384.3,132c-.1.3-.3.7-.4,1,.2-.3.3-.7.4-1Z"/>
                  <path id="Path27" data-name="Path" class="st0" d="M384.7,130.7c-.1.4-.2.7-.3,1.1.1-.4.2-.7.3-1.1Z"/>
                  <path id="Path28" data-name="Path" class="st0" d="M351.7,74c-.2-.7-.4-1.3-.6-1.9.2.6.4,1.2.6,1.9Z"/>
                  <path id="Path29" data-name="Path" class="st0" d="M350.8,70.9c-.1-.5-.3-1-.4-1.5.1.5.2,1,.4,1.5Z"/>
                  <path id="Path30" data-name="Path" class="st0" d="M410.1,109.3c.1-.7.3-1.3.4-2-.1.6-.3,1.3-.4,2Z"/>
                  <path id="Path31" data-name="Path" class="st0" d="M385.1,127.8c0,.5-.1.9-.1,1.3.1-.4.1-.8.1-1.3Z"/>
                  <path id="Path32" data-name="Path" class="st0" d="M349.7,66.9c-.1-.2-.1-.4-.2-.7.1.3.1.5.2.7Z"/>
                  <path id="Path33" data-name="Path" class="st0" d="M384.9,124.4c.1.5.1,1,.2,1.5-.1-.5-.1-1-.2-1.5Z"/>
                  <path id="Path34" data-name="Path" class="st0" d="M385.1,126.2v1.4-1.4Z"/>
                  <path id="Path35" data-name="Path" class="st0" d="M384.5,122.3c.1.6.2,1.1.3,1.7,0-.5-.1-1.1-.3-1.7Z"/>
                  <path id="Path36" data-name="Path" class="st0" d="M384.9,25.3c.2-.9.4-1.7.7-2.6-.2.9-.5,1.8-.7,2.6Z"/>
                  <path id="Path37" data-name="Path" class="st0" d="M385.9,21.7c.3-1.3.7-2.5,1.1-3.8-.4,1.3-.8,2.6-1.1,3.8Z"/>
                  <path id="Path38" data-name="Path" class="st0" d="M387,17.9c.4-1.4.9-3.2,1.1-4.3-.3,1.1-.7,2.9-1.1,4.3Z"/>
                  <path id="Path39" data-name="Path" class="st0" d="M384.8,25.8c-3.9,15.6-4.4,28.1-1.3,40.8,1.4,5.8,4.2,12.4,7.3,18.5,2-8.7,3.1-17.7,3.1-24.5,0-12.3-3.2-22.4-9.1-34.8Z"/>
                  <path id="Path40" data-name="Path" class="st0" d="M409.1,114.6c.1-.7.3-1.3.4-2-.1.7-.3,1.3-.4,2Z"/>
                  <path id="Path41" data-name="Path" class="st0" d="M346.9,54.8c.1.6.2.8.2,1.1-.1-.5-.2-1-.2-1.1Z"/>
                  <path id="Path42" data-name="Path" class="st0" d="M347.2,56.3c0-.2-.1-.3-.1-.5.1.2.1.3.1.5Z"/>
                  <path id="Path43" data-name="Path" class="st0" d="M349.1,64.7c0-.2-.1-.3-.1-.5.1.2.1.3.1.5Z"/>
                  <path id="Path44" data-name="Path" class="st0" d="M347.6,58c0-.1-.1-.3-.1-.4,0,.1.1.2.1.4Z"/>
                  <path id="Path45" data-name="Path" class="st0" d="M351.9,74.6c1.4,4.4,3.2,9.5,5.7,15.1,5.5,12.7,11.6,25,16.1,25,2.2,0,4.4-1.3,6.3-3.5-2.9-5.3-7.3-11.6-13.5-19.2-2.7-3.3-8.8-10.5-14.6-17.4Z"/>
                  <path id="Path46" data-name="Path" class="st0" d="M385,129.2c-.1.4-.1.8-.2,1.3.1-.4.1-.8.2-1.3Z"/>
                  <path id="Path47" data-name="Path" class="st0" d="M478.6,141.4c.8.2,1.6.3,2.3.5-.7-.2-1.5-.3-2.3-.5Z"/>
                  <path id="Path48" data-name="Path" class="st0" d="M372.9,153.3c3,.6,5.9,1.3,8.7,2.1,5.2,1.4,11,3.4,17,5.8-3.1-18.6-12.2-16.5-25.7-7.9Z"/>
                  <path id="Path49" data-name="Path" class="st0" d="M328.2,185.9c.9,0,1.8-.1,2.7-.1-.9,0-1.8.1-2.7.1Z"/>
                  <path id="Path50" data-name="Path" class="st0" d="M449.8,152.5c1.9,1.9,3.7,3.8,5.6,5.8-1.8-2-3.7-3.9-5.6-5.8Z"/>
                  <path id="Path51" data-name="Path" class="st0" d="M490,144.3c-.7-.2-1.5-.5-2.3-.7.9.3,1.6.5,2.3.7Z"/>
                  <path id="Path52" data-name="Path" class="st0" d="M426,139.3c1.1-.2,2.1-.4,3.3-.6-1.2.1-2.3.4-3.3.6Z"/>
                  <path id="Path53" data-name="Path" class="st0" d="M339.5,184.5c10.3-2.4,21.1-8.6,33.9-22.2-3.4-.9-6.9-1.6-10.3-2.2-8.7,6.6-17.4,15.5-23.6,24.4Z"/>
                  <path id="Path54" data-name="Path" class="st0" d="M481.6,142c.9.2,1.8.4,2.7.7-.8-.2-1.7-.5-2.7-.7Z"/>
                  <path id="Path55" data-name="Path" class="st0" d="M422.8,140.1c.8-.2,1.7-.5,2.6-.7-.9.2-1.8.5-2.6.7Z"/>
                  <path id="Path56" data-name="Path" class="st0" d="M485.2,142.9c.6.2,1.2.3,1.8.5-.6-.2-1.2-.3-1.8-.5Z"/>
                  <path id="Path57" data-name="Path" class="st0" d="M449.6,152.3c-.6-.6-1.2-1.2-1.8-1.8-1.5-1.5-3-3-4.3-4.6-.4-.5-.9-1-1.2-1.5-.6-.9-.7-2.1.3-2.7.8-.5,1.9-.3,2.7.1.6.3,1.1.6,1.7.9,1.6,1,3.2,2,4.8,3.1,2.3,1.6,4.6,3.4,6.9,5.1q-.1-.1-.2-.2c6.3-1.7,13-5,19.6-9.4-14.5-3-34.2-4.9-48.6-2.7.5,11,12.6,14,20.1,13.7Z"/>
                  <path id="Path58" data-name="Path" class="st0" d="M389.1,193.3c-1.8-8-2.3-17-.3-26.1-3.4-1.1-7-2.3-10.8-3.5-1.4-.5-2.8-.9-4.3-1.3-.1,0-.2-.1-.3-.1-12.8,13.6-23.6,19.8-33.9,22.2h0c-.1,0-.3.1-.4.1-.6.1-1.1.2-1.6.3-.4.1-.7.1-1.1.2-.6.1-1.2.2-1.8.3-.3,0-.6.1-.9.1-.7.1-1.3.1-2,.2-.3,0-.5.1-.8.1-.9.1-1.8.1-2.7.1-3.3,6.9-1.3,10.4,8.2,8.4,19.9-4.1,30.4-15.2,42.8-26.7.5-.5,1-.9,1.3-1.3-.7,4.4-1.1,9.5-1.3,15.2-.4,11.4,2.4,27.6,7.6,35.4,2.3,3.3,5.7,3.9,10.3-1-1.2-2.7-2.6-5.8-3.9-9.2-1.6-4-3.1-8.6-4.1-13.4Z"/>
                  <path id="Path59" data-name="Path" class="st0" d="M383.9,133c.1-.3.3-.7.4-1,0-.1.1-.2.1-.2.1-.4.2-.7.3-1.1q0-.1.1-.2c.1-.4.2-.8.2-1.3v-.1c.1-.4.1-.9.1-1.3v-1.9c0-.5-.1-1-.2-1.5,0-.1,0-.2-.1-.4-.1-.5-.2-1.1-.3-1.7h0c-1.3,5.4-11.4,11.2-25.6,9.3-8.1-.7-17.2-5.2-24.3-9.6-7.1-4.4-10.7-7.7-12.2-8.8-6.7-5.5-15.2,3.1-6.4,9.2,10.5,8,28.8,15.6,42.3,16.7,8.6.7,18.1-.5,25.1-5l.1-.1c.2-.3.3-.6.4-1q0,.1,0,0Z"/>
                  <path id="Path60" data-name="Path" class="st0" d="M347.1,55.9c0,.2.1.3.1.5.1.4.2.8.3,1.2,0,.1.1.3.1.4.4,1.6.8,3.7,1.4,6.3,0,.2.1.3.1.5.1.5.3,1,.4,1.6.1.2.1.4.2.7.2.8.4,1.6.7,2.5.1.5.3,1,.4,1.5.1.4.2.8.3,1.1.2.6.4,1.3.6,1.9.1.2.1.4.2.6,5.8,6.9,11.9,14.1,14.6,17.4,6.3,7.6,10.6,13.9,13.5,19.2,1.8-2.1,3.5-5,5-8.3-1.7-2.7-3.7-5.5-5.8-8.1-8.2-10.5-30.3-37.4-32.4-40,.1,0,.2.5.3,1q0-.1,0,0Z"/>
                  <path id="Path61" data-name="Path" class="st0" d="M384.5,122.3h0c.1.6.2,1.2.3,1.7,0,.1,0,.2.1.4.1.5.1,1,.2,1.5v1.9c0,.5-.1.9-.1,1.3v.1c-.1.4-.1.8-.2,1.3q0,.1-.1.2c-.1.4-.2.7-.3,1.1,0,.1-.1.2-.1.2-.1.3-.3.7-.4,1,0,.1-.1.1-.1.2-.2.3-.3.7-.5,1,3.1-1.9,6.2-5,7.6-8.4,1.8-4.4.8-9.7-1.7-15.3-1.8,3.1-3.8,5.8-5.9,7.9.5,1.4.9,2.7,1.2,3.9Z"/>
                  <path id="Path62" data-name="Path" class="st0" d="M384.8,130.5q0,.1-.1.2c0-.1.1-.2.1-.2Z"/>
                  <path id="Path63" data-name="Path" class="st0" d="M384.8,130.5q0,.1-.1.2c0-.1.1-.2.1-.2Z"/>
                  <path id="Path64" data-name="Path" class="st0" d="M385,129.2h0Z"/>
                  <path id="Path65" data-name="Path" class="st0" d="M385,129.2h0Z"/>
                  <path id="Path66" data-name="Path" class="st0" d="M384.4,131.8c0,.1-.1.2-.1.2q.1-.1.1-.2Z"/>
                  <path id="Path67" data-name="Path" class="st0" d="M384.4,131.8c0,.1-.1.2-.1.2q.1-.1.1-.2Z"/>
                  <path id="Path68" data-name="Path" class="st0" d="M385.1,127.6v.2-.2Z"/>
                  <path id="Path69" data-name="Path" class="st0" d="M385.1,127.6v.2-.2Z"/>
                  <path id="Path70" data-name="Path" class="st0" d="M384.8,124c0,.1,0,.2.1.4,0-.1,0-.3-.1-.4Z"/>
                  <path id="Path71" data-name="Path" class="st0" d="M384.8,124c0,.1,0,.2.1.4,0-.1,0-.3-.1-.4Z"/>
                  <path id="Path72" data-name="Path" class="st0" d="M383.9,133c0,.1-.1.1-.1.2q.1-.1.1-.2Z"/>
                  <path id="Path73" data-name="Path" class="st0" d="M383.9,133c0,.1-.1.1-.1.2q.1-.1.1-.2Z"/>
                  <path id="Path74" data-name="Path" class="st0" d="M385.1,125.9v.3-.3Z"/>
                  <path id="Path75" data-name="Path" class="st0" d="M385.1,125.9v.3-.3Z"/>
                  <path id="Path76" data-name="Path" class="st0" d="M384.5,122.3h0Z"/>
                  <path id="Path77" data-name="Path" class="st0" d="M384.5,122.3h0Z"/>
                  <path id="Path78" data-name="Path" class="st0" d="M411.1,48.8c.2,1,.9,1.4,1.3,1.5.5.1,1.6.1,2.3-1.1.2-.4.4-.8.6-1.4.4-1,.8-2.6,1.3-4.4,1-3.6,2.1-8.4,3.3-13.4,2.1-9.4,4.3-19.1,4.9-21.3,2.5-11.1-10.1-11.9-10.7-.8-.4,4.5-1.4,13.9-2.1,23.1-.4,4.7-.7,9.1-.9,12.3-.1,1.7-.1,3,0,4-.1.7,0,1.2,0,1.5Z"/>
                  <path id="Path79" data-name="Path" class="st0" d="M323.7,100.2c10.8,6.1,19.8,13,23.3,15.7,1.8,1.4,2.6,1.9,3.5,1.1,1.5-1.4-1.3-4.6-2.3-5.9-4.2-5.4-19.3-23.6-40.8-30.8-9-2.8-14.1,6.9-6.3,9.8,4.4,1.9,13.6,4.7,22.6,10.1Z"/>
                  <path id="Path80" data-name="Path" class="st0" d="M387,17.9c-.4,1.3-.8,2.6-1.1,3.8-.1.3-.2.7-.3,1-.2.9-.5,1.7-.7,2.6,0,.1-.1.3-.1.4,5.9,12.4,9,22.5,9,34.7,0,6.8-1.1,15.8-3.1,24.5,1.8,3.6,3.7,7.1,5.5,10,.1-.2.1-.3.2-.5,4.5-13.4,7.3-26.1,7.3-34.7,0-16.2-5.8-29.4-15.3-47.5,0,.1-.1.6-.3,1.3-.3,1.2-.7,3-1.1,4.4Z"/>
                  <path id="Path81" data-name="Path" class="st0" d="M385.1,102.9c1.6,2.5,3,5.1,4.2,7.5,1.3-2.1,2.5-4.4,3.6-6.9-1.6-2.4-3.3-5-5-7.8-.9,2.6-1.8,5-2.8,7.2Z"/>
                  <path id="Path82" data-name="Path" class="st0" d="M373.7,114.7c-4.6,0-10.6-12.3-16.1-25-2.5-5.7-4.3-10.7-5.7-15.1h0c-.1-.2-.1-.4-.2-.6-.2-.7-.4-1.3-.6-1.9-.1-.4-.2-.8-.3-1.1-.1-.5-.3-1-.4-1.5-.2-.9-.5-1.7-.7-2.5-.1-.2-.1-.4-.2-.7-.1-.5-.3-1.1-.4-1.6,0-.2-.1-.3-.1-.5-.6-2.6-1.1-4.7-1.4-6.3,0-.1-.1-.3-.1-.4-.1-.4-.2-.8-.3-1.2-.1-.2-.1-.3-.1-.5h0c-.1-.3-.1-.5-.2-1.1,0,0-.2-.3-.4-.5-3.6-4.1-8-1.6-8.2,2.5-.2,5.4,6.8,26.1,11,36,8.9,21,16.1,31.7,23.3,31.4,3.7-.2,7.3-2.3,10.7-5.8-.8-2.1-1.9-4.5-3.3-7.1-1.9,2.3-4,3.5-6.3,3.5Z"/>
                  <path id="Path83" data-name="Path" class="st0" d="M347.5,57.5c-.1-.4-.2-.8-.3-1.2.1.4.2.8.3,1.2Z"/>
                  <path id="Path84" data-name="Path" class="st0" d="M347.5,57.5c-.1-.4-.2-.8-.3-1.2.1.4.2.8.3,1.2Z"/>
                  <path id="Path85" data-name="Path" class="st0" d="M380,111.2c1.4,2.6,2.5,5,3.3,7.1,2.1-2.2,4.1-4.8,5.9-7.9-1.1-2.5-2.5-5-4.2-7.5-1.4,3.4-3.1,6.3-5,8.3Z"/>
                  <path id="Path86" data-name="Path" class="st0" d="M380,111.2c1.4,2.6,2.5,5,3.3,7.1,2.1-2.2,4.1-4.8,5.9-7.9-1.1-2.5-2.5-5-4.2-7.5-1.4,3.4-3.1,6.3-5,8.3Z"/>
                  <path id="Path87" data-name="Path" class="st0" d="M351.9,74.6h0c-.1-.2-.1-.4-.2-.6.1.2.1.4.2.6Z"/>
                  <path id="Path88" data-name="Path" class="st0" d="M351.9,74.6h0c-.1-.2-.1-.4-.2-.6.1.2.1.4.2.6Z"/>
                  <path id="Path89" data-name="Path" class="st0" d="M350.4,69.4c-.2-.9-.5-1.7-.7-2.5.2.8.4,1.7.7,2.5Z"/>
                  <path id="Path90" data-name="Path" class="st0" d="M350.4,69.4c-.2-.9-.5-1.7-.7-2.5.2.8.4,1.7.7,2.5Z"/>
                  <path id="Path91" data-name="Path" class="st0" d="M349,64.2c-.6-2.6-1.1-4.7-1.4-6.3.4,1.7.8,3.8,1.4,6.3Z"/>
                  <path id="Path92" data-name="Path" class="st0" d="M349,64.2c-.6-2.6-1.1-4.7-1.4-6.3.4,1.7.8,3.8,1.4,6.3Z"/>
                  <path id="Path93" data-name="Path" class="st0" d="M347.1,55.9q0-.1,0,0,0-.1,0,0Z"/>
                  <path id="Path94" data-name="Path" class="st0" d="M347.1,55.9q0-.1,0,0,0-.1,0,0Z"/>
                  <path id="Path95" data-name="Path" class="st0" d="M351.1,72c-.1-.4-.2-.8-.3-1.1.1.4.2.8.3,1.1Z"/>
                  <path id="Path96" data-name="Path" class="st0" d="M351.1,72c-.1-.4-.2-.8-.3-1.1.1.4.2.8.3,1.1Z"/>
                  <path id="Path97" data-name="Path" class="st0" d="M349.5,66.3c-.1-.5-.3-1.1-.4-1.6.2.5.3,1,.4,1.6Z"/>
                  <path id="Path98" data-name="Path" class="st0" d="M349.5,66.3c-.1-.5-.3-1.1-.4-1.6.2.5.3,1,.4,1.6Z"/>
                  <path id="Path99" data-name="Path" class="st0" d="M430,116.2c-12.1,2.5-20.4,5.6-22.1,6.2,0,.3-.1.6-.1.9-.4,2.8-.8,5.5-1.1,8.4,6.6-2.2,12.5-4.4,18.5-6.1.8-2,1.7-4.1,2.8-6,.6-1.2,1.3-2.3,2-3.4Z"/>
                  <path id="Path100" data-name="Path" class="st0" d="M498.1,114.2c-8.1-1.6-13.7-2-29.1-2-9.9,0-19.1.8-27.1,1.9-.3.2-.6.4-.8.7-3.3,2.8-5.7,5.8-7.5,8.8,28.2-5.6,52.8-1.8,61.3-.4,11.5,2,11.3-7.4,3.2-9Z"/>
                  <path id="Path101" data-name="Path" class="st0" d="M407.9,122.4h0c.4-2.6.8-5.1,1.2-7.6h0v-.2c.1-.7.3-1.3.4-2,.2-1.1.4-2.3.6-3.4.1-.7.3-1.3.4-2,.2-.9.4-1.8.6-2.7h0c9.6-43.9,29.5-72.6,55-84.2h0c.1-.1.3-.1.4-.2.7-.3,1.4-.6,2.1-.9.4-.2.8-.3,1.2-.5,1.1-.4,2.2-.8,3.4-1.2,1.4-.4,2.9-.8,2.9-.8-.5-7.2-4.2-9.1-9.7-7.3-32.7,11.5-54.9,41.7-64.5,94.3-.1.6-.2,1.2-.3,1.8-.2,1.2-.4,2.4-.6,3.6-.1.8-.2,1.5-.4,2.3-.8,5.3-1.5,10.8-2.1,16.6-.5,5.3,4.6,4.7,8.3,3.5.3-2.8.7-5.6,1.1-8.4-.1-.1-.1-.4,0-.7Z"/>
                  <path id="Path102" data-name="Path" class="st0" d="M407.8,123.3c0-.3.1-.6.1-.9h0c-.1.3-.1.6-.1.9Z"/>
                  <path id="Path103" data-name="Path" class="st0" d="M407.8,123.3c0-.3.1-.6.1-.9h0c-.1.3-.1.6-.1.9Z"/>
                  <path id="Path104" data-name="Path" class="st0" d="M401.5,105.7c.1-.6.2-1.2.3-1.8,0-.1,0-.2.1-.4-1.2-1.5-3.2-4.6-5.6-8.5-1,3-2.1,5.8-3.4,8.6,3.2,4.8,5.9,8.5,7.3,10.2.1-.7.2-1.5.3-2.2.1-.8.2-1.5.4-2.3.1-1.2.3-2.4.6-3.6Z"/>
                  <path id="Path105" data-name="Path" class="st0" d="M383.5,66.5c-3.1-12.6-2.5-25.2,1.3-40.8h0c0-.1.1-.3.1-.4.2-.8.4-1.7.7-2.6.1-.3.2-.7.3-1,.3-1.3.7-2.5,1.1-3.8.4-1.4.9-3.2,1.1-4.3.2-.7.3-1.2.3-1.3-2.5-5.3-8.1-3.8-9.2.4-7.2,23.9-7.4,42.2-4.5,54,2.4,9.7,7.8,20.3,13.1,29,1.1-3.4,2.1-7,2.9-10.7-3-6.1-5.8-12.6-7.2-18.5Z"/>
                  <path id="Path106" data-name="Path" class="st0" d="M390.7,85c-.8,3.7-1.8,7.3-2.9,10.7,1.7,2.8,3.4,5.5,5,7.8,1.2-2.7,2.4-5.6,3.4-8.6-1.7-2.8-3.6-6.3-5.5-9.9Z"/>
                  <path id="Path107" data-name="Path" class="st0" d="M390.7,85c-.8,3.7-1.8,7.3-2.9,10.7,1.7,2.8,3.4,5.5,5,7.8,1.2-2.7,2.4-5.6,3.4-8.6-1.7-2.8-3.6-6.3-5.5-9.9Z"/>
                  <path id="Path108" data-name="Path" class="st0" d="M388.4,12.3c0,.1-.1.6-.3,1.3.2-.7.3-1.2.3-1.3Z"/>
                  <path id="Path109" data-name="Path" class="st0" d="M388.4,12.3c0,.1-.1.6-.3,1.3.2-.7.3-1.2.3-1.3Z"/>
                  <path id="Path110" data-name="Path" class="st0" d="M385.6,22.7c.1-.3.2-.7.3-1-.1.4-.2.7-.3,1Z"/>
                  <path id="Path111" data-name="Path" class="st0" d="M385.6,22.7c.1-.3.2-.7.3-1-.1.4-.2.7-.3,1Z"/>
                  <path id="Path112" data-name="Path" class="st0" d="M384.8,25.7q0,.1,0,0c0-.1.1-.3.1-.4,0,.2-.1.3-.1.4Z"/>
                  <path id="Path113" data-name="Path" class="st0" d="M384.8,25.7q0,.1,0,0c0-.1.1-.3.1-.4,0,.2-.1.3-.1.4Z"/>
                  <path id="Path114" data-name="Path" class="st0" d="M401.8,103.9c-.1.6-.2,1.2-.3,1.8.1-.6.2-1.2.3-1.8Z"/>
                  <path id="Path115" data-name="Path" class="st0" d="M401.8,103.9c-.1.6-.2,1.2-.3,1.8.1-.6.2-1.2.3-1.8Z"/>
                  <path id="Path116" data-name="Path" class="st0" d="M400.5,111.6c.1-.8.2-1.5.4-2.3-.2.7-.3,1.5-.4,2.3Z"/>
                  <path id="Path117" data-name="Path" class="st0" d="M400.5,111.6c.1-.8.2-1.5.4-2.3-.2.7-.3,1.5-.4,2.3Z"/>
                  <path id="Path118" data-name="Path" class="st0" d="M426.8,130.3c-1.1.2-2.2.4-3.2.7-13.3,3.2-20,10.8-13.1,24.6-1.3-3.8,0-6.7,1.8-9.1.1-.1.2-.2.3-.3.3-.4.6-.7,1-1.1.2-.2.4-.3.6-.5.3-.3.6-.6,1-.8.2-.2.4-.3.6-.4.4-.3.8-.5,1.2-.7.2-.1.4-.2.6-.4.5-.3,1-.5,1.6-.8.1-.1.2-.1.4-.2h0c.9-.4,1.8-.7,2.8-1h0c.1,0,.3-.1.4-.1.8-.2,1.7-.5,2.6-.7.2,0,.4-.1.6-.1,1.1-.2,2.1-.4,3.3-.6.1,0,.2,0,.3-.1h0c14.4-2.2,34.1-.3,48.6,2.7h0c.2,0,.3.1.5.1.8.2,1.6.3,2.3.5.2.1.4.1.6.1.9.2,1.8.4,2.7.7.3.1.5.1.8.2.6.2,1.2.3,1.8.5.3.1.5.1.8.2.8.2,1.6.5,2.3.7,4.2-3,4.5-7.6-4.7-9.6-19.5-4.6-40.1-6.8-55.2-4.9-.9.1-1.8.2-2.7.4-.1-.1-.4,0-.6,0Z"/>
                  <path id="Path119" data-name="Path" class="st0" d="M398.6,161.2c2.9,1.1,5.8,2.4,8.7,3.7-2.7-18.8-9.4-39.9-47-13.6,4.4.5,8.6,1.2,12.6,2,13.5-8.6,22.6-10.7,25.7,7.9Z"/>
                  <path id="Path120" data-name="Path" class="st0" d="M392.8,205.8c.1.3.2.6.4.9,1.3,3.4,2.7,6.5,3.9,9.2,7.3-7.7,12-24.8,11.3-40.8-2.8-1.5-5.7-2.8-8.7-4,.7,12.1-.7,25.9-6.9,34.7Z"/>
                  <path id="Path121" data-name="Path" class="st0" d="M331.7,185.7c.7-.1,1.3-.1,2-.2.3,0,.6-.1.9-.1.6-.1,1.2-.2,1.8-.3.4-.1.7-.1,1.1-.2.6-.1,1.1-.2,1.6-.3.1,0,.3-.1.4-.1,6.2-9,15-17.8,23.6-24.4-4.2-.7-8.4-1-12.7-1.1-10,8.6-18.5,18.8-22.2,26.8.9,0,1.8-.1,2.7-.1.3.1.5.1.8,0Z"/>
                  <path id="Path122" data-name="Path" class="st0" d="M334.6,185.4c-.3,0-.6.1-.9.1.2,0,.5,0,.9-.1Z"/>
                  <path id="Path123" data-name="Path" class="st0" d="M334.6,185.4c-.3,0-.6.1-.9.1.2,0,.5,0,.9-.1Z"/>
                  <path id="Path124" data-name="Path" class="st0" d="M339.4,184.6h0c-.1,0-.3.1-.4.1.2-.1.3-.1.4-.1Z"/>
                  <path id="Path125" data-name="Path" class="st0" d="M339.4,184.6h0c-.1,0-.3.1-.4.1.2-.1.3-.1.4-.1Z"/>
                  <path id="Path126" data-name="Path" class="st0" d="M331.7,185.7c-.3,0-.5.1-.8.1.3,0,.5,0,.8-.1Z"/>
                  <path id="Path127" data-name="Path" class="st0" d="M331.7,185.7c-.3,0-.5.1-.8.1.3,0,.5,0,.8-.1Z"/>
                  <path id="Path128" data-name="Path" class="st0" d="M397.1,215.9c-1.2-2.7-2.6-5.8-3.9-9.2,1.3,3.4,2.7,6.6,3.9,9.2Z"/>
                  <path id="Path129" data-name="Path" class="st0" d="M397.1,215.9c-1.2-2.7-2.6-5.8-3.9-9.2,1.3,3.4,2.7,6.6,3.9,9.2Z"/>
                  <path id="Path130" data-name="Path" class="st0" d="M337.4,185c-.4.1-.7.1-1.1.2.4-.1.7-.2,1.1-.2Z"/>
                  <path id="Path131" data-name="Path" class="st0" d="M337.4,185c-.4.1-.7.1-1.1.2.4-.1.7-.2,1.1-.2Z"/>
                  <path id="Path132" data-name="Path" class="st0" d="M447.8,191.9c-.9-1.4-2.1-2.9-3.6-4.5h0c-.4-.4-.8-.8-1.2-1.2l-.1-.1c-.4-.4-.9-.8-1.3-1.2l-.1-.1c-.5-.4-.9-.8-1.4-1.2-.1,0-.1-.1-.1-.1-.5-.4-1-.8-1.5-1.2-.1,0-.1-.1-.2-.1-.5-.4-1.1-.8-1.6-1.2-.1,0-.1-.1-.2-.1-.6-.4-1.1-.8-1.7-1.2l-.1-.1c-3.1-2.1-6.6-4.2-10.2-6.3-5.3-3-11.1-5.9-16.9-8.5.4,2.8.7,5.6,1,8.2.1.7.1,1.3.1,2,9.8,5,18.9,11.9,29.6,23.4,6.1,7.1,13.2,3.7,11-3.8-.1-.6-.4-1.3-.7-1.9-.1-.2-.2-.4-.3-.6-.4,0-.5-.1-.5-.2Z"/>
                  <path id="Path133" data-name="Path" class="st0" d="M372.9,153.3c-1.2.8-2.4,1.6-3.6,2.4-2.1,1.3-4.2,2.8-6.3,4.4,3.5.5,6.9,1.3,10.3,2.2h0c.1,0,.2.1.3.1,1.4.4,2.8.8,4.3,1.3,1,.3,1.9.6,2.9.9,0,0,.8.2,1.1.4.3.1,4.6,1.5,6.9,2.2h0c3.8,1.3,7.4,2.6,10.9,4-.1-1.8-.3-3.6-.4-5.3-.2-1.7-.4-3.2-.6-4.6-6-2.4-11.8-4.4-17-5.8-2.8-.8-5.7-1.5-8.8-2.2Z"/>
                  <path id="Path134" data-name="Path" class="st0" d="M360.4,151.4c-17.7-2-37.4-1.2-52.2,4.8-11.8,4.5-8.6,15.6,4,10.7,13.4-5.5,26-7.9,38.1-7.8,3.1-2.6,6.3-5.2,9.6-7.4.2-.1.3-.2.5-.3Z"/>
                  <path id="Path135" data-name="Path" class="st0" d="M373.4,162.3c.1,0,.2.1.3.1-.1,0-.2-.1-.3-.1h0Z"/>
                  <path id="Path136" data-name="Path" class="st0" d="M373.4,162.3c.1,0,.2.1.3.1-.1,0-.2-.1-.3-.1h0Z"/>
                  <path id="Path137" data-name="Path" class="st0" d="M382,164.9c-.3-.1-1.1-.4-1.1-.4-.9-.3-1.9-.6-2.9-.9,3.8,1.2,7.4,2.3,10.8,3.5h0c-2.2-.7-6.5-2.1-6.8-2.2Z"/>
                  <path id="Path138" data-name="Path" class="st0" d="M382,164.9c-.3-.1-1.1-.4-1.1-.4-.9-.3-1.9-.6-2.9-.9,3.8,1.2,7.4,2.3,10.8,3.5h0c-2.2-.7-6.5-2.1-6.8-2.2Z"/>
                  <path id="Path139" data-name="Path" class="st0" d="M369.3,155.8c1.2-.8,2.4-1.7,3.6-2.4-4-.8-8.2-1.5-12.6-2-.1.1-.3.2-.4.3-3.3,2.2-6.5,4.7-9.6,7.4,4.3,0,8.5.4,12.7,1.1,2.2-1.7,4.3-3.1,6.3-4.4Z"/>
                  <path id="Path140" data-name="Path" class="st0" d="M369.3,155.8c1.2-.8,2.4-1.7,3.6-2.4-4-.8-8.2-1.5-12.6-2-.1.1-.3.2-.4.3-3.3,2.2-6.5,4.7-9.6,7.4,4.3,0,8.5.4,12.7,1.1,2.2-1.7,4.3-3.1,6.3-4.4Z"/>
                  <path id="Path141" data-name="Path" class="st0" d="M407.3,164.9c-2.9-1.3-5.8-2.5-8.7-3.7.2,1.4.4,2.9.6,4.6.2,1.7.3,3.5.4,5.3,3,1.2,5.9,2.5,8.7,4,0-.7-.1-1.3-.1-2-.2-2.5-.5-5.3-.9-8.2Z"/>
                  <path id="Path142" data-name="Path" class="st0" d="M407.3,164.9c-2.9-1.3-5.8-2.5-8.7-3.7.2,1.4.4,2.9.6,4.6.2,1.7.3,3.5.4,5.3,3,1.2,5.9,2.5,8.7,4,0-.7-.1-1.3-.1-2-.2-2.5-.5-5.3-.9-8.2Z"/>
                  <path id="Path143" data-name="Path" class="st0" d="M417.6,142.2c-.2.1-.4.2-.6.4-.4.2-.8.5-1.2.7-.2.1-.4.3-.6.4-.4.3-.7.5-1,.8-.2.2-.4.3-.6.5-.4.4-.7.7-1,1.1-.1.1-.2.2-.3.3-1.8,2.4-3.1,5.3-1.8,9.1,1.9,3.8,4.7,7.2,8.3,11.4.6.6,2.5,3,5.1,6.3.1,0,.1.1.2.1,3.7,2.1,7.1,4.2,10.2,6.3l.1.1c.6.4,1.2.8,1.7,1.2.1,0,.1.1.2.1.6.4,1.1.8,1.6,1.2.1,0,.1.1.2.1.5.4,1,.8,1.5,1.2.1,0,.1.1.1.1.5.4,1,.8,1.4,1.2l.1.1c.5.4.9.8,1.3,1.2l.1.1c.4.4.8.8,1.2,1.2h0c1.5,1.6,2.8,3,3.6,4.5.1.1.1.2.2.3.1.2.2.4.3.6.1.2.2.4.3.5-1.4-4.2-4.7-9.3-9.1-15.5-1.8-2.5-14.5-17.3-17.2-20.5-3.8-4.6-8.3-10.8-2.7-16.1-.1.1-.2.1-.4.2-.1.3-.7.5-1.2.8Z"/>
                  <path id="Path144" data-name="Path" class="st0" d="M413.6,145.1c.2-.2.4-.3.6-.5-.3.1-.5.3-.6.5Z"/>
                  <path id="Path145" data-name="Path" class="st0" d="M413.6,145.1c.2-.2.4-.3.6-.5-.3.1-.5.3-.6.5Z"/>
                  <path id="Path146" data-name="Path" class="st0" d="M415.1,143.7c.2-.2.4-.3.6-.4-.2.1-.4.3-.6.4Z"/>
                  <path id="Path147" data-name="Path" class="st0" d="M415.1,143.7c.2-.2.4-.3.6-.4-.2.1-.4.3-.6.4Z"/>
                  <path id="Path148" data-name="Path" class="st0" d="M419.2,141.4c.1-.1.2-.1.4-.2h0c-.2.1-.3.2-.4.2Z"/>
                  <path id="Path149" data-name="Path" class="st0" d="M419.2,141.4c.1-.1.2-.1.4-.2h0c-.2.1-.3.2-.4.2Z"/>
                  <path id="Path150" data-name="Path" class="st0" d="M412.3,146.5c.1-.1.2-.2.3-.3-.1.1-.2.2-.3.3-1.8,2.4-3.1,5.4-1.8,9.1-1.2-3.8,0-6.7,1.8-9.1Z"/>
                  <path id="Path151" data-name="Path" class="st0" d="M412.3,146.5c.1-.1.2-.2.3-.3-.1.1-.2.2-.3.3-1.8,2.4-3.1,5.4-1.8,9.1-1.2-3.8,0-6.7,1.8-9.1Z"/>
                  <path id="Path152" data-name="Path" class="st0" d="M417,142.5c.2-.1.4-.2.6-.4-.2.2-.4.3-.6.4Z"/>
                  <path id="Path153" data-name="Path" class="st0" d="M417,142.5c.2-.1.4-.2.6-.4-.2.2-.4.3-.6.4Z"/>
                  <path id="Path154" data-name="Path" class="st0" d="M442.9,186.3c.4.4.8.8,1.2,1.2-.4-.5-.8-.9-1.2-1.2Z"/>
                  <path id="Path155" data-name="Path" class="st0" d="M442.9,186.3c.4.4.8.8,1.2,1.2-.4-.5-.8-.9-1.2-1.2Z"/>
                  <path id="Path156" data-name="Path" class="st0" d="M444.1,187.5c1.5,1.6,2.8,3.1,3.6,4.5-.8-1.5-2-3-3.6-4.5Z"/>
                  <path id="Path157" data-name="Path" class="st0" d="M444.1,187.5c1.5,1.6,2.8,3.1,3.6,4.5-.8-1.5-2-3-3.6-4.5Z"/>
                  <path id="Path158" data-name="Path" class="st0" d="M448.2,192.8c-.1-.2-.2-.4-.3-.6.2.2.3.4.3.6Z"/>
                  <path id="Path159" data-name="Path" class="st0" d="M448.2,192.8c-.1-.2-.2-.4-.3-.6.2.2.3.4.3.6Z"/>
                  <path id="Path160" data-name="Path" class="st0" d="M441.4,185c.5.4.9.8,1.3,1.2-.3-.4-.8-.8-1.3-1.2Z"/>
                  <path id="Path161" data-name="Path" class="st0" d="M441.4,185c.5.4.9.8,1.3,1.2-.3-.4-.8-.8-1.3-1.2Z"/>
                  <path id="Path162" data-name="Path" class="st0" d="M424.2,173.4c3.7,2.1,7.1,4.2,10.2,6.3-3.1-2.1-6.5-4.2-10.2-6.3Z"/>
                  <path id="Path163" data-name="Path" class="st0" d="M424.2,173.4c3.7,2.1,7.1,4.2,10.2,6.3-3.1-2.1-6.5-4.2-10.2-6.3Z"/>
                  <path id="Path164" data-name="Path" class="st0" d="M436.4,181.1c.6.4,1.1.8,1.6,1.2-.5-.4-1-.8-1.6-1.2Z"/>
                  <path id="Path165" data-name="Path" class="st0" d="M436.4,181.1c.6.4,1.1.8,1.6,1.2-.5-.4-1-.8-1.6-1.2Z"/>
                  <path id="Path166" data-name="Path" class="st0" d="M434.5,179.8c.6.4,1.2.8,1.7,1.2-.5-.4-1.1-.8-1.7-1.2Z"/>
                  <path id="Path167" data-name="Path" class="st0" d="M434.5,179.8c.6.4,1.2.8,1.7,1.2-.5-.4-1.1-.8-1.7-1.2Z"/>
                  <path id="Path168" data-name="Path" class="st0" d="M439.9,183.7c.5.4,1,.8,1.4,1.2-.4-.4-.9-.8-1.4-1.2Z"/>
                  <path id="Path169" data-name="Path" class="st0" d="M439.9,183.7c.5.4,1,.8,1.4,1.2-.4-.4-.9-.8-1.4-1.2Z"/>
                  <path id="Path170" data-name="Path" class="st0" d="M438.2,182.4c.5.4,1,.8,1.5,1.2-.4-.4-1-.8-1.5-1.2Z"/>
                  <path id="Path171" data-name="Path" class="st0" d="M438.2,182.4c.5.4,1,.8,1.5,1.2-.4-.4-1-.8-1.5-1.2Z"/>
                  <path id="Path172" data-name="Path" class="st0" d="M451.8,145.7c-1.6-1.1-3.1-2.2-4.8-3.1-.6-.3-1.1-.6-1.7-.9-.9-.3-1.9-.5-2.7-.1-1,.6-.8,1.8-.3,2.7.4.5.8,1,1.2,1.5,1.4,1.6,2.9,3.1,4.3,4.6.6.6,1.2,1.2,1.8,1.8h0q.1.1.2.2c1.9,1.9,3.7,3.8,5.6,5.8.4.4.8.8,1.3,1.3h0c1.6,1.7,3.3,3.4,4.9,5.2,4.6,5,9.4,10.6,20.8,22.8,8.7,8.4,15.9-.1,7.4-8.5-7-7.1-16.6-16.1-24.2-22.5-2.3-1.9-4.6-3.8-7-5.6-2.2-1.8-4.5-3.6-6.8-5.2Z"/>
                  <path id="Path173" data-name="Path" class="st0" d="M449.8,152.5q-.1-.1-.2-.2c-7.5.4-19.6-2.6-20.1-13.6h-.3c-1.1.2-2.2.4-3.3.6-.2,0-.4.1-.6.1-.9.2-1.8.4-2.6.7-.1,0-.3.1-.4.1.9,19.2,23.9,21.1,34.3,19.3-.4-.4-.8-.9-1.2-1.3-1.8-1.9-3.7-3.8-5.6-5.7Z"/>
                  <path id="Path174" data-name="Path" class="st0" d="M425.4,139.4c.2,0,.4-.1.6-.1-.2,0-.4.1-.6.1Z"/>
                  <path id="Path175" data-name="Path" class="st0" d="M425.4,139.4c.2,0,.4-.1.6-.1-.2,0-.4.1-.6.1Z"/>
                  <path id="Path176" data-name="Path" class="st0" d="M429.5,138.6c-.1,0-.2,0-.3.1.1-.1.2-.1.3-.1h0Z"/>
                  <path id="Path177" data-name="Path" class="st0" d="M429.5,138.6c-.1,0-.2,0-.3.1.1-.1.2-.1.3-.1h0Z"/>
                  <path id="Path178" data-name="Path" class="st0" d="M422.4,140.2h0c.1,0,.3-.1.4-.1-.2.1-.3.1-.4.1Z"/>
                  <path id="Path179" data-name="Path" class="st0" d="M422.4,140.2h0c.1,0,.3-.1.4-.1-.2.1-.3.1-.4.1Z"/>
                  <path id="Path180" data-name="Path" class="st0" d="M449.6,152.3h0q.1.1.2.2c0-.1-.1-.2-.2-.2Z"/>
                  <path id="Path181" data-name="Path" class="st0" d="M449.6,152.3h0q.1.1.2.2c0-.1-.1-.2-.2-.2Z"/>
                  <path id="Path182" data-name="Path" class="st0" d="M455.5,158.2c.4.4.8.9,1.2,1.3h0c-.4-.4-.8-.8-1.2-1.3Z"/>
                  <path id="Path183" data-name="Path" class="st0" d="M455.5,158.2c.4.4.8.9,1.2,1.3h0c-.4-.4-.8-.8-1.2-1.3Z"/>
                  <path id="Path184" data-name="Path" class="st0" d="M487,143.4c-.6-.2-1.2-.3-1.8-.5-.3-.1-.5-.1-.8-.2-.9-.2-1.8-.4-2.7-.7-.2-.1-.4-.1-.6-.1-.8-.2-1.5-.3-2.3-.5-.2,0-.3-.1-.5-.1-6.7,4.4-13.3,7.6-19.6,9.4q.1.1.2.2c2.4,1.8,4.7,3.7,7,5.6.2.2.4.3.6.5,8-2.9,16.2-7.5,23.8-12.7-.7-.2-1.5-.5-2.3-.7-.5-.1-.7-.1-1-.2Z"/>
                  <path id="Path185" data-name="Path" class="st0" d="M481,141.9c.2.1.4.1.6.1-.2,0-.4-.1-.6-.1Z"/>
                  <path id="Path186" data-name="Path" class="st0" d="M481,141.9c.2.1.4.1.6.1-.2,0-.4-.1-.6-.1Z"/>
                  <path id="Path187" data-name="Path" class="st0" d="M478.2,141.3q-.1,0,0,0c.2,0,.3.1.5.1-.2-.1-.4-.1-.5-.1Z"/>
                  <path id="Path188" data-name="Path" class="st0" d="M478.2,141.3q-.1,0,0,0c.2,0,.3.1.5.1-.2-.1-.4-.1-.5-.1Z"/>
                  <path id="Path189" data-name="Path" class="st0" d="M487,143.4c.3.1.5.1.8.2-.3-.1-.5-.1-.8-.2Z"/>
                  <path id="Path190" data-name="Path" class="st0" d="M487,143.4c.3.1.5.1.8.2-.3-.1-.5-.1-.8-.2Z"/>
                  <path id="Path191" data-name="Path" class="st0" d="M484.3,142.7c.3.1.5.1.8.2-.2-.1-.5-.1-.8-.2Z"/>
                  <path id="Path192" data-name="Path" class="st0" d="M484.3,142.7c.3.1.5.1.8.2-.2-.1-.5-.1-.8-.2Z"/>
                  <path id="Path193" data-name="Path" class="st0" d="M465.7,156.5c-2.3-1.9-4.6-3.8-7-5.6,2.4,1.8,4.7,3.6,7,5.6Z"/>
                  <path id="Path194" data-name="Path" class="st0" d="M465.7,156.5c-2.3-1.9-4.6-3.8-7-5.6,2.4,1.8,4.7,3.6,7,5.6Z"/>
                  <path id="Path195" data-name="Path" class="st0" d="M469.7,18.9c-.4.2-.8.3-1.2.5-.7.3-1.4.6-2.1.9-.1.1-.3.1-.4.2.3,3.5-.7,9.2-3.3,17-7.6,22.3-24.4,55.9-51.7,67.2-.2.9-.4,1.8-.6,2.7-.1.7-.3,1.3-.4,2-.2,1.1-.4,2.3-.6,3.4-.1.7-.3,1.3-.4,2v.2c28.9-10.3,43-34.2,52.7-50.9,8.6-14.9,15.1-35.4,14.2-46.9-.7.2-1.9.4-2.9.8-1,.1-2.2.4-3.3.9Z"/>
                  <path id="Path196" data-name="Path" class="st0" d="M466.1,20.4h0c.1,0,.3-.1.4-.2-.1.1-.3.1-.4.2Z"/>
                  <path id="Path197" data-name="Path" class="st0" d="M466.1,20.4h0c.1,0,.3-.1.4-.2-.1.1-.3.1-.4.2Z"/>
                  <path id="Path198" data-name="Path" class="st0" d="M409.5,112.6c.2-1.1.4-2.3.6-3.4-.2,1.2-.4,2.3-.6,3.4Z"/>
                  <path id="Path199" data-name="Path" class="st0" d="M409.5,112.6c.2-1.1.4-2.3.6-3.4-.2,1.2-.4,2.3-.6,3.4Z"/>
                  <path id="Path200" data-name="Path" class="st0" d="M409.1,114.8h0v-.2.2Z"/>
                  <path id="Path201" data-name="Path" class="st0" d="M409.1,114.8h0v-.2.2Z"/>
                  <path id="Path202" data-name="Path" class="st0" d="M411.1,104.6c-.2.9-.4,1.8-.6,2.7.2-1,.4-1.9.6-2.7h0Z"/>
                  <path id="Path203" data-name="Path" class="st0" d="M411.1,104.6c-.2.9-.4,1.8-.6,2.7.2-1,.4-1.9.6-2.7h0Z"/>
                  <path id="Path204" data-name="Path" class="st0" d="M468.5,19.3c.4-.2.8-.3,1.2-.5-.4.2-.8.4-1.2.5Z"/>
                  <path id="Path205" data-name="Path" class="st0" d="M468.5,19.3c.4-.2.8-.3,1.2-.5-.4.2-.8.4-1.2.5Z"/>
                  <path id="Path206" data-name="Path" class="st0" d="M475.9,16.9s-1.5.3-2.9.8c1-.3,2.3-.6,2.9-.8Z"/>
                  <path id="Path207" data-name="Path" class="st0" d="M475.9,16.9s-1.5.3-2.9.8c1-.3,2.3-.6,2.9-.8Z"/>
                  <path id="Path208" data-name="Path" class="st0" d="M425.2,125.6c-.7,1.8-1.3,3.6-1.7,5.4h.1c1-.2,2.1-.5,3.2-.7.2,0,.5-.1.7-.1.9-.1,1.8-.3,2.7-.4.2,0,.3-.1.5-.1.5-1.6,1.2-3.2,2-4.8.2-.4.5-.9.8-1.3-1.1.2-2.3.5-3.5.7-1.6.4-3.2.9-4.8,1.3Z"/>
                  <path id="Path209" data-name="Path" class="st0" d="M441.8,114.1c6.4-5.2,12.6-9,19.7-11.8,7.3-2.9,15.5-4.8,25.5-6,8.4-.8,10.2-3.8,9.7-6.3s-3.4-4.6-9.4-3.9c-9.1.8-17.7,2.7-25.8,5.9-8.1,3.2-15.6,7.6-22.4,13.6-3.4,2.9-6.5,6.6-9.1,10.7,1.6-.3,3.2-.7,4.9-1,2.2-.5,4.5-.8,6.9-1.2Z"/>
                  <path id="Path210" data-name="Path" class="st0" d="M441,114.8c.3-.2.6-.4.8-.7-2.4.4-4.7.7-6.9,1.1-1.7.3-3.4.6-4.9,1-.7,1.1-1.4,2.2-2.1,3.4-1.1,2-2,4-2.8,6,1.6-.5,3.2-.9,4.9-1.3,1.2-.3,2.3-.5,3.5-.7,1.8-3,4.3-6,7.5-8.8Z"/>
                  <path id="Path211" data-name="Path" class="st0" d="M441,114.8c.3-.2.6-.4.8-.7-2.4.4-4.7.7-6.9,1.1-1.7.3-3.4.6-4.9,1-.7,1.1-1.4,2.2-2.1,3.4-1.1,2-2,4-2.8,6,1.6-.5,3.2-.9,4.9-1.3,1.2-.3,2.3-.5,3.5-.7,1.8-3,4.3-6,7.5-8.8Z"/>
                  <path id="Path212" data-name="Path" class="st0" d="M430.2,129.8c-.9.1-1.8.2-2.7.4.9-.1,1.8-.3,2.7-.4Z"/>
                  <path id="Path213" data-name="Path" class="st0" d="M430.2,129.8c-.9.1-1.8.2-2.7.4.9-.1,1.8-.3,2.7-.4Z"/>
                  <path id="Path214" data-name="Path" class="st0" d="M423.6,131c1-.2,2.1-.5,3.2-.7-1.1.2-2.2.4-3.2.7Z"/>
                  <path id="Path215" data-name="Path" class="st0" d="M423.6,131c1-.2,2.1-.5,3.2-.7-1.1.2-2.2.4-3.2.7Z"/>
                </g>
              </g>
            </g>
          </g>
        </g>
      </g>
    </g>
  </g>
</svg>