<?xml version="1.0" encoding="UTF-8"?>
<svg id="Layer_1" xmlns="http://www.w3.org/2000/svg" version="1.1" viewBox="0 0 1819.18 674.15">
  <!-- Generator: Adobe Illustrator 29.8.2, SVG Export Plug-In . SVG Version: 2.1.1 Build 3)  -->
  <defs>
    <style>
      .st0 {
        fill: #0f3154;
      }
    </style>
  </defs>
  <path class="st0" d="M219.38,577.52c1.86-1.93-4.08-3.26-5.01-3.52-29.31-8.25-45.82-8.54-72.98-26.62-112.48-74.9-92.18-248.66,36.22-291.73,7.92-2.66,24.47-4.4,30-7.22,3.88-1.98,3.29-32.76-2.3-35.52l-71.52-.92c-10.86-2.57-13.17-30.04,4.72-31.65,6.05-.54,43.98-.31,55.26-.14,3.88.06,10.95.75,13.98-3.28s2.12-24.68-.17-29.63c-1.3-2.81-13.82-7.21-17.67-9.49C129.55,102.15,152.47,4.76,221.91.2c81.81-5.37,112.54,97.39,47.08,137.59-4.23,2.6-12.47,4.37-13.94,9.2-1,3.27-.94,28.3.29,30.99,2.61,5.7,10.41,2.3,14.81,2.21,11.84-.23,63.42-3.7,64.96,9.57.74,6.37,1.18,20.66-6.78,22.44-21.06.38-42.14.22-63.21.26-3.47,0-9.33-2.64-10.5,3.49-1.24,6.47-6.11,30.8.76,33.4,8.75,3.31,21.53,4.44,31.95,8.3,137.84,51.06,141.92,244.03,8.89,302.63-16.98,7.48-29.42,8.44-46.46,12.9-7.53,1.97-10.42,2.74-1.19,5.86,21.5,7.27,29.5,7.32,51.35,2.04,36.95-8.93,76.08-31.05,101.56-59.41,2.3-2.56,13.39-16.19,13.93-18.34,2.58-10.26-16.48-1.62-20.42-2.21-2.17-.32-2.71-1.23-2.4-3.35.24-1.64,12.56-16.31,14.76-19.52,9.48-13.87,21.47-34.82,26.81-50.64,1.41-4.16,5.15-24.54,8.2-25.06,1.87-.32,4.19,3.5,4.93,4.97,9.67,19.3,14.87,63.53,13.61,85.04-.22,3.77-2.61,23.41-4,25.16-6.39,8-8.33-17.3-15.73-11.7-1.8,1.36-7.09,16.63-8.94,20.24-15.77,30.82-47.24,61.98-76.1,80.83-33.82,22.08-73.51,32.06-107.29,54.68-4.36,2.92-14.66,12.93-18.83,12.33-1.46-.21-9.44-7.61-11.91-9.3-33.29-22.88-72.33-32.31-106.04-52.91-32.81-20.05-64.02-50.77-82-84.99-1.85-3.53-8.82-21.69-9.86-22.34-6.33-3.94-8.81,10.7-11.52,12.68-4.89,3.57-6.03-1.86-6.5-5.72-2.86-23.44-3.31-41.51,1.17-64.98,1.12-5.87,10.21-42.68,14.41-43.97,4.86-1.49,4.19,7.44,4.88,10.05,6.04,22.82,17.01,44.92,29.92,64.64,2.34,3.58,14.45,18.45,14.76,20.52,1.03,6.77-12.82.74-16.57.39-11.91-1.13-4.56,7.68-.79,12.87,27.94,38.45,84.51,69.86,131.82,74.41,13,1.25,24.93-5.47,37.61-7.94ZM219.12,29.6c-14.46,2.25-28.76,16.74-33,30.38-14.46,46.6,43.97,81.19,76.03,45.83,30.49-33.62,2.89-83.36-43.04-76.22ZM213.14,258.99c-65.21,5.75-120.07,57.65-132.29,121.22-21.31,110.92,80.2,208.29,190.06,177.93,107.72-29.77,149.06-165.31,73.75-249.17-33.33-37.11-81.84-54.36-131.52-49.98Z"/>
  <path class="st0" d="M1088.92,331.89c2.69,2.78,22.74,3.17,12.14,14.11l-57.39.44c-12.26-11.85,9.4-11.31,12.24-16.41,3.58-6.42,3.01-20.06,2.94-27.12-.06-5.98,2.23-21.93-6.84-23.14l-56.39.05c-2.77.41-3.26,3.13-3.54,5.52-.88,7.67-1.04,33.82.26,41.02,2.06,11.43,16.76,4.26,17.68,14.57.84,9.42-12.32,5.33-17.37,5.23-11.38-.21-22.92-.18-34.3,0-4.19.07-12.03,3.28-12.52-4.56-.64-10.15,17.34-4.39,16.99-15.11-2.07-32.67,3.06-69.35.14-101.54-1.28-14.1-17.2-3.6-17.2-15.04,0-9.57,10.38-5.59,15.6-5.49,6.6.13,44.38-1.01,46.84.45,2.95,1.76,2.15,6.74.01,9.09-4.16,4.55-13.62.84-15.68,9.46-.88,3.7-1.01,36.78.09,39.27.42.95,1.68,1.84,2.52,2.51,17.37-.25,37.65,2.13,54.86.57,4.59-.42,6.37-.96,7.26-5.82,1.12-6.13,1.05-29.5.15-35.87-1.77-12.43-16.66-3.03-17.08-14.21-.35-9.39,10.31-5.55,15.62-5.45,9.7.17,19.57.2,29.27,0,5.05-.1,18.19-4.26,18.67,4.49.57,10.18-16,5.41-17.15,15.14,1.83,31.95-2.64,66.96-.1,98.55.16,1.98,1.14,8.12,2.28,9.29Z"/>
  <path class="st0" d="M1311.85,203.67c18.32-.09,37.54-1.45,53.86,8.93,20.9,13.3,20.21,41.39,1.6,56.57-3.42,2.79-14.54,7.4-13.88,11.92l31.53,50.06c3.12,4.82,14.09,2.74,16.13,7,2.85,5.93-1.91,8.65-6.99,9.11-8.91.8-26.24-.59-33.69-5.65-13.1-8.89-24.16-40.75-34.84-53.68-3.76-4.56-10.48-6.57-13.52-.57,1.3,12.35-1.79,28.3.06,40.17,1.65,10.59,18.39,3.15,19.04,13.21.54,8.31-7.42,5.47-11.52,5.41-12.42-.17-24.89-.06-37.31,0-4.92.02-15.18,3.41-14.64-5.48s14.57-4.23,16.14-14.14l-.46-106.04c-2.35-5.26-14.33-2.46-15.58-9.62-.81-4.67,1.25-6.02,5.52-6.51,10.37-1.2,27.52-.64,38.55-.69ZM1312.05,219.96v48.28c0,3.31,12.18,2.75,14.58,2.5,27.97-2.9,34.35-43.98,6.59-51.83-4.5-1.27-19.55-4.82-21.17,1.05Z"/>
  <path class="st0" d="M683.22,245.61l1.06,80.91c1.22,10.59,24.74,6.03,14.37,19.5-14.15-.98-31.41,1.87-45.17.22-3.46-.41-4.97-2.87-4.31-6.35,1.54-8.15,15.83-1.83,16.99-18.31,2.21-31.55-1.69-65.72-.1-97.55-1.44-9.08-12.14-6.42-15.63-10.52-3.78-4.45-.52-10.22,5.09-10.19,6.88.04,14.17,1,21.18,1.12,5.63.09,8.84-3.06,14.53,1.47,18.61,23.23,38.37,45.49,57.36,68.39,4.77,5.74,10.28,15.05,15.27,19.94,2.93,2.88,4.46,2.2,4.94-1.82,2.43-20.66-1.84-46.16-.14-67.35-1.61-11.38-10.94-6.62-14.46-10.69-2.31-2.67-2.39-7.25.48-9.5s14.78-.43,19.65-.47c5.93-.06,9.85-.25,16,0,3.03.12,9.68-3.31,10.64,3.54,1.17,8.3-9.11,7.25-13.18,10.93s-3.1,13.13-2.98,18.23c.73,29.98,3.83,68.05,1.09,97.56-.69,7.44-9.08,16.21-15.65,10.54-23.55-29.27-49.24-56.88-72.91-86.03-3.93-4.84-6.9-13.95-14.1-13.56Z"/>
  <path class="st0" d="M1181.05,201.65c54.1-2.51,84.49,39.23,72.99,91.07-13.74,62-102.46,78.01-132.03,20.65-23.81-46.19,4.78-109.21,59.03-111.73ZM1181.05,215.73c-38.2,2.86-40.69,55.78-33.51,84.2,6.78,26.85,31.82,45.56,58.19,28.98,31.85-20.03,27.26-117.07-24.68-113.18Z"/>
  <path class="st0" d="M1691.12,281.06c3.01,3,.26,8.23-2.85,10.24-2.7,1.75-5.7.8-6.75,5.32-2.24,9.7,1.07,26.33-.2,37.02-.97,8.16-15.93,10.59-23.12,12.09-46.82,9.75-96.88-5.68-102.56-59.48-6.21-58.85,42.35-91.27,96.98-83.87,7.71,1.04,26.67,5.62,27.7,14.55.53,4.58,1.07,16.56.91,21.06-.32,8.86-8.83,8.08-13.84,1.92-8.91-10.95-9.33-20.46-27.08-23.22-70.55-10.99-65.49,103.9-17.6,116.16,8.69,2.23,29.64,5.63,31.33-6.36.68-4.87.91-24.53.07-29.05-1.52-8.13-16.16-2.01-16.18-12.1,0-4.6,1.42-5.19,5.59-5.59,10.57-1.02,31.68-.89,42.36.02,1.57.13,4.12.17,5.24,1.29Z"/>
  <path class="st0" d="M1709.19,203.59c14.36.68,28.7.81,43.09.83,10.71.01,21.31-.23,32.11,0,6.02.13,15.84-1.03,21.15-.02,4.57.87,4.91,7.82,5.43,11.67.33,2.44,1.31,11.98,1.13,13.86-.47,4.98-5.91,8.53-10.63,5.68-4.04-2.43-4.91-16.87-14.36-18.78-8.9.23-22.27-.78-30.82-.46-2.32.09-4.79,1.09-5.82,3.32-.23,7.15-2.6,40.29.34,44.45,1.09,1.54,1.69,1.45,3.39,1.64,3.89.44,15.11.41,18.7-.53,8.71-2.27,9.98-15.33,16.57-15.72,2.77-.16,4.69.79,5.77,3.38,1.45,3.45,1.28,30.21.81,35.49s-2.28,8.18-8.41,6.29c-3.54-1.09-5.31-11.33-10.03-14.11-4.56-2.68-12.05-1.72-17.32-1.79s-9.59-2.99-10.6,5.52-.95,30.17,0,38.26c.56,4.8,5.22,9.47,9.82,10.3,9.5,1.73,31.66,1.11,38.89-5.9,4.37-4.24,8.68-17.8,13.42-18.82,11.57-2.48,6.21,15.98,5.4,21.54-.56,3.86.2,13.93-4.12,15.99-.66.32-12.81,1.49-14.59,1.51-26.22.24-53.08-1.22-79.53-1.05-4.84.03-14.19,3.44-13.64-5.49.57-9.24,13.48-4.21,15.75-11.52l.39-106.1c-1.15-7.29-8.3-5.48-12.77-7.35-5.51-2.31-5.79-10.64.47-12.11Z"/>
  <path class="st0" d="M560.17,203.58c4.89-1.12,13.3-.09,15.59,5.11,17.78,36.67,29.61,78.3,47.23,114.73,1.1,2.27,2.63,6.09,4.36,7.71,3.8,3.55,14.97,3.56,12.19,12.09-2.22,6.8-15.23,3.02-20.18,2.94-5.88-.1-36,1.02-38.37-.87-1.73-1.37-1.82-4.42-1.21-6.42,2.07-6.86,12.84-2.08,10.8-15.24-.3-1.93-6.47-17.85-7.55-19.6-4.53-7.38-19.69-6.04-26.39-5.98-5.87.05-14.09-.35-18.9,4.83-1.17,1.26-8.46,21.73-8.52,23.76-.31,10.01,15.42,6.92,11.39,16.27-2.67,6.2-7.5,3.31-11.8,3.25-7.38-.1-14.84-.11-22.21,0-3.97.06-9.28,3.11-11.79-2.2-4.26-9.05,8.03-9.18,12.38-13.29,5.77-5.46,14.49-36.87,18.05-46.33,9.24-24.63,19.19-49,27.67-73.92,1.28-2.67,4.33-6.14,7.26-6.81ZM545.62,284.6c1.73,1.71,24.52,1.92,26.92.75,5.42-2.65-2.95-16.32-4.51-20.64s-6.77-29.02-12.38-16.36c-2.14,4.84-10.16,27-10.88,31.45-.26,1.62-.4,3.57.85,4.8Z"/>
  <path class="st0" d="M1477.81,203.53c4.67,1.18,11.24-1.16,14.88,1.82,18.41,39.1,33.12,80.15,49.91,120.08,1.21,10.32,19.05,7.37,15.77,18.05-1.72,5.6-8.85,2.72-12.35,2.67-12.06-.19-24.24-.16-36.3,0-3.91.05-10.15,3.03-11.37-3.72-1.81-9.94,12.66-6.43,11.97-15.85-.16-2.25-6.53-19-7.9-21.33-5.56-9.46-18.37-7.3-27.33-7.21-5.33.05-14.39-.58-18.6,3.95-1.65,1.78-8.6,21.83-8.69,24.58-.34,9.91,13.17,6.37,9.97,16.91-1.7,5.6-8.87,2.73-12.36,2.67-8.58-.14-20.23,1.13-28.26.09-4.89-.63-5.85-4.79-3.54-8.66,1.97-3.29,11.04-4.3,15.35-11.8,16.4-36.53,25.52-79.52,42.58-115.35,1.48-3.1,2.53-5.92,6.27-6.89ZM1476.65,244.67c-1.19.36-1.6,1.95-2.11,2.95-1.92,3.74-10.45,27.27-11.15,31.16-.53,2.93-.32,6.42,3.1,7.06,2.59.48,21.81.43,23.95-.2,1.16-.34,2.22-1.37,2.56-2.53,1.45-5.07-11.61-29.21-12.7-36.2-.61-1.63-1.75-2.81-3.64-2.24Z"/>
  <path class="st0" d="M854.61,321.7c13.35,14.16,40.52,16.42,55.02,2.91,3.43-3.2,10.67-16.03,13.05-17.12,3.31-1.51,8.73-.58,9.83,3.21,1.2,4.1-1.48,22.07-4.35,25.4-.6.69-10.32,5.73-11.81,6.3-54.76,20.82-113.78-7.7-109.44-71.18,3.8-55.54,56.04-80.49,106.45-66.1,6.2,1.77,16.72,5.08,18.13,12.05.8,3.99,1.64,14.92,1.28,18.94-.5,5.49-3.37,9.46-9.35,8.31-7.21-1.39-7.68-8.77-11.41-13.8-12.68-17.1-40.95-19.47-56.77-5.63-23.06,20.17-20.86,75.26-.64,96.72Z"/>
  <path class="st0" d="M586.61,457.84c2.25-1.67,6.74-27.86,8.76-32.99,2.71-6.88,11.79-8.3,16.9-3.21l8.55,36.56c-.15,1.08,2.09.84,2.51.65,2.95-1.31,8-31.83,10.71-36.57,3.92-6.19,12.51-4.29,10.74,3.62-6.6,15.2-7.4,35.58-14.11,50.33-3.29,7.23-12.46,9.73-16.31,2.67-2.71-4.97-6.74-37.14-11.14-37.13-.89,0-2.49,3.09-2.85,4.17-2.25,6.77-4.51,32.73-10.75,35.52-4.83,2.16-11.58.82-13.59-4.49-4.02-10.63-6.66-27.96-9.61-39.68-1.28-5.07-6.74-14.09-1.33-17.57,14.94-9.6,14.7,30.43,18.64,36.48.6.91,1.79,2.44,2.88,1.63Z"/>
  <path class="st0" d="M1076.61,444.77c-1.15-1.26-2.7,1.57-3.21,2.31-4.03,5.95-8.5,25.07-13.14,27.09-12.01,5.23-14.26-21.5-19.02-27.75-.61-.8-1.61-2.54-2.85-1.66-2.68,1.9.34,29.31-1.21,34.5-1.88,6.29-11.07,4.6-11.93-4.79-1.11-12.12-.99-35.15,0-47.36.72-8.78,6.86-10.64,14.7-7.57,4.01,1.57,8.03,12.64,9.98,17.18,1.46,3.41,5.8,22.48,10.8,13.78,2.85-4.96,4.71-14.89,7.34-20.82,2.85-6.41,4.04-10.97,12.06-11.16,6.36-.15,9.02,1.18,9.6,7.58.98,10.73,1.44,41.23-.11,51.27-1.13,7.28-11.98,6.85-13.03-1.92-.66-5.46,2.46-28.01.01-30.7Z"/>
  <path class="st0" d="M1517.29,443.76c-3.35-2.47-11.17,28.56-16.11,30.65-11.92,5.06-13.68-21.34-19.09-27.13-.94-1.01-1.4-1.85-3.01-1.5-2.32,10.17-.51,20.89-.42,31.22-.93,6.59-10.78,7.47-11.71.5-1.42-10.66-1.11-41.34-.01-52.41.86-8.66,12.17-7.9,17.63-3.43,2.61,3.59,11.43,31.76,13.13,32.15,6.05,1.39,10.97-31.76,19.77-34.53,8.34-2.62,13.3.13,13.96,8.84.7,9.3-1.03,22.28-1.08,32.27-.03,5.83,1.27,11.55.02,18.04-.97,5.06-8.82,6.09-11.5,1.48-3.89-6.71,2.13-33.41-1.57-36.15Z"/>
  <path class="st0" d="M1223.51,423.14c1.16-5.49,10.71-6.16,12.02,2.07,1.24,7.79,1.22,43.36,0,51.18-.82,5.2-6.53,7.11-10.99,5.07-2.9-1.33-10.32-12.36-12.51-15.65-2.6-3.93-9.34-18.45-13.15-19.04-2.42-.38-1.22,1.04-1.54,2.46-1.83,7.95.12,11.41.11,18.17,0,1.71-.92,10.59-1.29,11.87-1.44,5.06-11.18,2.97-10.92-2.77,1.31-16.17-1.56-34.52-.01-50.41.75-7.68,7.1-8.02,13.11-4.94,7.25,8.56,12.71,23.65,19.74,31.56,1.6,1.8,2.5,3.61,5.44,3.11,1.36-9.35-1.83-24.05,0-32.69Z"/>
  <path class="st0" d="M1625.71,418.79c4.33-.88,6.7,1.41,9.3,4.37,7.2,8.21,13.01,22.93,19.31,31.99,7.93,11.4,4.95-4.84,4.82-8.84-.17-5.18-1.09-23.4,2.09-26.15,5.41-4.7,9.56,1.4,10.07,6.95,1.06,11.54.96,33.73-.01,45.34-.63,7.52-1.96,11.17-10.58,9.49-1.65-.32-2-1.01-3.09-1.93-7.02-5.92-15.02-24.25-21.14-32.17-7.71-9.97-4.54,5.75-4.42,9.44.16,4.88,2,31.65-8.65,24.74-4.99-3.24-3.76-48.57-2.5-57.94.38-2.85,1.89-4.71,4.82-5.31Z"/>
  <path class="st0" d="M1352.08,417.89c6.09-.69,23.93-.29,22.21,9.03-2.01,10.92-12.17,1.69-17.35,1.82-26.05.66-26.16,47.29,3.97,43.22,5.49-.74,5.72-8.22,4.31-12.45-1.07-3.23-5.87-2.11-8.17-2.9-3.91-1.34-4.99-8.33-1.06-9.68,1.73-.59,17.95-.44,19.47.32,4.85,2.43,2.08,14.05,1.96,18.07-.05,1.8.14,3.82.09,6.05-.12,6.17-3.61,8.63-8.88,10.32-51,16.34-60.05-58.85-16.55-63.81Z"/>
  <path class="st0" d="M951.85,457.34c-1.31-4.34-11.11-2.64-13.69-2.61-3.22.04-5.77-1.02-9.43.63-7.76,3.48,2.75,26.48-8.67,27.62-5.47.55-7.06-2.76-7.5-7.49-1.07-11.69-1.3-38.91.03-50.36.63-5.41,4.75-8.16,9.84-5.78,6.87,3.22.27,20.96,5.26,23.91,1.52.9,20.7.86,22.16,0,5.63-3.32-3.49-24.69,8.54-24.7,4.44,0,5.88,2.72,6.45,6.68,1.23,8.64.05,18.68,0,27.06-.04,6.44,4.42,30.59-6.45,30.6-2.18,0-6.54-3.68-6.54-5.46,0-4.25.87-17.24,0-20.12Z"/>
  <path class="st0" d="M1281.61,418.84c4.56-.78,9.81.1,12.09,4.53l18.13,51.29c2.04,9.97-9.61,11.25-14.08,2.99-1.44-2.67-2.05-8.94-4.82-10.27-1.71-.82-17.32-.93-19.43-.3-3.86,1.16-3.82,7.97-5.3,10.8-2.55,4.88-9.21,7.19-12.37,1.39l18.47-54.63c1.28-3.21,3.91-5.22,7.29-5.8ZM1288.77,454.68c1.65-2.66-1.52-19.33-6.3-17.9-2.26.68-5.94,13.29-5.23,16.09,1.05,4.14,10.55,3.37,11.53,1.8Z"/>
  <path class="st0" d="M1135.69,418.82c5-1.11,10.05.55,12.56,5.12,3.88,7.06,16.38,42.84,17.67,50.73.98,5.99-.54,9.13-7.21,8.29-9.1-1.15-5.76-15.27-13.11-16.13-3.11-.36-14.07-.37-16.72.5-5.26,1.72-4.31,10.5-8.46,13.66-4.78,3.63-10.71.78-9.39-5.3,7.7-15.31,10.51-36.3,18.42-51.04,1.36-2.54,3.2-5.16,6.25-5.84ZM1137.5,435.71c-1.7.4-13.19,23.22,2.98,20.09,7.89-1.53.66-20.94-2.98-20.09Z"/>
  <path class="st0" d="M750.37,418.85c5.05-.87,9.27.08,12.07,4.55,7.8,12.43,10.24,37.61,18.13,51.27,2.9,9.42-7.1,10.65-12.38,5.34-3.9-3.92-1.24-13.73-10.11-14.05-1.63-.06-14.75,1.11-15.49,1.45-4.81,2.15-2.7,12.89-10.04,15.15-10.88,3.36-5.16-11.77-3.54-16.66,3.97-12.01,9.23-27.77,14.08-39.24,1.72-4.08,2.48-7,7.28-7.82ZM754.63,435.72c-4.25-2.91-9.04,13.34-7.83,17.39s10.51,3.97,11.69,0c.63-2.12-3.12-16.88-3.86-17.38Z"/>
  <path class="st0" d="M1441.34,471.92c3.54,1,3.5,9.25-1,10.06-4.62.84-29.92.76-34.19-.03-2.16-.4-4.13-2.39-4.53-4.53l.5-54.77c1.03-1.44,2.17-2.67,4.03-3.01,5.52-1.03,15.9.11,22.15.02,4.85-.07,16.37-3.42,14.36,6.25-2.49,11.95-30.82-5.73-26.94,14.3,1.75,9.01,28.57-3.65,23.91,11.89-1.78,5.94-18.93.2-22.7,3.96-2.2,2.2-2.31,15.85,2.28,15.85,4.82,0,18.71-.97,22.14,0Z"/>
  <path class="st0" d="M681.43,470.69c2.7,2.78,18.61.34,23.42,1.23s4.66,8.97-1.03,10.03c-4.65.87-27.16.74-32.22.08-8.29-1.09-4.52-9.95-4.68-14.63-.26-7.68-.91-15.35-.85-23.17.04-5.02-.29-11.43,0-16.09.88-13.8,14.13-8.64,23.63-8.46,3.25.06,13.54-1.26,14.91-.91,4.43,1.14,5.16,8.34,1.05,10.72-7.71,4.46-28.06-6.36-26.28,8.48,1.5,12.54,23.98-.23,25.06,10.3,1.5,14.67-25.26-1.9-25.25,14.1,0,1.43,1.44,7.5,2.24,8.33Z"/>
  <path class="st0" d="M1593.53,445c1.83,1.83,2,7.97-.76,9.32-4.9,2.39-21.91-2.72-23.15,4.02-3.64,19.86,11.83,12.19,23.51,12.91,6.82.42,6.7,9.93.19,10.77-6.12.79-26.2.8-32.29,0-3.29-.43-4.09-1.2-4.53-4.53-1.45-11-1-39.88,0-51.39.15-1.74.22-4.23,1.53-5.51,3.13-3.07,17.75-.92,22.16-.92,5.08,0,18.26-4.23,18.5,4.44.37,13.89-27.43.38-29.06,9.07-3.58,19.13,18.13,6.01,23.91,11.81Z"/>
  <path class="st0" d="M849.95,418.83c2.52-.56,6.2-.33,8.88-.26,7.63.22,15.47,1.02,23.09,1.13,5.71.09,13.82-4.08,11.54,7.43-1.6,8.13-13.84-2.07-16.63,6.51l-.47,44.8c-2.17,6.3-11.34,5.53-12.84-1.2l-.43-43.83c-2.98-6.51-7.92-2.36-12.27-2.74-7.03-.62-7.13-10.45-.88-11.84Z"/>
  <path class="st0" d="M1695.11,418.83c6.53-1.51,16.75.83,23.98.83,6.13,0,22.19-5.21,18.37,7.31-2.19,7.19-13.63-.92-16.71,6.42-1.78,13.26,1.74,30.21-.25,43-1.18,7.54-9.49,8.78-11.99,1.04l-.23-44.02c-2.98-6.53-7.95-2.34-12.27-2.73-7.41-.67-7.43-10.34-.88-11.85Z"/>
  <path class="st0" d="M805.7,418.79c6.14-1.26,8.81,3.12,9.09,8.69.53,10.64-1.47,24.23-.81,34.93.13,2.05.62,5.76,1.59,7.46,3.52,6.15,29.1-3.5,27.46,7.37-1.21,7.95-9.87,4.79-14.38,4.71-7.23-.13-16.39.88-23.24.1-4.19-.48-4.2-2.95-4.52-6.55-1.05-11.79-1.32-38.86.03-50.36.36-3.09,1.42-5.65,4.79-6.34Z"/>
  <path class="st0" d="M329.05,313.01l-22.14,30.72c-.91,5.11,5.22,9.14,7.88,13.21,22.56,34.42,22.45,77.11-1.42,110.88-2.14,3.03-6.73,5.24-6.45,9.57l22.64,31.75c-.89,1.9-2.29-.18-3.04-1-5.99-6.53-8.88-7.82-15.5-12.67-5.19-3.8-10.32-11.62-16.94-8.71-9.62,8.23-20.96,14.35-32.94,18.37-28.57,9.59-57.88,4.58-82.94-11.67-3.42-2.22-8.95-8.88-12.63-8.49-2.6.27-6.99,6.62-9.66,8.51-3.13,2.22-7.3,3.23-10.5,5.6-4.45,3.3-8.63,9.39-13.08,13.08-6.8,5.63-2.12-2.26.53-5.5,5.52-6.76,10.68-10.77,16.66-18.55,2.44-3.17,8.56-7.47,8.56-11.65,0-3.41-7.84-11.7-9.98-15.27-21.92-36.52-17.55-75.14,4.02-110.29,1.46-2.38,3.77-2.87,3.96-6.2.28-4.97-4.64-6.46-6.98-10.23l-9.22-16.42c.67-.65,6.82,2.88,7.96,3.6,4.05,2.58,14.79,14.85,17.64,14.55,1.08-.11,14.68-10.47,17.99-12.3,29.89-16.55,65.04-15.29,94.55,1.37,3.42,1.93,16.08,11.8,18.31,11.81,3.19,0,5.81-4.1,8.08-5.94l24.62-18.13ZM217.18,323.28c-8.77.61-33,9.96-39.41,16.02s-1.01,9.27,3.36,13.45c3.37,3.22,26.53,23.45,28.76,23.65,2.47.22,3.19-.93,3.97-3.03,3.65-9.82,11.03-37.62,11.24-40.89.32-5.17-2.45-9.58-7.92-9.2ZM236.73,324.31c-1.19,1.19-1.21,3.39-1.05,5,1.3,13.06,10.13,30.85,11.9,44.52,1.13,4.36,4.5,4.32,7.52,1.53,3.87-5.69,30.06-24.17,30.72-28.72.14-.95.06-1.83-.21-2.74-1.37-4.62-21.96-14.48-27.01-16.29-3.74-1.34-19.32-5.84-21.87-3.3ZM227.93,343.14c-2.44.52-3.29,8.03-3.64,10.47-1.14,7.96-3.96,17.18-3.93,25.3.01,3.65,3.88,6.42,2.92,9.82-.6,2.11-6.45,4.65-8.46,6.71-7.83,8.03-8.7,17.32-2.68,26.88,5.52,8.76,13.37,8.02,20.84,13.39.58,9.36-2.98,29.59,1.68,37.53,2.04,3.49,4.49,1.85,4.89-1.77.65-5.82,1.48-12.4,1.94-18.17.44-5.4-1.53-15.31-.83-18.85.8-4.02,11.78-12.13,13.46-17.8,2.89-9.77-.55-19.8-8.57-25.72-4.37-3.23-10.11-3.49-13.37-7.75-2.56-11.62-.66-24.96-2.82-36.41-.27-1.43.62-4.06-1.45-3.62ZM163.74,353.39c-4.45,1.38-14.73,24.89-16.27,30.04-1.09,3.64-4.36,18.44-3.05,21.1.41.82,1.35,1.59,2.23,1.84,3.06.88,28.64-7.35,34.06-8.82s19.55-1.31,15.37-9.47c-2.43-4.75-22.23-28.99-26.47-32.89-1.86-1.72-3.11-2.67-5.89-1.81ZM294.55,354.44l-28.93,38.47c.07.83.42,1.54.95,2.17,1.71,2,44.96,8.8,49.53,10.28,5.8,1.88-7.76,2.86-11.97,2.16-1.59-.26-34.39-3.62-41.83-4.84-5.14,3.64-1.79,9.17,3.8,8.94,11.34-.46,20.49.12,31.75-3.58,2.94-.97,6.08-3.9,9.84-4.33,4.9-.56,13.35,4.28,13.23-4.59-.1-7.08-6.28-21.99-9.82-28.46-1.84-3.36-9.76-15.92-12.79-16.44-1.22-.21-2.58-.14-3.77.21ZM157.26,411.54c.93-.88,39.46,9.55,44.37,7.94,3.11-1.02,2.63-7.23-2.83-7.95-4.31-.57-21.39.46-26.23,1.03-6.71.78-15.52,2.11-18.06,2.05-1.76-.04-8.9,3.86-9.44,5.73-2.12,7.3,13.31,44.5,20.68,46.42,1.49.39,2.47-.37,3.67-1.01,2.27-1.2,17.92-19.98,20.74-23.53,2.35-2.96,8.9-10.45,7.94-13.84-.63-2.22-38.31-13.14-41.01-13.68-2.14-.43-.4-2.64.16-3.16ZM310.68,416.85c-8.82,1.36-23.17,4.84-31.94,7.29-6.28,1.75-17.45,3.37-11.51,11.53,5.57,4.46,25.51,32.41,30.37,33.11,3.36.48,7-5.51,8.73-8,6.58-9.45,12.88-24.11,13.65-35.63.58-8.76-.25-9.69-9.3-8.29ZM252.22,444.91c-4.19.79-5.17,15.14-6.17,18.97-.8,3.09-2.89,9.97-5.05,18.09-.42,1.6-2.41,16.26,2.23,16.92,1.77.25,12.95-2.56,15.36-3.35,6.02-1.99,28.31-12.82,29.24-19.15.26-1.75-.12-3.33-1.47-4.55-4.95-2.71-31.56-27.42-34.15-26.93ZM210.08,445.98l-32.53,25.86c-1.73,1.62-1.89,4.24-1.23,6.41,1.14,3.8,21.46,14.58,25.98,16.29s23.2,7.78,24.95,1.81c.89-3.04-6.81-33.17-8.36-38.52s-1.96-13.56-8.81-11.85Z"/>
  <path class="st0" d="M234.46,282.82c2.1-1.47-1.37-9.95.51-13.08,1.68-2.8,8.52-1.98,9.43.64-.21,7.39-1.06,14.6-.91,22.04.12,5.77,4.33,11.89-5.5,11.61-10.74-.31-7.18-15.17-14.08-15.21-5.41-.04.54,9.98-2.42,13.72-1.53,1.94-6.9,2.16-8.67.43-2.64-2.59-.33-17.8-.43-22.7-.1-5.2-4.08-12.5,4.46-12.56,10.12-.06,12.85,18.45,17.61,15.11Z"/>
  <path class="st0" d="M103.67,410.56c2.36-1.78-1.82-16.3,6.35-13.95,5.06,1.46,1.53,11.7,7.24,10.94,1.69-.23-1.69-9.27,3.24-10.86,4.26-1.37,5.65.68,4.92,4.84s-4.31,6.21-5.2,8.98c-1.15,3.58-.36,12.53-4.45,14.68-5.87,3.07-4.02-9.62-8.55-9.63-4.14,0-2.27,16.85-9.58,8.59-.74-4.6-7.85-23.15-6.91-25.98,1.09-3.28,6.13-2.87,8-.25.84,1.18,1,15.6,4.94,12.64Z"/>
  <path class="st0" d="M230.19,520.44c4.06-.7,11.83-1.03,12.37,4.33.87,8.51-13.04-3.57-12.15,4.95.55,5.24,14.8,4.88,14.1,15.07-.17,2.53-3.99,6.94-6.26,7.85-1.52.6-10.63,1.9-12.23,1.76-6.45-.59-8.26-9.13-1.17-8.04,2.64.4,5.97,5.49,8.13.99,2.69-5.59-4.2-5.99-7.07-8.03-9-6.4-6.6-17,4.27-18.88Z"/>
  <path class="st0" d="M358.23,421.63c1.26-10.83-13.4-7.5-11.04-19.58,1.54-7.88,20.81-7.53,19.09-1.05-1.41,5.3-9.04-5.96-10.11,1.06s11.83,6.19,11.17,16.04c-.62,9.18-21.85,13.36-20.23,4.06,1.1-6.32,9.55,1.06,11.11-.53Z"/>
  <path class="st0" d="M230.21,395.66c11.75-1.41,22.07,17.43,8.62,25.8-10.34,6.42-22.47-3.25-20.23-14.18.86-4.17,7.29-11.1,11.61-11.62Z"/>
</svg>