<?xml version="1.0" encoding="UTF-8"?>
<svg id="Layer_1" xmlns="http://www.w3.org/2000/svg" version="1.1" viewBox="0 0 410.25 124.5">
  <!-- Generator: Adobe Illustrator 29.8.2, SVG Export Plug-In . SVG Version: 2.1.1 Build 3)  -->
  <defs>
    <style>
      .st0 {
        fill: #eaebef;
      }

      .st1 {
        fill: #c8a538;
      }

      .st2 {
        fill: #1d306a;
      }

      .st3 {
        fill: #1b2e69;
      }

      .st4 {
        fill: #20336c;
      }

      .st5 {
        fill: #1d316a;
      }

      .st6 {
        fill: #1e316b;
      }

      .st7 {
        fill: #1f326c;
      }

      .st8 {
        fill: #1e316a;
      }
    </style>
  </defs>
  <path class="st5" d="M38.95,2.17c.12-.06.25-.1.38-.12l2.35-.44c.36-.07.74,0,1.06.17l37.34,21.12c1.82,1.09,1.64,3.12,1.57,5.02-.02.53-.31,1.01-.76,1.28l-34.85,20.59c-.47.28-.76.77-.77,1.32l-.69,40.94c0,.59-.35,1.12-.89,1.38l-1.4.67c-.47.22-1.01.2-1.46-.06L2.33,71.51c-.39-.23-.68-.62-.75-1.06-.04-.23-.05-.46-.08-.69V25.36c0-.44.21-.86.55-1.14.09-.08.17-.15.2-.22l1.26-1.27c.15-.15,24.3-15.41,35.44-20.57Z"/>
  <g>
    <path class="st5" d="M77.86,52.5c3.65,0,7.26.85,10.52,2.52,1.34.69,2.5,1.33,2.92,1.65,6.52,4.91,8.03,16.33,3.66,23.09-.66,1.03-5.23,5.16-5.23,5.16,12.38,2.54,16.7,18.66,10.6,28.71-2.01,3.32-9.29,8.62-13.11,8.62h-33.31V52.5h23.96ZM69.62,81c17.58,2.34,17.53-18.64,0-16.5v16.5ZM81.98,94.46c-3.34-.71-8.24-.71-12.36-.71v16.5h11.6c2.74,0,6.03-3.34,6.04-7.35.02-4.83-1.65-7.66-5.29-8.44Z"/>
    <path class="st6" d="M176.68,76.5h-16.1c-8.27-14.08-27.73-13.71-34.95.98-11.7,23.83,20.21,44.53,34.95,20.77h16.1c-1.07,8.23-9.1,17-16.22,20.87-27.56,14.99-60.18-10.96-51.69-41.29,7.1-25.34,38.25-34.9,58.2-17.47,4.28,3.74,9.2,10.37,9.72,16.14Z"/>
    <path class="st1" d="M38.95,2.17c.12-.06.25-.1.38-.12l2.35-.44c.36-.07.74,0,1.06.17l37.34,21.12c1.82,1.09,1.64,3.12,1.57,5.02-.02.53-.31,1.01-.76,1.28l-34.85,20.59c-.47.28-.76.77-.77,1.32l-.69,40.94c0,.59-.35,1.12-.89,1.38l-1.4.67c-.47.22-1.01.2-1.46-.06L2.33,71.51c-.39-.23-.68-.62-.75-1.06-.04-.23-.05-.46-.08-.69V25.36c0-.44.21-.86.55-1.14.09-.08.17-.15.2-.22l1.26-1.27c.15-.15,24.3-15.41,35.44-20.57ZM70.08,24.94l-27.77-15.46c-.48-.27-1.06-.26-1.53,0l-27.32,15.55c-.94.53-1.08,1.84-.25,2.54,1.77,1.48,4.93,3.13,6.02,3.79,6.45,3.87,13.26,7.16,19.54,11.32.23.15.5.24.78.25l3.3.14c.34.01.67-.08.95-.28,7.6-5.39,17.93-9.23,25.31-14.41.42-.3.9-.59,1.28-.95.77-.72.59-1.98-.32-2.49ZM7.49,34.74v26.51c0,1.09,1.1,1.87,2.11,1.46.56-.22,1.09-.53,1.66-.81,7.19-3.56,13.95-8.53,21.05-12.41.99-.54,1.08-1.92.18-2.6l-2.2-1.66c-.08-.06-.16-.11-.25-.15-6.29-3.01-12.17-7.56-18.31-10.71-.73-.37-1.41-.8-2.15-1.09-1.01-.39-2.1.38-2.1,1.46ZM36.01,55.59c-7.75,3.23-14.65,8.55-22.19,12.29-.4.2-.7.56-.81,1h0c-.18.71.16,1.44.82,1.78,7.22,3.66,14.47,9.48,21.57,12.75.22.1.43.19.63.28,1.03.42,2.16-.33,2.16-1.44v-25.22c0-1.12-1.14-1.87-2.17-1.44Z"/>
    <path class="st8" d="M201.38,97.5v23.62c0,.08-1.04,1.12-1.12,1.12h-14.6V52.5h28.62c5.68,0,11.35,4.98,12.95,6.73,8.54,9.38,7.59,27.14-3.13,34.4-.9.61-5.53,3.87-8.12,3.87h-14.6ZM201.47,85.42c7.63,1.78,18.23-1.83,17-11.35-1.18-9.13-9.31-10.42-17.09-9.57l.09,20.92Z"/>
    <path class="st2" d="M372.82,102c.45,11.43,14.98,13.89,19.09,3h13.48c2.35,1.45-.58,6.26-1.72,8.02-11.56,17.76-45.51,12.15-47.31-10.65-2.49-31.57,44.28-35.16,50.71-9.55.41,1.64,1.89,9.18-.93,9.18h-33.31ZM372.82,94.5h19.09c.32,0,.94-.72.81-1.54-1.67-10.39-19.84-9.52-19.9,1.54Z"/>
    <path class="st6" d="M317.79,105c1.6,1.66,1.39,4.11,3.31,5.68,4.86,3.98,17.54,1.33,12.05-4.58-4.55-4.9-19.85-1.92-25.82-9.38-4.52-5.65-1.07-15.18,5.06-18.13,11.03-5.3,36.17-4.16,36.46,12.16h-14.97c-.16,0,.23-1.74-1.08-3.04-2.83-2.81-8.54-3.18-10.94.37-2.08,3.08,1.33,3.84,3.77,4.56,7.97,2.35,19.31,1.06,23.37,10.33,3.63,8.29-.52,15.72-8.61,18.67-7.34,2.68-19.36,2.47-26.49-.75-6.26-2.83-10.77-8.76-9.96-15.9h13.85Z"/>
    <path class="st7" d="M272.5,89.63c0,.55-.56.92-1.07.71-2.41-.98-4.2-2.09-7.19-1.54-2.66.49-8.21,5.29-8.21,7.57v23.98c0,1.04-.85,1.9-1.9,1.9h-13.05c-.43,0-.77-.35-.77-.77v-43.46c0-.43.35-.77.77-.77h14.18c.43,0,.77.34.77.77v1.37c0,.64.74,1,1.25.61,4.24-3.25,10.16-6.11,14.91-2.61.2.14.31.38.31.63v11.62Z"/>
    <rect class="st3" x="279.99" y="77.25" width="14.97" height="45"/>
    <path class="st4" d="M285.02,52.67c11.13-2.33,15.78,13.01,6.13,17.38-12.48,5.65-18.47-14.8-6.13-17.38Z"/>
    <path class="st0" d="M372.82,94.5c.06-11.06,18.23-11.93,19.9-1.54.13.82-.49,1.54-.81,1.54h-19.09Z"/>
  </g>
</svg>