<?xml version="1.0" encoding="UTF-8"?>
<svg id="Layer_1" xmlns="http://www.w3.org/2000/svg" version="1.1" viewBox="0 0 584.26 166.14">
  <!-- Generator: Adobe Illustrator 29.8.2, SVG Export Plug-In . SVG Version: 2.1.1 Build 3)  -->
  <defs>
    <style>
      .st0 {
        fill: #fff;
      }
    </style>
  </defs>
  <g>
    <path class="st0" d="M208.87,38.84c4.19,0,8.19,1.85,9.03,6.99h6.63c-1.13-8.37-7.95-12.61-15.72-12.61-10.58,0-18.48,7.41-18.48,21.76s7.89,21.77,18.48,21.77c7.77,0,14.59-4.24,15.72-12.61h-6.63c-.84,5.14-4.84,6.99-9.03,6.99-6.94,0-12.07-4.67-12.07-16.15s5.14-16.14,12.07-16.14Z"/>
    <path class="st0" d="M241.59,76.81c8.37,0,14.41-6.22,14.41-16.02s-6.04-16.03-14.41-16.03-14.35,6.22-14.35,16.03,6.04,16.02,14.35,16.02ZM241.59,49.79c4.78,0,8.07,3.59,8.07,11s-3.29,11-8.07,11-8.13-3.58-8.13-11,3.35-11,8.13-11Z"/>
    <path class="st0" d="M297.73,56.96v19.07h6.22v-20.03c0-7.59-4.54-11.24-10.04-11.24-4.12,0-7.83,1.97-9.81,6.04-1.55-4.07-5.02-6.04-8.97-6.04-3.65,0-7.12,1.79-9.08,5.44v-4.66h-6.22v30.49h6.22v-17.28c0-5.26,3.16-8.49,7.11-8.49,3.41,0,5.62,1.79,5.62,6.7v19.07h6.22v-17.28c0-5.26,3.16-8.49,7.11-8.49,3.41,0,5.62,1.79,5.62,6.7Z"/>
    <path class="st0" d="M342.96,44.76c-4.13,0-7.83,1.97-9.81,6.04-1.55-4.07-5.02-6.04-8.97-6.04-3.65,0-7.12,1.79-9.09,5.44v-4.66h-6.22v30.49h6.22v-17.28c0-5.26,3.17-8.49,7.11-8.49,3.41,0,5.62,1.79,5.62,6.7v19.07h6.22v-17.28c0-5.26,3.17-8.49,7.11-8.49,3.41,0,5.62,1.79,5.62,6.7v19.07h6.22v-20.03c0-7.59-4.54-11.24-10.04-11.24Z"/>
    <path class="st0" d="M371.4,44.76c-8.31,0-14.35,6.22-14.35,16.03s6.04,16.02,14.35,16.02,14.41-6.22,14.41-16.02-6.04-16.03-14.41-16.03ZM371.4,71.78c-4.78,0-8.13-3.58-8.13-11s3.35-11,8.13-11,8.07,3.59,8.07,11-3.29,11-8.07,11Z"/>
    <path class="st0" d="M405.61,44.76c-3.95,0-7.53,1.73-9.63,5.62v-4.84h-6.22v30.49h6.22v-17.1c0-6.16,3.83-8.67,7.66-8.67,3.52,0,6.1,1.97,6.1,7.3v18.47h6.22v-20.03c0-7.59-4.78-11.24-10.34-11.24Z"/>
    <polygon class="st0" points="448.82 69.94 442.78 45.54 436.44 45.54 430.28 70.41 424.49 45.54 418.21 45.54 425.92 76.03 433.57 76.03 439.49 52.9 445.23 76.03 452.82 76.03 460.53 45.54 454.44 45.54 448.82 69.94"/>
    <path class="st0" d="M476.28,44.76c-8.73,0-14.71,6.22-14.71,16.02s5.92,16.03,14.59,16.03c6.4,0,11.3-2.99,13.03-8.79h-6.1c-.84,2.57-3.35,3.83-6.46,3.83-5.32,0-8.43-3.29-8.9-9.45h21.46c.12-1.08.18-2.09.18-3.05,0-9.57-5.32-14.59-13.09-14.59ZM467.85,57.56c.84-5.26,3.95-7.83,8.19-7.83,3.83,0,7.06,1.97,7.3,7.83h-15.49Z"/>
    <path class="st0" d="M518.11,68.8v-13.39c0-6.52-4.3-10.64-11.96-10.64-7.23,0-12.08,3.29-13.33,9.45h6.64c.66-2.63,2.45-4.42,6.64-4.42s6.1,2.15,6.1,6.04v1.49l-9.51.36c-5.8.24-10.4,3.4-10.4,9.27,0,5.5,3.83,9.87,10.64,9.87,4.07,0,7.84-1.67,9.62-4.42.78,2.75,3.05,4.06,6.1,4.06.96,0,1.73-.06,2.87-.29v-4.78c-.48.06-.72.06-1.02.06-1.44,0-2.39-.84-2.39-2.63ZM512.19,65.27c0,4.25-3.41,6.64-7.71,6.64-4.01,0-6.04-2.09-6.04-5.26,0-2.75,1.86-4.19,5.32-4.37l8.43-.42v3.41Z"/>
    <rect class="st0" x="525.07" y="33.94" width="6.22" height="42.09"/>
    <path class="st0" d="M217.45,110.2c3.47-1.61,5.74-4.78,5.74-9.33,0-6.76-4.78-10.88-12.32-10.88h-18.11v42.09h17.52c9.03,0,14.11-4.36,14.11-12.02,0-4.66-2.69-8.43-6.94-9.86ZM198.98,95.49h10.7c4.66,0,7.23,2.09,7.23,6.22s-2.57,6.22-7.23,6.22h-10.7v-12.44ZM210.52,126.58h-11.54v-13.16h11.54c4.9,0,7.59,2.27,7.59,6.58s-2.69,6.58-7.59,6.58Z"/>
    <path class="st0" d="M252.97,124.85v-13.4c0-6.52-4.3-10.64-11.96-10.64-7.23,0-12.07,3.29-13.33,9.45h6.64c.66-2.63,2.45-4.42,6.64-4.42s6.1,2.15,6.1,6.04v1.49l-9.51.36c-5.8.24-10.4,3.41-10.4,9.27,0,5.5,3.83,9.86,10.64,9.86,4.07,0,7.83-1.67,9.62-4.42.77,2.75,3.05,4.07,6.1,4.07.95,0,1.73-.06,2.87-.3v-4.79c-.48.06-.72.06-1.02.06-1.44,0-2.39-.84-2.39-2.63ZM247.05,121.32c0,4.24-3.41,6.64-7.71,6.64-4,0-6.04-2.09-6.04-5.26,0-2.75,1.86-4.18,5.33-4.37l8.43-.42v3.41Z"/>
    <path class="st0" d="M275.44,100.81c-3.95,0-7.53,1.73-9.63,5.62v-4.84h-6.22v30.49h6.22v-17.1c0-6.16,3.83-8.67,7.66-8.67,3.53,0,6.1,1.97,6.1,7.3v18.47h6.22v-20.03c0-7.59-4.78-11.24-10.34-11.24Z"/>
    <polygon class="st0" points="309.05 101.59 296.68 116 296.68 89.99 290.46 89.99 290.46 132.08 296.68 132.08 296.68 117.25 308.69 132.08 316.58 132.08 303.61 116.35 316.58 101.59 309.05 101.59"/>
    <path class="st0" d="M545.99,66.64v-15.91h6.75v-5.2h-6.75v-10.82l-6.1,3.83v6.99h-5.2v5.2h5.2v17.52c0,5.38,3.41,8.19,8.25,8.19,1.5,0,3.35-.18,5.08-.78v-5.14c-1.49.24-2.51.3-3.47.3-2.45,0-3.76-1.14-3.76-4.19Z"/>
    <path class="st0" d="M573.92,44.76c-3.95,0-8.54,1.73-10.64,5.62v-16.44h-6.22v42.09h6.22v-17.1c0-6.16,3.83-8.67,7.65-8.67,3.53,0,7.11,1.97,7.11,7.29v18.48h6.22v-20.03c0-7.59-4.78-11.24-10.34-11.24Z"/>
  </g>
  <polygon class="st0" points="110.39 88.62 111.08 87.93 141.03 57.95 141.03 57.95 83.07 0 0 83.07 79.26 162.33 110.01 89.52 110.39 88.62"/>
  <polygon class="st0" points="144.56 61.49 114.62 91.47 83.07 166.14 166.15 83.07 144.56 61.49"/>
</svg>