<?xml version="1.0" encoding="UTF-8"?>
<svg id="Layer_1" xmlns="http://www.w3.org/2000/svg" version="1.1" viewBox="0 0 1042 239">
  <!-- Generator: Adobe Illustrator 29.8.2, SVG Export Plug-In . SVG Version: 2.1.1 Build 3)  -->
  <defs>
    <style>
      .st0 {
        fill: #fff;
      }
    </style>
  </defs>
  <g>
    <path class="st0" d="M113.71,29.21c64.08-6.75,115.37,52.81,97.81,114.81-22.2,78.4-128.88,89.81-167.37,18.32C14.2,106.72,50.95,35.83,113.71,29.21ZM117.71,38.21c-64.25,5.99-97.34,79.7-57.73,131.31,43.28,56.39,134.52,32.08,145-38.04,7.59-50.82-35.81-98.06-87.27-93.27Z"/>
    <path class="st0" d="M375.71,52.21l4.77-.19c27.21,2.05,42.64,27.66,34.3,53.26-4.11,12.63-17.05,23.38-30.31,24.69-55.33,5.48-61.14-72.84-8.77-77.76ZM373.69,66.19c-20.76,3.53-25.26,33.72-9.21,45.83,3.83,2.89,6.52,3.38,10.99,4.01,1.08.15,5.96.78,10.59-.48,13.09-3.55,17.7-20.03,14.76-31.86s-14.83-19.59-27.12-17.5Z"/>
    <path class="st0" d="M625.71,52.21l4.77-.19c13.18,1.29,24.43,6.96,31.36,18.63,13.28,22.38.78,56.22-26.37,59.32-55.56,6.34-62.44-72.14-9.77-77.76ZM623.69,66.19c-20.33,3.45-24.98,34.65-8.67,46.28,4.03,2.88,6.8,3.17,11.45,3.56.95.08,6.09.53,8.82-.22,8.96-2.47,15.8-12.42,16.67-21.33,1.67-16.96-10.73-31.26-28.28-28.28Z"/>
    <path class="st0" d="M747,129h-15.5c-.89-.81-1.7-1.62-2.36-2.64-3.7-5.7-7.47-12.96-10.98-19.02-.95-1.63-1.86-3.41-2.22-5.28l-11.94-.06v27c-2.47-.35-15,1.07-15-1.5V54h35.5c.24,0,3.79,1.18,4.54,1.46,7,2.67,13,8.89,14.77,16.23,1.9,7.89-.07,16.91-5.77,22.85-1.82,1.9-7.13,3.6-7.09,5.97,4.39,8.72,10.05,16.72,14.88,25.17.64,1.11,1.43,1.94,1.17,3.33ZM704,89h16.5c1.86,0,3.87-2.08,4.47-2.53,5.68-4.15,5.69-12.79,0-16.95-.61-.44-2.48-2.53-4.47-2.53h-16.5v22Z"/>
    <path class="st0" d="M474.5,54c4.73.67,12.68,5.62,15.36,9.64,8.37,12.51,4.53,29.95-9.86,35.37l.03,1.47,16.98,28.53h-17c.06-.98-.31-1.87-.78-2.71-4.46-8.05-9.66-15.81-14.17-23.85l-11.05-.45v27h-15V54h35.5ZM454,89h15.5c2.36,0,5.69-2.52,6.54-3.46,3.92-4.39,3.93-10.68,0-15.07-.85-.95-3.24-3.46-6.54-3.46h-15.5v22Z"/>
    <path class="st0" d="M837,129h-14.5l-6.53-16.98-30.38.06-1.12.88c-2.19,5.28-3.64,11.46-6.96,16.04h-14.5l28.46-74.04c.53-.78,1.14-.88,2.01-.99,2.06-.28,13.53-.23,14.58.48,8.21,20.06,28.21,69.92,28.95,74.55ZM810,99c-2.19-8.82-7.61-18.87-9.76-28.17l-1.29,3.63-8.96,24.54h20Z"/>
    <path class="st0" d="M973,53v14h-33v17h29v13h-27.5c-.11,0-1.5,1.39-1.5,1.5v16.5h32.5c2.53,0,1.18,11.62,1.5,14h-49V53.81c0-.11,48-.81,48-.81Z"/>
    <path class="st0" d="M322,75l-13.99,3.99c-5.93-16.57-29.35-17.41-37.86-2.33-7.02,12.43-3.43,34.49,11.79,38.89,12.31,3.56,21.31-2.24,27.64-12.52l12.41,3.98c1.58,1.2-3.32,8.42-4.54,9.94-15.24,19.03-47.5,17.31-60.3-3.61-21.62-35.33,15.81-77.84,52.21-55.21,5.55,3.45,11.92,10.23,12.64,16.86Z"/>
    <path class="st0" d="M534,104v25h-15V54h35.5c1.2,0,8.04,3.48,9.46,4.54,18.06,13.65,11.07,40.62-10.46,45.46h-19.5ZM534,90h17.5c2.73,0,5.37-3.97,5.99-5.01,2.6-4.37,1.9-11.53-1.96-15.03-.71-.65-3.66-2.96-6.04-2.96h-15.5v23Z"/>
    <polygon class="st0" points="905 54 905 67 883 67 883 129 868 129 868 67 845 67 845 54 905 54"/>
    <path class="st0" d="M588,177c-.07,2.43.23,4.88-.2,7.3-1.44,8.2-9.55,10.8-17.11,9.5-10.33-1.77-15.07-14.67-9.56-23.17,4.81-7.41,15.8-9.23,22.84-4.11,4.81,3.5-.17,7.3-4.32,6.34-1.11-.26-2.14-1.44-3.3-1.72-10.45-2.52-13.17,15.01-1.81,15.89,2.1.16,5.86-1.44,5.46-4.04h-6s0-6,0-6h14Z"/>
    <path class="st0" d="M668,164v7s-12,0-12,0v4s10.1.09,10.1.09c-.09,0-.09,7.68,0,7.68,0-.1-10.1.14-10.1.23v3s12,0,12,0v8h-20v-30h20Z"/>
    <path class="st0" d="M618.97,164.02l6.53,18.98,6.53-18.98,8.97-.02-11.05,29.95h-8.9s-11.04-28.46-11.04-28.46c-.21-1.9-.05-1.42,1.48-1.49,2.48-.11,5,.04,7.48.02Z"/>
    <rect class="st0" x="595" y="164" width="8" height="30"/>
    <path class="st0" d="M994,53v4s-4.01,0-4.01,0v10s-3.99,0-3.99,0l-.03-9.96c-.96.17-3.13.04-4.15.04v-4.08c3.65,0,9.9.15,12.18,0Z"/>
    <path class="st0" d="M124,83c4.22-2.94,12.55-5.64,17.55-6.04.87-.07,10.05,1.68,10.45,2.04.41,1.72-.66,1.99-1.5,3s-4.75,5.15-5.47,5.53c-2.28,1.17-5.7.05-8.36.64-1.13.25-5.54,2.58-6.64,3.36-11.17,7.94-10.93,25.85.61,33.34,10.53,6.82,24.86,2.61,29.88-8.84,2.16-4.92,1.92-9.49.49-14.55-.2-.7.25-2.29-1.51-1.47-2.38,1.11-10.42,10.85-13.5,13.5-.82.71-1.13,1.55-2.51,1.55-1.65,0-8.19-6.02-6.03-8.09l22.12-21.9c2.11-.62,6.6,4.16,7.88,5.96,9.15,12.81,4.49,35.3-9.47,42.97-5.83,3.21-11.37,4.32-18,4-11.7-.56-21.82-7.27-26.2-18.3-3.88-9.77-2.91-20.91,3.2-29.7.15-.21,3.01-3.6,3.2-3.8s3.59-3.06,3.8-3.2Z"/>
    <path class="st0" d="M124,83c-.21.15-3.59,3-3.8,3.2s-3.06,3.59-3.2,3.8c-10.89-5.09-25.63-1.25-29.55,10.95-1.97,6.15-1.16,10.89,1.33,16.77l34.81,35.22c.96.28,1.61.12,2.44-.4,4.14-2.58,10.05-10.93,13.97-14.53,6.63.32,12.17-.79,18-4l-30.98,31.52c-1.8.91-5.06.92-6.56-.49-10.91-12.47-25.34-23.53-35.99-36.01-24.33-28.53,8.94-66.2,39.52-46.02Z"/>
  </g>
  <path class="st0" d="M1009.3,67h-3.3s-.33-7.67-.33-7.67c-.8.65-3.27,4.77-3.67,5.25,0,0-.31-.32-1.01-1.23-1.04-1.05-1.13-1.96-2.5-3.35l-.49,7h-3c.38-2.59-.04-7.88.83-14.04l6.06,6c2.03-2.12,3.67-3.69,6.23-6.26l1.18,14.3Z"/>
</svg>