<?xml version="1.0" encoding="UTF-8"?>
<svg id="Layer_1" xmlns="http://www.w3.org/2000/svg" version="1.1" viewBox="0 0 1125 500">
  <!-- Generator: Adobe Illustrator 29.8.2, SVG Export Plug-In . SVG Version: 2.1.1 Build 3)  -->
  <defs>
    <style>
      .st0 {
        fill: #fff;
      }
    </style>
  </defs>
  <path class="st0" d="M69.43,52.6c1.45,0,2.91-.01,4.36-.02,3.93-.02,7.86-.02,11.78-.01,3.29,0,6.58,0,9.86,0,7.76-.01,15.52-.01,23.28,0,7.99.01,15.97,0,23.96-.03,6.88-.02,13.75-.03,20.62-.02,4.1,0,8.2,0,12.29-.02,3.86-.02,7.71-.01,11.57,0,1.41,0,2.82,0,4.23,0,9.67-.07,17.07,1.12,25.36,6.2q1.11,1.14,2.25,2.31c.49.49.99.98,1.5,1.48,6.66,7.98,5.47,17.98,5.47,27.8.02,1.99.03,3.97.05,5.96.03,4.15.04,8.3.03,12.45,0,5.31.07,10.61.16,15.91.06,4.1.07,8.19.06,12.29,0,1.96.03,3.91.07,5.87q.29,15.31-3.76,20.08-2.95,2.1-5.88,3.62c-5.61,3.19-8.1,9.52-9.95,15.47q-1.75,3.06-3.8,3.95c-1.72.47-3.45.91-5.19,1.33-7.73,2.2-13.5,6.47-17.58,13.37-4.33,8.84-5.76,17.64-2.75,27.11q.57,2.23.56,4.31c-1.48,2.12-3.15,3.58-5.11,5.26-5.85,5.4-7.58,13.99-8.2,21.62.3,8.89,3.89,16.23,9.31,23.12q.83.62,1.67,1.26c2.19,2.86,1.64,6.22,1.64,9.68.31,10.01,3.06,18.01,10.5,25.06,6.01,4.72,12.86,7.13,20.19,9-.02.76-.05,1.52-.07,2.31-.19,10.9.87,20.02,8.07,28.69q1.06.64,2.14,1.3c3.84,2.38,6.43,4.17,7.69,8.63.29,3.63.31,7.17.22,10.82,0,1.34,0,2.68,0,4.02,0,2.8-.04,5.59-.1,8.39-.07,3.57-.09,7.13-.08,10.69,0,2.76-.02,5.52-.05,8.29-.02,1.95-.02,3.89-.03,5.84-.21,8.78-1.9,13.85-7.86,20.23-.64.53-1.28,1.06-1.94,1.61-.64.54-1.28,1.09-1.94,1.64-4.65,3.48-7.64,4.92-13.55,4.9-1.31,0-2.62,0-3.97.01-1.45-.01-2.89-.02-4.34-.03-1.53,0-3.06,0-4.58,0-4.14,0-8.28-.02-12.43-.04-4.33-.02-8.66-.02-12.99-.02-8.2,0-16.4-.03-24.6-.06-9.33-.03-18.67-.05-28-.07-19.2-.03-38.4-.08-57.6-.15v-2c-.58-.11-1.16-.23-1.76-.35-6.93-2.02-11.53-7.62-15-13.66-2.35-5.68-2.07-11.52-2-17.58,0-1.46-.02-2.92-.03-4.39-.02-4-.01-7.99,0-11.99.01-4.32,0-8.64-.02-12.96-.03-8.45-.02-16.9,0-25.35.01-6.87.02-13.74,0-20.61,0-.98,0-1.96,0-2.97,0-1.99,0-3.98,0-5.96-.02-18.63,0-37.26.03-55.89.03-15.98.02-31.96,0-47.94-.03-18.57-.04-37.13-.03-55.7,0-1.98,0-3.96,0-5.94,0-.97,0-1.95,0-2.95,0-6.86,0-13.72-.02-20.58-.02-8.36-.01-16.72.02-25.08.02-4.26.02-8.53,0-12.79-.02-3.91,0-7.81.02-11.72,0-1.41,0-2.82-.01-4.23-.1-10.05,1.55-16,8.57-23.22,7.97-7.71,17.14-7.6,27.64-7.56ZM104,67v3h28c-.33-.99-.66-1.98-1-3h-27ZM149,67v3c.99-.33,1.98-.66,3-1-.33-.66-.66-1.32-1-2h-2Z"/>
  <path class="st0" d="M622,55h48c1.8,7.19,3.54,14.28,4.95,21.54.17.87.34,1.74.52,2.64.56,2.84,1.11,5.68,1.66,8.52.39,2,.78,4.01,1.18,6.01.82,4.19,1.64,8.38,2.45,12.56,1.04,5.32,2.08,10.64,3.12,15.96.81,4.14,1.62,8.28,2.42,12.41.38,1.96.76,3.92,1.15,5.88.54,2.76,1.08,5.52,1.61,8.28q.23,1.17.46,2.36c1.6,8.26,3.02,16.53,4.48,24.82.33-39.93.66-79.86,1-121h32v230h-43c-5.38-22.78-10.23-45.67-15.04-68.57-.86-4.09-1.72-8.17-2.59-12.26-.84-3.99-1.68-7.98-2.52-11.97-.4-1.88-.79-3.76-1.19-5.64-.56-2.63-1.11-5.27-1.66-7.9-.16-.74-.31-1.49-.48-2.25-1.63-7.78-3.05-15.59-4.51-23.41-.33,43.56-.66,87.12-1,132h-33V55Z"/>
  <path class="st0" d="M378,55q86.22,0,95.42,9.08c10.59,12.84,8.77,31.7,8.77,47.3,0,2.85.02,5.7.04,8.56q.11,33.78-10.7,45.62c-1.99,1.87-4.09,3.22-6.53,4.44.52.27,1.04.54,1.57.81,7.56,4.25,10.75,9.33,13.18,17.56,2.51,9.42,2.4,19.23,2.46,28.91.03,2.58.06,5.16.09,7.74.04,4.01.08,8.03.1,12.04.1,14.61.29,28.66,3.6,42.94q.5,2.48,1,5h-40q-3.37-13.5-3.4-19.32-.02-1.95-.04-3.94c0-1.38,0-2.76,0-4.14-.01-1.46-.03-2.91-.04-4.37-.04-3.8-.06-7.61-.07-11.41-.03-6.08-.07-12.17-.12-18.25-.02-2.1-.02-4.2-.02-6.3q.57-14.1-4.74-26.45c-7.12-5.04-12.4-3.21-22.56-3.81v98h-38V55ZM416,90v62q13.46,1.03,25.94-3.56c3.34-7.66,2.25-17.42,2.25-25.67,0-2.2.02-4.4.04-6.6q.65-12.58-3.55-23.87c-6.26-4.87-19.28-2.3-24.68-2.3Z"/>
  <path class="st0" d="M867,55h38v92h29V55h38v230h-38v-103h-29v103h-38V55Z"/>
  <path class="st0" d="M501,55h38c.01,5.73.03,11.46.04,17.36.05,18.9.12,37.8.19,56.7.04,11.46.08,22.92.11,34.39.02,9.99.06,19.98.1,29.97.02,5.29.04,10.58.05,15.87,0,4.98.03,9.96.06,14.93,0,1.83.01,3.66.01,5.48,0,2.49.02,4.99.04,7.48,0,.72,0,1.45-.01,2.2.06,4.36.74,7.14,3.41,10.62,3.14,1.38,6.54,1.17,9.94,1.19,1.02.01,2.04.03,3.09.04,3.23-.25,5.22-.49,7.97-2.23,1.82-5.01,2.29-9.61,2.28-14.94,0-.77.01-1.54.02-2.33.02-2.56.02-5.12.02-7.69,0-1.84.02-3.69.03-5.53.03-4.99.04-9.99.06-14.98.02-5.22.04-10.44.07-15.67.05-9.88.08-19.77.12-29.65.04-11.26.09-22.51.14-33.77.1-23.15.19-46.3.27-69.44h35c.07,26.26.12,52.52.16,78.78.02,12.19.04,24.39.07,36.58.03,10.63.05,21.26.06,31.89,0,5.63.01,11.25.03,16.88.02,5.3.03,10.6.02,15.91,0,1.94,0,3.88.02,5.82q.16,28.05-8.89,37.79c-6.46,6.02-14.39,8.42-23.14,8.53-.9.01-1.8.03-2.72.04q-1.44.01-2.91.02t-3.05.02c-2.13.01-4.26.02-6.38.03-2.16.01-4.31.03-6.47.06q-27.63.38-38.29-7.36c-6.86-6.71-9.33-16.59-9.62-25.91,0-1.51,0-3.01,0-4.52,0-.83,0-1.67,0-2.53,0-2.79,0-5.57,0-8.36,0-2,0-4,0-6,0-5.43,0-10.85.01-16.28,0-5.67,0-11.35,0-17.02,0-10.74.01-21.48.02-32.22.01-12.23.02-24.46.02-36.69.01-25.16.03-50.31.05-75.47Z"/>
  <path class="st0" d="M794.46,52.53c3.17.03,6.34.02,9.5,0,2.05,0,4.09.01,6.14.03.93,0,1.86,0,2.82,0,9.89.14,19.29,1.98,26.66,8.94,6.92,7.31,8.55,16.78,8.53,26.6q0,1.77,0,3.58c0,1.26-.01,2.52-.02,3.82,0,1.3,0,2.6,0,3.94,0,3.44-.01,6.88-.02,10.33-.01,3.52-.01,7.04-.02,10.56-.01,6.89-.03,13.79-.05,20.68h-35c-.05-3.02-.1-6.05-.15-9.16-.05-2.94-.11-5.88-.17-8.83-.04-2.04-.07-4.08-.1-6.11-.05-2.94-.1-5.87-.16-8.81-.01-.9-.02-1.81-.04-2.74-.12-5.12-.56-9.53-2.38-14.35-3.52-2.22-6.9-2.27-11-2.25-1.01,0-2.02-.01-3.06-.02-3.1.28-5.21.77-7.94,2.27-2.22,3.34-2.25,6.2-2.26,10.14q-.01,1.89-.02,3.82c0,1.39,0,2.79,0,4.18,0,1.47,0,2.94-.02,4.41-.01,3.99-.01,7.98-.01,11.98,0,3.33,0,6.67,0,10-.01,7.86-.01,15.72,0,23.59,0,8.11,0,16.22-.03,24.33-.02,6.96-.02,13.93-.02,20.89,0,4.16,0,8.32-.01,12.48-.01,3.91-.01,7.82,0,11.73,0,1.43,0,2.87,0,4.3-.01,1.96,0,3.92.01,5.88q0,1.64,0,3.32c.43,3.35,1.38,5.24,3.37,7.95,3.14,1.38,6.54,1.17,9.94,1.19,1.02.01,2.04.03,3.09.04,3.23-.25,5.22-.49,7.97-2.23,2.48-6.29,2.35-12.59,2.41-19.28.02-1.17.04-2.33.06-3.53.06-3.71.11-7.42.15-11.13.04-2.52.08-5.04.12-7.56.1-6.17.18-12.33.26-18.5h35q.12,16.74.15,23.94c.02,4.89.04,9.78.08,14.67.03,3.95.05,7.9.06,11.85,0,1.5.02,2.99.03,4.49.13,12.09-.16,25.34-8.85,34.7-6.46,6.02-14.39,8.42-23.14,8.53-.9.01-1.8.03-2.72.04q-1.44.01-2.91.02t-3.05.02c-2.13.01-4.26.02-6.38.03-2.16.01-4.31.03-6.47.06q-27.63.38-38.29-7.36c-6.72-6.57-9.28-16.3-9.63-25.45,0-1.28,0-2.55,0-3.87,0-.72,0-1.43,0-2.17,0-2.39-.01-4.77-.01-7.16,0-1.72,0-3.43-.02-5.15-.01-4.65-.02-9.31-.02-13.96,0-2.91,0-5.82-.01-8.73-.01-9.12-.02-18.24-.03-27.36,0-10.51-.02-21.01-.05-31.52-.02-8.13-.03-16.27-.03-24.4,0-4.85,0-9.7-.02-14.55-.02-4.57-.02-9.14,0-13.71,0-1.67,0-3.34-.01-5.01-.08-14.24.94-26.79,10.87-37.72,10.59-7.81,24.51-6.84,36.96-6.72Z"/>
  <path class="st0" d="M305.46,52.53c3.17.03,6.34.02,9.5,0,2.05,0,4.09.01,6.14.03.93,0,1.86,0,2.82,0,9.89.14,19.29,1.98,26.66,8.94,6.92,7.31,8.55,16.78,8.53,26.6q0,1.77,0,3.58c0,1.26-.01,2.52-.02,3.82,0,1.3,0,2.6,0,3.94,0,3.44-.01,6.88-.02,10.33-.01,3.52-.01,7.04-.02,10.56-.01,6.89-.03,13.79-.05,20.68h-35c-.05-3.02-.1-6.05-.15-9.16-.05-2.94-.11-5.88-.17-8.83-.04-2.04-.07-4.08-.1-6.11-.05-2.94-.1-5.87-.16-8.81-.01-.9-.02-1.81-.04-2.74-.12-5.12-.56-9.53-2.38-14.35-3.52-2.22-6.9-2.27-11-2.25-1.01,0-2.02-.01-3.06-.02-3.1.28-5.21.77-7.94,2.27-2.22,3.34-2.25,6.2-2.26,10.14q-.01,1.89-.02,3.82c0,1.39,0,2.79,0,4.18,0,1.47,0,2.94-.02,4.41-.01,3.99-.01,7.98-.01,11.98,0,3.33,0,6.67,0,10-.01,7.86-.01,15.72,0,23.59,0,8.11,0,16.22-.03,24.33-.02,6.96-.02,13.93-.02,20.89,0,4.16,0,8.32-.01,12.48-.01,3.91-.01,7.82,0,11.73,0,1.43,0,2.87,0,4.3-.01,1.96,0,3.92.01,5.88q0,1.64,0,3.32c.43,3.35,1.38,5.24,3.37,7.95,3.14,1.38,6.54,1.17,9.94,1.19,1.02.01,2.04.03,3.09.04,3.23-.25,5.22-.49,7.97-2.23,2.48-6.29,2.35-12.59,2.41-19.28.02-1.17.04-2.33.06-3.53.06-3.71.11-7.42.15-11.13.04-2.52.08-5.04.12-7.56.1-6.17.18-12.33.26-18.5h35q.12,16.74.15,23.94c.02,4.89.04,9.78.08,14.67.03,3.95.05,7.9.06,11.85,0,1.5.02,2.99.03,4.49.13,12.09-.16,25.34-8.85,34.7-6.46,6.02-14.39,8.42-23.14,8.53-.9.01-1.8.03-2.72.04q-1.44.01-2.91.02t-3.05.02c-2.13.01-4.26.02-6.38.03-2.16.01-4.31.03-6.47.06q-27.63.38-38.29-7.36c-6.72-6.57-9.28-16.3-9.63-25.45,0-1.28,0-2.55,0-3.87,0-.72,0-1.43,0-2.17,0-2.39-.01-4.77-.01-7.16,0-1.72,0-3.43-.02-5.15-.01-4.65-.02-9.31-.02-13.96,0-2.91,0-5.82-.01-8.73-.01-9.12-.02-18.24-.03-27.36,0-10.51-.02-21.01-.05-31.52-.02-8.13-.03-16.27-.03-24.4,0-4.85,0-9.7-.02-14.55-.02-4.57-.02-9.14,0-13.71,0-1.67,0-3.34-.01-5.01-.08-14.24.94-26.79,10.87-37.72,10.59-7.81,24.51-6.84,36.96-6.72Z"/>
  <path class="st0" d="M554.69,304.62c.7,0,1.41,0,2.13,0,10.87.03,20.83.76,31.18,4.37,1.09.36,2.17.72,3.29,1.1,15.24,5.69,27.88,17.09,34.71,31.9,1.44,3.97,2.75,7.97,4,12-5.28.27-10.56.47-15.85.6-1.8.06-3.59.13-5.39.23q-14.97.78-19.39-3.19-1.82-2.94-3.11-5.87c-2.96-6.48-9.5-9.68-15.89-12.14-12.95-4.21-26.04-3.56-38.34,2.31-5.12,2.69-9.11,5.84-13.03,10.07-.66.7-1.32,1.4-2,2.12-8.17,11.75-9.25,23.97-8,37.88,2.59,11.58,9.13,20.52,18.6,27.5,11.4,7.13,25.03,8.17,38.05,5.86,11.1-3.09,19.45-9.18,26.35-18.35l1-2c-10.56-.33-21.12-.66-32-1v-28h68v74h-25c-.66-4.29-1.32-8.58-2-13-1,.66-2.01,1.33-3.04,2.01-8.35,5.43-16.34,10.14-25.96,12.99-.61.18-1.22.37-1.85.55-7.31,1.92-14.7,1.84-22.21,1.82-.69,0-1.38,0-2.09,0-10.46-.03-19.95-.71-29.85-4.37-1.08-.37-2.15-.75-3.26-1.13-7-2.65-12.86-6.26-18.74-10.87q-1.07-.82-2.15-1.65c-12.24-9.99-19.93-25.8-21.85-41.35-1.56-21.28,1.72-41.27,15.93-57.91,18.06-19.99,41.56-26.54,67.76-26.47Z"/>
  <path class="st0" d="M257,309c14.38-.06,28.75-.12,43.56-.19,4.51-.03,9.02-.05,13.67-.08q5.58-.01,8.21-.02c1.8,0,3.61-.01,5.41-.03,19.9-.16,37.68,2.07,54.15,14.32,1.01.72,2.02,1.44,3.06,2.19,11.48,9.98,18.69,25.92,20.26,40.85.15,3.06.2,6.09.18,9.15q0,1.63-.02,3.29c-.34,15.21-4.57,27.2-13.48,39.52q-.8,1.12-1.61,2.26c-11.41,14.41-29.78,21.13-47.39,23.74-6.84.61-13.71.47-20.57.39-1.69,0-3.38,0-5.07-.01-6.16-.02-12.32-.08-18.49-.13-13.82-.08-27.64-.16-41.88-.25v-135ZM291,337v79c6.99.08,13.98.17,21.19.25,2.18.04,4.36.07,6.6.11,14.05.14,27.09-.66,38.21-10.36,7.13-7.28,10.46-16.99,11.03-27.05-.12-11.67-2.75-20.59-9.22-30.2-11.43-11.17-24.66-12.13-39.84-12.02q-3.3.04-6.66.08c-7.03.06-14.07.12-21.31.19Z"/>
  <path class="st0" d="M983,55h38c7.39,33.18,14.05,66.36,19,100,.08-.72.17-1.44.25-2.18,2.74-22.72,7.03-45.09,11.56-67.51q.23-1.12.46-2.26c1.89-9.35,3.81-18.7,5.73-28.05h35c-4.08,18.86-8.36,37.62-13.04,56.34-3.2,12.79-6.32,25.6-9.4,38.41q-.24,1-.49,2.02c-10.71,44.72-17.16,87.1-14.08,133.23h-37q.38-5.78.77-11.68c1.93-43.13-5.39-83.23-15.39-124.95-.16-.67-.32-1.34-.49-2.02-3.49-14.54-7.07-29.05-10.7-43.55-2.64-10.54-5.19-21.1-7.58-31.7-.28-1.22-.56-2.44-.84-3.7-.95-4.28-1.76-8-1.76-12.4Z"/>
  <path class="st0" d="M882.33,308.89c1.48,0,2.95,0,4.43.02.78,0,1.55,0,2.35,0,2.49,0,4.97.02,7.46.03,1.68,0,3.36,0,5.04.01,4.13.01,8.26.03,12.39.05,6.84,14.05,13.64,28.12,20.19,42.31,5.28,11.43,10.65,22.82,16.06,34.19.81,1.7,1.61,3.39,2.42,5.09,3.28,6.9,6.56,13.79,9.84,20.69,2.02,4.23,4.03,8.47,6.04,12.7.76,1.59,1.51,3.19,2.27,4.78,1.05,2.19,2.09,4.39,3.13,6.58.31.65.62,1.3.94,1.97q2.11,4.47,2.11,6.69h-39q-13-26-13-29h-59c-.99,2.97-1.98,5.94-3,9-.72,1.77-1.47,3.52-2.26,5.25-.36.79-.72,1.58-1.08,2.39q-.66,1.44-1.34,2.92-2.13,4.67-4.31,9.44h-39c5.06-11.43,10.28-22.76,15.75-34,4.68-9.62,9.27-19.28,13.75-29,4.96-10.75,10.07-21.43,15.24-32.08,4.88-10.06,9.6-20.19,14.26-30.35.51-1.11,1.02-2.22,1.55-3.37.45-.98.9-1.97,1.36-2.98q1.56-3.21,5.41-3.34ZM894,349q-.47,1.16-.95,2.34c-1.18,2.9-2.35,5.8-3.53,8.71-.75,1.86-1.51,3.71-2.26,5.57-2.42,5.96-4.87,11.89-7.59,17.72q-.8,1.68-.67,3.67h32c-.85-4.23-1.75-6.9-3.62-10.68-.52-1.08-1.05-2.15-1.59-3.26q-.83-1.67-1.67-3.38c-3.35-6.81-6.63-13.51-9.12-20.69h-1Z"/>
  <path class="st0" d="M696,309h128v28h-47v107h-34v-107h-47v-28Z"/>
  <path class="st0" d="M988,309h34v107h71v28h-105v-135Z"/>
  <path class="st0" d="M650,309h34v135h-34v-135Z"/>
  <path class="st0" d="M421,309h34v135h-34v-135Z"/>
</svg>