<?xml version="1.0" encoding="UTF-8"?>
<svg id="Layer_1" xmlns="http://www.w3.org/2000/svg" version="1.1" viewBox="0 0 1450 623.95">
  <!-- Generator: Adobe Illustrator 29.8.2, SVG Export Plug-In . SVG Version: 2.1.1 Build 3)  -->
  <defs>
    <style>
      .st0 {
        fill: none;
      }

      .st1 {
        fill: #fff;
      }
    </style>
  </defs>
  <path class="st1" d="M469.82,229.79c-5.09,0-9.27,3.71-10.06,8.57-.07-.02-.15-.05-.22-.07.01.58.05,1.14.05,1.72,0,121.06-98.5,219.55-219.58,219.55S20.46,361.07,20.46,240.01,118.95,20.45,240,20.45c52.96,0,101.57,18.87,139.53,50.21.03.03.06.07.09.1,49.61,46.06,71.06,86.24,58.85,110.24-8.21,16.13-30.84,23.62-52.42,23.2-.24-1.13-.55-2.32-.94-3.58.76-3.62,1.15-7.3,1.15-10.97,0-16-7.29-31.32-18.66-39.07-3.84-2.56-7.75-2.11-9.16-2.14-1.29-2.07-3.46-4.2-7.75-5.06-5.75-1.32-11.44-1.95-17.9-1.95-31.65,0-60.14,20.44-70.19,47.2-9.06,15.1-33.36,35.53-51.87,47.65-.03-.35-.08-.7-.12-1.07-.83-8.28-1.88-18.61-1.88-25.39,0-1.26.47-2.63.7-2.98l.3-.44c9.73-15.08,16.53-36.39,16.53-51.81,0-4.52-.5-8.26-1.69-12.44-.24-.71-.53-1.32-.83-1.84,1.31-10.71-2.07-17.32-5.24-21.01-3.17-3.7-9.18-8.1-19.85-8.1-4.37,0-9.23.82-15.15,2.6-36.82,12.76-72.96,58.8-72.96,92.96,0,9.4,2.65,17.35,7.94,23.7,6.61,7.72,16.15,11.8,27.57,11.8,12.35,0,26.22-4.76,39.96-13.61.55,4.48,1.15,8.55,1.77,12.75.36,2.47.73,4.99,1.09,7.67-35.39,22.73-54.54,37.22-72.35,64.58-6.79,10.66-10.37,22.2-10.37,33.38,0,12.32,5.32,26.66,12.96,34.88,13.04,13.99,26.01,20.78,39.64,20.78,4.85,0,14.31-1.94,21.14-5.09,31.38-14.77,38.34-49.75,39.69-59.87.92-5.55,1.42-11.59,1.42-17.44,0-16.41-2.91-33.21-6.59-54.48-.33-1.91-.67-3.86-1.01-5.84,20.2-12.75,35.81-25.51,47.19-36.66,1.27,4.7,3.16,9.35,5.63,13.81,8.96,16.03,24.19,24.86,42.88,24.86,25.51,0,53.61-16.5,66.63-38.01,4.06.46,8.19.74,12.35.74,27.75,0,56.47-10.6,68.61-34.43,8.28-16.29,10.21-41.65-13.93-78.5C400.16,44.67,325.22,0,240,0,107.67,0,0,107.66,0,240.01s107.66,240,240,240c4.11,0,8.21-.1,12.29-.31,1.44-.07,2.86-.23,4.29-.33,2.63-.17,5.25-.32,7.85-.59,1.73-.18,3.43-.45,5.15-.66,2.28-.28,4.56-.52,6.81-.86,1.88-.29,3.72-.67,5.58-.99,2.06-.37,4.15-.69,6.2-1.12,2-.4,3.99-.91,5.99-1.37,1.85-.44,3.72-.82,5.55-1.29,2.15-.55,4.26-1.2,6.39-1.81,1.65-.47,3.31-.9,4.94-1.41,2.22-.69,4.41-1.47,6.6-2.22,1.5-.51,3.02-.98,4.5-1.52,2.3-.84,4.56-1.77,6.83-2.68,1.34-.53,2.68-1.03,4.01-1.58,2.38-1.01,4.74-2.11,7.09-3.19,1.16-.53,2.34-1.03,3.49-1.58,2.47-1.19,4.87-2.45,7.29-3.72.99-.52,2-1,3-1.53,2.52-1.36,4.99-2.81,7.44-4.25.85-.51,1.72-.97,2.56-1.47,2.57-1.56,5.09-3.19,7.6-4.85.69-.45,1.39-.86,2.07-1.32,2.63-1.76,5.18-3.59,7.72-5.45.54-.4,1.11-.77,1.64-1.18,2.64-1.95,5.22-3.99,7.76-6.05.41-.33.85-.66,1.27-.99,2.65-2.18,5.24-4.42,7.8-6.7.28-.25.58-.5.86-.75,2.64-2.37,5.22-4.83,7.75-7.33.17-.17.37-.33.54-.52,2.62-2.58,5.16-5.24,7.65-7.94.09-.1.18-.2.28-.29,2.56-2.79,5.05-5.65,7.48-8.55.01-.01.02-.03.05-.05,34.76-41.65,55.72-95.19,55.72-153.55,0-5.64-4.58-10.22-10.23-10.22M192.08,357.56c-5.83,10.92-17.25,23.67-30.25,23.67-3.51,0-5.86-.44-8.58-1.64-16.52-6.76-25.61-18.33-25.61-32.56,0-3.92.65-10.08,3.77-17.21,7.82-18.11,30.4-39.12,61.22-57.25,3.71,18.38,5.59,34.68,5.59,48.59,0,20.97-3.89,31.9-6.13,36.38M201.73,139.67c-7.1,13.18-16.45,33.76-17.07,61.91-10.93,11.26-23.57,17.89-34.23,17.89-4.82,0-9.75-1.56-12.96-4.12-2.05-1.59-3.27-5.29-3.27-9.91,0-18.55,17.5-49.88,43.36-66.85,4.74-2.91,12.68-5.03,18.89-5.03,3.23,0,5.17.43,5.88,1.41.48.65.7,1.29.71,1.92,0,0-.14.81-1.31,2.79M313.49,241.39c-6.17,0-11.59-1.9-16.92-5.9-7.19-5.55-12-16.57-12-27.42,0-17.59,11.72-43.43,43.66-45.38-1.03,3.32-1.58,6.84-1.58,10.31,0,9.29,3.73,26.41,27.35,41.4-8.5,13.72-25.38,26.98-40.51,26.98M350.31,176.51c0-1.6.23-2.88.71-4.08.15-.36.53-.71.99-.75.21.03.6.16.99.29,2.68,1.57,9.15,6.44,9.15,16.81,0,1.59-.16,3.21-.45,4.87-7.11-4.87-11.39-11.14-11.39-17.14"/>
  <path class="st1" d="M568.22,112.98c-36.17,0-49.07,25.21-49.07,48.8v13.84h-7.06c-5.77,0-10.29,4.52-10.29,10.29s4.52,10.3,10.29,10.3h7.06v98.17c0,6.07,4.76,10.84,10.83,10.84s10.84-4.77,10.84-10.84v-98.17h22.52c5.76,0,10.29-4.53,10.29-10.3s-4.53-10.29-10.29-10.29h-22.52v-13.84c0-12.87,4.76-28.21,27.4-28.21,5.77,0,10.3-4.53,10.3-10.3s-4.53-10.29-10.3-10.29"/>
  <path class="st1" d="M680.48,173.45c-6.12,0-11.11,4.86-11.11,10.83v70.78c0,15.15-3.68,30.64-30.92,30.64s-30.92-15.5-30.92-30.64v-70.78c0-5.97-4.86-10.83-10.84-10.83s-10.83,4.76-10.83,10.83v70.78c0,22.11,5.45,51.51,52.59,51.51s52.59-29.4,52.59-51.51v-70.78c0-5.97-4.73-10.83-10.56-10.83"/>
  <path class="st1" d="M773.48,171.82c-13.93,0-26.47,5.35-33.9,14.04v-1.58c0-6.08-4.76-10.84-10.84-10.84s-10.83,4.76-10.83,10.84v110.09c0,6.07,4.76,10.83,10.83,10.83s10.84-4.76,10.84-10.83v-66.98c0-23.76,11.41-35.81,33.9-35.81,25.22,0,30.38,13.56,30.38,33.9v68.88c0,6.07,4.76,10.83,10.84,10.83s10.83-4.76,10.83-10.83v-72.41c0-33.27-17.51-50.15-52.05-50.15"/>
  <path class="st1" d="M945.93,105.66c-6.07,0-10.83,4.76-10.83,10.83v69.31c-7.21-7.18-19.31-13.97-34.72-13.97-37.6,0-56.66,22.61-56.66,67.23s19.97,67.51,57.74,67.51c34.63,0,55.31-20.78,55.31-55.58V116.49c0-6.07-4.76-10.83-10.84-10.83M901.46,286.52c-24.27,0-36.07-15.53-36.07-47.46s12.13-47.19,36.07-47.19c22.28,0,32.18,19.08,33.64,22.17v36.96c0,22.58-12.26,35.53-33.64,35.53"/>
  <path class="st1" d="M1039.76,172.36c-15.03,0-27.97,5.94-35.54,15.92v-4.01c0-6.07-4.75-10.83-10.83-10.83s-10.83,4.76-10.83,10.83v110.1c0,6.07,4.76,10.83,10.83,10.83s10.83-4.76,10.83-10.83v-60.75c0-25.14,13.29-40.14,35.54-40.14,5.82,0,10.56-4.75,10.56-10.56s-4.75-10.56-10.56-10.56"/>
  <path class="st1" d="M1106.18,171.83c-28.33,0-41.5,14.04-46.85,22.47-.83,1.37-1.67,3.12-1.67,5.71,0,5.53,4.49,10.02,10.02,10.02,3.27,0,5.7-1.26,8.66-4.52,8.35-9.44,16.72-13.11,29.84-13.11,18.69,0,29.85,10.35,29.85,27.67v5.16h-36.08c-30.6,0-49.61,15.48-49.61,40.39s18.34,40.93,49.07,40.93c15.28,0,28.66-5.51,36.62-14.75v2.83c0,5.82,4.74,10.56,10.55,10.56s10.56-4.75,10.56-10.56v-74.57c0-29.77-19.53-48.25-50.97-48.25M1099.95,244.74h36.08v9.23c0,22.37-18.14,32.56-35,32.56-13.12,0-28.76-3.63-28.76-20.9,0-18.17,17.34-20.89,27.67-20.89"/>
  <path class="st1" d="M1192.14,173.45c-6.07,0-10.83,4.76-10.83,10.83v110.1c0,6.07,4.76,10.83,10.83,10.83s10.84-4.76,10.84-10.83v-110.1c0-6.07-4.77-10.83-10.84-10.83"/>
  <path class="st1" d="M1192.14,126.81c-8.16,0-12.47,4.49-12.47,13.01,0,7.68,4.78,12.45,12.47,12.45s12.47-4.77,12.47-12.45c0-8.51-4.31-13.01-12.47-13.01"/>
  <path class="st1" d="M1280.12,228.12c-15.36-5.29-28.62-9.86-28.62-21.06,0-12.28,13.78-14.11,21.98-14.11,14.82,0,22.25,5.18,28.03,10.76,2.04,2.04,4.47,3.06,7.22,3.06,5.53,0,10.02-4.49,10.02-10.02,0-2.95-1.24-4.99-2.34-6.45-8.88-11.74-24.12-18.2-42.94-18.2-26.92,0-43.64,13.4-43.64,34.97,0,26.36,24,34.47,43.28,41,15.03,5.08,28.03,9.48,28.03,20.28,0,14.87-16.66,17.1-26.59,17.1-13.63,0-24.39-4.14-32.9-12.65-2.76-2.77-5.6-3.35-7.5-3.35-5.52,0-10.02,4.5-10.02,10.02,0,2.65.92,4.47,2.36,6.49,7.98,10.13,25.94,20.35,48.06,20.35,30.22,0,48.26-14.18,48.26-37.95,0-25.51-22.7-33.32-42.71-40.22"/>
  <path class="st1" d="M1436.18,272.96c-2.6,0-4.09.68-6.18,2.06-7.57,5.68-16.22,11.23-31.24,11.23-23.25,0-37.94-15.22-38.74-39.88h76.98c13.01,0,13.01-11.74,13.01-19.52,0-9.18-2.6-55.03-53.95-55.03-36.88,0-58.02,24.5-58.02,67.23s21,67.51,60.72,67.51c26.67,0,41.19-13.17,43.84-15.82,1.75-1.75,3.61-3.93,3.61-7.75,0-5.53-4.49-10.03-10.02-10.03M1396.05,191.86c20.96,0,31.89,11.77,32.52,35h-68.41c2.27-22.59,14.94-35,35.89-35"/>
  <rect class="st0" width="1449.99" height="623.95"/>
</svg>