<?xml version="1.0" encoding="UTF-8"?>
<svg id="Layer_1" xmlns="http://www.w3.org/2000/svg" version="1.1" viewBox="0 0 627 299">
  <!-- Generator: Adobe Illustrator 29.8.2, SVG Export Plug-In . SVG Version: 2.1.1 Build 3)  -->
  <defs>
    <style>
      .st0 {
        fill: #c62c4b;
      }
    </style>
  </defs>
  <path class="st0" d="M4,3v292h428c.32-.08.75.12,1,0v-15c-.44-.18-1.39.12-2,0H19V19.5l590-1.5v262h-15c-.16.39.06,1.36,0,2-.18,1.95.11,4.03,0,6-.04.66,0,1.34,0,2,0,.67,0,1.3,0,2,0,.66-.06,1.97,0,2.62,1.38,0,21.85.3,30,.38V3H4Z"/>
  <path class="st0" d="M85.5,206.04l-18.48,18.46c6.52,7.2,15.43,12.05,24.95,14.04,13.73,2.86,29.77,2.27,42.05-3,14.28-6.13,25.97-20.3,27.98-36.03v-123.5h-27.5c-2.3,0-1.35,9-1.51,11-4.83-4.17-9.31-9.18-15.93-10.56-18.23-3.78-39.96.68-48.25,18.87-7.09,15.54-7.09,59.61.32,75.07,11.04,23.06,46.21,26.38,63.38,8.63.7,6.74.43,17.54-2.33,23.67-7.57,16.77-33.35,15.44-44.67,3.36ZM128.21,155.71c-2.98,5.02-8.06,7.2-13.5,7.91-4.19.54-8.43-.58-11.9-2.99-1.86-1.3-3.84-2.51-5.27-4.67-.88-1.34-3.04-6.23-3.31-7.69-1.02-5.5-.93-24.93-.18-30.71.76-5.84,7.16-14.82,13.4-15.6,6.77-.85,15.11-.13,19.54,5.55,7.16,9.19,6.99,38.46,1.21,48.2Z"/>
  <path class="st0" d="M269.67,190.83c14.57,8.38,40.63,7.89,52.83-4.82l.5,9h29v-87.5c0-.9-3.12-9.72-3.82-11.18-10.22-21.57-41.94-22.6-62.58-20.21-7.01.81-15.28,4.9-20.55,9.53-.63,2.12,12.1,19.38,14.44,22.34,15.69-14.66,47.65-10.54,43.56,16.4-17.73,5.05-36.95-3.26-53.75,6.42-21.02,12.11-19.91,48.36.37,60.02ZM283.06,154.55c.72-4.42,7.2-9.55,11.44-9.55h28.5c1.6,19.43-5.64,28.51-25.54,27.04-10.85-.8-16.23-6.2-14.4-17.49Z"/>
  <path class="st0" d="M371,212v25.5l1.5,1.5h15c13.37,0,25.25-11.64,29.36-23.64l51.14-139.36h-30.5l-24.99,72.01-25.01-72.01h-30.5l40.05,110.53c-3.56,15.54-6.35,29.16-26.05,25.47Z"/>
  <path class="st0" d="M563.89,151.61c-1.58-13.55-13.18-25.27-26.63-27.37-5.8-.91-9.23-1.39-15.03-1.73-3.44-.2-11.98-.94-15.5-1.74-7.15-1.62-10.59-6.53-8.28-13.83,3.26-10.27,25.37-7.73,33.33-5.22,2.1.66,9.73,5,10.28,4.86,1.94-.47,18.16-16.73,17.9-17.98-7.43-7.18-19.09-11.83-29.42-12.64-18.96-1.5-42.03-1-54.54,15.54-10.76,14.22-9.4,39.41,7.06,48.94,12.9,7.46,27.63,5.07,41.35,7.65,6.66,1.25,11.57,4.9,10.54,12.34-1.48,10.65-20.92,12.28-29.41,11.17-1.8-.23-1.75-.25-2.65-.49-8.02-2.16-14.28-4.46-20.39-11.07l-19.04,19.96c7.27,7.13,17.29,12.75,27.33,14.71,31.89,6.21,78.09-.39,73.1-43.1Z"/>
  <path class="st0" d="M208.01,87v-10c.04-.99-.66-.93-1.46-1.03-8.41-1.07-18.9.85-27.55.03v120h30l1-80c.13-.14.05-2.47.77-3.68,7.62-12.7,18.93-12.69,31.21-6.32l15.02-26.98c-16.12-6.08-36.24-4.61-48.99,7.98Z"/>
  <path class="st0" d="M563.54,260.04c-2.03.8-3.7,2.66-5.2,2.8-2.24.21-5.87-5.49-14.42-3.41-2.21.54-3.53,2.25-4.44,2.55-2.59.86-.69-2.81-2.02-3.05-1.55-.29-5.41-.74-6.47.31v34.75h7v-21.5c0-2.95,4.52-7.03,7.65-7.21,2.55-.14,7.35,2.84,7.35,5.21v23.56l7-.06v-22.5c0-4.81,8.67-8.2,12.48-4.47.33.32,2.52,2.04,2.52,4.47v23.5h7v-26.5c0-.57-.53-3.48-3.34-6.16-3.57-3.4-11.97-3.54-15.11-2.3Z"/>
  <path class="st0" d="M506.73,259.23c-15.85,3.29-15.36,37.8,4.63,36.71,21.12-1.15,20.31-41.89-4.63-36.71ZM508.44,289.29c-1.6-.82-3.18-2.7-3.3-2.9-3.39-5.9-3.54-21.12,5.32-21.29,13.8-.25,8.46,29.53-2.03,24.18Z"/>
  <path class="st0" d="M489.28,267.87c1.1-.32,4.01-3.11,3.72-4.32-.31-1.27-6.1-4.01-7.73-4.31-16.71-3.09-23.7,12.59-18.76,26.76,3.71,10.66,19.44,13.35,26.47,4.51-5.68-8.07-6.07-1.52-11.46-1.46-3.75.04-7.34-2.04-8.29-5.76-.25-.96-1.73-8.87.32-12.68,5.43-10.1,11.12-1.38,15.72-2.72Z"/>
  <path class="st0" d="M444.99,294.77h12.9l.11-11.78h-13.01v11.78Z"/>
</svg>