<?xml version="1.0" encoding="UTF-8"?>
<svg id="Layer_1" xmlns="http://www.w3.org/2000/svg" version="1.1" viewBox="0 0 600 498">
  <!-- Generator: Adobe Illustrator 29.8.2, SVG Export Plug-In . SVG Version: 2.1.1 Build 3)  -->
  <defs>
    <style>
      .st0 {
        fill: #fff;
      }
    </style>
  </defs>
  <path class="st0" d="M4.61,89.38h60.94v232.28H4.61V89.38ZM88.08,205.28c0-66.3,53.75-120.05,120.05-120.05,24.32,0,46.95,7.26,65.87,19.7v-15.55h60.94v232.28h-60.94v-16.03c-18.92,12.44-41.54,19.7-65.87,19.7-66.31,0-120.05-53.75-120.05-120.05ZM143.14,205.28c0,35.84,29.15,64.99,64.99,64.99s64.99-29.16,64.99-64.99-29.15-64.99-64.99-64.99c-35.84,0-64.99,29.16-64.99,64.99ZM358.73,205.27c0-66.25,53.89-120.14,120.13-120.14.38,0,.74.03,1.11.03h118.53v60.9h-15.17c9.96,17.49,15.68,37.69,15.68,59.22,0,52.25-33.55,96.8-80.23,113.29,32.09,14.79,54.42,47.23,54.42,84.81,0,51.48-41.88,93.35-93.35,93.35s-93.34-41.87-93.34-93.35c0-37.26,21.94-69.47,53.58-84.44-47.28-16.18-81.36-61.01-81.36-113.67ZM517.39,403.37c0-20.7-16.84-37.55-37.55-37.55s-37.54,16.84-37.54,37.55,16.84,37.55,37.54,37.55c20.71,0,37.55-16.85,37.55-37.55ZM414.53,205.27c0,35.47,28.86,64.33,64.33,64.33s64.33-28.86,64.33-64.33-28.86-64.33-64.33-64.33c-35.47-.01-64.33,28.85-64.33,64.33ZM35.07,69.16c18.82,0,34.08-15.26,34.08-34.08S53.9,1,35.07,1,1,16.26,1,35.08s15.26,34.08,34.07,34.08Z"/>
</svg>