<?xml version="1.0" encoding="UTF-8"?>
<svg id="Layer_1" xmlns="http://www.w3.org/2000/svg" xmlns:xlink="http://www.w3.org/1999/xlink" version="1.1" viewBox="0 0 673.5 259.37">
  <!-- Generator: Adobe Illustrator 29.8.2, SVG Export Plug-In . SVG Version: 2.1.1 Build 3)  -->
  <defs>
    <style>
      .st0 {
        fill: none;
      }

      .st1 {
        fill: url(#radial-gradient);
      }

      .st2 {
        clip-path: url(#clippath-1);
      }

      .st3 {
        clip-path: url(#clippath-2);
      }

      .st4 {
        fill: #c40905;
      }

      .st5 {
        clip-path: url(#clippath);
      }

      .st6 {
        fill: #070606;
      }
    </style>
    <clipPath id="clippath">
      <path class="st0" d="M243.61,75.19h-11.39c-2.18.01-4.23,1.05-5.53,2.81l-59.53,62.09c-4.38,4.62-7.68,2.06-3.55-3.05,1.4-1.65,30.13-36.57,47.8-58.78.74-.91,1.57-3.55-.83-3.55h-17.01c-1.63-.13-3.21.62-4.13,1.98l-60.76,63.49c-4.38,4.54-8.26,1.9-3.72-3.22,1.4-1.73,33.02-40.37,50.36-62.42,1.5-1.42,2.02-3.59,1.32-5.53l-13.13-58.37c-.41-1.98-1.9-2.31-3.14-.74l-39.38,47.8c-1.43,1.61-3.73,2.11-5.7,1.24l-55.81-27.16c-1.82-.91-2.97,0-2.56,1.98l13.13,60.68c.39,2.13-.64,4.27-2.56,5.28l-56.14,26.5c-1.82.91-1.9,2.39,0,3.22l55.65,27.57c1.89,1.04,2.89,3.17,2.48,5.28l-14.04,60.52c-.41,2.48.74,3.14,2.56,2.48l55.98-26.5c1.98-.85,4.29-.31,5.7,1.32l38.56,48.71c1.24,1.65,2.72,1.32,3.22-.74l14.45-60.35c.56-2.18,2.53-3.71,4.79-3.71h62.09c2.06,0,2.72-1.32,1.4-2.89l-38.23-48.96c-1.28-1.74-1.28-4.12,0-5.86l38.89-48.38c1.24-1.24,1.24-2.64-1.24-2.73Z"/>
    </clipPath>
    <clipPath id="clippath-1">
      <rect class="st0" x="9.47" y="8.56" width="236.53" height="241.32"/>
    </clipPath>
    <clipPath id="clippath-2">
      <rect class="st0" x="8.4" y="9.55" width="236.45" height="241.41"/>
    </clipPath>
    <radialGradient id="radial-gradient" cx="170.23" cy="602.98" fx="170.23" fy="602.98" r="8.26" gradientTransform="translate(-4249.21 -15384.64) scale(25.87)" gradientUnits="userSpaceOnUse">
      <stop offset="0" stop-color="#c40804"/>
      <stop offset=".48" stop-color="#c40804"/>
      <stop offset="1" stop-color="#d3532a"/>
    </radialGradient>
  </defs>
  <path class="st6" d="M332.86,88.89l-2.23-12.22-35.67,1.98v18.49l10.07,1.24v96.43h33.02v-79.09c9.74-10.32,15.69-14.7,26.01-14.7s16.51,8.26,16.51,25.59v68.19h33.02v-74.3c0-30.96-14.78-47.39-42.77-47.39-14.35-.49-28.2,5.26-37.98,15.77Z"/>
  <path class="st6" d="M619.67,101.44c13.13,0,19.81,11.31,19.81,33.52,0,16.51-4.79,35.75-27.82,35.75-6.46-.07-12.84-1.36-18.82-3.8v-50.03c6.12-8.97,16-14.66,26.83-15.44ZM549.16,32.67v18.41l11.97,1.49v137.05c15.74,4.85,32.08,7.43,48.55,7.68,40.54,0,63.82-23.94,63.82-66.05,0-35.5-18.33-57.79-47.8-57.79-12.16-.16-23.94,4.22-33.02,12.3V31.02l-43.51,1.65Z"/>
  <path class="st6" d="M439.52,80.88l-1.82.66,5.94,24.77,2.31-.91c10.52-4.17,21.71-6.38,33.02-6.52,18.16,0,21.63,6.6,21.63,18.91v3.88h-12.05c-39.3,0-59.11,13.13-59.11,39.22,0,23.12,15.36,36.9,41.28,36.9,12.61.2,24.87-4.17,34.51-12.3.66,3.22,1.82,9.16,1.82,9.16l36.24-1.07v-18.49l-11.06-1.07v-58.7c0-28.15-16.51-41.86-49.54-41.86-14.7.07-29.3,2.58-43.18,7.43ZM462.15,159.23c0-6.44,2.72-14.94,26.01-14.94h12.05v18.33c-6.02,6.3-14.25,10.03-22.95,10.4-7.11,1.16-13.81-3.67-14.97-10.78-.16-.99-.21-2-.14-3.01Z"/>
  <path class="st4" d="M160.14,1.38l-43.18,53.17-61.59-29.89c-1.34-1.24-3.43-1.15-4.67.19-.97,1.05-1.15,2.61-.45,3.86l14.2,66.71L2.78,125.05c-1.8.29-3.03,1.98-2.74,3.78.23,1.41,1.33,2.52,2.74,2.74l61.67,30.22-15.19,66.87c-.9,1.58-.35,3.6,1.23,4.51,1.22.7,2.75.54,3.8-.38l61.59-29.14,42.93,53.66c.69,1.69,2.61,2.5,4.3,1.81,1.3-.53,2.12-1.82,2.05-3.22l15.52-66.46h68.77c1.74.56,3.6-.39,4.16-2.13.45-1.39-.07-2.91-1.27-3.74l-42.35-53.75,43.01-53.66c1.48-1.07,1.81-3.13.74-4.61-.81-1.12-2.22-1.62-3.55-1.25h-17.59c-1.22,0-2.38.51-3.22,1.4l-64.4,68.52c-.58.66-1.16.91-1.49.66s0-.74,0-1.49l55.32-66.87c.3-.48.3-1.09,0-1.57-.3-.55-.86-.89-1.49-.91h-22.54c-1.82.16-3.51,1.01-4.71,2.39-10.49,11.15-62.58,66.63-63.65,67.86s-1.16.91-1.49.66,0-.74,0-1.49l54.08-66.05c1.19-.97,1.86-2.43,1.82-3.96,0-.74-14.61-66.05-14.78-66.71-.29-1.8-1.98-3.03-3.78-2.74-.87.14-1.65.62-2.16,1.34Z"/>
  <g class="st5">
    <g class="st2">
      <g class="st3">
        <rect class="st1" x="8.4" y="9.55" width="236.45" height="241.41"/>
      </g>
    </g>
  </g>
</svg>