<?xml version="1.0" encoding="UTF-8"?>
<svg id="Layer_1" xmlns="http://www.w3.org/2000/svg" version="1.1" viewBox="0 0 357.77 53.23">
  <!-- Generator: Adobe Illustrator 29.8.2, SVG Export Plug-In . SVG Version: 2.1.1 Build 3)  -->
  <g>
    <path d="M18.46,40.57h.44l1.47,3.63c.14.34.19.44.57.45v.32h-2.03v-.32c.1,0,.33.02.41-.07.08-.08.03-.17,0-.26l-.25-.68h-1.48c-.06.18-.17.38-.17.59,0,.34.31.42.58.41v.32h-1.66v-.32c.46-.05.66-.53.82-.91l1.31-3.17h0ZM18.91,43.28l-.57-1.49-.6,1.49h1.17Z"/>
    <path d="M21.47,40.66h2.22v.32c-.17.02-.42-.04-.55.09-.06.06-.05.2-.05.27v1.98c0,.23,0,.57.08.79.09.21.18.3.39.39.18.08.34.11.54.11.32,0,.66-.11.85-.39.2-.28.2-.61.2-.94v-1.55c0-.29,0-.63-.34-.72-.09-.04-.2-.03-.3-.04v-.32h1.65v.32c-.55.02-.62.32-.64.81v1.7c0,.21-.02.38-.08.58-.1.35-.35.67-.67.82-.27.14-.67.17-.97.17-.38,0-.93-.07-1.25-.3-.39-.28-.5-.67-.5-1.14v-2.43c0-.08-.01-.14-.1-.18-.11-.04-.42-.04-.49-.04v-.32.02Z"/>
    <path d="M27.05,43.34h.28c.23.68.78,1.41,1.56,1.41.41,0,.84-.19.84-.68,0-.4-.27-.56-.62-.63l-.42-.08c-.43-.09-.79-.17-1.15-.44-.3-.23-.49-.6-.49-.98,0-.92.71-1.36,1.53-1.36.37,0,.71.1,1.02.33l.31-.29h.25l.07,1.56h-.29c-.22-.64-.72-1.29-1.44-1.29-.37,0-.79.18-.79.62s.38.55.72.62l.36.07c.83.18,1.62.43,1.62,1.47,0,.41-.17.79-.49,1.06-.29.24-.69.33-1.07.33-.42,0-.83-.13-1.15-.4l-.37.36h-.26l-.05-1.68h.03Z"/>
    <path d="M31.26,42.28l.09-1.62h3.83l.09,1.62h-.29c-.08-.56-.35-1.33-1-1.33-.07,0-.19.02-.2.11v3.28c0,.22,0,.27.22.3.15.02.3,0,.44.01v.32h-2.34v-.32c.18,0,.34-.02.51-.03.05,0,.11-.06.12-.12.03-.07.02-.16.02-.23v-3.21c0-.09-.13-.11-.2-.11-.65,0-.92.8-1,1.33h-.29Z"/>
    <path d="M38.31,40.66h.44c.34.02.65.06.95.25.25.17.42.51.42.83,0,.74-.62,1.03-1.25,1.07h0c.48.12.75.4.87.91l.09.37c.03.14.06.27.11.39,0,.02.03.04.05.07.3.12.33-.37.35-.56h.29c0,.12,0,.24-.03.35-.09.51-.51.71-.98.71-.25,0-.48-.08-.66-.27-.16-.17-.2-.4-.22-.63l-.02-.36c-.03-.5-.06-.86-.61-.89h-.44v1.57c.03.12.07.15.19.16.1.02.2.01.3.02h.15v.32h-2.28v-.32h.32c.28,0,.28-.1.29-.35v-2.77c0-.1.02-.4-.05-.48-.1-.1-.24-.07-.38-.08h-.18v-.32h2.29,0ZM37.66,42.58c.16,0,.31,0,.46-.01.57-.02.89-.21.89-.85,0-.58-.29-.75-.82-.75-.14,0-.29,0-.42.04-.11.06-.12.22-.12.34v1.24h0Z"/>
    <path d="M43.21,40.57h.44l1.47,3.63c.14.34.19.44.57.45v.32h-2.03v-.32c.1,0,.33.02.41-.07.07-.08.03-.17,0-.26l-.25-.68h-1.48c-.07.18-.17.38-.17.59,0,.34.31.42.58.41v.32h-1.66v-.32c.46-.05.66-.53.82-.91l1.31-3.17h-.01ZM43.66,43.28l-.57-1.49-.6,1.49h1.17Z"/>
    <path d="M46.24,44.97v-.32c.15.01.31-.01.46-.02.14-.01.14-.18.14-.3v-2.83c0-.5.04-.51-.45-.53h-.15v-.32h2.29v.32h-.37c-.26,0-.28.08-.28.32v2.95c0,.23,0,.36.25.38.13.02.25.02.38.02.85,0,1.22-.48,1.38-1.29h.3l-.07,1.61h-3.88Z"/>
    <path d="M51.03,44.97v-.32h.37c.26-.03.24-.17.24-.41v-2.9c0-.07,0-.13,0-.2-.03-.07-.02-.12-.1-.14-.1-.03-.21-.02-.31-.03h-.18v-.32h2.26v.32h-.19c-.12,0-.28-.02-.37.08-.03.03-.04.08-.05.11-.02.06,0,.13,0,.2v2.99c0,.09,0,.23.11.27.03.01.06,0,.09.01.09.02.18.01.28.02h.14v.32h-2.27Z"/>
    <path d="M56.02,40.57h.43l1.48,3.63c.14.34.19.44.57.45v.32h-2.03v-.32c.1,0,.33.02.41-.07.07-.08.03-.17,0-.26l-.25-.68h-1.48c-.07.18-.18.38-.18.59,0,.34.31.42.58.41v.32h-1.66v-.32c.46-.05.66-.53.82-.91l1.31-3.17h0ZM56.47,43.28l-.57-1.49-.6,1.49h1.17Z"/>
    <path d="M30.37,46.13s2,.83,2.93,2.82c0,0-1.8-.55-2.93-2.82"/>
    <path d="M27.4,46.2s2,.83,2.93,2.82c0,0-1.8-.55-2.93-2.82"/>
    <path d="M18.9,46.36s1.84.76,2.7,2.59c0,0-1.66-.51-2.7-2.59"/>
    <path d="M21.47,46.13s2,.83,2.93,2.82c0,0-1.8-.55-2.93-2.82"/>
    <path d="M24.34,46.07s2,.82,2.94,2.82c0,0-1.8-.55-2.94-2.82"/>
    <path d="M16.25,45.97s1.84.76,2.7,2.59c0,0-1.66-.51-2.7-2.59"/>
    <path d="M13.87,44.99s1.66,1.12,2.15,3.09c0,0-1.53-.83-2.15-3.09"/>
    <path d="M11.59,43.38s1.3,1.54,1.24,3.58c0,0-1.25-1.23-1.24-3.58"/>
    <path d="M9.21,42.2s1.34,1.51,1.33,3.55c0,0-1.28-1.2-1.33-3.55"/>
    <path d="M7.14,40.22s1.18,1.64.97,3.67c0,0-1.15-1.33-.97-3.67"/>
    <path d="M4.37,43.5s1.97-.21,3.56,1.01c0,0-1.7.34-3.56-1.01"/>
    <path d="M6.62,46.34s1.88-.64,3.69.19c0,0-1.58.71-3.69-.19"/>
    <path d="M9.08,48.57s1.69-1.07,3.63-.69c0,0-1.38,1.07-3.63.69"/>
    <path d="M12.08,50.15s1.56-1.26,3.53-1.1c0,0-1.26,1.22-3.53,1.1"/>
    <path d="M15.14,51.34s1.33-1.52,3.29-1.71c0,0-1.03,1.43-3.29,1.71"/>
    <path d="M18.3,52.04s1.1-1.7,3.01-2.2c0,0-.82,1.57-3.01,2.2"/>
    <path d="M21.03,52.38s1.16-1.89,3.19-2.44c0,0-.87,1.75-3.19,2.44"/>
    <path d="M24.1,52.46s1.18-1.93,3.23-2.49c0,0-.88,1.78-3.23,2.49"/>
    <path d="M27.41,52.55s.85-1.84,2.68-2.61c0,0-.6,1.67-2.68,2.61"/>
    <path d="M56.05,49.09s-4.8.48-17.74.34h-2c-12.94.14-17.74-.34-17.74-.34-6.8-.76-11.54-5.91-11.54-5.91,3,3.78,8.2,5.77,11.54,6.18,2.91.36,12.88.29,16.96.34-1.4.29-3.12.88-4.62,2.07h1.07s1.6-1.59,5.34-1.98c3.73.38,5.34,1.98,5.34,1.98h1.07c-1.5-1.19-3.21-1.78-4.61-2.07,4.08-.04,14.05.02,16.96-.34,3.34-.41,8.54-2.4,11.54-6.18,0,0-4.73,5.15-11.54,5.91"/>
    <path d="M44.25,46.13s-2,.83-2.94,2.82c0,0,1.8-.55,2.94-2.82"/>
    <path d="M47.21,46.2s-2,.83-2.93,2.82c0,0,1.8-.55,2.93-2.82"/>
    <path d="M55.72,46.36s-1.84.76-2.7,2.59c0,0,1.66-.51,2.7-2.59"/>
    <path d="M53.15,46.13s-2,.83-2.94,2.82c0,0,1.8-.55,2.94-2.82"/>
    <path d="M50.28,46.07s-2,.82-2.93,2.82c0,0,1.8-.55,2.93-2.82"/>
    <path d="M58.37,45.97s-1.84.76-2.7,2.59c0,0,1.66-.51,2.7-2.59"/>
    <path d="M60.75,44.99s-1.66,1.12-2.14,3.09c0,0,1.52-.83,2.14-3.09"/>
    <path d="M63.03,43.38s-1.3,1.54-1.24,3.58c0,0,1.24-1.23,1.24-3.58"/>
    <path d="M65.41,42.2s-1.33,1.51-1.33,3.55c0,0,1.28-1.2,1.33-3.55"/>
    <path d="M67.48,40.22s-1.18,1.64-.97,3.67c0,0,1.15-1.33.97-3.67"/>
    <path d="M70.25,43.5s-1.97-.21-3.56,1.01c0,0,1.7.34,3.56-1.01"/>
    <path d="M68,46.34s-1.88-.64-3.68.19c0,0,1.58.71,3.68-.19"/>
    <path d="M65.54,48.57s-1.69-1.07-3.63-.69c0,0,1.38,1.07,3.63.69"/>
    <path d="M62.54,50.15s-1.56-1.26-3.53-1.1c0,0,1.26,1.22,3.53,1.1"/>
    <path d="M59.48,51.34s-1.33-1.52-3.3-1.71c0,0,1.03,1.43,3.3,1.71"/>
    <path d="M56.32,52.04s-1.1-1.7-3.02-2.2c0,0,.82,1.57,3.02,2.2"/>
    <path d="M53.59,52.38s-1.16-1.89-3.19-2.44c0,0,.87,1.75,3.19,2.44"/>
    <path d="M50.52,52.46s-1.18-1.93-3.24-2.49c0,0,.88,1.78,3.24,2.49"/>
    <path d="M47.2,52.55s-.85-1.84-2.68-2.61c0,0,.6,1.67,2.68,2.61"/>
    <path d="M37.91,48.57c.31,0,.57-.26.57-.58s-.25-.58-.57-.58-.57.26-.57.58.25.58.57.58"/>
    <path d="M39.64,47.64c.36,0,.66-.31.66-.68s-.29-.68-.66-.68-.66.3-.66.68.3.68.66.68"/>
    <path d="M35.38,48.8c.29,0,.52-.24.52-.54s-.23-.53-.52-.53-.52.24-.52.53.23.54.52.54"/>
    <path d="M37.31,52.24c.42,0,.75-.35.75-.78s-.34-.78-.75-.78-.76.35-.76.78.34.78.76.78"/>
    <path d="M37.07,50.51c.07,0,.13-.06.13-.13s-.06-.13-.13-.13-.13.06-.13.13.06.13.13.13"/>
    <path d="M36.24,51.39c.07,0,.13-.06.13-.13s-.06-.13-.13-.13-.13.06-.13.13.06.13.13.13"/>
    <path d="M36.37,50.99c.07,0,.13-.06.13-.13s-.06-.13-.13-.13-.13.06-.13.13.06.13.13.13"/>
    <path d="M36.68,50.68c.07,0,.13-.06.13-.13s-.06-.13-.13-.13-.13.06-.13.13.06.13.13.13"/>
    <path d="M37.54,50.51c-.07,0-.13-.06-.13-.13s.06-.13.13-.13.13.06.13.13-.06.13-.13.13"/>
    <path d="M37.94,50.68c-.07,0-.13-.06-.13-.13s.06-.13.13-.13.13.06.13.13-.06.13-.13.13"/>
    <path d="M37.07,52.4c.07,0,.13.06.13.13s-.06.13-.13.13-.13-.06-.13-.13.06-.13.13-.13"/>
    <path d="M36.24,51.53c.07,0,.13.06.13.13s-.06.13-.13.13-.13-.06-.13-.13.06-.13.13-.13"/>
    <path d="M36.37,51.92c.07,0,.13.06.13.13s-.06.13-.13.13-.13-.06-.13-.13.06-.13.13-.13"/>
    <path d="M36.68,52.24c.07,0,.13.06.13.13,0,.08-.06.14-.13.14s-.13-.06-.13-.14c0-.07.06-.13.13-.13"/>
    <path d="M37.54,52.4c-.07,0-.13.06-.13.13s.06.13.13.13.13-.06.13-.13-.06-.13-.13-.13"/>
    <path d="M37.94,52.24c-.07,0-.13.06-.13.13,0,.08.06.14.13.14s.13-.06.13-.14c0-.07-.06-.13-.13-.13"/>
    <path d="M35.36,51.21c.07,0,.12-.06.12-.12s-.06-.12-.12-.12-.12.06-.12.12c0,.07.05.12.12.12"/>
    <path d="M34.59,52.03c.07,0,.12-.06.12-.12s-.05-.12-.12-.12-.12.06-.12.12.05.12.12.12"/>
    <path d="M34.7,51.67c.07,0,.12-.05.12-.12s-.05-.13-.12-.13-.12.06-.12.13.05.12.12.12"/>
    <path d="M34.99,51.37c.07,0,.12-.06.12-.12s-.05-.12-.12-.12-.12.06-.12.12.05.12.12.12"/>
    <path d="M35.8,51.21c-.06,0-.12-.06-.12-.12s.05-.12.12-.12.12.06.12.12c0,.07-.05.12-.12.12"/>
    <path d="M35.36,52.99c.07,0,.12.05.12.12s-.06.12-.12.12-.12-.06-.12-.12.05-.12.12-.12"/>
    <path d="M34.59,52.17c.07,0,.12.06.12.12s-.05.12-.12.12-.12-.06-.12-.12.05-.12.12-.12"/>
    <path d="M34.7,52.54c.07,0,.12.05.12.12s-.05.12-.12.12-.12-.06-.12-.12.05-.12.12-.12"/>
    <path d="M34.99,52.83c.07,0,.12.06.12.12s-.05.12-.12.12-.12-.06-.12-.12.05-.12.12-.12"/>
    <path d="M35.8,52.99c-.06,0-.12.05-.12.12s.05.12.12.12.12-.06.12-.12-.05-.12-.12-.12"/>
    <path d="M36.46,52.54c-.07,0-.12.05-.12.12s.05.12.12.12.12-.06.12-.12-.05-.12-.12-.12"/>
    <path d="M36.18,52.83c-.07,0-.12.06-.12.12s.05.12.12.12.12-.06.12-.12-.05-.12-.12-.12"/>
    <path d="M39.41,46.09c.07,0,.12-.05.12-.12s-.05-.12-.12-.12-.12.06-.12.12.05.12.12.12"/>
    <path d="M38.64,46.91c.06,0,.12-.06.12-.12s-.05-.12-.12-.12-.12.05-.12.12.05.12.12.12"/>
    <path d="M38.76,46.54c.07,0,.12-.06.12-.12s-.05-.12-.12-.12-.12.06-.12.12.05.12.12.12"/>
    <path d="M39.04,46.25c.07,0,.12-.06.12-.13s-.05-.12-.12-.12-.12.06-.12.12c0,.07.05.13.12.13"/>
    <path d="M39.85,46.09c-.07,0-.12-.05-.12-.12s.05-.12.12-.12.12.06.12.12-.05.12-.12.12"/>
    <path d="M40.62,46.91c-.06,0-.12-.06-.12-.12s.05-.12.12-.12.12.05.12.12-.05.12-.12.12"/>
    <path d="M40.5,46.54c-.06,0-.12-.06-.12-.12s.06-.12.12-.12.12.06.12.12-.05.12-.12.12"/>
    <path d="M40.22,46.25c-.07,0-.12-.06-.12-.13s.05-.12.12-.12.12.06.12.12c0,.07-.05.13-.12.13"/>
    <path d="M39.41,47.86c.07,0,.12.05.12.12s-.05.12-.12.12-.12-.06-.12-.12.05-.12.12-.12"/>
    <path d="M38.64,47.04c.06,0,.12.05.12.12s-.05.12-.12.12-.12-.06-.12-.12.05-.12.12-.12"/>
    <path d="M38.76,47.41c.07,0,.12.05.12.12s-.05.12-.12.12-.12-.06-.12-.12c0-.07.05-.12.12-.12"/>
    <path d="M39.04,47.7c.07,0,.12.06.12.12s-.05.12-.12.12-.12-.06-.12-.12.05-.12.12-.12"/>
    <path d="M39.85,47.86c-.07,0-.12.05-.12.12s.05.12.12.12.12-.06.12-.12-.05-.12-.12-.12"/>
    <path d="M40.62,47.04c-.06,0-.12.05-.12.12s.05.12.12.12.12-.06.12-.12-.05-.12-.12-.12"/>
    <path d="M40.5,47.41c-.06,0-.12.05-.12.12s.06.12.12.12.12-.06.12-.12c0-.07-.05-.12-.12-.12"/>
    <path d="M40.22,47.7c-.07,0-.12.06-.12.12s.05.12.12.12.12-.06.12-.12-.05-.12-.12-.12"/>
    <path d="M37.74,47.2c.06,0,.1-.05.1-.11s-.05-.11-.1-.11-.1.05-.1.11.05.11.1.11"/>
    <path d="M37.06,47.91c.06,0,.1-.05.1-.11s-.05-.11-.1-.11c-.06,0-.11.05-.11.11s.05.11.11.11"/>
    <path d="M37.16,47.59c.06,0,.1-.05.1-.11s-.05-.11-.1-.11-.11.05-.11.11.05.11.11.11"/>
    <path d="M37.41,47.33c.06,0,.1-.05.1-.1s-.05-.11-.1-.11-.1.05-.1.11.05.1.1.1"/>
    <path d="M38.12,47.2c-.06,0-.1-.05-.1-.11s.05-.11.1-.11.1.05.1.11-.05.11-.1.11"/>
    <path d="M37.74,48.74c.06,0,.1.05.1.11s-.05.1-.1.1-.1-.05-.1-.1c0-.06.05-.11.1-.11"/>
    <path d="M37.06,48.03c.06,0,.1.05.1.11s-.05.11-.1.11c-.06,0-.11-.05-.11-.11s.05-.11.11-.11"/>
    <path d="M37.16,48.35c.06,0,.1.05.1.1s-.05.11-.1.11-.11-.05-.11-.11.05-.1.11-.1"/>
    <path d="M37.41,48.6c.06,0,.1.05.1.11s-.05.1-.1.1-.1-.05-.1-.1.05-.11.1-.11"/>
    <path d="M38.12,48.74c-.06,0-.1.05-.1.11s.05.1.1.1.1-.05.1-.1c0-.06-.05-.11-.1-.11"/>
    <path d="M38.79,48.03c-.06,0-.1.05-.1.11s.05.11.1.11.1-.05.1-.11-.05-.11-.1-.11"/>
    <path d="M38.69,48.35c-.06,0-.1.05-.1.1s.04.11.1.11.1-.05.1-.11-.05-.1-.1-.1"/>
    <path d="M38.44,48.6c-.06,0-.1.05-.1.11s.05.1.1.1.1-.05.1-.1-.05-.11-.1-.11"/>
    <path d="M35.21,47.56s.1-.04.1-.09-.04-.1-.1-.1-.09.05-.09.1.04.09.09.09"/>
    <path d="M34.6,48.2s.09-.04.09-.09-.04-.09-.09-.09-.09.04-.09.09.04.09.09.09"/>
    <path d="M34.7,47.91s.09-.05.09-.1c0-.06-.04-.1-.09-.1s-.09.04-.09.1c0,.05.04.1.09.1"/>
    <path d="M34.92,47.68s.09-.04.09-.09-.04-.09-.09-.09-.09.04-.09.09.04.09.09.09"/>
    <path d="M35.55,47.56s-.09-.04-.09-.09.04-.1.09-.1.09.05.09.1-.04.09-.09.09"/>
    <path d="M36.16,48.2s-.09-.04-.09-.09.04-.09.09-.09.09.04.09.09-.04.09-.09.09"/>
    <path d="M36.07,47.91s-.09-.05-.09-.1c0-.06.04-.1.09-.1s.09.04.09.1c0,.05-.04.1-.09.1"/>
    <path d="M35.85,47.68s-.09-.04-.09-.09.04-.09.09-.09.09.04.09.09-.04.09-.09.09"/>
    <path d="M35.21,48.94s.1.04.1.1c0,.05-.04.09-.1.09s-.09-.04-.09-.09.04-.1.09-.1"/>
    <path d="M34.6,48.31s.09.04.09.09-.04.1-.09.1-.09-.05-.09-.1.04-.09.09-.09"/>
    <path d="M34.7,48.59s.09.04.09.09c0,.06-.04.1-.09.1s-.09-.04-.09-.1c0-.05.04-.09.09-.09"/>
    <path d="M34.92,48.82s.09.04.09.09c0,.06-.04.09-.09.09s-.09-.04-.09-.09.04-.09.09-.09"/>
    <path d="M35.55,48.94s-.09.04-.09.1c0,.05.04.09.09.09s.09-.04.09-.09-.04-.1-.09-.1"/>
    <path d="M36.16,48.31s-.09.04-.09.09.04.1.09.1.09-.05.09-.1-.04-.09-.09-.09"/>
    <path d="M36.07,48.59s-.09.04-.09.09c0,.06.04.1.09.1s.09-.04.09-.1c0-.05-.04-.09-.09-.09"/>
    <path d="M35.85,48.82s-.09.04-.09.09c0,.06.04.09.09.09s.09-.04.09-.09-.04-.09-.09-.09"/>
    <path d="M39.24,52.05c.34,0,.61-.28.61-.63s-.27-.63-.61-.63-.61.28-.61.63.27.63.61.63"/>
    <path d="M39.05,50.62c.06,0,.11-.05.11-.11s-.05-.12-.11-.12-.11.05-.11.12c0,.06.05.11.11.11"/>
    <path d="M38.34,51.37c.06,0,.11-.05.11-.11s-.05-.11-.11-.11-.11.05-.11.11.05.11.11.11"/>
    <path d="M38.45,51.04c.06,0,.11-.05.11-.11s-.05-.11-.11-.11-.11.05-.11.11.05.11.11.11"/>
    <path d="M38.71,50.76c.06,0,.11-.05.11-.11s-.05-.11-.11-.11-.11.05-.11.11.05.11.11.11"/>
    <path d="M39.46,50.62c-.06,0-.11-.05-.11-.11s.05-.12.11-.12.11.05.11.12c0,.06-.05.11-.11.11"/>
    <path d="M40.18,51.37c-.06,0-.11-.05-.11-.11s.05-.11.11-.11.11.05.11.11-.05.11-.11.11"/>
    <path d="M40.07,51.04c-.06,0-.11-.05-.11-.11s.05-.11.11-.11.11.05.11.11-.05.11-.11.11"/>
    <path d="M39.8,50.76c-.06,0-.11-.05-.11-.11s.05-.11.11-.11.11.05.11.11-.05.11-.11.11"/>
    <path d="M39.05,52.25c.06,0,.11.05.11.11s-.05.11-.11.11-.11-.05-.11-.11.05-.11.11-.11"/>
    <path d="M38.34,51.5c.06,0,.11.05.11.11s-.05.11-.11.11-.11-.05-.11-.11.05-.11.11-.11"/>
    <path d="M38.45,51.84c.06,0,.11.05.11.11s-.05.11-.11.11-.11-.05-.11-.11.05-.11.11-.11"/>
    <path d="M38.71,52.11c.06,0,.11.05.11.11s-.05.11-.11.11-.11-.05-.11-.11.05-.11.11-.11"/>
    <path d="M39.46,52.25c-.06,0-.11.05-.11.11s.05.11.11.11.11-.05.11-.11-.05-.11-.11-.11"/>
    <path d="M40.18,51.5c-.06,0-.11.05-.11.11s.05.11.11.11.11-.05.11-.11-.05-.11-.11-.11"/>
    <path d="M40.07,51.84c-.06,0-.11.05-.11.11s.05.11.11.11.11-.05.11-.11-.05-.11-.11-.11"/>
    <path d="M39.8,52.11c-.06,0-.11.05-.11.11s.05.11.11.11.11-.05.11-.11-.05-.11-.11-.11"/>
    <path d="M36.21,52.37c-.3-.34-.26-.85-.26-.85-.11-.08-.23-.11-.37-.11-.38,0-.68.31-.68.7s.31.7.68.7c.29,0,.54-.18.64-.45"/>
    <path d="M40.48,4.79l1.36-2.41-2.88.44-1.35-2.82-1.35,2.82-2.88-.44,1.36,2.41-2.04,2.05,2.59.31v2.81l2.32-1.74,2.32,1.74v-2.81l2.59-.31-2.04-2.05ZM41.38,10.39h-7.64c-.36,0-.67.32-.67.7s.29.67.66.67h7.66c.37,0,.66-.29.66-.67s-.31-.7-.67-.7M38.8,10.58l.85.98h-1.4l-.83-.98h1.38M35.71,10.58l.8.98h-1.31l-.81-.98h1.32M41.86,11.09c0,.27-.21.48-.47.48h-.08l-.85-.98h.92c.26,0,.48.23.48.51M37.6,5.39l-3.63-2.58h0l2.46.37h0l1.17,2.21M37.6,5.39l-2,3.93v-2.43l2-1.5M37.6,5.39l2,1.5v2.43h0l-2-3.93M37.6,5.39l-4.27,1.27,1.78-1.8,2.49.53M37.6,5.39l1.31-2.23s1.91-.29,2.33-.35h0l-3.63,2.58M37.6,5.39l2.49-.53,1.76,1.78-4.25-1.25M37.6,5.39V.73l1.11,2.32-1.11,2.34M37.6,7.82v-2.43l-.15,2.54.15-.11Z"/>
    <path d="M72.73,36.72c-.4,1.31-1.74,1.24-1.74,1.24h-6.74c.12-.2.3-.38.17-.82-.17-.58-.14-1.41-.14-3.43s.23-4.26.27-4.67c.03-.41-.5-1.1-.73-1.44-.23-.34-.43-.86-.47-1.2-.03-.34.8-.41,1.47-.48s1.33-.38,1.33-.38v-.41l.27.34c.57.38,2.7.82,2.7.82l-.03-.45c.46.62,1.3.65,1.3.65-.07-.17-.03-.48-.03-.48.2.31.9.65.9.65.1-.41.14-.93.14-.93.2-6.05-6.97-10.48-10.37-10.48s-4.14,1.61-6.74,1.65c-2.6.03-2-3.47-1.4-5.6s.71-3.85.48-4.55c-.32-1-1.62-1.08-2.19-1.08s-.8.89-1.2,1.03-1.73.86-1.53.89c.73.14,1.94.34,1.94.34,0,0,.93.34.73,1.51-.38,2.2-2.03,3.15-2.42,5.98-.08-.68-.16-1.27-.16-1.27h-15.51c.05-.13.08-.28.08-.42,0-.62-.33-.93-.7-.93s-.67.21-1.03.31c-.37.1-.67,0-1.23.17-.5.15-1.1.73-1.24.86h-1.63l-.1.71c-.33.41-1.2.69-1.2.69,0-.96-.47-3.78-.33-4.05.14-.27,1.7-.21,2.1-.21s1,.51,1.5-.41c.42-.78-1.33-1.92-1.33-1.92-.2-.76-1.74-1.44-1.74-1.44.93-.96.07-2.54.07-2.54-.87.34-1.53,1.58-1.53,1.58-.33-.89-1.6-1.65-1.6-1.65-.6,1.92.4,3.37.4,3.37-.47.62-.6,1.72-.73,2.82s-.4,1.03-1.73,2.27-1.2,2.75-5.07,4.81c-4.88,2.6-4.67,5.49-4.67,9.69s-.34,6.59-1.4,7.69c-1.07,1.1-4.01,1.34-6.4,1.58-2.4.24-3.04.41-3.3.72-.57.7.17.65.17.65h69.64c3.13,0,2.74-1.79,2.74-1.79M16.67,37.96h-4.64c.88-.53,1.65-1.8,2.2-3.64.73-2.47,2-2.68,2.4-2.68s.47,1.85.47,2.81-.47,2.13-.47,2.68c0,.33.02.63.04.82M25.5,18.38l1.36-.85c-.21,1.89-.46,4.31-.58,6.37-.49-1.38-1.98-3.25-1.98-3.25.53-.82,1.2-2.27,1.2-2.27M27.01,37.96c-.51-.54-1.33-.89-2.24-.89-1.07,0-2.8.27-4.27.27s-1.2-1.17-1.2-2.06.33-3.23.47-4.33c.13-1.1.47-4.05.47-5.01s3-3.78,3-3.78l1.73,1.79c.4.41.07.76.07.76-.53-.27-.4.41-.4.41-.93.14.33.96.67.96.22,0,.65-.06.91-.48v.83c.07,5.12,2.78,10.27,8.62,11.54h-7.82M56.09,36.21c-.17.24-.54.83-.54.83,0,0-.33-.1-1.33-.1-1.22,0-2.02.7-2.32,1.03h-10.92c5.84-1.27,8.56-6.42,8.63-11.54.02-1.7-.18-4.32-.42-6.69,1.55,3.68,5.87,5.95,6.57,6.27.83.38,1.7-.07,1.7-.07-.03.58.77,1.37,1,1.85.23.48.23,1,.23,1.44s.13.89-.27,1.89-1.56,3.88-1.8,4.33c-.23.44-.37.51-.53.75M62.32,36.96c-.27.24-.5-.14-1.73-.14-1.58,0-2.31.78-2.56,1.13h-.6c.44-1.9.65-2.7,1.39-4.63.77-1.99,1.63-3.37,1.8-3.64s0-1.17-.07-1.68,0-1.06,0-1.06c1.4.86,1.77,1.85,1.77,1.85.07.89.67,2.78.67,4.6s-.4,3.33-.67,3.57M47.82,14.54c.14,1.1,1.02,8.06,1.02,11.62v.26c-.07,5.66-3.49,11.37-10.94,11.47-7.45-.1-10.86-5.81-10.94-11.47-.05-3.47.87-10.75,1.02-11.88h19.83M46.43,16.32v-.12h-17.26l-.02.12c0,.06-.72,6.26-.72,10.43,0,5.44,3.94,9.39,9.36,9.39s9.36-3.95,9.36-9.39c0-4.18-.72-10.37-.72-10.43M40.62,16.47h5.57c.09.8.64,5.77.7,9.56h-6.27v-9.56M34.76,20.18h-1.78v-3.71h1.78v3.71ZM29.4,16.47h1.53v3.71h-1.89c.16-1.84.32-3.3.36-3.71M28.86,22.53h2.07v3.5h-2.23c.02-1.11.08-2.32.16-3.5M34.76,35.41c-3.64-1.17-6.07-4.46-6.07-8.66v-.44h6.06v9.1M32.98,22.53h1.78v3.5h-1.78v-3.5ZM40.35,35.55c-.8.21-1.66.33-2.56.33-.98,0-1.91-.13-2.77-.38v-9.18h5.32v9.24M40.35,26.03h-5.32v-9.56h5.32v9.56ZM40.62,35.48v-9.17h6.27v.44c0,4.28-2.52,7.62-6.27,8.73M41.74,17.14l1.87.83,1.91-.83-.88,2.77,1.52-.41-.46,1.57.46,1.63-1.52-.48.88,2.95-1.91-.68-1.87.68.88-2.95-1.52.48.48-1.63-.48-1.57,1.52.41-.88-2.77M29.7,26.77c.16-.17.52.35.74.54s.66.37.66.76-.32.41-.32.41l.36.25s.08.56.34.56.26-.19.26-.29-.1-.41-.46-.54c0,0,.32-.08.4-.12s.12-.1.28-.1.42.12.42.56.16.54.32.54.26-.27.26-1.03.38-.79.64-.93c.26-.15.62-.7.8-.52.18.19-.84.87-.66,1.05.18.19.44-.48.66-.21.22.27-.8.58-.58.83.22.25.46-.41.64-.19.18.23-.58.45-.38.7s.46-.21.46-.21c0,0,.06.31.06.54s-.24,1.63-1.62,1.63c0,0,.02-1.01-.24-1.2,0,0,.08.45.08.72s-.14.58-.14.68c0,.19.48.17.48.37,0,.64-.69-.24-.78-.23-.12.01-.1.07-.09.2,0,.3.19-.01.39.63.1.32.9,1.21.68,1.31s-.32-.31-.45-.24.09.29-.08.34c-.17.05-.21-.41-.38-.4-.17.01-.02.38-.27.38s-.09-.39-.25-.44-.18.25-.35.15c-.16-.1.1-.27-.04-.36-.09-.06-.14.17-.29.04-.19-.17.21-.41.34-.78.23-.65.34-.29.34-.64,0-.14,0-.16-.14-.16-.11,0-.77.73-.77.24,0-.35.48-.17.48-.41,0-.29-.15-.44-.15-.68s.05-.69.05-.69c0,0-.25.31-.22,1.17,0,0-1.62.08-1.62-1.57,0-.43.04-.51.04-.51,0,0,.41.35.54.17.12-.17-.64-.6-.46-.81.21-.24.42.48.62.25.24-.27-.78-.65-.56-.93.16-.21.44.52.64.29.2-.23-.9-.87-.68-1.1M35.64,27.22s.18.45.56.76c.38.31,1.44.74,1.81,1.2.36.45.48,1.71.58,2.27.1.56.22,1.03.5,1.03s.36-.54-.24-1.88c-.6-1.34-.22-2.15.18-2.15s.72.6.66,1.42c0,0-.42-.54-.6-.27-.13.2.2,1.08.42,1.61.22.54.7,2.23.12,2.23h-3.15l-.86-1.24s.8.54.88.37c.08-.16-.26-.16.06-.62.27-.38-.1-.54.3-.95.31-.32-.06-.5.3-.87.29-.3.64-.6.08-.97-.56-.37-1.89-1.16-1.6-1.96M35.62,28.28s.46.5.9.85c.44.35.82.54.58.81-.24.27-.74-.41-.92-.56-.18-.15-.58-.66-.56-1.1M35.68,29.38s.39.4.6.62c.22.23.65.5.44.81-.18.27-.56-.33-.66-.46-.1-.12-.4-.54-.38-.97M35.84,30.7s.26.33.38.45c.12.12.34.33.22.58s-.28-.08-.4-.21c-.12-.12-.22-.58-.2-.83M36.66,33.86h2.77l-.14.29h-2.43l-.2-.29M37.04,34.52h2.07l-.08.21h-1.87l-.12-.21M38.07,24.28l.29.3-.29.3v.42h-.41l-.29.3-.29-.3h-.41v-.42l-.29-.3.29-.3v-.42h.41l.29-.3.29.3h.41v.42M36.18,22.84v-.3l-.2-.21.2-.21v-.3h.29l.2-.21.2.21h.29v.3l.2.21-.2.21v.3h-.29l-.2.21-.2-.21h-.29M38.68,22.48v-.21l-.15-.15.15-.15v-.22h.21l.15-.15.15.15h.21v.22l.14.15-.14.15v.21h-.21l-.15.15-.15-.15h-.21M38.61,20.6l-.17.18v.25h-.25l-.17.18-.17-.18h-.25v-.25l-.17-.18.17-.18v-.25h.25l.17-.18.17.18h.25v.25l.17.18M39.39,23.65l.09.09-.09.09v.13h-.12l-.09.09-.09-.09h-.13v-.13l-.09-.09.09-.09v-.13h.13l.09-.09.09.09h.12v.13M37.33,17.37c0-.22.23-.53.24-.55h.06s.24.32.24.55c0,.15-.09.17-.15.18-.05.01-.06.02-.06.05s-.02.05-.05.05h-.05s-.05-.02-.05-.05,0-.04-.06-.05-.15-.03-.15-.18M37.54,17.7h.13v.28h-.14v-.28h0M38.66,18.47c-.1.12-.19.24-.2.42h.04s.02,0,.02.02v.45s0,.02-.02.02h-1.78s-.02-.01-.02-.02v-.45s0-.02.02-.02h.04c0-.18-.1-.3-.2-.42-.1-.12-.21-.24-.21-.43,0-.36.19-.56.53-.56s.52.36.52.38c0,0,0,.02,0,.03h-.03c-.12-.17-.26-.18-.43-.18-.14,0-.33.17-.33.35,0,.25.08.36.16.48.07.1.14.2.14.37h.19v-.09h0s-.1-.02-.1-.13c0-.13.13-.31.14-.33h0s.02-.01.03-.01.02,0,.03.01h0s.14.2.14.33c0,.1-.07.12-.1.13h0v.09h.3v-.1h0s-.1-.02-.1-.12c0-.11.1-.26.13-.31v-.02h0s.02-.01.03-.01.02,0,.03.01h0s0,.01,0,.02c.04.05.13.2.13.31,0,.1-.07.12-.1.12h0v.1h.3v-.09h0s-.1-.02-.1-.13c0-.13.13-.31.15-.33h0s.02-.01.03-.01.02,0,.03.01h0s.14.2.14.33c0,.1-.07.12-.1.13h0v.09h.19c0-.17.07-.27.14-.37.08-.11.17-.23.17-.48,0-.18-.19-.35-.33-.35-.17,0-.31.01-.43.18,0,.01-.02.01-.03,0,0,0,0-.02,0-.03,0-.02.17-.38.52-.38.33,0,.53.2.53.56,0,.19-.1.31-.21.43M32.38,18.07h-.28l-.2.2-.2-.2h-.28v-.29l-.2-.2.2-.21v-.29h.28l.2-.21.2.21h.28v.29l.2.21-.2.2v.29M34.63,21.85h-.28l-.2.2-.2-.2h-.28v-.29l-.2-.2.2-.21v-.29h.28l.2-.21.2.21h.28v.29l.2.2-.2.2v.29M30.13,21.89h-.28l-.2.21-.2-.21h-.28v-.29l-.2-.21.2-.21v-.29h.28l.2-.2.2.2h.28v.29l.2.21-.2.21v.29M32.39,25.6h-.28l-.2.21-.2-.21h-.28v-.29l-.2-.21.2-.21v-.29h.28l.2-.2.2.2h.28v.29l.2.21-.2.21v.29M43.48,20.06c0,.19.09.31.09.31,0,0-.23-.08-.48-.08s-.67.17-.67.57c0,.54.4.61.4.61v.58h1.73v-.58s.4-.07.4-.61c0-.4-.42-.57-.67-.57s-.48.08-.48.08c0,0,.09-.12.09-.31s-.2-.28-.2-.28c0,0-.2.09-.2.28M43.57,21.39h-.24c-.12-.26-.31-.26-.31-.26-.05.16,0,.26,0,.26h-.12s-.16-.19-.16-.42.17-.4.39-.41c.17,0,.44.08.44.08v.75M43.81,20.63s.27-.09.44-.08c.22.01.39.18.39.41s-.16.42-.16.42h-.12s.05-.1,0-.26c0,0-.19,0-.31.26h-.24v-.75M31.03,20.65s.19-.09.4-.09.4.08.4.08c0,0,.04.74-.39.74-.29,0-.32-.09-.32-.09,0,0-.82-.34-.62-.59.18-.23.24.26.6.39,0,0-.1-.28-.07-.44M32.73,20.62s-.16-.01-.23-.01-.16.04-.16.15.19.11.44.11.33.06.34.33c0,.27.25.22.25.5s-.32.47-.36.52c-.04.05-.1.06-.1.06h-.09c-.1,0,.02-.09.07-.14s.14-.17.15-.26c0-.09-.1-.17-.2-.17s-.13.02-.12.1c0,.08-.25.18-.31.24-.06.05-.19.07-.19.07h-.15c-.11,0-.07-.05,0-.1.06-.05.26-.11.26-.24s-.31-.08-.43-.08-.14.07-.23.09-.12,0-.27,0-.43.34-.47.41c-.04.07-.12.07-.12.07h-.22c-.13,0,.05-.09.16-.16.11-.06.27-.34.39-.49.12-.15.23-.11.4-.1.17,0,.26-.19.37-.34.11-.15.86.12.85-.11,0-.08-.13-.04-.28-.06-.19-.03-.39-.03-.39-.26s.32-.23.43-.23.23.01.23.01c.26-.08.29.09.29.09-.18.18-.3-.01-.3-.01M34.6,15.85v.17h-.2v-.17h-.3l.4-.93.38.93h-.28M41.24,15.85v.17h-.2v-.17h-.3l.4-.93.38.93h-.28M47.1,15.85v.17h-.2v-.17h-.3l.4-.93.38.93h-.28M28.08,21.74v.17h-.21v-.18l-.29-.02.46-.9.32.95-.28-.02M28,28.52l.02.17-.2.02-.02-.16-.3.03.3-.97.48.88-.28.03M30.52,33.9l.11.12-.15.14-.11-.12-.23.21-.3-.97.88.43-.21.19M36.07,36.96l-.16-.04-.08.3-.77-.64.97-.14-.07.28.16.04-.05.2M48.03,22.1v.16h-.19s0-.16,0-.16l-.29.02.32-.95.46.9-.3.02M48.01,28.9l-.02.16-.2-.02.02-.17-.28-.03.48-.88.3.97-.3-.03M45.47,34.5l-.22-.2-.11.12-.15-.14.11-.12-.21-.19.89-.44-.3.97M40.01,37.28l-.07-.3-.16.04-.05-.2.16-.05-.07-.28.97.14-.77.64M28.6,15.85v.17h-.2v-.17h-.3l.4-.93.38.93h-.28M46.59,27l-.04.25s-.14.06-.14.25c0,0-.26-.27-.34-.39s-.24-.27-.38-.27-.5.06-.5.72.5,1.03.5,1.43-.54.93-.36,1.16.46.12.46.12c0,0-.12.37-.12.56s-.3.64-.6.76c0,0-.04-.19.16-.35.2-.17.24-.37.22-.5,0,0-.4.08-.56.04,0,0,.04.23-.14.31-.18.08-.3.06-.42.15-.12.08-.42.39-.42.39l-.22-.02s.82-.62.6-.78c-.22-.17-.82-.06-1.22.62s-.06.56-.28.81c-.22.25-.24.04-.4.33s-.36.95-.72,1.09c-.36.15-.46.04-.46.04,0,0-.22-.06-.24.16-.02.23-.26-.16-.04-.35.22-.19.56-.04.74-.48.18-.43.5-1.55.36-1.69,0,0-.54-.52-.54-.74s.16-.74-.02-.83c-.18-.08-.38-.04-.32-.31s.42-1.84.08-1.88c-.34-.04-.08-.12-.06-.25.02-.12-.14-.12-.14-.25s.12-.02.12-.14-.1-.06-.08-.19c.02-.13.89.02.89.5,0,0-.16.19-.16.31s-.18,1.49.28,1.61c0,0,.3-.08.62-.48,0,0-.34-.21-.4-.31,0,0,.12-.12.28-.12s.34.06.34-.1c0-.37-.52-.06-.58-.17-.05-.08.22-.44.68-.57,0-.01-.02-.02-.02-.04,0-.05.08-.09.17-.09s.16.03.17.08h0c.64,0,1.14.64,1.14,1.1s-.34,1.1.18,1.24.76-.58.76-.81-.42-.93-.42-1.36.32-.87.7-.87.52.04.52.04c0,0,.18-.17.38.27M43.17,27.56s.08-.09.17-.09.17.04.17.09-.08.09-.17.09-.17-.04-.17-.09"/>
  </g>
  <g>
    <path d="M86.78,31.59v6.32h-2.35v-15.56h2.66c1.3,0,2.29.09,2.95.27.67.18,1.26.52,1.77,1.03.89.87,1.34,1.98,1.34,3.31,0,1.42-.48,2.55-1.43,3.39-.95.83-2.24,1.25-3.86,1.25h-1.09.01ZM86.78,29.41h.88c2.16,0,3.23-.83,3.23-2.49s-1.11-2.41-3.34-2.41h-.78v4.9h0Z"/>
    <path d="M104.94,34.13h-6.66l-1.73,3.78h-2.53l7.7-16.54,7.43,16.54h-2.57l-1.63-3.78h0ZM103.99,31.92l-2.31-5.29-2.42,5.29s4.73,0,4.73,0Z"/>
    <path d="M116.59,31.28l4.82,6.63h-2.87l-4.44-6.37h-.42v6.37h-2.35v-15.56h2.75c2.06,0,3.54.39,4.45,1.16,1.01.86,1.51,2,1.51,3.41,0,1.1-.32,2.05-.95,2.84-.63.79-1.46,1.3-2.5,1.52ZM113.66,29.49h.75c2.22,0,3.34-.85,3.34-2.55,0-1.59-1.08-2.39-3.24-2.39h-.84v4.94h-.01Z"/>
    <path d="M126.32,22.35v13.35h4.57v2.21h-6.92v-15.56h2.35Z"/>
    <path d="M135.69,22.35v15.56h-2.35v-15.56h2.35Z"/>
    <path d="M148.8,34.13h-6.66l-1.73,3.78h-2.53l7.7-16.54,7.43,16.54h-2.57l-1.63-3.78h0ZM147.84,31.92l-2.31-5.29-2.42,5.29h4.73Z"/>
    <path d="M154.63,37.91l3.27-16.73,5.34,12.09,5.53-12.09,2.94,16.73h-2.41l-1.5-9.39-4.6,10.11-4.47-10.12-1.67,9.4s-2.43,0-2.43,0Z"/>
    <path d="M183.82,24.55h-6.24v3.74h6.06v2.21h-6.06v5.2h6.24v2.21h-8.58v-15.56h8.58v2.21h0Z"/>
    <path d="M187.13,37.91v-16.62l11.35,11.87v-10.81h2.35v16.51l-11.35-11.84v10.89s-2.35,0-2.35,0Z"/>
    <path d="M209.08,24.55v13.35h-2.35v-13.35h-3.58v-2.21h9.49v2.21h-3.57.01Z"/>
    <path d="M220.67,32.93c0-1.42.51-2.62,1.52-3.62,1.01-.99,2.25-1.49,3.71-1.49s2.71.5,3.73,1.5c1.01,1,1.51,2.23,1.51,3.69s-.51,2.7-1.52,3.7c-1.02.99-2.27,1.48-3.76,1.48s-2.7-.5-3.7-1.51c-.99-.99-1.49-2.24-1.49-3.75ZM222.98,32.97c0,.98.26,1.76.79,2.33.54.58,1.25.87,2.13.87s1.59-.29,2.13-.86c.53-.57.8-1.33.8-2.29s-.27-1.72-.8-2.29c-.54-.58-1.25-.87-2.13-.87s-1.57.29-2.11.87-.81,1.32-.81,2.24Z"/>
    <path d="M236.11,30.21v7.7h-2.28v-7.7h-.81v-2.12h.81v-3.79c0-1.24.22-2.11.65-2.62.59-.71,1.45-1.07,2.58-1.07.4,0,.91.12,1.52.35v2.32l-.23-.12c-.49-.25-.89-.37-1.21-.37-.4,0-.67.14-.82.43-.14.28-.21.83-.21,1.63v3.23h2.47v2.12h-2.47,0Z"/>
    <path d="M256.28,34.13h-6.66l-1.73,3.78h-2.53l7.7-16.54,7.43,16.54h-2.57l-1.63-3.78h0ZM255.32,31.92l-2.31-5.29-2.42,5.29h4.73Z"/>
    <path d="M265,22.35v9.37c0,1.34.22,2.31.66,2.93.65.89,1.57,1.34,2.75,1.34s2.11-.45,2.76-1.34c.44-.6.66-1.58.66-2.93v-9.37h2.35v10.02c0,1.64-.51,2.99-1.53,4.05-1.15,1.18-2.56,1.77-4.23,1.77s-3.08-.59-4.22-1.77c-1.02-1.06-1.53-2.41-1.53-4.05v-10.02h2.35-.02Z"/>
    <path d="M286.92,24.66l-1.9,1.13c-.36-.62-.7-1.02-1.02-1.21-.34-.21-.77-.32-1.3-.32-.65,0-1.19.18-1.62.55-.43.36-.64.82-.64,1.37,0,.76.56,1.37,1.69,1.83l1.55.64c1.26.51,2.19,1.13,2.77,1.87.58.74.88,1.64.88,2.71,0,1.43-.48,2.61-1.43,3.55-.96.94-2.15,1.41-3.58,1.41-1.35,0-2.46-.4-3.34-1.2-.87-.8-1.41-1.92-1.62-3.38l2.38-.52c.11.91.29,1.54.56,1.89.48.67,1.19,1.01,2.12,1.01.73,0,1.34-.25,1.82-.74s.73-1.11.73-1.86c0-.3-.04-.58-.13-.83s-.21-.48-.39-.7c-.18-.21-.41-.41-.69-.59-.28-.18-.62-.36-1.01-.53l-1.5-.62c-2.13-.9-3.19-2.22-3.19-3.95,0-1.17.45-2.15,1.34-2.93.89-.79,2-1.19,3.33-1.19,1.79,0,3.19.87,4.2,2.62h-.01Z"/>
    <path d="M294.68,24.55v13.35h-2.35v-13.35h-3.58v-2.21h9.49v2.21h-3.57.01Z"/>
    <path d="M305.84,31.28l4.82,6.63h-2.87l-4.44-6.37h-.42v6.37h-2.35v-15.56h2.75c2.06,0,3.54.39,4.45,1.16,1.01.86,1.51,2,1.51,3.41,0,1.1-.32,2.05-.95,2.84-.63.79-1.46,1.3-2.5,1.52ZM302.92,29.49h.75c2.22,0,3.33-.85,3.33-2.55,0-1.59-1.08-2.39-3.25-2.39h-.84v4.94h.01Z"/>
    <path d="M322.36,34.13h-6.66l-1.73,3.78h-2.53l7.7-16.54,7.43,16.54h-2.57l-1.63-3.78h0ZM321.4,31.92l-2.31-5.29-2.42,5.29h4.73Z"/>
    <path d="M331.08,22.35v13.35h4.58v2.21h-6.92v-15.56h2.35,0Z"/>
    <path d="M340.46,22.35v15.56h-2.35v-15.56h2.35Z"/>
    <path d="M353.56,34.13h-6.66l-1.73,3.78h-2.53l7.7-16.54,7.43,16.54h-2.57l-1.63-3.78h0ZM352.6,31.92l-2.31-5.29-2.42,5.29h4.73Z"/>
  </g>
</svg>