<?xml version="1.0" encoding="UTF-8"?>
<svg id="Layer_1" xmlns="http://www.w3.org/2000/svg" version="1.1" viewBox="0 0 5674 2271">
  <!-- Generator: Adobe Illustrator 29.8.2, SVG Export Plug-In . SVG Version: 2.1.1 Build 3)  -->
  <defs>
    <style>
      .st0 {
        fill: #fff;
      }
    </style>
  </defs>
  <path class="st0" d="M1171,0c.46,0,.91.09,1.34.25,9.69,3.63,22.62,1.35,33.35,1.75,244.68,9.05,502.25,121.73,683.85,282.85,511.23,453.57,511.2,1247.76,0,1701.31-181.9,161.39-438.83,273.37-683.85,282.85-10.73.42-23.66-1.89-33.34,1.75-.43.16-.88.25-1.34.25h-66.58c-.46,0-.92-.09-1.35-.26-9.7-3.67-22.6-1.26-33.34-1.74-395.72-17.63-763.11-265.31-942.79-613.69-35.84-69.48-77.19-167.23-90.93-243.94-.68-3.8-.39-7.88-3.01-11-.67-.79-1.05-1.78-.99-2.81.05-.74.11-1.49,0-2.18-.51-3.36-1.94-5.69-2-6-.11-.65.11-1.35,0-2-.55-3.1-1.94-5.69-2-6-.22-1.24.24-2.78,0-4-.57-2.88-1.93-5.64-2-6-.24-1.23.22-2.76,0-4-.87-4.82-.84-11.05-3.5-15.27-.38-.6-.55-1.31-.53-2.02.02-.9.09-1.81.03-2.7-.34-5.36-.75-12.34-3.49-17.16-.31-.55-.51-1.16-.51-1.8,0-1.01-.02-2.02,0-3.03.06-2.21.67-5.47-.93-7.22-.64-.7-1.06-1.56-1.04-2.5.01-.76.02-1.52-.03-2.27-.68-12.17-2.7-25.72-5.87-37.53-.08-.31-.12-.62-.13-.94,0-1.17-.06-2.36,0-3.52.21-3.84,1.1-10.24-1.27-13.26-.51-.64-.73-1.47-.74-2.29s-.02-1.64,0-2.45c.2-4.91,1.12-11.04-1.47-15.22-.36-.58-.52-1.27-.52-1.95.01-1.6-.03-3.21-.02-4.81.03-7.39-1.87-15.02-2-19.99-.07-2.66.12-5.34,0-8-.4-8.97.35-18.08,0-27.08-.12-3.02,1.22-6.25-1.14-6.95-1.65-.49-2.86-1.88-2.86-3.6v-60.69c0-1.72,1.21-3.1,2.85-3.59,2.36-.7,1.04-3.93,1.15-6.95.29-8.69.43-18.45,0-27.08-.11-2.21.21-4.66.1-6.86-.04-.72.15-1.42.5-2.05,2.69-4.72,1.63-13.43,1.39-19.08-.06-1.54,0-3.1,0-4.65,0-.81.29-1.57.74-2.24,2.43-3.59,1.46-10.7,1.25-15.11-.04-.81-.02-1.64,0-2.46s.23-1.64.74-2.28c2.37-3.02,1.48-9.42,1.27-13.26-.06-1.18,0-2.38,0-3.57,0-.28.03-.56.1-.84,4.06-16.8,6.25-34.37,7.9-51.56.08-.82.02-1.67-.01-2.51s.21-1.67.7-2.35c3.49-4.85,2.59-11.57,3.31-17.13.15-1.14-.11-2.39-.04-3.55.02-.3.09-.59.19-.87l1.72-5.17c.09-.27.16-.54.18-.82.06-1.03-.17-2.16-.09-3.18.02-.27.09-.53.18-.78l1.75-5.24c.08-.25.15-.5.17-.77.08-1.03-.19-2.2-.1-3.23.02-.26.09-.5.17-.75l1.7-5.09c.16-.49.23-1.02.18-1.53,0,0,0-.01,0-.02-.05-.52.02-1.04.18-1.53l1.71-5.14c.07-.21.14-.43.16-.66.12-1.15-.3-2.58-.05-3.66l2-6c.15-.63-.15-1.37,0-2l1.8-5.41c.13-.39.2-.8.2-1.21v-.76c0-.41.07-.82.2-1.21l1.76-5.28c.03-.09.06-.18.08-.27C156.18,376.9,578.95,30.32,1074.21,2.12c.44-.03.87-.13,1.28-.3l3.5-1.51c.48-.21.99-.31,1.51-.31h90.5ZM1089.3,144.52C333.08,179.72-109.45,1027.2,301.09,1669.1s1291.22,608.63,1677.22-8c425.26-679.34-93.57-1553.6-889.01-1516.57Z"/>
  <path class="st0" d="M5648.5,929.59l4,2c.28.51-.28,1.49,0,2l2,2c.15.63-.13,1.36,0,2,.47,2.33-.37,5.48,0,8.01h4c.13.63-.12,1.34,0,1.99.95,4.98,1.1,10.78,2.17,15.86l3.83.13c.31,1.13-.29,2.83,0,4l-1.99,3.98h3.99c.23,1.24-.19,2.75,0,4.01-3.32,2.18-1.34,4.95,2,6,.08,1.31.04,2.68,0,4-.03,1.08-5.38,5.48,2,8-.03,2,.03,4,0,6,0,.38-2.82,2.68-1.92,4.62l3.92,41.36c-3.54,69.25,4.73,143.21,0,211.91-10.87,157.79-136.79,169.94-266.91,163.91-129.52-6.01-184.46-58.66-190.95-188.92-2.96-59.41-2.95-134.54-.1-193.98,6.68-139.33,67.71-186.04,202.95-190.92,91.09-3.28,180.38-2.42,231.02,82.05ZM5392.17,926.19c-42.93,3.8-77.5,20.04-86.68,65.27-12.38,61-6.62,180.49-2.92,245.02,2.38,41.41,1.94,78.32,46.65,97.29,38.45,16.32,148.79,16.18,187.83,1.16,44.53-17.13,49.48-58.01,51.55-100.39,2.97-60.65,2.89-137.39,0-198.08-2.23-46.88-7.31-88.11-58.06-103.88-32.79-10.19-103.2-9.5-138.37-6.39Z"/>
  <path class="st0" d="M0,1169.49c6.06-1.11,3.85,3.06,4,6.91.35,9-.4,18.11,0,27.08H0v-33.99Z"/>
  <path class="st0" d="M4,1067.53c.43,8.63.29,18.39,0,27.08-.13,3.85,2.04,8.02-4,6.91v-33.99h4Z"/>
  <path class="st0" d="M5672.49,1003.56v41.98l-3.92-41.36c-.91-1.94,1.91-4.25,1.92-4.62l2,4Z"/>
  <path class="st0" d="M6,1231.46c-2.4-2.88-1.2-7.31-6-6v-4l4-10c.13,4.97,2.03,12.6,2,19.99Z"/>
  <path class="st0" d="M4,1059.53c-.24-1.77-2.72-8.08-4-10v-4c4.8,1.31,3.59-3.12,6-6,.25,6.04,1.44,15.56-2,19.99Z"/>
  <path class="st0" d="M1205.68,2269v2h-33.99c9.76-4,23.02-1.57,33.99-2Z"/>
  <path class="st0" d="M1205.68,0v2c-10.97-.41-24.24,1.98-33.99-2h33.99Z"/>
  <path class="st0" d="M1103.71,2271h-33.99v-2c10.98.49,24.22-2.04,33.99,2Z"/>
  <path class="st0" d="M4,1059.53c.34,2.47-.13,5.39,0,8H0v-17.99c1.28,1.92,3.76,8.23,4,10Z"/>
  <path class="st0" d="M4,1203.47c.12,2.66-.07,5.34,0,8l-4,10v-17.99h4Z"/>
  <path class="st0" d="M3431.31,1203.68l1.81,56.73c3,29.39,14.41,58.05,41.88,72.08,37.01,18.9,155.7,18.14,193.99,1.88,12.29-5.22,19.82-13.12,30.69-19.29,19.37-11,44.24-17.19,60.37,2.29,33.65,40.67-31.52,80.16-64.51,91.52-56.11,19.32-195.88,19.72-250.98-1.99-77.35-30.49-96.03-104.52-99.53-180.36-2.68-58.03-2.68-130.05,0-188.08,6.22-134.75,66.5-185.94,198.95-190.92,107.88-4.05,223.6,16.63,240.77,143.27,15.03,110.86-67.76,171.84-166.99,188.38-61.7,10.28-124.79,13.78-186.44,24.49ZM3431.1,1129.49l186.4-24.52c57.22-11.1,105.8-53.29,85.62-116.51-21.49-67.34-106.65-68.31-165.04-64.85-79.92,4.75-103.26,32.82-107.07,110.85-1.53,31.35,1.3,63.61.09,95.03Z"/>
  <path class="st0" d="M4788.95,1203.68c-.4,58.68-2.76,119.93,65.74,136.75,37.07,9.1,137.29,9.22,171.95-6.04,25.9-11.4,40.54-35.43,74.55-28.5,22.88,4.66,31.51,36.79,19.13,56.2-42.91,67.27-176.97,63.65-246.59,59.28-114.48-7.19-165.02-71.68-171.06-182.82-3.42-62.92-3.41-147.15,0-210.07,5.27-97.16,48.51-163.3,149.33-176.55,102.44-13.47,246.01-9.97,283.21,108.1,38.33,121.67-47.77,200.69-159.81,219.19-61.72,10.19-124.81,13.6-186.44,24.49ZM4788.74,1129.49c68.79-10.84,139.01-15.35,207-29.91,103.18-35.12,87.01-158.16-20.29-173.76-37.29-5.42-114.67-5.22-147.33,14.16-32.88,19.52-37.63,53.07-39.47,88.48-1.72,33.12,1.44,67.76.09,101.03Z"/>
  <path class="st0" d="M2824.81,848.19c84.68,2.38,173.2-5.08,257.45-.64,92.14,4.86,168.76,50.27,182.63,147.26,13.88,97.11-46.52,147.68-122.38,191.02-43.55,24.88-106.54,61.56-151.52,80.4-14.53,6.08-23.54,7.46-38.55,1-25.41-10.95-31.16-40.32-14.04-61.57,6.28-7.79,14.88-11.49,23.47-16.52,54.97-32.15,128.42-60.38,177.96-97.95,70.36-53.35,43.86-155.87-41.86-165.38-73.59-8.16-160.79,5.75-235.83-.31-8.63.06-15.97,4.5-19.79,12.2l-1.31,444.49c-5.47,47.34-68.26,54.74-84.74,11.19-6.97-155.54-1.09-312.64-2.99-468.74,3.37-40.22,31.31-70.83,71.51-76.44Z"/>
  <path class="st0" d="M4056.51,848.22c67.25-3.11,178.14-3.3,223.4,55.34,16.99,22.02,9.58,58.63-20.04,62.02-33.8,3.86-48.6-21.42-76.44-31.53-36.03-13.09-150.21-13.04-185.86,1.19-41.46,16.54-48.34,54.92-50.61,95.34-3.5,62.38-3.39,145.52-.1,207.97,2.67,50.61,11.63,88.53,66.05,101.89,36.83,9.04,138.25,8.92,173.33-4.66,28.4-10.99,39.88-34.74,75.67-30.4,25.54,3.1,33.96,38.62,20.61,58.69-38.4,57.71-148.31,61.19-210.69,59.39-131.34-3.78-203.68-41.67-210.94-182.92-3.27-63.6-3.27-146.47,0-210.07,6.76-131.43,70.01-176.44,195.62-182.25Z"/>
  <path class="st0" d="M4574.37,848.22c13.13-.56,30.69-2.03,43.41-.59,44.58,5.02,46.71,73.66-3.93,78.04-27.24,2.36-51.21-2.12-79.45,4.52-49.63,11.67-64.59,41.95-67.66,90.28-7.44,117.08,5.92,241.83-.13,359.71-6.99,56.84-82.78,56.7-87.83-1.71-9.11-105.25,7.03-223.4-.01-330.01,5.86-138.5,55.56-194.24,195.62-200.24Z"/>
  <path class="st0" d="M3150.64,1235.94c16.26-2.8,31,.67,42.59,12.43,21.09,36.51,60.38,74.19,79.57,110.36,24.38,45.95-36.4,89.14-74.49,44.49-15.86-18.59-66.09-86.46-75.51-106.42-11.51-24.38.22-56.1,27.84-60.86Z"/>
  <path class="st0" d="M5664.5,963.58l-3.83-.13c-1.06-5.08-1.22-10.88-2.17-15.86,3.59,4.34,4.56,10.68,6,15.99Z"/>
  <path class="st0" d="M5670.5,993.56c-7.38-2.52-2.03-6.92-2-8,2.92,1.35,2.04,5.38,2,8Z"/>
  <path class="st0" d="M5668.5,981.57c-3.34-1.05-5.32-3.81-2-6,.05.31,1.74,1.83,2,6Z"/>
  <path class="st0" d="M5658.5,945.58h-4c-.38-2.52.46-5.67,0-8,1.91,1.98,3.45,5.38,4,8Z"/>
  <path class="st0" d="M5666.5,971.57h-3.99s1.99-4,1.99-4c.05.22,1.39.82,2,4Z"/>
  <path class="st0" d="M5652.5,931.59l-4-2c.11.19,2.43-.82,4,2Z"/>
  <path class="st0" d="M5654.5,935.59l-2-2c.13.24,1.66.57,2,2Z"/>
  <path class="st0" d="M10,995.56c-.07-14.4,1.44-27.84,4.05-42.93.61-3.5.25-6.98,3.95-9.05-1.66,17.34-3.88,35.05-8,51.98Z"/>
  <path class="st0" d="M16,1313.42c-4.62-7.54-7.53-24.52-7.91-33.37-.13-3.02,1.91-4.36,1.91-4.61,3.25,11.91,5.31,25.65,6,37.98Z"/>
  <path class="st0" d="M21.99,1347.41c-6.74-2.98-4-13.12-4-17.99,3.2,4.82,3.64,12.32,4,17.99Z"/>
  <path class="st0" d="M6,1033.54c-.09-3.58-4.85-10.59,2-15.99.23,4.8,1.36,12.83-2,15.99Z"/>
  <path class="st0" d="M8,1253.45c-2.41-2.21-3.71-6.12-3.93-9.26-.39-5.35,1.93-6.38,1.94-6.73,3.24,4.17,2.21,10.77,2,15.99Z"/>
  <path class="st0" d="M18,939.59c.5-6.03-1.9-13.8,4-17.99-.76,5.89.29,13.1-4,17.99Z"/>
  <path class="st0" d="M25.99,1367.4c-6.99-2.59-3.7-12.57-4-15.99,3.17,4.2,3.08,10.89,4,15.99Z"/>
  <path class="st0" d="M10,1271.44c-6.54-4.9-2.03-11.28-2-13.99,3.27,2.57,2.23,9.8,2,13.99Z"/>
  <path class="st0" d="M8,1013.55c-.04-2.76-4.54-9.07,2-13.99.23,4.19,1.27,11.43-2,13.99Z"/>
  <path class="st0" d="M35.99,1411.38c-5.72-1.72-3.46-7.8-4-11.99,3.69,3.2,3.24,7.77,4,11.99Z"/>
  <path class="st0" d="M18,1325.42c-7.38-2.47-2-7.1-2-8,2.9,1.34,2.07,5.39,2,8Z"/>
  <path class="st0" d="M27.99,1377.39c-3.34-1.05-5.32-3.81-2-6,.07.36,1.43,3.11,2,6Z"/>
  <path class="st0" d="M21.99,917.6c.5-3.5,1.95-5.69,2-6l-2,6Z"/>
  <path class="st0" d="M23.99,907.6c.54-3.16,1.94-5.69,2-6l-2,6Z"/>
  <path class="st0" d="M25.99,897.6c.57-3.04,1.9-5.51,2-6l-2,6Z"/>
  <path class="st0" d="M27.99,889.61c.61-2.93,1.85-5.3,2-6l-2,6Z"/>
  <path class="st0" d="M29.99,879.61c.64-2.82,1.77-5.05,2-6l-2,6Z"/>
  <path class="st0" d="M31.99,871.62c.46-1.9-.91-4.96,2-6l-2,6Z"/>
  <path class="st0" d="M33.99,863.62l2-6-2,6Z"/>
  <path class="st0" d="M29.99,1387.39l-2-6c.06.31,1.45,2.9,2,6Z"/>
  <path class="st0" d="M31.99,1395.39l-2-6c.05.31,1.48,2.63,2,6Z"/>
  <path class="st0" d="M759.35,562.31c171.31,5.19,348.76-8.81,519.39-.64,165.06,7.9,300.29,95.6,337.85,261.95,44.65,197.75-62.26,311.69-219.62,404.19-106.64,62.68-218.73,117.88-327.66,176.17-95.09,19.8-143.3-95.58-58.92-148.87,97.92-61.84,212.08-111.27,312.6-171.24,83.07-49.56,142.02-96.8,134.7-203.34-6.75-98.24-86.24-161.44-180.94-166.94-143.74-8.35-295.48,6.51-440.05.03-23.18,1.37-40.91,17.59-43,40.97l.05,877.66c-13.32,102.95-156.65,101.32-167.89-2l-.11-927.64c6.92-70.56,63.39-129.99,133.6-140.31Z"/>
  <path class="st0" d="M1409.19,1335.97c22.64-2.7,43.83,3.58,62.25,16.61,61.54,73.81,112.7,156.83,168.49,235.36,40.76,90.96-76.68,164.97-141.16,89.16-54.82-64.46-99.33-152.03-152.78-219.09-26.26-50.52,6.52-115.28,63.19-122.04Z"/>
</svg>