<?xml version="1.0" encoding="UTF-8"?>
<svg id="Layer_2" xmlns="http://www.w3.org/2000/svg" version="1.1" viewBox="0 0 317.57 254.77">
  <!-- Generator: Adobe Illustrator 29.8.2, SVG Export Plug-In . SVG Version: 2.1.1 Build 3)  -->
  <defs>
    <style>
      .st0 {
        fill: #ccc;
      }

      .st1 {
        fill: #fff;
      }
    </style>
  </defs>
  <g id="Layer_2-2">
    <path class="st0" d="M16.14,86.68L157.58,5.28l141.44,81.4v160.6l-15.42-8.8V95.48L157.58,22.44,31.56,95.04v143l-15.42,8.8V86.68ZM75.18,120.56l82.4-47.52,82.4,47.52v92.84l-15.42-8.8v-75.24l-67.41-38.72-67.41,38.72v75.24l-15.42,8.8v-92.84h.88-.02ZM55.35,109.12l102.22-58.96,102.22,58.96v115.28l-15.42-8.8v-97.68l-86.8-50.16-86.8,50.16v97.68l-15.42,8.8v-115.28h0ZM35.96,235.84V98.12L157.58,27.72l121.61,70.4v137.72l-15.42-8.8v-120.12l-106.63-61.6-106.63,61.6v120.56l-14.54,8.36h0ZM205.16,193.16v-52.36l-47.59-27.72-47.59,27.72v52.36l-15.42,8.8v-69.96l63.01-36.08,63.01,36.08v69.96l-15.42-8.8h0ZM114.39,195.8v-52.8l43.18-25.08,43.18,25.08v52.36l102.66,59.4V84.04L157.58,0,11.74,84.04v170.72l101.34-58.52,1.32-.44h0Z"/>
    <path class="st1" d="M14.54,113.08c-7.48,0-12.48,3.72-12.48,9.48,0,13.15,20.32,8.02,20.27,17.66,0,3.51-3.25,5.66-8.46,5.66-4.07,0-8.66-1.89-12.02-5.19L0,144.46c3.4,3.3,8.56,5.61,13.82,5.61,7.74,0,13.05-3.93,13.05-10.06.05-13.31-20.27-8.38-20.27-17.82,0-3.09,3.04-4.87,7.68-4.87,2.89,0,6.7.89,9.95,3.09l1.75-3.93c-2.99-2.04-7.27-3.41-11.45-3.41h.02Z"/>
    <rect class="st1" x="39.44" y="113.24" width="4.13" height="36.68"/>
    <polygon class="st1" points="95.13 149.92 95.13 113.24 90.07 113.24 76.92 139.65 63.72 113.24 58.62 113.24 58.62 149.92 62.54 149.92 62.54 119.68 75.63 146.04 78.11 146.04 91.26 119.68 91.31 149.92 95.13 149.92"/>
    <path class="st1" d="M114.35,117.27h9.28c6.5,0,10.26,2.83,10.26,8.38s-3.76,8.65-10.26,8.65h-9.28s0-17.03,0-17.03ZM110.22,113.24v36.68h4.13v-11.58h9.44c8.92,0,14.08-4.66,14.08-12.79s-5.16-12.31-14.08-12.31h-13.57Z"/>
    <polygon class="st1" points="152.97 145.94 152.97 113.24 148.84 113.24 148.84 149.92 168.8 149.92 168.8 145.94 152.97 145.94"/>
    <rect class="st1" x="179.62" y="113.24" width="4.13" height="36.68"/>
    <path class="st1" d="M214.21,113.13c-10.47,0-18.82,8.12-18.82,18.39s8.25,18.6,18.67,18.6c5,0,9.85-2.25,13.41-5.66l-2.53-2.88c-2.84,2.72-6.7,4.4-10.68,4.4-8.15,0-14.7-6.45-14.7-14.46s6.55-14.46,14.7-14.46c3.97,0,7.89,1.73,10.68,4.61l2.48-3.2c-3.46-3.3-8.25-5.34-13.2-5.34h0Z"/>
    <rect class="st1" x="239" y="113.24" width="4.13" height="36.68"/>
    <polygon class="st1" points="280.96 117.27 280.96 113.24 253.27 113.24 253.27 117.27 265.03 117.27 265.03 149.92 269.15 149.92 269.15 117.27 280.96 117.27"/>
    <polygon class="st1" points="303.85 137.34 317.57 113.24 313.34 113.24 301.79 132.37 290.08 113.24 285.8 113.24 299.78 137.5 299.78 149.92 303.85 149.92 303.85 137.34"/>
    <polygon class="st1" points="6.6 180.21 6.6 164.82 4.66 164.82 4.66 182.09 14.05 182.09 14.05 180.21 6.6 180.21"/>
    <path class="st1" d="M29.36,166.65c3.79,0,6.89,3.01,6.89,6.81s-3.11,6.83-6.89,6.83-6.94-3.03-6.94-6.83,3.16-6.81,6.94-6.81ZM29.36,164.78c-4.98,0-8.91,3.8-8.91,8.68s3.93,8.73,8.91,8.73,8.88-3.87,8.88-8.73-3.93-8.68-8.88-8.68Z"/>
    <path class="st1" d="M56.54,175.82h-7.62l3.79-8.75,3.83,8.75ZM57.37,177.72l1.89,4.36h2.11l-7.6-17.26h-2.01l-7.62,17.26h2.06l1.89-4.36h9.28Z"/>
    <polygon class="st1" points="83.01 182.09 83.01 164.82 81.1 164.82 81.1 178.71 70.9 164.82 68.89 164.82 68.89 182.09 70.83 182.09 70.83 168.23 81.02 182.09 83.01 182.09"/>
    <path class="st1" d="M98.07,164.75c-3.52,0-5.87,1.75-5.87,4.46,0,6.19,9.56,3.77,9.54,8.31,0,1.65-1.53,2.66-3.98,2.66-1.92,0-4.08-.89-5.66-2.44l-.87,1.78c1.6,1.55,4.03,2.64,6.5,2.64,3.64,0,6.14-1.85,6.14-4.73.02-6.26-9.54-3.95-9.54-8.38,0-1.45,1.43-2.29,3.62-2.29,1.36,0,3.16.42,4.68,1.45l.83-1.85c-1.41-.96-3.42-1.6-5.39-1.6h0Z"/>
    <path class="st1" d="M128.14,180.61c-1.97,0-3.52-1.36-3.52-3.3,0-1.73,1.41-2.76,3.08-3.7,1.14,1.36,2.67,2.93,4.54,4.83-1.24,1.38-2.65,2.17-4.1,2.17ZM126.68,168.45c0-1.33,1.02-2.37,2.6-2.37,1.46,0,2.38.86,2.38,2.15,0,1.73-1.63,2.66-3.49,3.65-.97-1.33-1.48-2.42-1.48-3.43h0ZM136.17,182.41l1.02-1.09-2.94-2.93c.73-.99,1.36-2.15,1.92-3.45l-1.29-1.01c-.51,1.28-1.09,2.42-1.75,3.35-1.7-1.7-3.08-3.13-4.13-4.36,2.11-1.13,4.2-2.34,4.2-4.69,0-2.05-1.58-3.48-3.93-3.48-2.48,0-4.15,1.55-4.15,3.72,0,1.26.58,2.54,1.75,4.07-1.99,1.09-3.86,2.39-3.86,4.91,0,2.71,2.23,4.73,5.05,4.73,1.92,0,3.71-.96,5.27-2.64l2.84,2.86h0Z"/>
    <path class="st1" d="M166.2,175.82h-7.62l3.79-8.75,3.83,8.75ZM167.03,177.72l1.89,4.36h2.11l-7.6-17.26h-2.01l-7.62,17.26h2.06l1.89-4.36h9.28Z"/>
    <path class="st1" d="M180.49,166.72h4.88c3.81,0,6.82,2.89,6.82,6.76s-2.96,6.73-6.75,6.73h-4.95v-13.49h0ZM178.55,164.82v17.26h6.8c5,0,8.81-3.72,8.81-8.63s-3.79-8.63-8.74-8.63h-6.87Z"/>
    <polygon class="st1" points="209.02 182.09 215.96 164.82 213.92 164.82 208.05 179.79 202.2 164.82 200.11 164.82 207 182.09 209.02 182.09"/>
    <rect class="st1" x="223.52" y="164.82" width="1.94" height="17.26"/>
    <path class="st1" d="M240.5,164.75c-3.52,0-5.87,1.75-5.87,4.46,0,6.19,9.56,3.77,9.54,8.31,0,1.65-1.53,2.66-3.98,2.66-1.92,0-4.08-.89-5.66-2.44l-.87,1.78c1.6,1.55,4.03,2.64,6.5,2.64,3.64,0,6.14-1.85,6.14-4.73.02-6.26-9.54-3.95-9.54-8.38,0-1.45,1.43-2.29,3.62-2.29,1.36,0,3.16.42,4.68,1.45l.83-1.85c-1.41-.96-3.42-1.6-5.39-1.6h0Z"/>
    <path class="st1" d="M262.43,166.65c3.79,0,6.89,3.01,6.89,6.81s-3.11,6.83-6.89,6.83-6.94-3.03-6.94-6.83,3.16-6.81,6.94-6.81ZM262.43,164.78c-4.98,0-8.91,3.8-8.91,8.68s3.93,8.73,8.91,8.73,8.88-3.87,8.88-8.73-3.93-8.68-8.88-8.68Z"/>
    <path class="st1" d="M281.63,174.74v-8.01h4.51c3.08,0,4.83,1.33,4.83,3.95s-1.75,4.07-4.83,4.07h-4.51ZM290.8,182.09h2.21l-3.98-5.87c2.45-.81,3.81-2.74,3.81-5.6,0-3.67-2.45-5.8-6.7-5.8h-6.46v17.26h1.94v-5.45h4.51c.39,0,.78-.02,1.14-.05l3.52,5.5h.01Z"/>
    <polygon class="st1" points="308.1 176.17 314.55 164.82 312.56 164.82 307.13 173.82 301.62 164.82 299.6 164.82 306.18 176.24 306.18 182.09 308.1 182.09 308.1 176.17"/>
  </g>
</svg>