<?xml version="1.0" encoding="UTF-8"?>
<svg id="Layer_1" xmlns="http://www.w3.org/2000/svg" version="1.1" viewBox="0 0 409.5 90">
  <!-- Generator: Adobe Illustrator 29.8.2, SVG Export Plug-In . SVG Version: 2.1.1 Build 3)  -->
  <defs>
    <style>
      .st0 {
        fill: #323232;
      }

      .st1 {
        fill: #18cdb6;
      }
    </style>
  </defs>
  <g id="Layer_2">
    <g id="Layer_1-2">
      <path class="st0" d="M125,73.2c-9.9,0-17.3-5.1-17.3-10.6v-6.1h.5c2.9,2.7,9.8,5.1,16.2,5.1s9.8-1.9,9.8-5.9c0-3.1-1.9-4.6-11.2-5.9-11.4-1.6-16.9-6.1-16.9-14.3,0-10.1,9.1-18.7,22.9-18.7,12.2,0,17.2,6.3,17.2,11.5v5.1h-.5c-2.8-2.8-9-5-15.4-5-8.2,0-10.8,2.5-10.8,6,0,2.7,1.6,3.8,10.8,5.3,11.2,1.8,17.2,6.7,17.2,15.3,0,11.4-8,18.2-22.5,18.2Z"/>
      <path class="st0" d="M163.4,89.5c-5,0-9.4-3.3-9.4-8.3v-2.6l7.6-.5c4.9-.3,6.6-2.3,9.5-9.9-7.1-10.7-17.3-37.5-19.1-50.2h7.1c3.8-.1,7.1,2.6,7.8,6.3,2.1,10.8,5.7,21.3,10.8,31.1,4.4-10.1,9.3-26.4,10.5-37.4h5.8c4.3,0,6.3,1.9,6.3,6.3,0,5.7-9.4,30.3-11.9,36.1-10,23.6-15.3,29.1-25,29.1Z"/>
      <path class="st0" d="M280.9,72c-7.3,0-10.2-3.4-10.2-9.8v-20.8c0-8.9-4-12.7-9.9-12.7-5.4,0-9.1,3.8-9.1,11.2v32.1h-3.6c-5.9,0-9.8-3.4-9.8-9.8v-20.8c0-8.9-4.1-12.7-10-12.7-5.2,0-9.1,4.1-9.1,11.5v31.8h-3.6c-5.5,0-9.7-3.6-9.7-9.8v-20.9c0-14.7,7.7-24.5,24-24.5,6.5-.1,12.6,3.1,16.4,8.4,3.4-5.3,9.2-8.4,15.5-8.4,12.4,0,22.4,7.5,22.4,22.8v32.4h-3.3Z"/>
      <path class="st0" d="M320.9,73.2c-5.6,0-10.8-3.1-13.6-8v23.8h-4.2c-5.1.1-9.3-3.9-9.4-8.9v-33c0-17.9,8-30.3,27-30.3,14.3,0,24.5,13,24.5,26.6,0,17.3-8.6,29.8-24.3,29.8ZM318.6,28.7c-7.4,0-11.5,6.4-11.5,15.7,0,10.8,5.3,16.9,13.3,16.9,6.5,0,11-5.8,11-14.4,0-12.7-4.2-18.2-12.8-18.2h0Z"/>
      <path class="st0" d="M371.1,72.5c-11.1,0-17.1-5.9-17.1-16.8V0h3.8c6.7,0,9.6,3.9,9.6,9v45.4c0,5.4,2.8,7.1,9.1,7.1h3.6v2.9c0,5.8-3.1,8.1-9,8.1Z"/>
      <path class="st0" d="M392,14c-3.8,0-6.9-3.2-6.9-7s3-7,6.9-7h.1c3.8,0,7,3.1,7,6.9-.1,3.9-3.2,7.1-7.1,7.1ZM401.5,72.6c-10.4,0-16.1-5.9-16.1-16.8V19.2h3.8c6,0,9.6,3.2,9.6,10v25.2c0,5.4,2.3,7.1,8.2,7.1h2.5v2.9c0,5.8-2.3,8.1-8,8.2h0Z"/>
      <path class="st1" d="M24.5,76.3c9.4,2.8,19.5,2.5,28.7-.9,1.8-.7,3.5-1.5,5.1-2.6,7.7-5,10.7-15.3,8-24-2.4-7.7-11-12.3-21-11.3-.6.1-1.1.6-1.1,1.2,0,.4-.1.9-.1,1.3,0,.7-.7,1.3-1.4,1.3-.2,0-.4-.1-.6-.2l-11.3-6c-.2-.1-.4-.2-.5-.4-.4-.6-.3-1.4.3-1.8l9.4-7.8c.6-.5,1.4-.4,1.9.2.1.1.2.2.2.3.4.9.6,1.5.7,1.7,3.3-.3,6.6-.2,9.9.3,1.4.2,2.7.4,3.9.7l1.6.4c11.5,2.9,20.5,12.2,22.2,24.3,1.1,8.5-1.6,17.1-7.4,23.4h0c-1.2,1.3-2.5,2.4-3.9,3.6-6.4,5.2-14.2,8.6-22.4,9.7-15.1,1.9-30.2-3.8-40.3-15.3-3.5-4-5.7-9-6.3-14.4C0,58.4,1.1,57.2,2.2,58.9c1,1.5,2,3,3,4.3,4.8,6.2,11.6,10.9,19.3,13.1Z"/>
      <path class="st1" d="M56.4,13.7c-9.4-2.8-19.4-2.5-28.6.9-1.8.7-3.5,1.5-5.1,2.6-7.7,5-10.7,15.3-8,24,2.4,7.7,11,12.3,21,11.3.6-.1,1.2-.6,1.2-1.2,0-.4.1-.9.1-1.3,0-.7.7-1.3,1.4-1.3.2,0,.4.1.6.2l11.3,6c.2.1.4.2.5.4.4.6.2,1.4-.4,1.8l-9.4,7.7c-.6.5-1.4.4-1.9-.2-.1-.1-.2-.2-.2-.3-.4-.9-.6-1.5-.7-1.7-3.3.3-6.6.2-9.9-.3-1.4-.2-2.7-.4-3.9-.7l-1.6-.3C11.4,58.4,2.3,49.1.7,37.1c-1.2-8.5,1.6-17.1,7.4-23.4h0c1.2-1.3,2.5-2.5,3.9-3.6C18.4,4.9,26.2,1.5,34.4.4c15.1-1.9,30.2,3.9,40.2,15.4,3.5,4,5.7,9,6.3,14.4.1,1.6-1,2.7-2.1,1.1-1-1.5-2-3-3-4.4-4.9-6.3-11.7-10.9-19.4-13.2Z"/>
    </g>
  </g>
</svg>