<?xml version="1.0" encoding="UTF-8"?>
<svg id="svg2" xmlns="http://www.w3.org/2000/svg" xmlns:svg="http://www.w3.org/2000/svg" xmlns:sodipodi="http://sodipodi.sourceforge.net/DTD/sodipodi-0.dtd" xmlns:rdf="http://www.w3.org/1999/02/22-rdf-syntax-ns#" xmlns:inkscape="http://www.inkscape.org/namespaces/inkscape" xmlns:dc="http://purl.org/dc/elements/1.1/" xmlns:cc="http://creativecommons.org/ns#" version="1.1" viewBox="0 0 300 300.02">
  <!-- Generator: Adobe Illustrator 29.8.2, SVG Export Plug-In . SVG Version: 2.1.1 Build 3)  -->
  <defs>
    <style>
      .st0 {
        fill: #fff;
      }
    </style>
  </defs>
  <sodipodi:namedview id="namedview10" bordercolor="#666666" borderopacity="1" gridtolerance="10" guidetolerance="10" inkscape:current-layer="svg2" inkscape:cx="152" inkscape:cy="135.89114" inkscape:pageopacity="0" inkscape:pageshadow="2" inkscape:window-height="931" inkscape:window-maximized="1" inkscape:window-width="1680" inkscape:window-x="0" inkscape:window-y="1" inkscape:zoom="0.77626475" objecttolerance="10" pagecolor="#ffffff" showgrid="false"/>
  <g>
    <path class="st0" d="M236.83,239.9h0c-3.83,0-6.02,3.03-6.02,8.38v.14h11.67v-.45c0-2.86-.29-4.37-1.2-5.8-.98-1.5-2.41-2.27-4.46-2.27Z"/>
    <path class="st0" d="M103.6,177.48c0-2.86-.3-4.36-1.2-5.79-1-1.51-2.42-2.27-4.46-2.27h0c-3.85,0-6.02,3.03-6.02,8.37v.14h11.67v-.45Z"/>
    <path class="st0" d="M138.83,184.56c-7.02,0-9.44,1.29-9.44,5.88,0,3.01,1.9,5.05,4.47,5.05,1.88,0,3.76-.99,5.26-2.64l.16-8.29h-.45Z"/>
    <path class="st0" d="M113.98,260.92c0,3.02,1.86,5.04,4.43,5.04,1.89,0,3.77-.97,5.27-2.64l.16-8.29h-.47c-7,0-9.39,1.31-9.39,5.89Z"/>
    <path class="st0" d="M237.07,169.42h0c-3.84,0-6.03,3.03-6.03,8.37v.14h11.68v-.45c0-2.86-.31-4.36-1.21-5.79-.98-1.51-2.42-2.27-4.45-2.27Z"/>
    <path class="st0" d="M0,0v300.02h300V0H0ZM105.59,97.93c3.16-3.55,7-5.21,12.13-5.21h0c4.43,0,8.65,1.52,11.16,4.08,3.53,3.62,5.11,8.8,5.11,16.86v2.34h-22.28v.31c0,5.95,2.92,9.33,8.12,9.33,3.46,0,6.7-1.27,9.79-3.84l3.92,6.04c-4.46,3.61-9.13,5.33-14.54,5.33-11.08,0-18.23-7.84-18.23-19.94,0-6.95,1.42-11.54,4.82-15.3ZM71.64,76.31h0c.45,2.11.68,5.72.68,9.41v7.69c0,1.2-.16,2.79-.16,3.24,2.64-2.49,7-4.16,10.92-4.16,4.9,0,8.81,2.11,10.03,5.5.76,2.18.97,3.46.97,7.17v26.96h-9.87v-25.92c0-3.84-1.05-5.27-3.92-5.27-2.49,0-5.72,1.5-7.97,3.54v27.65h-10.24v-44.6c0-3.63-.31-7.21-.77-8.81l10.32-2.41ZM19.09,79.77h37.73l-1.73,8.74h-12.5v43.61h-10.71v-43.61h-12.79v-8.74ZM18.7,149.07h11.16l4.51,20.64c2.11,9.8,2.79,17.25,2.79,17.25.21-2.03,1.12-9.49,2.7-16.72l4.66-21.17h11.53l4.84,23.44c.97,4.9,2.25,13.86,2.25,13.86.14-1.66,1.79-12.29,2.85-17.42l4.31-19.88h11.07l-12.65,52.8h-11.52l-4.68-21.31c-1.57-7.01-2.34-13.78-2.47-15.2,0,0-.91,7.37-2.5,15.06l-4.36,21.45h-11.97l-12.51-52.8h0ZM44.1,272.81c-7.23,0-12.81-2.32-17.1-7.22-4.22-4.74-6.33-11.06-6.33-18.75,0-6.55,1.14-11.76,3.53-16.27,4.08-7.61,11.61-12.13,20.05-12.13h-.01c5.2,0,10.39,1.67,13.26,4.16l-4.74,7.14c-2.64-1.95-5.43-2.93-8.36-2.93-3.55,0-7.01,1.72-8.89,4.51-2.03,3.01-2.93,7.39-2.93,13.48,0,7.15.59,11.15,2.18,14.01,2.11,3.85,5.57,5.88,10.1,5.88,3.07,0,5.88-.9,8.96-3.37l4.82,6.62c-4.15,3.38-8.58,4.89-14.54,4.89ZM96.35,271.92h-9.88v-25.92c0-3.83-1.05-5.26-3.9-5.26-2.49,0-5.74,1.49-7.99,3.54v27.64h-10.24v-44.59c0-3.63-.31-7.23-.76-8.82l10.34-2.41h0s0,0,0,0h0c.43,2.12.66,5.73.66,9.44v7.66c0,1.21-.15,2.79-.15,3.25,2.63-2.49,7-4.16,10.91-4.16,4.91,0,8.8,2.11,10.02,5.5.77,2.2.99,3.46.99,7.17v26.96ZM80.84,182.54c0-6.94,1.43-11.52,4.81-15.29,3.18-3.55,7.01-5.2,12.13-5.2h0c4.45,0,8.67,1.5,11.15,4.05,3.56,3.63,5.14,8.84,5.14,16.88v2.32h-22.3v.33c0,5.94,2.94,9.32,8.13,9.32,3.48,0,6.7-1.28,9.79-3.84l3.93,6.04c-4.45,3.61-9.12,5.34-14.55,5.34-11.06,0-18.22-7.84-18.22-19.96ZM131.96,273.88c-2.34-.98-4.45-2.72-5.42-4.68-.76.77-1.59,1.51-2.34,2.05-1.89,1.36-4.6,2.1-7.76,2.1-8.59,0-13.26-4.37-13.26-12.04,0-9.05,6.26-13.27,18.54-13.27.75,0,1.43,0,2.26.08v-1.57c0-4.31-.83-5.74-4.53-5.74-3.24,0-7.01,1.59-11.14,4.38l-4.31-7.24c2.05-1.29,3.56-2.03,6.27-3.15,3.77-1.6,7-2.27,10.55-2.27h0c6.46,0,10.91,2.4,12.41,6.71.53,1.57.78,2.79.68,6.91l-.21,12.97v.67c0,4.15.67,5.72,3.62,7.9l-5.35,6.19ZM131.91,202.87c-8.61,0-13.27-4.37-13.27-12.05,0-9.04,6.25-13.25,18.52-13.25.76,0,1.44,0,2.25.06v-1.59c0-4.28-.81-5.72-4.5-5.72-3.23,0-7.01,1.6-11.15,4.39l-4.3-7.25c2.05-1.29,3.53-2.04,6.26-3.15,3.76-1.6,7-2.27,10.54-2.27h0,0,0c6.47,0,10.92,2.41,12.44,6.7.51,1.58.74,2.77.66,6.93l-.21,12.97v.67c0,4.13.66,5.7,3.61,7.9l-5.35,6.18c-2.34-.98-4.45-2.7-5.43-4.67-.76.74-1.58,1.51-2.34,2.05-1.88,1.35-4.59,2.1-7.74,2.1ZM173.45,271.92h-9.95v-25.09c0-4.36-.76-5.64-3.39-5.64-2.03,0-4.65,1.37-7.01,3.47v27.26h-10.1v-27.95c0-3.32-.43-6.48-1.33-9.04l8.95-2.56h0c.91,1.58,1.44,3.24,1.44,4.82,1.49-1.04,2.77-1.95,4.44-2.87,2.03-1.05,4.66-1.64,6.92-1.64,4.3,0,8.06,2.25,9.26,5.58.53,1.43.77,3.08.77,5.49v28.17ZM169.7,202.34c-5.12,0-9.19-2.25-10.4-5.65-.6-1.67-.67-2.43-.67-5.95v-20.95h-3.84v-6.91h3.84c0-3.76,0-6.26.37-9.11l10.25-2.56h0s0,0,0,0h0c-.38,3.52-.61,7.75-.61,11.67h9.04l-2.57,6.91h-6.48v19.37c0,4.9.9,6.18,4.36,6.18.91,0,1.81-.23,3.62-.75l1.28,6.01c-2.94,1.21-5.57,1.75-8.2,1.75ZM212.75,271.92h-9.94v-25.09c0-4.36-.76-5.64-3.39-5.64-2.03,0-4.67,1.37-7,3.47v27.26h-10.1v-27.95c0-3.32-.45-6.48-1.34-9.04l8.98-2.56h0c.89,1.58,1.41,3.24,1.41,4.82,1.5-1.04,2.79-1.95,4.44-2.87,2.05-1.05,4.69-1.64,6.92-1.64,4.3,0,8.07,2.25,9.27,5.58.55,1.43.76,3.08.76,5.49v28.17ZM214.79,201.44h-9.86v-25.93c0-3.82-1.05-5.26-3.91-5.26-2.49,0-5.74,1.5-7.98,3.55v27.64h-10.25v-44.59c0-3.63-.3-7.22-.75-8.82l10.32-2.41s0,0,0,0c0,0,0,0,0,0,.44,2.12.68,5.72.68,9.41v7.68c0,1.21-.16,2.8-.16,3.24,2.64-2.49,7-4.15,10.92-4.15,4.9,0,8.81,2.12,10.02,5.49.75,2.21.97,3.48.97,7.17v26.98ZM252.96,255.8h-22.29v.31c0,5.93,2.94,9.33,8.14,9.33,3.47,0,6.7-1.29,9.78-3.85l3.92,6.04c-4.45,3.62-9.11,5.35-14.54,5.35-11.07,0-18.22-7.84-18.22-19.95,0-6.94,1.43-11.54,4.81-15.3,3.17-3.56,7.01-5.2,12.13-5.2h0c4.44,0,8.67,1.51,11.15,4.08,3.54,3.61,5.12,8.81,5.12,16.86v2.34ZM253.19,185.3h-22.29v.33c0,5.94,2.93,9.32,8.13,9.32,3.47,0,6.71-1.28,9.8-3.84l3.92,6.04c-4.44,3.61-9.11,5.34-14.54,5.34-11.06,0-18.22-7.84-18.22-19.96,0-6.94,1.43-11.52,4.81-15.29,3.17-3.55,7.01-5.2,12.13-5.2h0c4.45,0,8.66,1.5,11.16,4.05,3.53,3.63,5.11,8.84,5.11,16.88v2.32ZM270.04,272.82c-4.31,0-7.75-2.03-8.97-5.28-.77-1.94-.92-3.15-.92-8.64v-28.78c0-5.04-.14-8.13-.51-11.6l10.31-2.34h0c.37,2.11.53,4.62.53,10.02v30.06c0,6.62.08,7.53.66,8.59.38.66,1.22,1.05,2.04,1.05.38,0,.6,0,1.12-.14l1.73,6.03c-1.73.67-3.83,1.05-6.01,1.05ZM279.4,171.69c-1-.52-1.81-.75-2.94-.75-2.27,0-4.32,1.05-6.18,3.23v27.27h-10.11v-25.77c0-5.19-.6-9.11-1.43-11.29l9.04-2.43h0c.91,1.59,1.43,3.34,1.59,5.5,1.44-1.95,3.83-4.06,5.73-4.9.83-.36,2.18-.61,3.3-.61,1.51,0,2.19.15,3.77.83l-2.77,8.89Z"/>
    <path class="st0" d="M123.51,108.17c0-2.86-.31-4.37-1.21-5.79-.98-1.5-2.41-2.27-4.44-2.27h0c-3.84,0-6.04,3.03-6.04,8.37v.14h11.68v-.45Z"/>
  </g>
</svg>