<?xml version="1.0" encoding="UTF-8"?>
<svg id="Layer_1" xmlns="http://www.w3.org/2000/svg" xmlns:x="ns_extend;" version="1.1" viewBox="0 0 2159.85 520.55">
  <!-- Generator: Adobe Illustrator 29.8.2, SVG Export Plug-In . SVG Version: 2.1.1 Build 3)  -->
  <defs>
    <style>
      .st0 {
        fill: #fff;
      }
    </style>
  </defs>
  <path class="st0" d="M1014.71,332.84c0,106.75-70.77,186.51-173.32,186.51-61.17,0-105.55-27.59-131.34-72.57l-1.2,53.37c0,6.6-3,10.2-9.6,10.2h-41.98c-6.6,0-10.2-3.6-10.2-10.2V10.2c0-6.6,3.6-10.2,10.2-10.2h45.58c6.6,0,10.2,3.6,10.2,10.2v204.5c25.79-41.98,69.57-68.37,128.34-68.37,102.55.6,173.32,80.96,173.32,186.51h0ZM951.14,332.84c0-74.36-50.98-125.94-121.14-125.94s-118.14,51.58-118.14,126.54,48.58,125.34,118.14,125.34,121.14-50.38,121.14-125.94Z"/>
  <path class="st0" d="M1419.52,165.52v334.64c0,6.6-3.6,10.2-10.2,10.2h-41.98c-6.6,0-9.6-3.6-9.6-10.2l-1.2-53.37c-25.19,44.98-70.17,72.57-131.34,72.57-101.95,0-173.32-79.76-173.32-186.51s70.77-185.91,173.32-185.91c60.57,0,105.55,28.19,131.34,73.16l1.2-54.57c0-6.6,3-10.2,9.6-10.2h41.98c6.6,0,10.2,3.6,10.2,10.2ZM1355.35,334.04c0-75.56-48.58-126.54-118.14-126.54s-121.14,51.58-121.14,125.94,50.98,125.94,121.14,125.94,118.14-50.38,118.14-125.34Z"/>
  <path class="st0" d="M1794.94,291.46v208.7c0,6.6-3.6,10.2-10.2,10.2h-45.58c-6.6,0-9.6-3.6-9.6-10.2v-196.11c0-59.37-34.18-97.15-88.76-97.15s-98.35,37.78-98.35,97.15v196.71c0,6.6-3,10.2-9.6,10.2h-45.58c-6.6,0-10.2-3.6-10.2-10.2V165.52c0-6.6,3.6-10.2,10.2-10.2h42.58c7.2,0,10.2,3,10.2,10.79l2.4,44.98c20.39-35.98,60.57-64.77,117.54-64.77,76.76.6,134.93,52.17,134.93,145.13Z"/>
  <path class="st0" d="M2150.57,510.35h-48.58c-6,0-9.6-1.2-13.19-6.6l-118.74-153.53-56.37,62.37v87.56c0,6.6-3.6,10.2-10.2,10.2h-45.58c-6.6,0-10.2-3.6-10.2-10.2V10.2c0-6.6,3.6-10.2,10.2-10.2h45.58c6.6,0,10.2,3.6,10.2,10.2v321.45l152.93-170.32c3.6-4.2,7.2-6,12.59-6h55.17c7.8,0,9.6,6,4.2,11.39l-127.74,139.73,146.33,191.31c5.4,7.2,2.4,12.59-6.6,12.59"/>
  <path class="st0" d="M590.12,163.12v193.11c0,93.56-71.97,164.32-167.92,164.32s-168.52-70.77-168.52-164.32v-193.11c0-4.8,2.4-7.8,7.2-7.8h51.58c4.8,0,7.2,3,7.2,7.8v184.71c1.2,62.37,46.18,110.95,101.95,110.95s101.35-50.98,101.35-113.95v-181.71c0-4.8,2.4-7.8,7.2-7.8h51.58c5.4.6,8.4,3,8.4,7.8"/>
  <path class="st0" d="M76.76,301.06C34.78,301.06,0,266.87,0,224.29s34.78-76.76,76.76-76.76,76.76,34.78,76.76,76.76-34.18,76.76-76.76,76.76Z"/>
  <path class="st0" d="M76.76,520.55c-41.98,0-76.76-34.78-76.76-76.76s34.78-76.76,76.76-76.76,77.36,34.18,77.36,76.76-34.78,76.76-77.36,76.76Z"/>
</svg>