<?xml version="1.0" encoding="UTF-8"?>
<svg id="Layer_1" xmlns="http://www.w3.org/2000/svg" xmlns:svg="http://www.w3.org/2000/svg" xmlns:sodipodi="http://sodipodi.sourceforge.net/DTD/sodipodi-0.dtd" xmlns:inkscape="http://www.inkscape.org/namespaces/inkscape" version="1.1" viewBox="0 0 925.26 1000">
  <!-- Generator: Adobe Illustrator 29.8.2, SVG Export Plug-In . SVG Version: 2.1.1 Build 3)  -->
  <defs>
    <style>
      .st0 {
        fill: #fff;
      }

      .st1 {
        fill: #dd0332;
      }
    </style>
  </defs>
  <sodipodi:namedview id="namedview57" bordercolor="#111111" borderopacity="1" inkscape:current-layer="Layer_1" inkscape:cx="486.72517" inkscape:cy="568.04245" inkscape:deskcolor="#d1d1d1" inkscape:pagecheckerboard="1" inkscape:pageopacity="0" inkscape:showpageshadow="0" inkscape:window-height="705" inkscape:window-maximized="1" inkscape:window-width="1366" inkscape:window-x="-8" inkscape:window-y="-8" inkscape:zoom="0.42426407" pagecolor="#ffffff" showgrid="false"/>
  <path id="path1067" class="st0" d="M436.76,591.76c-56.96,0-97.6,33.44-97.6,83.99v.8c0,55.33,36.23,70.84,92.4,85.22,46.61,11.99,56.18,19.87,56.18,35.42v.83c0,16.34-15.16,26.31-40.25,26.31-31.85,0-58.14-13.23-83.24-33.9l-36.27,43.41c33.48,29.92,76.09,44.64,118.32,44.65,60.18,0,102.37-31.09,102.37-86.42v-.83c0-48.58-31.87-68.93-88.44-83.61-48.22-12.4-60.14-18.36-60.14-36.68v-.83c0-13.45,12.33-24.22,35.85-24.22s47.74,10.29,72.5,27.46l31.87-46.19c-28.28-22.72-62.96-35.42-103.56-35.42h0ZM36.83,597.64v274.43h61.64v-174.93l148.87,174.93h63.7v-274.43h-61.62v175.34l-149.32-175.34h-63.27ZM550.4,597.64l71.41,274.38h63.45l41.9-173.52,42.6,173.52h62.34l.59-2.29,71.87-272.08h-63.58l-40.84,175.72-42.91-175.72h-59.05l-43.64,173.78-39.62-173.78h-64.53,0ZM74.09,912.08c-25.61,0-43.8,20.13-43.8,43.91v.26c0,24.76,17.49,43.75,44.06,43.75,15.03,0,27.07-6.12,35.44-13.3v-35.68h-36.18v13.01h21.71v15.86c-5.26,3.87-12.49,6.48-20.54,6.48-17.34,0-28.85-12.92-28.85-30.37v-.26c0-16.27,11.9-29.92,27.54-29.92,10.79,0,17.23,3.5,23.82,9.14l9.49-11.38c-8.77-7.37-17.84-11.49-32.68-11.49h0ZM163.29,912.08c-26.02,0-44.5,19.98-44.5,43.91v.26c0,23.89,18.19,43.75,44.28,43.73,26.11,0,44.54-20.1,44.54-43.99v-.26c0-23.85-18.21-43.65-44.32-43.65h0ZM206.54,913.51l35.33,85.59h13.1l35.33-85.59h-16.17l-25.45,65.3-25.61-65.3h-16.53,0ZM300.32,913.51v84.97h63.64v-13.34h-48.71v-22.82h42.62v-13.32h-42.62v-22.1h48.06v-13.4h-62.99ZM378.43,913.51v84.97h14.88v-29.57h18.73l20.86,29.57h17.62l-22.96-32.09c11.92-3.44,20.28-11.82,20.28-25.81v-.26c0-7.37-2.52-13.66-7.01-18.32-5.46-5.24-13.84-8.49-24.52-8.49h-37.88ZM461,913.51v84.97h14.64v-60.44l46.84,60.44h12.53v-84.97h-14.67v58.73l-45.52-58.73h-13.82ZM550.14,913.51v84.97h14.71v-60.7l26.57,39.84h.46l26.85-40.08v60.94h14.9v-84.97h-15.9l-25.85,40.23-25.85-40.23h-15.89ZM647.9,913.51v84.97h63.6v-13.34h-48.69v-22.82h42.6v-13.32h-42.6v-22.1h48.02v-13.4h-62.94.01ZM726.16,913.51v84.97h14.71v-60.44l46.85,60.44h12.51v-84.97h-14.71v58.73l-45.54-58.73h-13.82ZM812.04,913.58v13.81h26.93v71.1h15.04v-71.1h26.92v-13.81h-68.89,0ZM163.09,925.81c16.84,0,28.89,13.66,28.89,30.18v.26c0,16.53-11.75,30-28.65,30s-28.83-13.73-28.83-30.26v-.26c0-16.43,11.73-29.92,28.59-29.92ZM393.35,927.13h21.72c11.05,0,17.62,4.96,17.62,14.03v.28c0,8.6-6.81,14.25-17.49,14.25h-21.85v-28.55h0Z"/>
  <path id="path28" class="st1" d="M462.72,0c-2.09,0-4.26,1.65-6.44,4.96-.07.06-1.81,2.63-4.7,7.4-4.33,7.27-8.51,14.36-12.7,21.67-9.4,16.6-23.61,43.45-38.27,76.83-10.05,22.84-19.21,46.54-27.2,70.56,28.16,28.15,65.91,72.06,91.06,125.32,19.39-41.75,48.93-83.33,87.79-123.71-26.52-80.48-63.71-146.1-78.57-170.67-3.16-4.92-4.79-7.55-4.79-7.55C465.92.35,463.4,0,462.72,0h0ZM319.75,20.91c-4.63,0-8.01,2.78-10.1,8.25-.07.2-.13.44-.28.81-3.39,10.57-12.03,38.94-19.54,77.07,26.61,16.03,50.02,32.01,71.36,48.87,9.49-26.63,21.17-54.18,34.68-81.98-14.16-11.71-28.2-22.58-41.75-32.29-16.6-11.95-27.39-18.52-27.48-18.62l-.07-.04-.05-.05c-1.57-1.11-3.15-1.72-4.63-1.89h-.17c-.65-.11-1.32-.15-1.96-.15v.02ZM605.49,20.91c-.63,0-1.3.06-1.94.15h-.15c-1.54.17-3.07.78-4.66,1.89l-.09.05-.07.04c-.11.09-10.86,6.66-27.46,18.62-9.22,6.57-23.83,17.49-41.75,32.29,13.01,27,24.65,54.55,34.64,82,21.41-16.84,44.78-32.87,71.41-48.91-7.49-38.14-16.17-66.51-19.56-77.07-.15-.37-.22-.61-.28-.81-2.05-5.44-5.44-8.24-10.09-8.24h0ZM183.57,76.74c-5.76.22-9.16,3.55-10.42,10.31,0,0-1.41,9.97-2.94,26.98-1.44,15.56-3.22,40.21-3.22,69.54,0,66.03,8.66,159.9,49.74,231.89,31.59,54.85,76.13,85.81,125.87,87.44-19.39-14.84-42.45-39.45-54.72-77.67-11.55-36.33-17.43-79.22-17.43-127.52,0-66.71,11.16-123.87,14.62-139.88.06-.39.11-.65.15-.79,1.98-9.25,7.35-16.67,14.51-20.43-50.69-32.55-94.34-51.68-102.74-55.29-5.05-2.31-7.81-3.3-7.81-3.33h-.09l-.06-.04c-1.85-.78-3.66-1.2-5.46-1.2h0ZM741.43,76.74c-1.09,0-2.94.26-5.24,1.19l-.06.05h-.05s-2.79,1.02-7.75,3.29c-4.85,1.96-11.22,5-19.39,8.81l-2.85,1.33c-25.04,12.14-49.43,25.67-72.46,40.21-2.66,1.5-5.24,3.11-7.81,4.85,7.09,3.57,12.6,11.12,14.58,20.43.06.26.11.52.19.95,3.4,15.95,14.42,73.15,14.42,139.82,0,48.06-5.74,90.95-17.04,127.52-12.08,38.36-34.6,62.88-53.54,77.61,48.96-2.35,92.9-33.16,124.06-87.44,41.12-71.93,49.74-165.79,49.74-231.81,0-23.39-1.04-46.87-3.16-69.76-1.57-16.8-2.96-26.81-2.96-26.93-1.22-6.57-4.7-9.9-10.66-10.12h-.02ZM310.42,153.91c-3.07,0-4.89,4.05-5.88,7.46-.13.65-.87,4.33-2.13,10.62-.96,4.76-2.89,15.01-4.96,29.48-3.26,22.61-7.14,57.61-7.14,96.25,0,46.78,5.53,87.64,16.38,121.43,20.41,64.51,79.72,93.51,115.31,93.51h.39c7.48,0,14.08-1.15,19.6-3.54,2.92-1.17,5.72-2.67,8.85-4.87-2.63-3.48-4.96-7.42-7.07-11.86-6.96-14.43-10.4-31.99-10.64-53.66.22-26.76,5.83-58.11,16.67-93.1.91-3.24,2.03-6.51,3.14-9.64.43-1.26.87-2.54,1.33-3.79-37.86-94.02-124.8-164.9-134.62-172.71-3.09-2.54-4.7-3.72-4.7-3.76-1.74-1.18-3.28-1.81-4.52-1.81h-.01ZM615.65,153.91c-1.26,0-2.7.59-4.28,1.83-.04.02-1.57,1.18-4.42,3.68-2.92,2.29-7.05,5.83-12.73,10.9-7.59,6.77-23.08,21.08-41.12,40.93-28.63,31.83-66.56,82.03-84.55,140.16-10.36,33.86-15.55,63.25-15.38,87.23-.2,17.93,2.65,33.16,8.46,45.21,5.53,11.71,13.93,20.06,25.76,25.52,5,2.18,11.25,3.28,18.75,3.28h.35c34.68,0,92.58-28.92,112.51-93.3,10.75-34.68,16.17-75.59,16.17-121.65,0-57.16-8.25-106.98-11.88-125.74-1.35-6.9-2.13-10.7-2.13-10.7-.91-3.26-2.57-7.35-5.51-7.35h0ZM79.89,199.39c-14.42,0-22.76.43-22.85.43-5.68.37-10.92,3.48-14.36,8.59-2.04,3.02-3.09,6.81-2.91,10.53,1,9.92,7.61,45.86,50.48,99.96,21.98-10.9,43.82-20.48,64.92-28.55-4.37-26.98-6.98-56.39-7.7-87.57-26.26-2.42-46.93-3.18-59.81-3.33-2.76-.06-5.37-.06-7.77-.06ZM845.33,199.39c-2.42,0-5.01,0-7.77.04-12.81.15-33.51.91-59.74,3.33-.72,30.02-3.39,59.48-7.77,87.57,21.15,8.03,42.91,17.65,64.94,28.55,42.97-54.28,49.57-90.21,50.54-100.02.33-3.35-1.52-8.46-2.92-10.46-3.48-5.11-8.72-8.22-14.4-8.59-.09,0-8.59-.43-22.87-.43h0ZM158.81,310.39c-68.84,26.09-124.26,62.32-145.06,76.81-4.16,3.05-6.51,4.61-6.61,4.66-4.37,3.18-7.14,8.9-7.14,14.82,0,3.59,1.02,6.96,3.02,10.05.17.19.3.39.37.52.43.44.85.96,1.33,1.55.26.31.52.63.83.96,1.39,1.54,4.63,4.98,9.77,9.18,8.59,7.38,24.04,18.47,48.87,29.68,51.41,23.26,122.63,38.01,206.61,42.69-27.81-16.71-52.22-42.8-71.13-75.96-18.36-32.12-32.09-70.73-40.86-114.97h0ZM766.46,310.39c-8.79,44.23-22.52,82.9-40.84,114.97-19.12,33.55-43.01,58.99-71.17,75.8,204.11-11.1,261.74-76.74,267.73-84.35h.04c2.04-3.09,3.04-6.53,3.04-10.12,0-5.94-2.74-11.66-7.24-14.88,0,0-2.41-1.63-6.68-4.55l-.04-.06-.09-.05c-3.18-2.39-7.87-5.52-13.82-9.35-1.54-1.02-3.18-2.13-4.88-3.22-14.64-9.4-38.1-23.63-66.91-38.01-19.91-10.05-39.75-18.86-59.12-26.19h-.02ZM184.29,516.09c-14.1,0-16.8,3.89-17.69,12.49-.43,4.48,1.11,8.71,4.57,12.51,10.33,11.49,36.66,18.54,68.65,18.54,30.31,0,52.13-5.5,75.26-11.38,24.52-6.14,49.93-12.66,87.14-12.58,10.25,0,21.21.5,32.46,1.48.52,0,.94.07,1.37.07,1.5,0,3.26-.33,3.39-1.22.13-1.05-.91-2.54-2.39-2.96-28.44-7.92-60.79-8.96-85.79-8.96-12.01,0-24.02.3-34.59.46l-1.02.04c-11.16.3-21.63.54-31.77.54-16.56,0-29.05-.72-39.29-2.17-3.89-.5-7.64-1.09-11.18-1.52-23.28-3.2-38.71-5.35-49.13-5.35h0ZM740.87,516.09c-10.42,0-25.93,2.15-49.37,5.4-3.44.43-7.09.94-10.88,1.44-10.27,1.44-22.74,2.16-39.27,2.16-10.16,0-20.65-.26-31.81-.54l-.96-.04c-10.6-.19-22.59-.46-34.64-.46-25.02,0-57.35,1.06-85.85,8.96-1.41.43-2.42,1.92-2.28,2.96.11.91,1.85,1.22,3.35,1.22.41,0,.89-.07,1.31-.07,11.31-.98,22.26-1.48,32.57-1.48,37.16,0,62.58,6.44,87.16,12.58,23.06,5.88,44.91,11.38,75.19,11.38,32.33,0,57.96-6.87,68.49-18.43,3.52-3.9,5.13-8.12,4.74-12.62-.85-8.59-3.59-12.47-17.75-12.47h0Z"/>
</svg>