<?xml version="1.0" encoding="UTF-8"?>
<svg id="Layer_1" xmlns="http://www.w3.org/2000/svg" version="1.1" viewBox="0 0 131.72 66.03">
  <!-- Generator: Adobe Illustrator 29.8.2, SVG Export Plug-In . SVG Version: 2.1.1 Build 3)  -->
  <defs>
    <style>
      .st0 {
        fill: #fff;
      }
    </style>
  </defs>
  <path class="st0" d="M5.7,63.18h-3.27l-.39.9c-.13.3-.19.55-.19.74,0,.26.1.45.31.57.12.07.43.13.91.16v.25H0v-.25c.33-.05.6-.19.82-.41.21-.23.48-.7.79-1.4l3.31-7.38h.13l3.34,7.58c.32.72.58,1.17.79,1.36.15.14.37.22.65.25v.25h-4.47v-.25h.18c.36,0,.61-.05.76-.15.1-.07.15-.18.15-.31,0-.08-.01-.16-.04-.25,0-.04-.08-.21-.2-.51l-.49-1.15ZM5.47,62.67l-1.38-3.18-1.42,3.18h2.8Z"/>
  <path class="st0" d="M15.49,59.44v4.99c0,.48.04.79.13.91.09.12.27.19.55.22v.25h-2.6v-.85c-.31.36-.61.63-.92.8-.31.16-.65.24-1.02.24-.36,0-.68-.11-.96-.33-.28-.22-.46-.48-.56-.78-.1-.29-.14-.81-.14-1.55v-2.53c0-.48-.05-.78-.14-.9-.09-.12-.27-.2-.55-.23v-.25h2.6v4.36c0,.46.02.75.07.88.05.13.11.23.2.3.1.07.2.1.33.1.16,0,.31-.04.44-.13.18-.12.4-.36.66-.72v-3.41c0-.48-.05-.78-.14-.9-.09-.12-.27-.2-.55-.23v-.25h2.6Z"/>
  <path class="st0" d="M20.64,59.26l.1,2.18h-.23c-.28-.65-.57-1.09-.87-1.32-.3-.24-.59-.35-.89-.35-.19,0-.35.06-.48.19-.13.12-.2.27-.2.43,0,.12.04.24.14.35.14.18.55.51,1.22.96.67.45,1.1.83,1.32,1.15.21.31.32.67.32,1.06,0,.36-.09.7-.27,1.05-.18.34-.43.6-.75.78-.32.18-.68.27-1.07.27-.3,0-.71-.1-1.22-.29-.14-.05-.23-.08-.28-.08-.15,0-.28.11-.38.34h-.22l-.11-2.29h.23c.2.6.48,1.05.84,1.35.36.3.7.45,1.02.45.22,0,.4-.07.53-.2.14-.14.21-.3.21-.49,0-.22-.07-.41-.2-.57-.14-.16-.44-.4-.91-.72-.7-.48-1.15-.85-1.35-1.1-.3-.37-.45-.78-.45-1.23,0-.49.17-.93.5-1.33.34-.4.83-.6,1.47-.6.35,0,.68.08,1,.25.12.07.23.1.3.1.08,0,.15-.02.2-.05.05-.04.13-.14.24-.29h.23Z"/>
  <path class="st0" d="M24.01,57.1v2.33h1.51v.67h-1.51v3.93c0,.37.01.61.05.72.04.11.1.19.18.26.09.06.17.1.24.1.3,0,.57-.22.84-.68l.2.15c-.37.87-.96,1.31-1.79,1.31-.4,0-.75-.11-1.03-.34-.28-.23-.46-.48-.53-.76-.05-.15-.07-.57-.07-1.26v-3.44h-.83v-.24c.57-.41,1.06-.83,1.46-1.28.41-.45.76-.94,1.06-1.49h.23Z"/>
  <path class="st0" d="M28.64,59.44v1.45c.42-.66.79-1.1,1.11-1.31.32-.22.62-.33.92-.33.25,0,.46.08.61.24.16.15.23.38.23.66,0,.31-.08.54-.22.71-.15.17-.32.25-.53.25-.24,0-.45-.08-.63-.23-.18-.16-.28-.24-.31-.26-.05-.03-.1-.04-.16-.04-.13,0-.26.05-.38.15-.19.15-.33.38-.42.66-.14.44-.22.93-.22,1.46v1.85c0,.26.02.43.05.5.05.12.13.21.24.27.11.05.29.09.54.1v.25h-3.44v-.25c.28-.02.46-.1.56-.22.1-.13.15-.47.15-1.03v-3.53c0-.36-.02-.59-.05-.7-.04-.13-.11-.22-.2-.28-.09-.06-.24-.1-.46-.12v-.25h2.61Z"/>
  <path class="st0" d="M35.01,64.87c-.78.69-1.48,1.03-2.09,1.03-.36,0-.67-.12-.91-.35-.24-.24-.36-.54-.36-.9,0-.49.21-.92.63-1.31.42-.39,1.33-.91,2.73-1.56v-.64c0-.48-.03-.79-.08-.91-.05-.13-.15-.24-.29-.33-.15-.1-.31-.14-.49-.14-.3,0-.54.07-.73.2-.12.08-.18.18-.18.29,0,.1.06.21.19.36.17.2.26.38.26.57,0,.22-.09.41-.25.57-.16.15-.38.23-.65.23-.29,0-.53-.08-.72-.26-.19-.17-.29-.38-.29-.61,0-.33.13-.64.39-.93.26-.3.62-.53,1.09-.69.46-.16.95-.24,1.45-.24.6,0,1.08.13,1.43.39.35.26.58.53.69.83.06.19.1.63.1,1.32v2.48c0,.29.01.48.04.55.02.07.06.12.1.16.05.04.1.05.16.05.12,0,.24-.08.36-.25l.2.16c-.23.34-.46.58-.71.74-.24.15-.51.22-.82.22-.36,0-.65-.08-.85-.25-.21-.17-.33-.43-.38-.78M35.01,64.37v-2.13c-.55.32-.96.67-1.23,1.04-.18.24-.27.49-.27.74,0,.21.08.39.23.55.11.12.27.18.48.18.23,0,.49-.13.79-.38"/>
  <path class="st0" d="M40.55,56.56v7.93c0,.45.05.74.16.86.11.12.31.19.61.21v.25h-3.44v-.25c.28,0,.49-.09.63-.24.09-.11.14-.38.14-.83v-6.6c0-.45-.05-.73-.16-.85-.1-.13-.31-.2-.61-.22v-.25h2.67Z"/>
  <path class="st0" d="M43.47,56.35c.3,0,.55.1.75.32.21.2.31.45.31.74s-.11.54-.31.74c-.2.2-.45.31-.74.31s-.54-.1-.74-.31c-.2-.2-.31-.45-.31-.74s.1-.54.31-.74c.2-.21.45-.32.74-.32M44.43,59.44v5.05c0,.45.05.74.16.86.1.12.31.19.61.21v.25h-3.44v-.25c.28,0,.49-.09.63-.24.09-.1.14-.38.14-.83v-3.72c0-.45-.05-.73-.16-.86-.11-.13-.31-.2-.61-.22v-.25h2.67Z"/>
  <path class="st0" d="M48.92,64.87c-.78.69-1.48,1.03-2.09,1.03-.36,0-.67-.12-.91-.35-.24-.24-.36-.54-.36-.9,0-.49.21-.92.63-1.31.42-.39,1.33-.91,2.74-1.56v-.64c0-.48-.03-.79-.08-.91-.05-.13-.15-.24-.29-.33-.15-.1-.31-.14-.49-.14-.3,0-.54.07-.73.2-.12.08-.18.18-.18.29,0,.1.06.21.19.36.17.2.26.38.26.57,0,.22-.08.41-.25.57-.16.15-.38.23-.65.23-.29,0-.53-.08-.72-.26-.19-.17-.29-.38-.29-.61,0-.33.13-.64.39-.93.26-.3.62-.53,1.09-.69.46-.16.95-.24,1.45-.24.61,0,1.08.13,1.43.39.35.26.58.53.69.83.06.19.1.63.1,1.32v2.48c0,.29.01.48.04.55.02.07.06.12.1.16.04.04.1.05.16.05.12,0,.24-.08.36-.25l.21.16c-.23.34-.46.58-.71.74-.24.15-.52.22-.83.22-.36,0-.65-.08-.85-.25-.2-.17-.33-.43-.37-.78M48.92,64.37v-2.13c-.55.32-.96.67-1.23,1.04-.18.24-.27.49-.27.74,0,.21.07.39.22.55.11.12.27.18.48.18.23,0,.49-.13.79-.38"/>
  <path class="st0" d="M54.43,59.44v.83c.33-.35.64-.61.94-.77.3-.16.62-.25.97-.25.41,0,.76.11,1.03.35.27.23.45.51.55.85.07.26.11.76.11,1.49v2.48c0,.49.04.8.13.92.09.12.28.19.56.22v.25h-3.22v-.25c.24-.03.41-.13.52-.3.07-.11.11-.39.11-.84v-2.84c0-.52-.02-.85-.07-.99-.04-.14-.11-.24-.21-.31-.1-.08-.2-.12-.32-.12-.39,0-.75.28-1.09.84v3.42c0,.48.04.78.13.91.09.13.26.21.5.24v.25h-3.23v-.25c.27-.03.46-.11.57-.26.08-.1.12-.39.12-.89v-3.6c0-.48-.05-.78-.14-.9-.09-.12-.27-.2-.55-.23v-.25h2.6Z"/>
  <path class="st0" d="M71.27,56.35v3.26h-.25c-.3-.89-.76-1.57-1.37-2.03-.61-.46-1.28-.7-2-.7s-1.27.2-1.73.59c-.46.39-.78.93-.97,1.62-.19.7-.29,1.41-.29,2.14,0,.89.1,1.67.31,2.33.21.67.55,1.16,1.01,1.47.47.31,1.02.47,1.66.47.22,0,.45-.02.68-.07.24-.05.48-.12.72-.21v-1.92c0-.36-.02-.6-.08-.7-.05-.11-.15-.21-.31-.29-.15-.09-.34-.13-.57-.13h-.24v-.25h4.49v.25c-.34.02-.58.07-.72.14-.13.07-.23.18-.31.35-.04.09-.06.3-.06.64v1.92c-.59.26-1.21.46-1.85.59-.64.14-1.3.2-1.98.2-.88,0-1.61-.12-2.19-.35-.58-.24-1.09-.55-1.53-.94-.44-.39-.79-.83-1.04-1.32-.32-.63-.48-1.33-.48-2.11,0-1.39.49-2.57,1.46-3.53.98-.96,2.21-1.44,3.69-1.44.46,0,.87.03,1.24.11.2.04.52.14.97.31.45.17.72.25.8.25.13,0,.25-.04.35-.14.11-.1.21-.27.3-.53h.25Z"/>
  <path class="st0" d="M75.7,59.25c.55,0,1.07.14,1.55.43.48.29.84.69,1.08,1.22.25.53.38,1.11.38,1.73,0,.91-.23,1.66-.69,2.27-.55.74-1.32,1.1-2.3,1.1s-1.7-.33-2.21-1.01c-.52-.67-.78-1.45-.78-2.34s.26-1.71.79-2.39c.53-.68,1.26-1.02,2.18-1.02M75.72,59.73c-.23,0-.43.09-.6.27-.16.17-.27.52-.33,1.03-.05.52-.08,1.23-.08,2.15,0,.49.03.94.1,1.36.05.32.16.57.32.74.16.17.35.25.56.25s.38-.06.51-.17c.18-.15.29-.37.35-.65.09-.43.14-1.3.14-2.62,0-.77-.04-1.3-.13-1.59-.09-.29-.21-.5-.38-.63-.12-.1-.27-.14-.46-.14"/>
  <path class="st0" d="M81.71,66l-2.15-4.94c-.26-.6-.46-.97-.61-1.13-.1-.12-.26-.2-.46-.24v-.25h3.39v.25c-.21,0-.36.04-.44.11-.11.1-.16.22-.16.35,0,.17.1.48.3.95l1.05,2.39.84-2.07c.24-.59.36-1.01.36-1.26,0-.14-.05-.25-.16-.34-.1-.09-.28-.14-.54-.15v-.25h2.09v.25c-.2.03-.36.1-.49.22-.13.12-.32.48-.57,1.08l-2.13,5.01h-.32Z"/>
  <path class="st0" d="M90.24,62.39h-3.5c.04.85.26,1.51.68,2.01.31.38.69.57,1.13.57.27,0,.52-.07.74-.22.22-.16.46-.43.72-.83l.23.15c-.35.71-.73,1.21-1.14,1.5-.42.29-.9.44-1.45.44-.94,0-1.66-.36-2.15-1.09-.39-.59-.59-1.32-.59-2.18,0-1.06.29-1.91.86-2.54.58-.63,1.25-.95,2.02-.95.65,0,1.2.27,1.68.8.48.53.73,1.31.77,2.35M88.56,61.94c0-.73-.04-1.23-.12-1.51-.08-.27-.2-.48-.37-.62-.09-.08-.23-.12-.38-.12-.24,0-.43.12-.58.35-.27.4-.4.96-.4,1.66v.24h1.85Z"/>
  <path class="st0" d="M93.27,59.44v1.45c.43-.66.79-1.1,1.11-1.31.32-.22.62-.33.92-.33.25,0,.46.08.61.24.15.15.23.38.23.66,0,.31-.08.54-.22.71-.15.17-.32.25-.53.25-.24,0-.45-.08-.63-.23-.18-.16-.28-.24-.31-.26-.05-.03-.1-.04-.16-.04-.13,0-.26.05-.38.15-.19.15-.33.38-.42.66-.15.44-.22.93-.22,1.46v1.85c0,.26.02.43.05.5.05.12.13.21.24.27.11.05.29.09.55.1v.25h-3.45v-.25c.28-.02.46-.1.56-.22.1-.13.15-.47.15-1.03v-3.53c0-.36-.02-.59-.06-.7-.04-.13-.11-.22-.2-.28-.09-.06-.24-.1-.46-.12v-.25h2.61Z"/>
  <path class="st0" d="M99.14,59.44v.83c.33-.35.64-.61.94-.77.3-.16.62-.25.97-.25.41,0,.76.11,1.03.35.27.23.45.51.54.85.08.26.11.76.11,1.49v2.48c0,.49.04.8.13.92.09.12.28.19.56.22v.25h-3.23v-.25c.24-.03.41-.13.52-.3.07-.11.11-.39.11-.84v-2.84c0-.52-.02-.85-.06-.99-.04-.14-.11-.24-.21-.31-.1-.08-.2-.12-.32-.12-.39,0-.75.28-1.09.84v3.42c0,.48.04.78.13.91.09.13.26.21.5.24v.25h-3.23v-.25c.27-.03.46-.11.57-.26.08-.1.12-.39.12-.89v-3.6c0-.48-.05-.78-.14-.9-.09-.12-.27-.2-.55-.23v-.25h2.6Z"/>
  <path class="st0" d="M106.53,59.44v.84c.35-.38.67-.65.97-.8.3-.16.63-.23.98-.23.41,0,.75.09,1.03.28.28.19.49.48.64.87.36-.41.71-.71,1.04-.89.34-.18.69-.27,1.05-.27.44,0,.79.1,1.05.31.26.2.45.46.54.77.1.31.16.8.16,1.49v2.61c0,.49.04.79.13.91.09.12.28.2.56.23v.25h-3.29v-.25c.26-.02.45-.12.58-.3.08-.12.12-.4.12-.84v-2.74c0-.57-.02-.93-.07-1.08-.05-.16-.12-.27-.22-.34-.1-.08-.21-.12-.34-.12-.2,0-.39.07-.59.22-.2.14-.4.35-.61.64v3.42c0,.46.04.75.12.87.1.17.3.26.6.28v.25h-3.3v-.25c.18,0,.32-.05.42-.13.1-.08.17-.18.21-.29.04-.11.05-.36.05-.73v-2.74c0-.58-.02-.94-.07-1.08-.05-.15-.12-.26-.23-.34-.11-.08-.22-.12-.34-.12-.18,0-.35.05-.5.15-.21.14-.44.38-.68.72v3.42c0,.45.04.75.13.89.09.14.28.22.56.25v.25h-3.29v-.25c.27-.03.46-.11.57-.26.08-.1.12-.39.12-.89v-3.6c0-.48-.05-.78-.14-.9-.09-.12-.27-.2-.55-.23v-.25h2.6Z"/>
  <path class="st0" d="M120.36,62.39h-3.5c.04.85.26,1.51.67,2.01.31.38.69.57,1.13.57.27,0,.52-.07.74-.22.22-.16.46-.43.72-.83l.23.15c-.35.71-.73,1.21-1.15,1.5-.42.29-.9.44-1.45.44-.95,0-1.66-.36-2.15-1.09-.39-.59-.59-1.32-.59-2.18,0-1.06.29-1.91.86-2.54.58-.63,1.25-.95,2.03-.95.65,0,1.2.27,1.68.8.48.53.74,1.31.77,2.35M118.69,61.94c0-.73-.04-1.23-.12-1.51-.08-.27-.2-.48-.37-.62-.09-.08-.22-.12-.38-.12-.24,0-.43.12-.58.35-.27.4-.4.96-.4,1.66v.24h1.86Z"/>
  <path class="st0" d="M123.21,59.44v.83c.33-.35.64-.61.94-.77.3-.16.62-.25.97-.25.41,0,.76.11,1.03.35.27.23.45.51.54.85.08.26.11.76.11,1.49v2.48c0,.49.04.8.13.92.09.12.28.19.56.22v.25h-3.23v-.25c.24-.03.41-.13.52-.3.07-.11.11-.39.11-.84v-2.84c0-.52-.02-.85-.06-.99-.04-.14-.11-.24-.21-.31-.09-.08-.2-.12-.32-.12-.39,0-.76.28-1.09.84v3.42c0,.48.04.78.13.91.09.13.26.21.5.24v.25h-3.23v-.25c.27-.03.46-.11.58-.26.08-.1.11-.39.11-.89v-3.6c0-.48-.05-.78-.14-.9-.09-.12-.27-.2-.55-.23v-.25h2.6Z"/>
  <path class="st0" d="M130.2,57.1v2.33h1.51v.67h-1.51v3.93c0,.37.02.61.05.72.04.11.1.19.18.26.09.06.17.1.24.1.3,0,.58-.22.84-.68l.2.15c-.37.87-.97,1.31-1.79,1.31-.4,0-.75-.11-1.03-.34-.28-.23-.46-.48-.53-.76-.04-.15-.07-.57-.07-1.26v-3.44h-.83v-.24c.57-.41,1.06-.83,1.46-1.28.4-.45.76-.94,1.06-1.49h.23Z"/>
  <path class="st0" d="M54.8,40.07c-.05.08-.1.14-.18.18"/>
  <path class="st0" d="M56.39,27.58c.19,0,.33-.15.33-.33s-.15-.34-.33-.34-.33.15-.33.34.15.33.33.33"/>
  <path class="st0" d="M71.87,13.48h0s-12.03,0-12.03,0h0s0,0,0,0v9.72c.01.94.41,1.76.96,2.01l4.63,2.76c.1.12.25.19.42.19.15,0,.28-.06.38-.15l4.7-2.81c.55-.25.95-1.07.95-2.01v-9.72s0,0,0,0ZM63.83,16.29h-1.04v-2.49h1.04v2.49ZM63.08,17.16l.15-.15-.09-.17.2.02.12-.21.11.2.2-.02-.09.17.15.15-.19.04v.21l-.18-.13-.18.13v-.21l-.19-.04ZM60.17,17.89h1.27v2.36h-1.27v-2.36ZM60.38,16.83l.19.02.12-.21.12.2.2-.02-.09.17.15.15-.19.04v.21l-.18-.13-.18.13v-.21l-.19-.04.15-.15-.09-.17ZM61.81,19.23l.2.02.12-.2.11.2.2-.02-.09.17.15.15-.19.04v.21l-.18-.14-.18.14v-.21l-.19-.04.15-.15-.09-.17ZM62.65,17.34c-.01-.06-.09-.08-.13-.08-.11,0-.16.18-.25.19-.07,0-.12.01-.12-.07,0-.06.14-.11.2-.17-.78,0-.79.36-.92.36-.21,0,.17-.38.28-.48-.16-.03-.25-.22-.42-.32.08-.12.13-.07.23.02,0-.08.06-.18.24-.18.35,0,.25.34.31.34.05,0,0-.34.23-.34.35,0,.78.89.39.89-.17,0-.03-.13-.03-.15M61.75,14.74l.15-.16-.09-.17.2.02.12-.2.11.2.2-.02-.09.17.15.16-.19.04v.21l-.18-.13-.18.13v-.21l-.19-.04ZM61.44,16.29h-1.27v-2.49h1.27v2.49ZM63.83,26.64l-2.88-1.72c-.48-.33-.72-.91-.78-1.6v-2.73h3.66v6.06ZM62.79,17.89h1.04v2.36h-1.04v-2.36ZM67.54,26.83l-1.33.79h-.02c-.1.08-.22.12-.35.12s-.26-.05-.36-.13l-1.32-.79v-6.25h3.38v6.25ZM67.54,20.25h-3.38v-6.45h3.38v6.45ZM71.53,23.32c-.06.7-.3,1.28-.78,1.6l-2.88,1.72v-6.06h3.66v2.73ZM71.53,20.25h-3.66v-6.45h3.66v6.45Z"/>
  <path class="st0" d="M63.64,22.81s-.46.15-.33.14c.01-.13.26-.4.36-.49-.02-.15-.22-.01-.42.09.69-.98.25-.58-.14-.51.61-.66.45-.65,0-.44.35-.28.43-.62.38-.71-.33.44-.64.37-.64.78,0,.27-.1.71-.24.86-.18.19-.04-.72-.51-.72-.15,0-.5-.01-.61.17.1,0,.24.24.24.34s.09.37-.07.37-.35-.34-.35-.5-.01-.12-.01-.36c0-.39-.63-.93-.89-.93,0,.27.35.33.35.68-.15,0-.36-.28-.36-.11s.22.21.22.36-.26-.05-.26.11c0,.14.14.12.18.26-.11-.03-.2-.02-.22.04-.02.04.03.11.11.15-.04.03-.07.11-.07.34,0,.77.48,1.12.83,1.12.25,0,.21-.18.24-.26.01.13.13-.06.13.16s-.24.13-.24.34c0,.27.38,0,.38.29,0,.37-.05.36-.05.5,0,.1.4-.14.38-.18.1.04.09.32.27.31.12,0,.14-.29.23-.32-.05.01.36.27.36.14,0-.36-.15-.21-.15-.45,0-.23.5-.18.42-.3-.07-.1-.11-.04-.16-.2,0,.03-.39-.57.08-.26.5.32.55-.76.53-.81"/>
  <path class="st0" d="M76.47,25.35c.22,0,.4-.16.4-.35s-.18-.35-.4-.35-.4.15-.4.35.18.35.4.35"/>
  <path class="st0" d="M74.87,26.3c.22,0,.39-.16.39-.35s-.18-.35-.39-.35-.4.16-.4.35.18.35.4.35"/>
  <path class="st0" d="M55.86,28.49c.22,0,.4-.16.4-.35s-.18-.35-.4-.35-.4.16-.4.35.18.35.4.35"/>
  <path class="st0" d="M57.09,28.6c.22,0,.4-.16.4-.35s-.18-.35-.4-.35-.4.15-.4.35.18.35.4.35"/>
  <path class="st0" d="M91.32,12.01c.59.7.71,1.82.29,2.62-.23-.02-.19-.32-.23-.49-.42-.78-.76-1.77-.38-2.66.27.04.17.38.32.53"/>
  <path class="st0" d="M41.09,12.96c-.13.51-.13,1.2,0,1.67-.11.11-.09-.1-.19-.08-.82-.59-.44-1.75-.65-2.58.04-.06.14-.08.21-.04.38.25.54.61.63,1.03"/>
  <path class="st0" d="M93.13,13.02c.12.23-.11.46-.27.57-.19.04-.4-.07-.53-.23-.06-.23.06-.44.25-.55.21-.02.42.02.55.21"/>
  <path class="st0" d="M39.81,13.95c-.04.19-.1.38-.27.46-.12,0-.32,0-.4-.1-.13-.11-.15-.3-.08-.45.08-.15.25-.17.4-.19.15.06.29.11.36.27"/>
  <path class="st0" d="M93.95,14.31c.04.12.04.21,0,.34-.15.19-.36.27-.57.19-.15-.08-.19-.23-.23-.36.04-.17.21-.32.36-.38.19,0,.31.11.44.21"/>
  <path class="st0" d="M92.75,14.33c.17.08.04.3.02.42-.11.1-.25.27-.44.21-.1-.11-.23-.11-.27-.25,0-.21.08-.42.29-.49.17-.04.27.04.4.1"/>
  <path class="st0" d="M91.22,14.65c0,.23.02.53-.25.57-.25.09-.42-.13-.48-.3-.02-.21.1-.42.31-.51.17,0,.32.11.42.23"/>
  <path class="st0" d="M42.1,14.75c.06.21-.15.34-.27.44-.15.04-.34-.08-.42-.23-.15-.15.04-.27.08-.4.21-.19.52-.04.61.19"/>
  <path class="st0" d="M40.84,14.82c0,.17-.08.34-.23.4-.17.06-.33-.06-.42-.19-.1-.21.02-.4.19-.48.23-.09.38.13.46.28"/>
  <path class="st0" d="M86.14,14.9c.21.44.38.97.42,1.52-.08.4.06.93-.23,1.21-.29-.11-.31-.47-.5-.66-.38-.74-.04-1.61.08-2.33.17-.06.17.15.23.25"/>
  <path class="st0" d="M39.85,15.15c.06.25-.12.38-.27.53-.25.06-.42-.13-.53-.3-.02-.21.11-.42.28-.51.21-.02.42.08.52.27"/>
  <path class="st0" d="M89.46,15.77c.27.61.29,1.35.1,2.03l-.13.11c-.29-.57-.71-1.1-.86-1.71,0-.45.08-.85.25-1.21.15-.1.23.02.29.15.02.23.12.51.34.63"/>
  <path class="st0" d="M92.1,15.39c-.02.21-.1.44-.31.51-.21.04-.42-.02-.48-.25-.06-.21.06-.4.23-.51.23-.13.46.09.57.25"/>
  <path class="st0" d="M40.86,16.04c0,.17-.15.36-.31.4-.17.13-.29-.08-.44-.15-.06-.17-.1-.32,0-.48.07-.13.21-.13.34-.17.19.11.38.19.42.4"/>
  <path class="st0" d="M41.78,15.94c.08.21-.15.32-.23.42-.25.08-.38-.11-.48-.25-.04-.21.09-.34.23-.46.25-.06.38.1.48.3"/>
  <path class="st0" d="M92.69,15.87c-.02.28-.44.55-.48.83-.23.57-.74.99-1.3,1.18-.12.11-.3.25-.48.27-.04-.42.34-.8.57-1.18.44-.57,1.05-.93,1.7-1.1"/>
  <path class="st0" d="M40.44,16.76c.32.36.48.68.86.99.02.09-.04.21-.15.21-1.03-.06-1.72-1.12-2.23-1.86.06-.23.34-.04.48-.06.35.28.76.36,1.03.72"/>
  <path class="st0" d="M92.98,17.06c-.04.91-.48,1.84-1.3,2.28-.23.09-.48.32-.71.17.44-.91,1.11-1.65,1.85-2.45h.17Z"/>
  <path class="st0" d="M88.95,17.67c.06.32-.11.51-.36.61-.23.02-.38-.17-.48-.34-.02-.21.11-.4.3-.46.06-.06.17-.06.25-.06.13.04.19.15.29.25"/>
  <path class="st0" d="M39.29,17.86c.4.28.76.66,1.13.99-.27.19-.61.02-.92.02-.71-.25-1.2-.87-1.93-1.08.02-.23.29-.15.44-.21.46-.04.84.17,1.28.27"/>
  <path class="st0" d="M61.76,11.6c-1.18-.46-1.95.76-3.15.61-.15.08-.1.23-.19.34-.06.06-.17.02-.23-.02-.06-.51-.23-.97-.29-1.46-.12-.21-.06-.51-.17-.72-.67-1.84,1.64-.44,2.1-1.52.4-.93-.77-1.04-1.13-1.69v-.28c-.34-.34-.69-.44-.9-.89.15-.53.21-1.1.06-1.63-.02-.13-.1-.29-.29-.23-.4.55-.69.99-1.07,1.52-.4-.3-.78-.68-1.24-.93-.32-.04-.61-.36-.96-.23-.06.13,0,.23.06.32.02.83.44,1.48,1.03,2.07l.07.32c-.38.87-.27,1.86-.38,2.79-.94,2.41-2.48,4.73-4.55,6.4-1.2,1.35-2.62,2.66-2.81,4.52-.06.3.04.66-.19.87-.69-.26-1.39-.59-1.95-1.04-.96-.68-2.35-.59-2.98-1.82-.25-.49.07-.97.3-1.33.71-.68.61-1.88.23-2.71-.08-.02-.11.09-.17.11-.06,1.25-1.05,2.11-.67,3.49.08.4.29.66.4,1.04-.15-.04-.36-.04-.48-.11-.46-.06-.92-.25-1.4-.19-.96.44-2.29-.11-3.07.78-.13.02-.29.04-.25.23.46,0,.9.13,1.36.11.73.13,1.22-.49,1.72-.76h.13c.21-.21.57-.09.84-.13,1.32.15,2.35.78,3.44,1.44v.08c-.42.19-.9.32-1.32.55-.48.36-1.03.82-1.17,1.42-.34.53.1.99.32,1.44.02.21.04.46.23.55.67-.72.04-1.61.15-2.43.17-.63.76-.93,1.36-1.1,1.2-.51,2.06.46,3.02,1.01-.02.97.11,1.9-.1,2.85-.3.11-.67.17-.99.15-1.66.13-2.96,1.04-4.45,1.54-.67.23-1.47.21-2.14.46.52.15,1.07-.04,1.62-.06,2.05-.3,3.63-1.88,5.85-1.61l.04.06c-.25.53-.59.97-.99,1.37-.06-.23-.08-.42-.29-.55-.17-.08-.36,0-.48.17-.06.11-.06.23,0,.32.11.19.27.23.46.29-.04.19-.28.28-.4.44-.59.99-1.78.59-2.48,1.29-.11.15-.48.23-.32.46.79.09,1.57-.13,2.16-.55.78-.87,1.6-1.69,2.37-2.52.12.68-.06,1.37-.46,1.92-.19-.11-.34-.25-.57-.32-.21.04-.36.25-.38.42.08.15.17.32.31.42-.71.51-1.61.55-2.43.78-1.53.19-3.02.32-4.58.34-.73-.04-1.57.21-2.27,0-.8.15-1.66-.1-2.31.34-.09.11.02.21.02.32.97.64,2.29.13,3.38.32h8.27c.61-.02,1.22-.04,1.7-.32,1.07-.61,1.66-1.71,2.2-2.79.21-.38.36-.82.44-1.27.21-.72.86-1.23,1.57-1.29.11,1.1-.11,2.2-.36,3.21-.13.68-.57,1.33-.3,2.05.06.34.42.34.69.38,2.54-.04,5.08-.15,7.76.04.48.08.9.23,1.43.21.04-.06.19-.08.12-.21-.06-.23-.23-.53-.5-.59-.04-.13-.23-.08-.29-.17-1.34-.76-2.96-.36-4.53-.34-.82.08-1.64.23-2.33-.23-.32-.38-.08-1.59-.08-1.59,0-.48,1.15-3.8,1.3-4.08.04-.32.17-.61.13-.97.17-.42.13-.97.13-1.44.08-.68.42-1.31.65-1.97.13-.32.23-.66.36-.97.12-.4.17-.78.42-1.1.68.43,1.35.42,1.68,1.2l.29,1.76c0,.11.09.32.23.19.55-.36.38-1.16.38-1.71.12-.66-.33-.97-.52-1.54-.15-.1-.39-.61-.39-.61-.08-.47-1.1-.79-.87-1.36.13-.48.25-.93.71-1.2.07.05.1.1.1.15l.25-.17.02-1.77c.68,0,1.7.09,2.39.09.19.06.33.21.54.23l.17-.23,1.7-.33c-.72.08-1.16-.75-1.85-.75"/>
  <path class="st0" d="M63.61,12.35c.05,0,.1-.01.16-.03l-.16.03Z"/>
  <path class="st0" d="M45.33,18.24c.02.25-.13.4-.32.49-.17-.06-.29-.08-.4-.25-.09-.23.12-.4.29-.49.17.04.38.07.42.25"/>
  <path class="st0" d="M43.97,18.24c.12.13.14.34.08.49-.15.13-.38.23-.5.07-.13-.13-.25-.28-.15-.44.15-.15.4-.27.57-.11"/>
  <path class="st0" d="M73.17,18.47s.01.02.02.03"/>
  <path class="st0" d="M89.16,18.83c.08.23-.11.4-.27.49-.21-.06-.48-.1-.48-.38.02-.17.17-.27.31-.32.19-.06.36.09.44.21"/>
  <path class="st0" d="M90.27,18.79c.06.11.21.28.04.38-.08.06-.15.08-.21.17-.23.04-.44-.04-.5-.25-.04-.23.15-.34.32-.44.15-.04.25.06.36.15"/>
  <path class="st0" d="M38.7,19.04c-.08.25-.29.36-.56.28-.07-.07-.13-.17-.17-.28.02-.15.06-.29.23-.36.25.02.44.13.5.36"/>
  <path class="st0" d="M45.77,19.4c-.02.17-.21.32-.36.4-.21.02-.36-.15-.46-.29,0-.17.08-.38.25-.42.23-.09.48.08.57.32"/>
  <path class="st0" d="M44.53,19.25c.06.07.12.23.06.34-.13.1-.32.29-.53.17-.13-.11-.27-.19-.23-.4.08-.08.19-.21.31-.25.17-.04.25.06.38.15"/>
  <path class="st0" d="M93.48,19.51c0,.17-.17.34-.27.4-.17.06-.36.02-.46-.11-.12-.04-.08-.21-.08-.32.11-.15.25-.23.4-.27.19.04.32.17.42.29"/>
  <path class="st0" d="M94.83,19.7c-.06.19-.21.36-.4.38-.13-.02-.36-.06-.32-.26,0-.15.08-.29.19-.34.21-.11.46,0,.53.21"/>
  <path class="st0" d="M41.09,20c.04.25-.04.42-.25.51-.15.08-.3-.02-.4-.1-.1-.11-.19-.28-.1-.42.04-.19.23-.15.36-.23.19.02.29.11.4.25"/>
  <path class="st0" d="M42.12,20.18c.06.17-.12.23-.17.36-.1.06-.25.13-.38.04-.15-.13-.31-.32-.17-.51.17-.32.61-.15.71.1"/>
  <path class="st0" d="M92.25,20.08c.02.21-.17.36-.29.49-.19.04-.38-.08-.42-.25-.02-.17.08-.3.23-.4.19-.02.38,0,.48.17"/>
  <path class="st0" d="M93.97,20.42c-.05.19-.02.4-.23.53-.17.04-.38.02-.5-.09-.13-.1-.15-.29-.09-.44.1-.17.29-.29.51-.25.15.09.19.19.31.25"/>
  <path class="st0" d="M40.29,20.86c.08.17-.11.21-.17.3-.15.08-.29.02-.42-.04-.15-.08-.08-.29-.06-.4.19-.36.57-.11.65.15"/>
  <path class="st0" d="M92.65,21.26c.08.02.04.15.02.19-.5.25-1.26.32-1.7-.08-.25-.21-.57-.29-.84-.47.11-.27.48-.25.76-.32.61.08,1.09.65,1.76.68"/>
  <path class="st0" d="M41.3,21.07c.04.17-.08.23-.12.36-.08.13-.25.08-.36.04-.19-.13-.28-.36-.15-.53.23-.23.5-.11.63.13"/>
  <path class="st0" d="M43.15,21.2c.08.19-.04.36-.21.46-.15.09-.27-.04-.4-.06-.11-.15-.29-.32-.11-.49.19-.32.57-.15.72.09"/>
  <path class="st0" d="M67.4,22.09c-.04.42-.74-.06-.64.5.1.4.18.88.42,1.18.2.28.1.72.08,1.07-.18.3-.48.52-.8.68-.6-.06-1.48.3-1.76-.44-.12-.32-.34-.64-.34-1,.06-.04.14-.04.2-.1,0-.14-.16-.22-.14-.36.68-.12-.28-.72.3-.76.48.5,1.26.34,1.67.88.1.08.18.2.3.26-.08-.5-.32-1-.4-1.54-.06-.28.04-.54.24-.7.36-.28.66.12.86.34"/>
  <path class="st0" d="M44.99,21.96c.06.21-.11.34-.23.44-.19.08-.29-.12-.38-.23-.06-.21.08-.32.21-.42.14,0,.31.06.4.21"/>
  <path class="st0" d="M57.94,22.17c.25.83.17,1.67-.25,2.37-.02.17.04.44-.19.42-.57-.78-.15-1.88.09-2.71.04-.21.29-.3.36-.08"/>
  <path class="st0" d="M75.9,22.57c.29.59.32,1.37.04,1.97l-.17.17c-.23-.49-.42-.97-.48-1.5.1-.38.23-.72.25-1.12.29-.06.27.32.36.48"/>
  <path class="st0" d="M46.63,22.81c-.13.25-.48.32-.72.49-.5.38-1.24.47-1.87.36.55-.76,1.38-1.2,2.39-.99.04.08.15.04.19.15"/>
  <path class="st0" d="M38,23.57c.78.55.99,1.31,1.45,2.07.07.09.28.11.19.28-.17.13-.34-.13-.57-.09-.8-.36-1.3-1.25-1.28-2.18,0-.09.12-.09.21-.09"/>
  <path class="st0" d="M75.08,24.22c.02.21-.02.42-.19.49-.23.06-.42-.06-.48-.26-.06-.15.06-.23.1-.34.17-.17.46-.08.57.1"/>
  <path class="st0" d="M83.94,25.34c0-.4.1-.78.15-1.16.06-.13.1-.28.08-.44.5-.68,1.53-.46,2.33-.4.32.17.71.15,1.05.23.15-.11.36-.13.53-.11.67-.36.23-1.14.27-1.76l-.25-.63c-.06-.13-.12-.28-.17-.42-.12-.15-.21-.42-.33-.57-.36-.93-1.05-1.46-1.64-2.2-1.07-1.39-2.75-2.18-4.43-2.73-1.66-.57-3.34.17-4.83.7-.46-.13-.69-.49-.82-.89-.08-.8.08-1.59.4-2.24.06-.53.42-.93.57-1.42.38-1.18.78-2.35.86-3.64.04-.78-.54-1.33-1.13-1.67-.4-.11-.86-.08-1.15.23-.27.57-.86.95-1.36,1.22-.04.36.4.13.55.25.46.09.98-.06,1.36.23.04.85-.44,1.54-.88,2.18-.71,1.06-1.47,2.13-1.91,3.3l-.08-.08.1,5.17c.67,1.11,1.51,2.38,2.75,2.8.67.55,1.51,1.2,2.41.72.48-.15.52.53.76.8.25.78-.32,1.33-.36,2.05l-.54,1.16c-.63,1.23-1.2,2.54-2.16,3.57-.32,0-.51.34-.82.36-.17.23-.5.06-.71.15-.65.27-1.57.1-2.01.72.04.06.1.08.17.11,1.28.02,2.71.1,4.07.04.17-.07.31-.21.33-.4-.19-.36.06-.68.23-.95.1-.51.44-.82.59-1.31.44-.87.94-1.71,1.43-2.58l.65-1.06c.15-.36.4-.8.65-1.18.17-.17.25-.36.38-.57.02-.21-.08-.3-.21-.45.15-.15.38-.1.57-.15.52.32,1.07.82,1.17,1.4l.19.55.08.25-.04.7.08.66c.11,1.01-.08,2.05-.19,3.07-.36,1.22-1.76,1.1-2.77,1.37-.25.17-.73.08-.73.51,1.21.25,2.64.11,3.94.08.21-.08.25-.27.36-.46.04-.28.32-.51.23-.8-.23-.29-.02-.76-.08-1.16.04-.11.04-.25,0-.4.17-.61.13-1.35.25-1.95l.08-.8Z"/>
  <path class="st0" d="M94.26,24.52c-.67.95-1.39,2.03-2.56,2.37-.08,0-.17.04-.21-.06.71-.76,1.09-1.95,2.2-2.22.17-.08.4-.17.57-.08"/>
  <path class="st0" d="M36.98,25.55c-.11.08-.02.27-.21.3-.17.09-.36-.02-.44-.19-.09-.21.11-.42.27-.47.17.09.34.15.38.36"/>
  <path class="st0" d="M43.02,25.85c.06.19-.15.19-.25.23-.88.32-1.78.02-2.41-.61,0-.08,0-.17.08-.19.86.21,1.87.04,2.58.57"/>
  <path class="st0" d="M38.13,25.57c.04.08.06.23.04.32-.13.19-.31.23-.52.19-.12-.06-.19-.15-.27-.27.02-.21.19-.34.36-.4.17.02.3.06.4.17"/>
  <path class="st0" d="M57.79,25.68c.04.19-.12.32-.25.4-.19.04-.36-.04-.44-.17-.06-.15,0-.36.15-.4.19-.04.48-.02.55.17"/>
  <path class="st0" d="M95.06,25.77c.06.21-.13.32-.27.44-.13.06-.27,0-.4-.06-.02-.1-.15-.19-.1-.34.08-.19.27-.28.48-.25.11.08.19.11.29.21"/>
  <path class="st0" d="M96.44,25.68c.12.19.02.34-.08.49-.08.15-.25.19-.38.13-.13-.13-.29-.19-.31-.38,0-.17.19-.3.31-.36.21-.09.29.13.46.13"/>
  <path class="st0" d="M36.1,26.29c.02.15-.11.23-.15.36-.11.04-.21.13-.34.08-.15-.06-.25-.19-.32-.34.04-.19.17-.36.38-.42.17.04.36.13.42.32"/>
  <path class="st0" d="M80.29,26.29c.04.08.02.19.02.27-.12.17-.29.32-.5.21-.13-.13-.28-.25-.21-.45.17-.23.52-.32.69-.04"/>
  <path class="st0" d="M39.47,26.61c-.04.15-.11.3-.29.32-.19.02-.25-.15-.36-.23,0-.19-.02-.38.17-.49.25-.08.48.13.48.4"/>
  <path class="st0" d="M37.46,26.65c.06.21-.08.36-.21.47-.25.08-.46-.11-.57-.3.02-.19.17-.42.38-.49.19,0,.29.21.4.32"/>
  <path class="st0" d="M81.67,26.61c.04.21-.02.42-.23.51-.25.08-.46-.13-.57-.3.11-.17.12-.4.38-.44.19,0,.32.08.42.23"/>
  <path class="st0" d="M38.45,26.69c.06.15-.06.21-.11.32-.1,0-.17.13-.3.08-.08-.1-.25-.15-.27-.3-.02-.21.13-.32.27-.4.21-.02.34.13.4.3"/>
  <path class="st0" d="M93.9,26.86c-.06.17-.19.25-.36.34-.17.04-.27-.11-.4-.17-.11-.08-.06-.27-.02-.38.21-.36.78-.19.78.21"/>
  <path class="st0" d="M95.5,26.95c-.06.23-.29.34-.5.36-.19-.09-.4-.23-.25-.49.08-.09.13-.17.25-.19.25-.09.44.1.5.32"/>
  <path class="st0" d="M85.53,27.1c.1.28-.15.36-.31.49-.15-.02-.27-.08-.4-.17-.04-.23.07-.44.3-.55.19,0,.29.09.42.23"/>
  <path class="st0" d="M79.76,27.35c.1.04.06.19.04.25-.13.08-.29.3-.48.17-.15-.09-.25-.21-.21-.4.11-.23.55-.25.65-.02"/>
  <path class="st0" d="M80.94,27.5c.02.17-.02.25-.17.34-.15.15-.32-.02-.46-.06-.04-.09-.08-.21-.02-.32.06-.08.17-.15.27-.17.15.04.32.04.38.21"/>
  <path class="st0" d="M45.33,27.52c.12.13-.02.27-.04.4-.1.13-.34.23-.52.1-.21-.08-.19-.36-.14-.53.12-.04.12-.19.29-.19.19.02.29.1.42.21"/>
  <path class="st0" d="M87.78,27.6c.04.21-.17.3-.31.34-.25.09-.38-.11-.48-.27,0-.13.12-.21.17-.32.3-.13.48.09.63.25"/>
  <path class="st0" d="M86.64,27.6c.08.21-.15.32-.23.42-.15.06-.34.04-.46-.09-.1-.06-.1-.19-.1-.32.12-.11.19-.23.34-.27.19,0,.38.11.46.25"/>
  <path class="st0" d="M96.11,27.86c.04.3-.34.15-.48.23-.88.53-2.02.13-2.85-.19.06-.28.38-.17.55-.28.9-.57,1.83.13,2.73.17l.07.06Z"/>
  <path class="st0" d="M38.68,27.6l-.08.15c-.77.47-1.78.78-2.71.49l-.08-.13c.77-.57,1.8-.72,2.81-.57l.06.06Z"/>
  <path class="st0" d="M89.92,27.75c0,.17-.08.32-.21.4-.21.06-.48,0-.55-.23-.06-.17.11-.34.27-.4.15,0,.4.02.48.23"/>
  <path class="st0" d="M42.43,27.84c-.08.17-.04.34-.25.42-.21.08-.46-.11-.52-.28-.06-.23.1-.29.21-.4.25-.13.44.06.57.25"/>
  <path class="st0" d="M40.94,27.94c.06.15-.06.23-.11.34-.1.13-.29.11-.42.06-.15-.13-.3-.28-.23-.51.13-.1.19-.17.34-.23.19.04.38.13.42.34"/>
  <path class="st0" d="M91.39,28.43c-.02.19-.17.34-.34.38-.17.02-.31-.11-.4-.21-.07-.13-.04-.29.08-.4.04-.06.19-.06.27-.11.19.02.34.17.38.34"/>
  <path class="st0" d="M39.39,28.2c.06.17-.09.23-.11.36-.06.36-.29.59-.46.91-.4.48-.96.48-1.53.64l-.08-.17c.61-.78,1.26-1.4,2.12-1.78l.06.04Z"/>
  <path class="st0" d="M90.34,28.66c.04.25-.17.3-.31.4-.19,0-.34-.11-.42-.25-.07-.23.15-.32.27-.42.21-.04.4.11.46.27"/>
  <path class="st0" d="M41.8,28.66s.02.08.06.1c-.02.23-.19.3-.32.4-.19,0-.33-.06-.46-.21-.09-.19,0-.42.21-.48.19-.02.44,0,.5.19"/>
  <path class="st0" d="M94.2,29.3c.21-.02.25-.28.48-.32.21-.04.4.08.5.23.09.25-.1.38-.27.49-.15.11-.46-.13-.44.15.15.11.27.25.29.42-.04.09-.19.06-.25.02-.61-.25-1.26-.68-1.51-1.31-.08-.19-.48-.34-.25-.51.61-.04,1.11.44,1.45.82"/>
  <path class="st0" d="M96.21,28.64c.1.11.06.3-.02.4-.1.21-.42.12-.61.11-.1-.11-.21-.21-.17-.38.08-.13.17-.21.32-.27.19-.04.34.04.48.15"/>
  <path class="st0" d="M88.6,29.78c.19.23.38.59.46.85-.04.06-.15.04-.19.04-.71-.4-1.64-.84-1.91-1.69-.06-.09-.23-.19-.21-.34.54-.1,1.07.3,1.45.59.15.21.31.32.4.55"/>
  <path class="st0" d="M40.63,28.98c.08.19-.08.34-.19.42-.23.04-.36-.04-.48-.17-.15-.23.12-.42.29-.51.17-.02.27.15.38.25"/>
  <path class="st0" d="M91.22,29.46c.02.13-.15.21-.21.3-.17.02-.34.09-.48-.06-.04-.11-.15-.28-.02-.38.23-.3.57-.06.71.15"/>
  <path class="st0" d="M96.44,29.76c.06.25-.12.42-.29.53-.21.06-.38-.09-.5-.19-.1-.13-.02-.25,0-.4.15-.13.34-.23.55-.15.08.06.17.1.25.21"/>
  <path class="st0" d="M81.92,32.68c0,.25-.46.19-.65.38-.65.34-1.43.34-2.2.32v-.13c.76-.63,1.85-.86,2.86-.57"/>
  <path class="st0" d="M51.31,33.58c-.02.19-.13.3-.32.36-.15,0-.29-.09-.36-.21-.09-.25.12-.36.27-.47.19.02.36.17.4.32"/>
  <path class="st0" d="M81.57,33.82c-.04.19-.11.4-.31.49-.19.04-.32-.06-.46-.15-.1-.09-.04-.23-.06-.34.15-.38.69-.38.84,0"/>
  <path class="st0" d="M85.74,33.9c-.52.34-1.11.74-1.81.74l-1.13-.02-.11-.08c.7-.84,1.95-.84,3.05-.76v.12Z"/>
  <path class="st0" d="M45.56,34.41c0,.19-.09.34-.27.4-.21.04-.36-.04-.44-.19-.08-.19,0-.38.17-.49.23-.15.46.11.55.27"/>
  <path class="st0" d="M46.61,34.62c.06.11-.04.17-.08.28-.13.06-.29.11-.4,0-.15-.09-.19-.23-.13-.36.06-.13.19-.1.25-.19.15.06.29.13.36.27"/>
  <path class="st0" d="M38.57,36.75c-.21.25-.55-.06-.78-.19-.74-.42-.71-1.25-1.45-1.73.08-.25.27.02.42-.02.12.09.29.17.44.23.71.4.88,1.08,1.37,1.71"/>
  <path class="st0" d="M99.74,28.55c-.34-.61-.9-.87-1.57-.87-.55.04-.95.4-1.18.87-.12.47.04.89.4,1.16.15.06.34.04.42-.1.11-.27-.19-.27-.23-.49-.08-.3.02-.55.23-.74.21-.21.57-.11.82-.11.25.17.5.32.63.61.12.36.12.76,0,1.12-.23.53-.76.95-1.3,1.06-1.74.25-20.86.17-20.86.17-2.25.21-4.8-.42-6.74.76-.88.42-1.32,1.39-1.55,2.26-.57.51-1.17,1.1-1.64,1.67l-.06-.06c.1-.51.34-.95.44-1.46.31-.42.31-.99.54-1.46.8-1.29,1.55-2.6,2.79-3.51.52-.7,1.45-.57,2.24-.57.86.4,1.87.53,2.92.42.04-.04.06-.08.06-.15-.3-.28-.77-.38-1.11-.65-.84-.4-1.64.13-2.52.06-.04-.04-.08-.06-.06-.13.8-.59,1.7-1.01,2.6-1.4.73-.4,1.51-.61,2.29-.91.32,0,.61-.28.9-.09l1.11-.3s.08.09.17.06c.95-.32,2.14-.02,3.21-.04l.15.13,1.01.25c.38.04.55.49.94.51.21-.3-.23-.42-.34-.61.46-.1.99.02,1.41.21l-.21.23c-.13.23.06.4.25.49.15.04.25-.06.36-.11.27-.19-.02-.38.06-.55,1.55.28,3.04.66,4.47,1.27.4.13.77.42,1.22.4-.44-.4-1.05-.61-1.6-.85-.36-.21-.86-.23-1.13-.53.06-.11.21-.06.27-.15.71-.08,1.32-.61,1.83-1.18.04-.13.27-.09.25-.25-.19-.21-.5.06-.76.04-.88.17-1.26,1.2-2.14,1.39-1.07-.25-2.16-.51-3.23-.78-.53-.08-1.09-.13-1.57-.34l-1.18-.1h-2.14s-.08-.06-.06-.13c.76-.19,1.41-.63,2.16-.83l5.62-2.58c.59-.53,1.11-1.12,1.59-1.73.02-.17-.08-.34-.23-.4-.15-.06-.31-.04-.42.08-.25.19,0,.42,0,.65-.25.34-.65.64-.96.83-.08-.02-5.79,2.6-5.79,2.6-.84.36-1.68.76-2.56.95l-1.21.19c-.09.25-.3.4-.53.49-.34.06-.61.27-.96.27-2.73,1.06-5.56,2.18-7.72,4.33.12-.26.19-.57.21-.89-.04-.32-.02-.68-.23-.93-.05-.12-.2-.46-.15-.58l-.31.2c-.19.46-.36,1.31-.17,1.8.06.38.38.83.09,1.16-1.01,1.23-1.58,2.7-2.25,4.1-.25-.04-.38-.27-.48-.51.71-.91,1.28-1.92,1.49-3.08.15-.11.04-.38.19-.51-.04-.34.19-.68.02-.95.13-.46-.61-.89-.14-1.18l-.39.19c-.9,1.18.47,2.96-.56,4.1v.08c-.29.38-.44.76-.84,1.02-.5-.21-.69-.78-.98-1.2-.46-.44-.46-1.35-.19-1.97.19-.61-.12-1.14-.19-1.69l-.21-.13c-.5.65-.69,1.69-.29,2.47.21.38.23.91.55,1.23.19.61.57,1.01.9,1.56.09.21-.12.25-.23.36-.23-.15-.19-.49-.4-.64-.69-1.48-1.59-2.66-2.68-3.87-.04-.19-.23-.36-.13-.57.4-.38.49-1.12.27-1.61-.04-.11-.17-.23-.15-.34l-.32-.25c.04.74-.44,1.39-.23,2.17v.04c-2.16-1.63-4.55-3.08-6.98-4.22l-.2.54c.62.16,2.25,1.15,2.25,1.15.73.28,1.41.72,2.1,1.12,2.85,1.58,4.74,4.2,6.02,7.12.02.23.23.49.09.72-.44-.68-1.07-1.06-1.59-1.6-.15-.99-.74-1.95-1.6-2.35-.31-.46-.99-.51-1.51-.66l-7.64-.04c-6.21-.09-11.88.19-18.04.08-.86-.08-1.91-.38-2.16-1.29-.17-.32-.17-.87,0-1.16.23-.4.65-.53,1.07-.57.34.04.57.36.71.59,0,.27-.23.53-.34.76.02.09.11.26.25.19.27-.1.48-.4.55-.68.02-.15.08-.36-.07-.47-.12-.44-.59-.76-.98-.87-.53-.04-1.07.1-1.43.48-.5.42-.48,1.18-.34,1.78.34.93,1.32,1.57,2.27,1.69l20.42.08c1.99.11,4.24-.23,6.25.17.73.23,1.51.78,1.7,1.61-.02.04-.08.02-.15.02-1.66-1.08-3.84-1.48-5.96-1.22-.84-.04-1.59.27-2.35.49-.4.09-.78-.11-1.03-.34-.75-.68-2.07-.63-3.04-.38,0,.06-.02.13.02.15,1.03-.08,1.64.8,2.56.91.21.04.38-.19.56-.02-.96.46-1.89,1.01-2.91,1.31-.32-.06-.48-.36-.74-.53-.4-.44-1.13-.25-1.68-.29-.19.04-.36-.08-.48,0,.17.34.54.53.9.7.53.23,1.13-.02,1.62.3-.13.15-.29.19-.44.3-.98.38-1.8,1.27-2.89,1.2-1.15.13-2.33-.21-3.11-1.01-.34-.82-1.2-1.27-2.12-1.23-.06.04-.15.04-.13.15.46.27.82.82,1.28,1.14.29.36.86,0,1.13.4.4.27.9.51,1.36.59.34.15.71.21,1.09.29l-.14.09c-1.91.63-4.11.7-6.25.61-.63-.02-1.24-.21-1.87-.19.11.13.32.23.5.3-.17.1-.36.15-.57.17-.25.06-.54.09-.8.21-.34-.02-.63.11-.9.21-.36.38-.78.78-1.2.97,0,.09-.02.21.08.21.4-.17.9-.04,1.3-.21.69-.06,1.09-.83,1.64-1.14.59-.46,1.43-.36,2.14-.25.42.11-.04.28.08.55.17.15.32.32.55.25.04-.04.08-.08.15-.1.12-.17.1-.36.02-.53.29-.19.69.02,1.01-.11.8-.02,1.59-.19,2.37-.21.12-.02.27-.15.4-.02-.06.17-.27.19-.19.42.04.19.25.28.42.32.21-.08.4-.23.32-.51-.04-.15-.21-.17-.32-.23.44-.21.95-.28,1.39-.49.31-.06.61-.17.88-.3.27-.02.5-.27.75-.17-.1.36-.25.7-.44,1.01-.33,1.12-.59,2.6,0,3.68.06.02.08-.02.12-.04-.44-1.12-.19-2.41.19-3.47.29-1.8,2.14-2.32,3.46-3l.06.09c-.36.93-.88,1.82-.8,2.94.04.19-.08.38,0,.51.36-.19.59-.61.78-.97.15-.95-.4-2.13.57-2.83,1.72-.68,3.34-1.56,5.33-1.59.07.06.21-.04.23.08-.42.47-1.03.91-1.22,1.48-.67.93-.65,2.51-.36,3.66.19.65-.38,1.02-.65,1.52-.13.18-.17.49-.29.69l.41.05c.36-.38.69-.85.71-1.4.04.21.23.38.4.42.14-.23-.13-.4-.15-.64.34-.19.48.23.76.32.44.11.82.29,1.28.29l.15-.15c-.46-.72-1.38-.85-2.18-.89-.42-.7-.42-1.56-.38-2.41.08-.44.17-.91.42-1.31.11-.3.4-.57.59-.8.38-.36.86-.61,1.32-.72h.06s.02.06.02.06c-.57.44-.63,1.06-.96,1.61-.36.53-.52,1.25-.19,1.84.12.28.06.7.35.89.27-.38.3-.87.44-1.29-.06-.7-.48-1.35-.08-2.03.21-.53.65-.74,1.13-.93,1.15-.1,2.16.49,3.17.93.21.15.57.28.61.57-.02.57-.33,1.14-.78,1.42-.57.34-1.38.38-1.91-.02-.31-.32-.44-.87-.34-1.29.23-.25.55-.47.92-.34.21.11.4.32.67.19.11-.06.15-.23.08-.34-.23-.12-.31-.44-.63-.48-.4-.06-.88-.04-1.15.23-.44.38-.61.95-.48,1.48.15.68.65,1.16,1.3,1.35.96.23,1.98-.07,2.58-.89.25-.28.32-.57.46-.91,1.01.61,1.76,1.69,2.16,2.79,0,.36.11.74.02,1.06l.73.06c-.06-.17,0-.36.06-.51.27-1.39,1.13-2.56,2.16-3.47.36-.21.27.27.36.42.32.8,1.05,1.37,1.83,1.61.88.15,1.72-.07,2.27-.74.27-.51.61-1.25.14-1.77-.29-.36-.69-.55-1.15-.55-.55,0-.88.38-1.15.78,0,.17-.02.36.12.44.08,0,.25.02.32-.1.04-.32.31-.47.57-.64.23-.13.48,0,.67.13.23.19.27.51.29.82-.04.4-.31.83-.69.99-.61.32-1.49.17-2.01-.19-.25-.28-.4-.59-.59-.93-.04-.34-.17-.63,0-.97.92-.55,1.89-.95,3-1.06.44.08.82.38,1.11.7.96.99-.21,2.41.46,3.51.25-.04.25-.38.36-.59.32-.76-.08-1.59-.27-2.32-.25-.47-.4-.87-.8-1.25.11-.04.15-.04.25-.04.44.29.92.63,1.28,1.1.61.99.92,2.17.82,3.46-.17.63-.84.93-1.36,1.16-.21.17-.46.42-.57.68.25.15.61,0,.86-.11.4-.15.63-.66.9-.89.04.02.02.08.04.13.02.23-.1.55.11.61.1-.29.13-.72.19-1.08.27.29.32.68.4,1.06.19.38.5.89,1.01.95.13-.19-.02-.38-.06-.55-.06-.53-.5-.8-.8-1.18-.74-1.01-.4-2.6-.97-3.74-.21-.61-.65-1.06-1.13-1.56l.08-.09c1.03-.02,1.89.32,2.83.51,1.15.57,2.83.44,3.38,1.94.23.84.61,1.63,1.2,2.28l.06-.04c.12-.21.12-.57,0-.78-.13-1.05-1.05-1.31-1.53-2.2l.07-.09c.5.15,1.03.28,1.53.49,1.68.47,2.85,2.11,3.06,3.83,0,1.35-.25,2.47-.78,3.61-.07.17-.36.36-.17.51.23-.17.27-.44.4-.63.69-1.16,1.05-2.77.69-4.25-.02-.28-.34-.49-.19-.76.11.13.23.15.36.19.13-.08.32-.08.4-.23.02-.13.11-.28,0-.38-.13-.19-.4-.19-.61-.15-.11.13-.23.3-.25.47-.21-.36-.42-.82-.76-1.12l.04-.06c.95.32,1.8.78,2.77,1.03.21.13.44.23.74.23.82.32,1.72.44,2.58.66.63-.06,1.15.23,1.78.09v-.04l-.02.02c-.23-.3-.74-.02-1.01-.23-1.45-.15-2.83-.53-4.13-1.04.02-.06.11-.04.17-.04.21-.1.35-.29.33-.53-.11-.15-.27-.23-.48-.23-.13.06-.29.21-.32.36.02.17.17.36.32.4-.04.04-.13.02-.19.02-.65-.3-1.28-.57-1.91-.87-.23-.04-.42-.23-.65-.28-.48-.23-.96-.46-1.45-.65-1.34-.7-2.83-1.08-4.26-1.58-.31-.09-.61-.17-.9-.26-.52-.15-1.05-.27-1.57-.42-1.79-.44-4.18-.48-5.73.49-.25-.09-.4.32-.52.06.44-1.16,1.72-1.54,2.87-1.59,8.42-.08,16.3-.15,24.59-.27.96,0,1.91-.34,2.41-1.2.35-.51.42-1.37.15-1.94M66.37,36.35c-.08.25-.25.46-.23.74l-.08.04c.06-.32-.25-.51-.17-.85-.17-.26-.17-.57-.31-.85-.19-.34.17-.49.31-.72.3.13.4.4.61.65.13.36-.15.63-.12.97"/>
  <path class="st0" d="M89.14,35.02c0,.06.13.08.08.19-.73.66-1.76.85-2.81.89-.08.02-.17.08-.27.06-.06-.04-.08-.11-.04-.15.76-.82,1.91-1.25,3.04-.99"/>
  <path class="st0" d="M85.76,35.36c.08.3-.11.47-.34.57-.23-.02-.36-.17-.46-.34-.06-.17.08-.25.15-.36.17-.17.56-.17.65.13"/>
  <path class="st0" d="M45.87,35.4c.04.15.02.34-.11.44-.08.11-.27.13-.38.11-.15-.02-.23-.19-.27-.32,0-.19.11-.3.27-.4.17,0,.36-.02.48.17"/>
  <path class="st0" d="M42.12,36.78v.15c-.5.11-.99-.02-1.36-.32-.3-.42-.63-.85-1.11-1.06,0-.06-.12-.15,0-.19,1.05,0,1.68.85,2.48,1.42"/>
  <path class="st0" d="M92.33,35.38c-.48.72-.9,1.61-1.76,1.92-.15,0-.27.21-.4.06.34-.8,1.05-1.67,1.87-2.01.08,0,.21-.02.29.02"/>
  <path class="st0" d="M47.09,35.63c.02.23-.15.27-.3.4-.17.02-.25-.11-.36-.23-.08-.21.11-.29.21-.4.17-.04.36.08.44.23"/>
  <path class="st0" d="M94.97,35.76c-.19.28-.11.68-.29.97-.42.49-.78,1.04-1.45,1.14-.11-.21.15-.42.25-.61.29-.63.71-1.35,1.39-1.63l.11.12Z"/>
  <path class="st0" d="M35.61,35.95c.06.15.13.3,0,.47-.12.11-.31.15-.48.08-.19-.11-.25-.34-.17-.51.13-.19.5-.3.65-.04"/>
  <path class="st0" d="M34.42,36.21c.02.1.08.19.06.3-.06.11-.17.23-.29.26-.23.04-.38-.09-.48-.28-.02-.19.04-.36.21-.44.19-.09.4.02.51.17"/>
  <path class="st0" d="M36.89,36.33c.04.17.09.46-.16.51-.3.13-.47-.08-.63-.25,0-.19.11-.34.25-.42.21-.02.4,0,.54.17"/>
  <path class="st0" d="M40.33,36.61c-.02.15.02.36-.15.4-.1.11-.29.06-.4.04-.04-.13-.27-.23-.15-.38.09-.11.17-.17.3-.23.13.06.31,0,.4.17"/>
  <path class="st0" d="M96.99,36.75c-.06.15-.15.34-.32.34-.19-.02-.38-.04-.48-.23-.08-.23.11-.36.27-.42.21,0,.48.09.53.32"/>
  <path class="st0" d="M93.15,36.86c.02.17-.17.3-.25.36-.29.12-.55-.09-.65-.32.04-.19.19-.32.36-.38.27-.02.42.13.55.34"/>
  <path class="st0" d="M95.75,36.82c0,.15-.08.3-.19.36-.17.06-.38.04-.5-.09-.19-.17-.04-.32.09-.44.19-.11.54-.09.61.17"/>
  <path class="st0" d="M35.07,37.18c.04.23-.04.44-.25.53-.19,0-.4-.1-.46-.3-.02-.19.04-.38.21-.44.21-.06.38.06.5.21"/>
  <path class="st0" d="M92.1,37.41c.06.23-.06.44-.29.55-.17.04-.27-.04-.4-.15-.08-.11-.19-.34-.02-.44.17-.32.59-.19.71.04"/>
  <path class="st0" d="M46.36,37.64c.08.23-.17.28-.23.4-.08.04-.25.06-.31-.02-.11-.13-.23-.26-.17-.45.11-.08.15-.17.27-.21.23-.06.32.15.44.27"/>
  <path class="st0" d="M96.61,37.79c.04.15-.08.21-.1.32-.13.11-.34.13-.48.09-.19-.11-.19-.28-.19-.47.12-.08.15-.19.29-.23.19,0,.42.08.48.3"/>
  <path class="st0" d="M95.31,37.85c.08.25-.15.38-.31.44-.08.02-.21-.04-.23.09.55.27.88.72,1.3,1.12v.17c-.76-.02-1.53-.21-2.08-.8-.14-.1-.4-.1-.57-.25.27-.27.77-.17,1.15-.19.27-.3-.32-.51.04-.76.13-.02.21-.15.38-.11.15.06.23.17.31.29"/>
  <path class="st0" d="M86.73,37.87c.04.11-.08.23-.1.34-.13.13-.32.15-.46.09-.11-.15-.28-.28-.21-.49.17-.32.71-.25.78.06"/>
  <path class="st0" d="M39.81,38.61c-.06.19-.15.32-.36.34-.17-.02-.32-.08-.38-.25-.02-.15.08-.23.1-.34.23-.19.65-.06.63.25"/>
  <path class="st0" d="M41.51,38.34c0,.3-.32.47-.42.76-.32.7-.88,1.33-1.68,1.4-.08-.19.27-.42.36-.61.34-.72,1.01-1.1,1.62-1.54h.13Z"/>
  <path class="st0" d="M86.22,38.64c.02.23-.19.4-.36.49-.19.06-.34-.09-.44-.17-.17-.17-.06-.34.02-.51.25-.25.61-.04.78.19"/>
  <path class="st0" d="M87.53,38.78c-.02.23-.17.4-.38.47-.04-.06-.15-.02-.21-.04-.15-.08-.27-.21-.27-.38.11-.11.15-.28.3-.3.19-.02.5,0,.57.25"/>
  <path class="st0" d="M44.76,38.76c.02.23-.15.36-.31.44-.19.02-.32-.1-.4-.25-.04-.19.15-.32.25-.42.25-.08.32.11.46.23"/>
  <path class="st0" d="M46.21,38.85c-.07.19-.19.32-.4.36-.15-.04-.31-.08-.38-.26-.02-.21.15-.32.29-.42.21,0,.44.09.49.32"/>
  <path class="st0" d="M92.04,40.33c.1.08.29.19.25.34-.34.15-.61-.23-.92-.29-.5-.51-.88-1.06-1.09-1.69.19-.19.4.04.57.11.48.4.94.93,1.2,1.54"/>
  <path class="st0" d="M92.81,38.85c.06.15.04.32-.04.46-.12.21-.4.17-.59.13-.11-.13-.29-.3-.17-.49.06-.17.25-.21.4-.27.15-.02.25.11.4.17"/>
  <path class="st0" d="M48.14,39.4c.02.17.06.42-.15.53-.19.04-.44-.02-.5-.25-.11-.25.12-.3.25-.42.17-.04.27.04.4.15"/>
  <path class="st0" d="M87.46,40.77c.29.42.5.95.54,1.5-.06.15.11.29-.02.4h-.08c-.95-.68-1.16-1.63-1.51-2.58-.09-.04-.11-.13-.09-.21.21-.19.36.19.57.25l.59.63Z"/>
  <path class="st0" d="M50.87,40.05s0,.04.02.04c-.84.59-2.01.95-2.98.38-.02-.06.02-.17.1-.19.61-.19,1.2-.49,1.85-.4l1.01.17Z"/>
  <path class="st0" d="M46.08,40.16c-.71.44-1.36,1.31-2.24,1.52-.17.06-.27.3-.48.17.38-1.14,1.62-1.75,2.73-1.86v.17Z"/>
  <path class="st0" d="M86.22,41.11c.06.17,0,.4-.17.44-.1.11-.31.11-.4,0-.19-.08-.19-.28-.19-.42.06-.15.21-.17.31-.23.19.04.34.04.44.21"/>
  <path class="st0" d="M84.48,41.21c-.12.3-.48.47-.76.55-.71.25-1.36-.08-1.99-.25.02-.17.23-.11.33-.21.69-.15,1.41-.3,2.14-.11.06-.04.21-.06.27.02"/>
  <path class="st0" d="M46.08,41.83c-.06.09-.08.28-.25.34-.15.06-.29,0-.42-.08-.04-.13-.19-.23-.08-.38.04-.15.21-.19.33-.23.21.02.38.15.42.36"/>
  <path class="st0" d="M47.32,42.02c-.06.12-.12.32-.29.4-.17.04-.29-.04-.42-.15-.06-.13-.13-.28-.06-.42.04-.11.19-.13.29-.19.21-.02.4.19.48.36"/>
  <path class="st0" d="M85.82,42.23c.02.17-.06.28-.15.4-.11.15-.32.17-.46.08-.15-.02-.19-.19-.25-.29-.12-.17.08-.28.15-.42.23-.19.61-.09.71.23"/>
  <path class="st0" d="M86.75,42.19c.02.11.09.21.04.3-.13.11-.21.38-.46.28-.12.04-.19-.13-.25-.17-.09-.21-.02-.53.25-.57.19-.06.31.1.42.17"/>
  <path class="st0" d="M46.57,42.8c.04.23-.04.44-.21.57-.23.04-.52.04-.61-.23-.02-.21,0-.49.25-.61.21-.02.46.02.57.27"/>
  <path class="st0" d="M47.76,42.71c-.04.59-.17,1.31-.75,1.65-.34.06-.67.38-1.01.17v-.11c.44-.63,1.24-1.12,1.76-1.71"/>
  <path class="st0" d="M82.53,43.2c.08.13-.06.23-.12.34-.13.15-.36.08-.5.02-.15-.06-.17-.28-.1-.42.04-.13.17-.19.27-.23.19-.02.36.15.46.29"/>
  <path class="st0" d="M49.86,44.17c.29.49.12,1.14.29,1.67-.36.04-.51-.36-.74-.57-.46-.64-.4-1.48-.61-2.22.04-.06.11-.06.15-.04.31.21.54.61.8.89-.04.15.12.15.1.27"/>
  <path class="st0" d="M83.58,43.37c0,.17-.19.21-.29.32-.15-.02-.27-.08-.4-.19-.07-.21.1-.27.21-.38.21-.09.42.02.48.25"/>
  <path class="st0" d="M86.08,45.25c0,.06-.02.19-.13.15h-.08c-.61-.55-1.22-1.16-1.13-2.01l.12-.02c.57.49,1.2,1.02,1.22,1.88"/>
  <path class="st0" d="M84.5,44.57c.02.17-.08.3-.19.4-.23.06-.59.04-.63-.27-.02-.21.21-.32.31-.42.25-.06.42.11.5.3"/>
  <path class="st0" d="M83.12,45.02c-.3.78-1.09,1.18-1.64,1.78-.1-.06-.06-.23-.04-.32.21-.8.84-1.59,1.62-1.9.34.04,0,.27.06.44"/>
  <path class="st0" d="M84.69,45.65c0,.19-.19.28-.29.38-.17-.02-.34-.07-.46-.24-.02-.21.15-.27.27-.38.21-.04.4.06.48.23"/>
  <path class="st0" d="M69.08,7.28c.29,0,.52.23.52.52s-.23.52-.52.52h-6.22c-.29,0-.52-.23-.52-.52s.23-.52.52-.52h6.22ZM64.68,8.19c.61,0,.03-.74-.29-.74h-.61c-.61,0-.03.74.29.74h.61ZM67.23,8.19c.61,0,.03-.74-.29-.74h-.61c-.61,0-.03.74.29.74h.61ZM69.11,7.45h-.23c-.61,0-.09.74.23.74.41,0,.43-.74,0-.74"/>
  <path class="st0" d="M68.53,14.42l1.19.46,1.17-.46-.46,1.75.92-.19-.32,1.06.32,1.02-.82-.22.36,1.89-1.17-.46-1.19.46.49-1.89-.95.27.25-1.06-.25-1.02.91.15-.44-1.75ZM70.29,17.58c.27,0,.29-.37.29-.68,0-.72-.57,0-.86-.68-.21.57-.8.04-.8.66,0,.42,0,.71.42.71h.95ZM69.12,16.93c0,.28.37.09.64.09s.64.18.64-.09c0-.39-.37-.25-.64-.25s-.64-.14-.64.25"/>
  <polygon class="st0" points="65.75 17 65.75 16.78 65.55 16.74 65.71 16.57 65.61 16.4 65.81 16.42 65.94 16.2 66.06 16.41 66.26 16.4 66.17 16.57 66.33 16.74 66.13 16.78 66.13 17 65.94 16.86 65.75 17"/>
  <polygon class="st0" points="64.83 18.18 64.83 17.96 64.63 17.93 64.78 17.76 64.69 17.58 64.89 17.61 65.01 17.39 65.14 17.6 65.34 17.58 65.25 17.76 65.4 17.93 65.2 17.96 65.2 18.18 65.01 18.04 64.83 18.18"/>
  <polygon class="st0" points="66.39 18.03 66.39 17.81 66.2 17.77 66.35 17.61 66.25 17.43 66.46 17.45 66.58 17.24 66.7 17.45 66.91 17.43 66.81 17.61 66.97 17.77 66.77 17.81 66.77 18.03 66.58 17.89 66.39 18.03"/>
  <polygon class="st0" points="66.58 18.92 66.58 18.8 66.47 18.77 66.55 18.68 66.5 18.58 66.61 18.59 66.69 18.47 66.75 18.59 66.87 18.58 66.81 18.68 66.9 18.77 66.79 18.8 66.79 18.92 66.69 18.84 66.58 18.92"/>
  <polygon class="st0" points="65.12 19.94 65.12 19.56 64.78 19.49 65.05 19.21 64.89 18.91 65.23 18.94 65.45 18.57 65.65 18.94 66.01 18.91 65.84 19.21 66.11 19.49 65.77 19.56 65.77 19.94 65.45 19.7 65.12 19.94"/>
  <polygon class="st0" points="65.86 0 66.6 1.82 68.47 1.27 67.52 2.98 69.12 4.11 67.2 4.43 67.31 6.39 65.86 5.08 64.41 6.39 64.53 4.43 62.61 4.11 64.2 2.98 63.25 1.27 65.13 1.82 65.86 0"/>
  <path class="st0" d="M59.09,40.76c-.22.08-.31.15-.25.38l.26,1.11c.05.21.06.53-.07.73-.16.24-.51.39-.76.45-.18.04-.58.12-.9-.02-.21-.09-.35-.18-.44-.56l-.28-1.17c-.07-.29-.18-.27-.41-.24l-.02-.09,1.41-.34.02.09c-.27.08-.4.11-.33.42l.28,1.17c.05.2.16.68.76.54.73-.18.62-.71.56-.94l-.25-1.07c-.05-.21-.13-.32-.49-.25l-.02-.09.92-.22.02.09Z"/>
  <path class="st0" d="M61.18,40.99c-.13-.23-.47-.57-.96-.47-.22.05-.43.21-.38.43.04.19.14.25.52.32l.67.12c.15.03.52.16.6.54.07.31-.11.79-.87.96-.4.09-.61.01-.74.04-.09.02-.1.09-.1.15l-.12.03-.19-.87.12-.03c.16.34.49.68,1.02.56.5-.11.44-.46.43-.51-.05-.23-.27-.27-.56-.32l-.3-.05c-.78-.13-.84-.43-.88-.59-.05-.21-.02-.72.77-.9.34-.08.56,0,.68-.03.1-.02.11-.08.11-.15l.12-.03.17.76-.12.03Z"/>
  <path class="st0" d="M63.95,42.38l-1.52.15v-.09c.3-.05.4-.07.38-.37l-.18-1.89c-.3.04-.73.1-.76.68h-.12s-.05-.71-.05-.71l2.56-.24.08.72h-.12c-.14-.55-.58-.53-.88-.51l.18,1.88c.03.3.13.3.45.29v.09Z"/>
  <path class="st0" d="M67.51,42.37l-.88-.02-.86-1.14h-.12s-.01.7-.01.7c0,.29.09.3.37.34v.09s-1.45-.03-1.45-.03v-.09c.29-.02.38-.03.38-.32l.03-1.59c0-.31-.13-.32-.37-.34v-.09s1.38.03,1.38.03c.3,0,1.21.05,1.19.66,0,.44-.45.54-.68.6l.84,1.04c.06.07.12.07.18.07v.09ZM65.65,41.1c.56,0,.78-.07.79-.53,0-.36-.17-.52-.51-.53-.24,0-.25.04-.27.15l-.02.92Z"/>
  <path class="st0" d="M70.31,42.74l-1.38-.17v-.09c.28.01.36.02.37-.1.01-.1-.09-.38-.14-.5l-.96-.12c-.15.24-.24.38-.24.44-.02.14.18.17.33.2v.09s-.87-.11-.87-.11v-.09c.24,0,.32-.11.48-.36l1.18-1.83h.12s.71,2.01.71,2.01c.14.4.2.53.4.55v.09ZM69.12,41.73l-.32-.92-.5.82.83.1Z"/>
  <path class="st0" d="M72.81,43.24l-2.43-.45.02-.09c.24.02.37.03.41-.18l.31-1.71c.04-.23-.13-.27-.32-.32l.02-.09,1.47.27-.02.09c-.3-.04-.43-.06-.48.25l-.3,1.67c-.03.17.06.22.34.27.64.12.93-.13,1.19-.5l.12.02-.32.77Z"/>
  <path class="st0" d="M74.42,43.6l-1.47-.31.02-.09c.23.03.39.05.44-.17l.35-1.7c.05-.23-.15-.28-.34-.33l.02-.09,1.47.31-.02.09c-.2-.03-.4-.07-.45.17l-.35,1.7c-.04.23.12.27.35.33l-.02.09Z"/>
  <path class="st0" d="M77.4,43.99l-1.38-.14v-.09c.28,0,.35.01.37-.1,0-.1-.1-.38-.15-.5l-.96-.1c-.15.24-.23.38-.24.44-.01.14.19.17.33.19v.09s-.87-.09-.87-.09v-.09c.24,0,.32-.12.47-.37l1.15-1.86h.12s.76,1.99.76,1.99c.15.4.21.53.41.55v.09ZM76.19,43.01l-.34-.91-.49.83.83.09Z"/>
  <path class="st0" d="M66.46,15c0-.86-.48-.05-.75-.79-.19.62-.78.1-.78.77,0,.26.07.4.19.48v.26c0,.07.05.12.12.12h.92c.07,0,.12-.05.12-.12v-.28c.11-.09.18-.24.18-.44M65.71,15.17c-.25,0-.59.17-.59-.12,0-.42.29-.33.54-.33s.64-.09.64.33c0,.3-.34.12-.59.12"/>
  <path class="st0" d="M73.96,25.59c.22,0,.39-.16.39-.35s-.18-.35-.39-.35-.4.16-.4.35.18.35.4.35"/>
  <path class="st0" d="M72.1,12.81s-.19.31-.19.37c0,.11.09.21.19.21s.19-.09.19-.21c0,0-.19-.37-.19-.37"/>
  <path class="st0" d="M59.43,12.81s-.19.31-.19.37c0,.11.09.21.19.21s.19-.09.19-.21c0,0-.19-.37-.19-.37"/>
  <path class="st0" d="M62.6,12.81s-.19.31-.19.37c0,.11.08.21.19.21s.19-.09.19-.21c0,0-.19-.37-.19-.37"/>
  <path class="st0" d="M65.77,12.81s-.19.31-.19.37c0,.11.09.21.19.21s.19-.09.19-.21c0,0-.19-.37-.19-.37"/>
  <path class="st0" d="M68.93,12.81s-.19.31-.19.37c0,.11.08.21.19.21s.19-.09.19-.21c0,0-.19-.37-.19-.37"/>
  <path class="st0" d="M59.44,17.16s.18.31.18.37c0,.11-.08.21-.19.21s-.19-.09-.19-.21c0,0,.19-.37.19-.37"/>
  <path class="st0" d="M59.44,21.39s.18.31.18.37c0,.11-.08.21-.19.21s-.19-.09-.19-.21c0,0,.19-.37.19-.37"/>
  <path class="st0" d="M59.94,24.73s.19.31.19.37c0,.11-.09.21-.19.21s-.19-.09-.19-.21c0,0,.19-.37.19-.37"/>
  <path class="st0" d="M62.6,26.51s.19.31.19.37c0,.11-.08.21-.19.21s-.19-.09-.19-.21c0,0,.19-.37.19-.37"/>
  <path class="st0" d="M72.26,17.16s-.19.31-.19.37c0,.11.09.21.19.21s.19-.09.19-.21c0,0-.19-.37-.19-.37"/>
  <path class="st0" d="M72.26,21.39s-.19.31-.19.37c0,.11.09.21.19.21s.19-.09.19-.21c0,0-.19-.37-.19-.37"/>
  <path class="st0" d="M71.76,24.73s-.19.31-.19.37c0,.11.08.21.19.21s.19-.09.19-.21c0,0-.19-.37-.19-.37"/>
  <path class="st0" d="M69.1,26.51s-.19.31-.19.37c0,.11.08.21.19.21s.19-.09.19-.21c0,0-.19-.37-.19-.37"/>
  <path class="st0" d="M65.86,28.4s-.19.31-.19.37c0,.11.08.21.19.21s.19-.09.19-.21c0,0-.19-.37-.19-.37"/>
  <path class="st0" d="M71.02,22.09c.04.06.14.08.27.04l.12-.34s-.14-.16-.23-.14c-.34.08-.7.12-.9.44,0,.22.16.42.32.52.12-.04.14.08.22.14.02.1-.04.18-.14.18-.24-.24-.66.08-.84-.22.08-.3.24-.64-.02-.92.02-.06.12-.12.06-.18-.1-.28-.4-.06-.58-.06-.3-.04-.54.12-.72.36.02.1.06.2.16.3.08-.02.12,0,.14.08l-.2.12c.06.06.06.14.08.22-.14.06-.28-.14-.34-.24,0-.16.02-.44-.2-.48-.04,0-.17.06-.17.06-.05.06-.08.19-.08.33s.08.36.08.36c0,0,.62.46.75.74-.18.36-.18.86-.6,1.06-.12.08-.12.2-.12.32l.1.08c.26-.14.76-.18.72-.62.1-.18.2-.38.38-.52.2-.04.38.06.46.22-.06.3-.26.5-.54.6-.04.04-.02.1-.02.16.08.14.3.08.42.06.34-.22.48-.62.78-.74.04.2-.4.26-.12.46.18-.04.42.02.54-.22-.14-.34.48-.5.1-.8,0-.3.32-.42.3-.74-.12-.32-.5-.32-.6-.62.12-.08.3-.06.42,0"/>
  <path class="st0" d="M56.46,25.75c.22,0,.4-.16.4-.35s-.18-.35-.4-.35-.4.16-.4.35.18.35.4.35"/>
  <path class="st0" d="M35.91,37.75c.21,0,.39-.17.39-.37s-.18-.37-.39-.37-.39.17-.39.37.17.37.39.37"/>
  <path class="st0" d="M48.99,40.67h-.03l-.02-.03h0v.02s0,0,0,0h0s-.04,0-.04,0h0s.01,0,.01-.01v-.05s0,0-.01-.01h0s.04,0,.04,0c0,0,.04,0,.04.02,0,.01-.01.01-.02.02l.02.03s0,0,0,0h0ZM48.93,40.63s.02,0,.02-.01,0-.02-.01-.02c0,0,0,0,0,0v.03Z"/>
  <path class="st0" d="M49.04,40.62s-.01-.02-.03-.02c0,0-.01,0-.01.01s0,0,.01.01h.02s.01.02.01.03c0,0,0,.02-.03.02-.01,0-.02,0-.02,0,0,0,0,0,0,0h0v-.03h0s0,.02.03.02c.01,0,.01-.01.01-.01,0,0,0,0-.01-.01h0s-.02-.02-.02-.03c0,0,0-.02.03-.02.01,0,.02,0,.02,0,0,0,0,0,0,0h0v.02h0Z"/>
  <path class="st0" d="M49.17,40.6s0,0,0,0l-.02.06h0l-.02-.05-.02.05h0l-.02-.06s0,0,0,0h0s.04,0,.04,0h0s0,0,0,0h0s.01.04.01.04h0v-.03s0-.01,0-.01c0,0,0,0,0,0h0s.04,0,.04,0h0s-.01,0-.01,0,0,0,0,0v.03s.03-.04.03-.04c0,0,0,0,0,0,0,0,0,0-.01,0h0s.02,0,.02,0h0Z"/>
  <path class="st0" d="M49.18,40.67s.03,0,.03-.03t0,0s0,0,0,0c0,0-.02,0-.02-.02,0,0,0-.02.02-.02.01,0,.03,0,.03.03,0,.02-.02.04-.05.04h0ZM49.21,40.64s0,0,0,0h0s0-.04-.01-.04c0,0,0,0,0,.01,0,.02,0,.02.01.02"/>
  <path class="st0" d="M49.25,40.62s.02,0,.02,0c0,0,.01,0,.01.02,0,.01-.01.02-.03.02-.01,0-.02,0-.02,0,0,0,0,0,0,0,.01,0,.02,0,.03,0,0,0,.01,0,.01-.01,0,0,0-.01-.01-.01,0,0-.02,0-.03,0v-.04h.05,0s-.03.01-.03.01h0Z"/>
  <path class="st0" d="M73.15,12.31h0s-14.62,0-14.62,0h0s0,0,0,0v11.17c.01,1.14.5,2.14,1.16,2.44l5.62,3.57c.12.14.31.23.51.23.18,0,.34-.07.45-.18l5.71-3.62c.67-.31,1.15-1.3,1.15-2.44v-11.17s0,0,0,0ZM72.74,23.63c-.08.85-.37,1.55-.95,1.95l-5.51,3.51h-.03c-.11.09-.26.15-.42.15s-.31-.06-.43-.16l-5.5-3.5c-.59-.4-.87-1.1-.95-1.95v-10.93h13.8v10.93Z"/>
  <path class="st0" d="M67.81,28.6l.18-.09c-.07.03-.13.06-.18.09"/>
  <path class="st0" d="M56.78,43.87l-1.38.16v-.09c.25-.05.33-.06.32-.18-.01-.1-.18-.35-.25-.45l-.96.11c-.09.27-.14.42-.13.48.02.13.22.12.36.11v.09s-.85.1-.85.1v-.09c.21-.06.26-.18.36-.47l.72-2.07h.12s1.16,1.75,1.16,1.75c.24.36.32.47.52.44v.09ZM55.39,43.18l-.53-.82-.3.91.83-.1Z"/>
  <path class="st0" d="M81,38.64c-.25-.65-.77-1.1-1.43-1.31-.67-.15-1.39-.04-1.82.46-.76.61-.23,1.63-.21,2.45,0,.17.02.3-.15.38-3.04-.27-5.87-1.04-8.9-1.35-.69-.12-1.39-.09-2.05-.23l-.85-.09c-2.62.08-5.24.23-7.7.87-.52.17-1.11.21-1.64.4-.38-.06-.69.21-1.05.11l-.69.16c-.06.01-.14,0-.23-.01-.34-.87.67-1.39.36-2.24-.27-.49-.82-.95-1.45-.87-.71-.09-1.34.32-1.68.87-.48,1.06.13,2.15.32,3.19-.04.34.34.72,0,.99-.67-.47-1.55-.72-2.37-.49-.25.13-.71-.04-.84.26.9.48,2.05.42,3.06.38.12-.04.21-.06.31.02.09.55-.1,1.29.23,1.78.38.51,1.01.64,1.62.7,1.93-.06,3.65-.63,5.41-1.08.27-.02.48-.17.78-.17.94-.21,1.97-.38,2.98-.4-.44.57-.69,1.2-.88,1.9-.25.57.44.66.65.97-.65.19-1.11.64-1.72.89-1.34-.04-2.48.46-3.73.61-.02.28.44.19.48.47-.06.19-.25.21-.4.32-.02.13,0,.15.12.17.13-.15.4-.04.52-.19.42,0,.78-.13,1.18-.15.36-.15.75-.17,1.07-.42.44-.13.71-.42,1.15-.55.63,0,1.2-.21,1.78-.25v.12c-.48.78-.98,1.59-1.49,2.33-.09.15.02.29.15.34.29.09.59,0,.82-.12.44-.76.84-1.48,1.2-2.26.15-.72.67-1.1,1.19-1.59.08-.04.21-.17.3-.04-.42.49-.69.95-1.01,1.48-.17.59-.21,1.35.32,1.84.25.21.63.15.96.17.82-.42,1.87.25,2.5-.55.38-.07.44.38.65.59.35.1.73.46,1.09.21-.02-.23-.27-.44-.4-.65-.25-.44-.57-.8-.8-1.21-.11-.3-.29-.48-.34-.78.38.13.71.38,1.13.44.36.15.8.12,1.13.34.27.36.69.57,1.05.8.52.25,1.11.3,1.66.51.21.02.52.19.67,0-.09-.1-.19-.17-.31-.23-.07-.27.38-.13.52-.34-.05-.11-.14-.15-.24-.16-.3-.16-1.05-.22-1.25-.32-.25-.04-.48-.15-.73-.23-1.26,0-1.95-1.14-2.96-1.57.23-.21.59-.38.73-.7.19-.3.25-.78.06-1.12-.19-.66-1.03-.57-1.51-.93l.06-.07c.82-.04,1.53.15,2.27.3,2.01.27,3.88,1.04,5.98,1.08,1.15,0,2.6.06,3.17-1.06.11-.66.23-1.31.34-1.96.25-1.06.95-2.03.84-3.19M58.34,48.27l-.29-.27c.15-.19.46-.09.69-.21.54-.17,1.18-.38,1.78-.25-.63.51-1.45.57-2.18.74M71.44,47.94c.5.22,1.51.45,2.24.53-.07.29-.58.02-.52.42-.65-.25-1.41-.38-1.89-.89.04-.02.08-.08.17-.06M51.75,38.95c.06-.38.15-.78.5-1.06.5-.28,1.2-.21,1.66.06.15.08.25.21.34.4.1.36-.06.74-.32.95h-.21c0-.34,0-.68.12-.95-.02-.25-.23-.27-.4-.38-.36-.11-.67.06-.95.21-.21.25-.4.57-.27.93.15.23.02.55.11.8l-.06.09c-.25-.28-.59-.57-.52-1.06M52.73,39.56c.32.23.75.12,1.13.19.06.23.06.53-.1.72-.36-.09-.82-.04-1.01-.38.04-.15-.06-.36-.02-.53M52.67,38.85c.06-.17,0-.42.23-.47.15-.04.38-.04.4.13-.02.25-.04.51-.11.74-.29.02-.44-.15-.52-.4M62.51,45.63c-.11-.74.19-1.37.67-1.9.3-.06.63-.13.9.04-.55.15-1.24.27-1.36.97.02.28-.06.42.06.65.23.4.76.23,1.05.55,0,.11-.08.23-.19.25-.35-.21-.8-.3-1.13-.57M61.76,47.09c.5-.21,1.03-.65,1.59-.46-.4.32-1.05.44-1.59.46M63.75,47.3c-.29.68-.63,1.33-1.03,1.99-.04.11-.21.13-.34.15,0-.3.29-.53.42-.78.44-.57.57-1.18,1.07-1.73.13.13-.12.21-.12.38M64.28,46.08v.08h-.04v-.1h.08s-.06,0-.08.02h.04ZM64.09,45.5c-.36-.04-.7-.15-1.01-.25-.21-.21,0-.45,0-.68.29-.46,1.13-.7,1.53-.27-.06.46-.23.87-.52,1.2M64.55,45.5c.06-.27.19-.63.34-.89-.02.28-.15.65-.34.89M64.78,43.79c-.27-.06-.42-.38-.71-.38.25-.09.5-.07.8-.02.11.15-.06.27-.08.4M65.03,44.43h-.02v-.23h.02v.23ZM65.05,45.4c-.02-.09.04-.19.06-.29.11-.11.21.08.25.15-.06.1-.19.17-.32.15M65.37,44.09c.1-.3.12-.55.32-.78.21,0,.4,0,.56.09.04.42.57.99,0,1.35-.19.08-.46.28-.67.08-.27-.23-.32-.44-.21-.74M66.9,43.5c-.04-.19.19-.04.27-.13l.65.04c-.34-.04-.76.74-.92.08M67.95,43.77c-.25.09-.44.38-.69.44.13-.23.44-.46.69-.44M67.06,45.15h-.02v-.06h.02v.06ZM67.11,46.37s.02.11-.04.15l-.48-.38c.23-.04.4.06.52.23M66.54,45.72s.15-.04.19,0h-.19ZM66.25,45.4c.09-.13.19-.32.34-.32,0,.02.02.04.04.07-.12.11-.23.21-.38.25M65.77,45.36h-.08l.12-.13c.06.04-.02.08-.04.13M65.83,46.16c.27-.3.52.17.63.4.32.46,1.13.89.82,1.52-.4.36-1.03.02-1.47.29-.23-.02-.63.04-.76-.19.23-.67.44-1.44.77-2.03M65.24,46.56l.11-.17c-.17.51-.42,1.04-.69,1.52-.13-.51.4-.91.59-1.35M66.16,49.08c-.4.02-1.01.25-1.39-.08.02-.17-.17-.25-.15-.42.34-.13.63.27.95-.02.48.02.98-.06,1.47.04.23.06.59-.38.63.06-.17.7-1.01.21-1.51.42M67.38,45.97h.04v.06h-.04v-.06ZM67.51,47.36c.02.21.23.29.11.49-.04-.09-.17-.28-.11-.49M68.09,48.63l-.11.04c-.1-.08-.06-.32-.04-.44.12.1.23.25.15.4M69.14,49.14c-.02.06-.12.06-.17.02-.63-.8-.92-1.65-1.32-2.54l.09-.02c.5.83.9,1.73,1.4,2.53M69.92,47.19s-.04.06-.04.08c-.61.02-1.01-.34-1.47-.65l-.02-.1c.57.04,1.03.4,1.53.67M69.37,44.38c.25.06.27.34.3.55-.02.46-.27.87-.71,1.04-.23.13-.59.17-.82.09.51-.02,1.05-.21,1.26-.72l-.02-.95ZM68.91,44.3c.11.29.29.57.19.93-.21.4-.63.4-1.01.49-.19.02-.34-.04-.48-.15.02-.08-.02-.15-.08-.21.06-.28-.48-.55-.1-.78.33-.32,1.13-1.03,1.49-.27M79.57,42.76c-.17.21-.02.55-.23.74,0,.38-.32.57-.59.72-2.5.55-4.95-.29-7.37-.72-3.38-.74-7.32-.95-10.77-.17-1.61.3-3.19.68-4.74,1.12-.97.13-2.02.27-2.94-.02-.75-.36-.44-1.33-.67-2.01.04-.53-.15-.95-.17-1.46-.06-.17-.11-.38-.08-.55.32.04.63.27.96.36,1.76.34,3.34-.23,4.97-.53,1.57-.34,3.19-.61,4.85-.74,1.89-.02,3.82-.13,5.62.19.59.02,1.09.17,1.66.21,1.18.15,2.27.47,3.46.55.19.06.42.06.63.11,1.89.3,4.01.82,5.81,0,0,.76-.31,1.46-.42,2.2M78.99,40.18c.02.34-.3.25-.46.38h-.5c-.1-.17-.06-.42-.06-.59.34.06.71.06,1.03.21M78.76,39.65c.23-.23-.07-1.56.59-.7,0,.17.02.42-.15.55-.1.08-.27.25-.44.15M80.45,39.44c-.19.38-.48.66-.9.72.02-.51.48-.87.32-1.44-.27-.4-.82-.53-1.32-.42-.19.13-.11.34-.17.53l-.08.7c-.42,0-.44-.38-.57-.68.02-.44.21-.89.65-1.1.34-.17.88-.15,1.22.04.27.06.59.19.69.45.31.29.23.82.17,1.2"/>
</svg>