<svg width="48" height="48" viewBox="0 0 48 48" fill="none" xmlns="http://www.w3.org/2000/svg">
<path d="M15.7471 23.9C15.3238 23.9 14.9705 24.0436 14.6871 24.331C14.4038 24.6186 14.2621 24.975 14.2621 25.4V32.65C14.2621 33.075 14.4066 33.4311 14.6956 33.7185C14.985 34.0061 15.3413 34.15 15.7646 34.15C16.1883 34.15 16.5438 34.0061 16.8311 33.7185C17.1185 33.4311 17.2621 33.075 17.2621 32.65V25.4C17.2621 24.975 17.1155 24.6186 16.8221 24.331C16.5291 24.0436 16.1708 23.9 15.7471 23.9ZM32.2396 13.15C31.816 13.15 31.4625 13.2936 31.1791 13.581C30.8958 13.8686 30.7541 14.225 30.7541 14.65V32.65C30.7541 33.075 30.8988 33.4311 31.1881 33.7185C31.4771 34.0061 31.8335 34.15 32.2571 34.15C32.6805 34.15 33.0358 34.0061 33.3231 33.7185C33.6105 33.4311 33.7541 33.075 33.7541 32.65V14.65C33.7541 14.225 33.6076 13.8686 33.3146 13.581C33.0213 13.2936 32.663 13.15 32.2396 13.15ZM23.9931 28.25C23.5658 28.25 23.2105 28.3936 22.9271 28.681C22.6438 28.9686 22.5021 29.325 22.5021 29.75V32.65C22.5021 33.075 22.6468 33.4311 22.9361 33.7185C23.2251 34.0061 23.5835 34.15 24.0111 34.15C24.4385 34.15 24.7938 34.0061 25.0771 33.7185C25.3605 33.4311 25.5021 33.075 25.5021 32.65V29.75C25.5021 29.325 25.3575 28.9686 25.0681 28.681C24.7791 28.3936 24.4208 28.25 23.9931 28.25ZM9.10962 42.299C8.18963 42.299 7.39196 41.9611 6.71662 41.2855C6.04096 40.6101 5.70312 39.8125 5.70312 38.8925V9.10746C5.70312 8.18413 6.04096 7.38363 6.71662 6.70596C7.39196 6.02796 8.18963 5.68896 9.10962 5.68896H38.8946C39.818 5.68896 40.6185 6.02796 41.2961 6.70596C41.9741 7.38363 42.3131 8.18413 42.3131 9.10746V38.8925C42.3131 39.8125 41.9741 40.6101 41.2961 41.2855C40.6185 41.9611 39.818 42.299 38.8946 42.299H9.10962ZM9.10962 38.8925H38.8946V9.10746H9.10962V38.8925ZM24.0111 23.9C24.4385 23.9 24.7938 23.7553 25.0771 23.466C25.3605 23.177 25.5021 22.8186 25.5021 22.391C25.5021 21.9636 25.3575 21.6083 25.0681 21.325C24.7791 21.0416 24.4208 20.9 23.9931 20.9C23.5658 20.9 23.2105 21.0446 22.9271 21.334C22.6438 21.623 22.5021 21.9813 22.5021 22.409C22.5021 22.8363 22.6468 23.1916 22.9361 23.475C23.2251 23.7583 23.5835 23.9 24.0111 23.9Z" fill="#006CC9"/>
</svg>
