<svg width="49" height="48" viewBox="0 0 49 48" fill="none" xmlns="http://www.w3.org/2000/svg">
<path d="M10.3271 34.4021V20.7271C10.3271 20.2704 10.4856 19.8844 10.8026 19.5691C11.1196 19.2534 11.5118 19.0956 11.9791 19.0956C12.4468 19.0956 12.8341 19.2534 13.1411 19.5691C13.4485 19.8844 13.6021 20.2704 13.6021 20.7271V34.4141C13.6021 34.8791 13.4456 35.2673 13.1326 35.5786C12.8193 35.8899 12.429 36.0456 11.9616 36.0456C11.4943 36.0456 11.1051 35.8879 10.7941 35.5726C10.4828 35.2573 10.3271 34.8671 10.3271 34.4021ZM22.5706 34.4141V20.7271C22.5706 20.2704 22.7291 19.8844 23.0461 19.5691C23.3631 19.2534 23.7515 19.0956 24.2111 19.0956C24.6705 19.0956 25.0556 19.2534 25.3666 19.5691C25.678 19.8844 25.8336 20.2704 25.8336 20.7271V34.4141C25.8336 34.8711 25.6751 35.2573 25.3581 35.5726C25.0411 35.8879 24.6528 36.0456 24.1931 36.0456C23.7338 36.0456 23.3486 35.8879 23.0376 35.5726C22.7263 35.2573 22.5706 34.8711 22.5706 34.4141ZM42.7621 16.3706H5.06863C4.68529 16.3706 4.36196 16.2369 4.09863 15.9696C3.83496 15.7023 3.70312 15.3809 3.70312 15.0056V14.0121C3.70312 13.7721 3.76946 13.5426 3.90213 13.3236C4.03479 13.1043 4.20429 12.9326 4.41063 12.8086L22.3226 2.60859C22.8426 2.31826 23.4025 2.1731 24.0021 2.1731C24.6018 2.1731 25.1616 2.31826 25.6816 2.60859L43.5196 12.7466C43.7593 12.9039 43.9515 13.1026 44.0961 13.3426C44.2408 13.5823 44.3131 13.8511 44.3131 14.1491V14.7561C44.3131 15.2141 44.1646 15.5978 43.8676 15.9071C43.5706 16.2161 43.2021 16.3706 42.7621 16.3706ZM11.1566 12.9521H36.8476L24.0021 5.5916L11.1566 12.9521ZM5.40663 42.1771C4.92562 42.1771 4.52146 42.0126 4.19412 41.6836C3.86679 41.3546 3.70312 40.9484 3.70312 40.4651C3.70312 39.9818 3.86679 39.5786 4.19412 39.2556C4.52146 38.9323 4.92562 38.7706 5.40663 38.7706H27.1671C27.6481 38.7706 28.0543 38.9351 28.3856 39.2641C28.717 39.5934 28.8826 39.9996 28.8826 40.4826C28.8826 40.9659 28.717 41.3693 28.3856 41.6926C28.0543 42.0156 27.6481 42.1771 27.1671 42.1771H5.40663ZM36.0251 26.7456C35.5655 26.7456 35.1801 26.5919 34.8691 26.2846C34.5578 25.9773 34.4021 25.5911 34.4021 25.1261V20.7511C34.4021 20.2864 34.5606 19.8943 34.8776 19.5746C35.1946 19.2553 35.583 19.0956 36.0426 19.0956C36.518 19.0956 36.9091 19.2553 37.2161 19.5746C37.5235 19.8943 37.6771 20.2864 37.6771 20.7511V25.1261C37.6771 25.5831 37.5186 25.9673 37.2016 26.2786C36.8846 26.5899 36.4925 26.7456 36.0251 26.7456ZM31.8946 37.0761V32.9981C31.8946 32.6781 31.9816 32.3804 32.1556 32.1051C32.3293 31.8301 32.5655 31.6179 32.8641 31.4686L39.2686 28.2546C39.483 28.1466 39.7251 28.0926 39.9951 28.0926C40.2651 28.0926 40.516 28.1466 40.7476 28.2546L47.1401 31.4686C47.4388 31.6179 47.675 31.8301 47.8486 32.1051C48.0226 32.3804 48.1096 32.6781 48.1096 32.9981V37.0761C48.1096 39.6761 47.4493 41.8794 46.1286 43.6861C44.808 45.4924 42.9936 46.8789 40.6856 47.8456C40.5523 47.9123 40.3245 47.9536 40.0021 47.9696C39.9861 47.9696 39.7583 47.9283 39.3186 47.8456C37.0106 46.8789 35.1963 45.4924 33.8756 43.6861C32.555 41.8794 31.8946 39.6761 31.8946 37.0761ZM38.9401 39.2001L36.5826 36.8426C36.3826 36.6426 36.1493 36.5426 35.8826 36.5426C35.616 36.5426 35.3826 36.6426 35.1826 36.8426C34.9826 37.0426 34.8826 37.2779 34.8826 37.5486C34.8826 37.8193 34.9826 38.0546 35.1826 38.2546L37.7466 40.8186C38.0866 41.1586 38.4865 41.3266 38.9461 41.3226C39.4058 41.3186 39.8056 41.1506 40.1456 40.8186L45.4121 35.5286C45.6121 35.3286 45.7121 35.0933 45.7121 34.8226C45.7121 34.5519 45.6121 34.3166 45.4121 34.1166C45.2121 33.9166 44.9788 33.8166 44.7121 33.8166C44.4455 33.8166 44.2121 33.9166 44.0121 34.1166L38.9401 39.2001Z" fill="#006CC9"/>
</svg>
