<svg width="48" height="48" viewBox="0 0 48 48" fill="none" xmlns="http://www.w3.org/2000/svg">
<path d="M14.2215 34.615C12.8405 35.7884 11.3972 36.3147 9.89154 36.194C8.38554 36.0734 7.08137 35.547 5.97904 34.615C4.87637 33.6834 4.14004 32.4832 3.77004 31.0145C3.40004 29.5462 3.68504 28.0302 4.62504 26.4665L8.66504 19.712C7.77304 18.988 7.06437 18.0929 6.53904 17.0265C6.0137 15.9602 5.75104 14.8159 5.75104 13.5935C5.75104 11.3992 6.5267 9.52487 8.07804 7.97054C9.62937 6.4162 11.5 5.63904 13.69 5.63904C15.8714 5.63904 17.7399 6.41687 19.2955 7.97254C20.8515 9.52854 21.6295 11.399 21.6295 13.584C21.6295 15.7694 20.8515 17.6399 19.2955 19.1955C17.7399 20.7515 15.8714 21.5295 13.69 21.5295C13.3427 21.5295 12.9954 21.5065 12.648 21.4605C12.3004 21.4145 11.9757 21.3415 11.674 21.2415L7.52154 28.2195C7.07887 28.9542 6.9397 29.6704 7.10404 30.368C7.26837 31.0657 7.61487 31.632 8.14354 32.067C8.6722 32.502 9.28987 32.7444 9.99654 32.794C10.7032 32.8437 11.3739 32.5972 12.0085 32.0545L33.79 13.3465C35.1794 12.1655 36.6352 11.625 38.1575 11.725C39.6802 11.825 40.9907 12.345 42.089 13.285C43.1877 14.2247 43.918 15.438 44.28 16.925C44.642 18.4117 44.357 19.9312 43.425 21.4835L39.4465 28.25C40.3389 28.966 41.0477 29.8562 41.573 30.9205C42.0984 31.9852 42.361 33.1297 42.361 34.354C42.361 36.5457 41.578 38.4179 40.012 39.9705C38.446 41.5229 36.5632 42.299 34.3635 42.299C32.1639 42.299 30.2985 41.5234 28.7675 39.972C27.2362 38.4207 26.4705 36.55 26.4705 34.36C26.4705 32.1787 27.2362 30.3102 28.7675 28.7545C30.2985 27.1985 32.1645 26.4205 34.3655 26.4205C34.7005 26.4205 35.032 26.4352 35.36 26.4645C35.688 26.4939 36.014 26.5545 36.338 26.6465L40.49 19.7305C40.933 19.0035 41.0682 18.2897 40.8955 17.589C40.7229 16.888 40.3722 16.3219 39.8435 15.8905C39.3145 15.4592 38.697 15.2185 37.991 15.1685C37.2847 15.1185 36.6222 15.3609 36.0035 15.8955L14.2215 34.615ZM13.698 18.111C14.945 18.111 16.0109 17.6679 16.8955 16.7815C17.7805 15.8955 18.223 14.8272 18.223 13.5765C18.223 12.3255 17.7779 11.2597 16.8875 10.379C15.9975 9.49804 14.9272 9.05754 13.6765 9.05754C12.4255 9.05754 11.3597 9.50054 10.479 10.3865C9.59804 11.2722 9.15754 12.3427 9.15754 13.598C9.15754 14.845 9.60054 15.9089 10.4865 16.7895C11.3722 17.6705 12.4427 18.111 13.698 18.111ZM34.3725 38.8925C35.6332 38.8925 36.71 38.4495 37.603 37.5635C38.496 36.6779 38.9425 35.6074 38.9425 34.352C38.9425 33.105 38.496 32.0392 37.603 31.1545C36.7104 30.2695 35.6315 29.827 34.3665 29.827C33.1099 29.827 32.0495 30.2722 31.1855 31.1625C30.3212 32.0525 29.889 33.1229 29.889 34.3735C29.889 35.6245 30.3212 36.6904 31.1855 37.571C32.0495 38.452 33.1119 38.8925 34.3725 38.8925Z" fill="#5AE0F6"/>
</svg>
