<svg width="48" height="48" viewBox="0 0 48 48" fill="none" xmlns="http://www.w3.org/2000/svg">
<path d="M11.1057 44.299C10.1857 44.299 9.38805 43.9611 8.71272 43.2855C8.03705 42.6101 7.69922 41.8125 7.69922 40.8925V7.10746C7.69922 6.18413 8.03705 5.38363 8.71272 4.70596C9.38805 4.02796 10.1857 3.68896 11.1057 3.68896H36.8907C37.814 3.68896 38.6145 4.02796 39.2922 4.70596C39.9702 5.38363 40.3092 6.18413 40.3092 7.10746V40.8925C40.3092 41.8125 39.9702 42.6101 39.2922 43.2855C38.6145 43.9611 37.814 44.299 36.8907 44.299H11.1057ZM11.1057 40.8925H36.8907V7.10746H34.0222V18.9785C34.0222 19.2848 33.8799 19.523 33.5952 19.693C33.3109 19.863 33.018 19.8693 32.7167 19.712L29.9797 18.1295C29.7137 17.9801 29.4339 17.9055 29.1402 17.9055C28.8469 17.9055 28.5717 17.9801 28.3147 18.1295L25.5657 19.712C25.2671 19.8693 24.9851 19.863 24.7197 19.693C24.4547 19.523 24.3222 19.2848 24.3222 18.9785V7.10746H11.1057V40.8925ZM24.3222 19.002V18.9785C24.3222 19.2848 24.4547 19.523 24.7197 19.693C24.9851 19.863 25.2671 19.8693 25.5657 19.712L28.3147 18.1295C28.5781 17.9801 28.8551 17.9055 29.1457 17.9055C29.4364 17.9055 29.7311 17.9801 30.0297 18.1295L32.7167 19.712C33.018 19.8693 33.3109 19.863 33.5952 19.693C33.8799 19.523 34.0222 19.2848 34.0222 18.9785V19.002C34.0222 19.3566 33.8792 19.6153 33.5932 19.778C33.3076 19.9403 33.0154 19.9303 32.7167 19.748L29.9797 18.215C29.7137 18.0326 29.4339 17.9415 29.1402 17.9415C28.8469 17.9415 28.5717 18.0326 28.3147 18.215L25.5657 19.748C25.2671 19.9303 24.9851 19.9403 24.7197 19.778C24.4547 19.6153 24.3222 19.3566 24.3222 19.002Z" fill="#006CC9"/>
</svg>
