<svg width="48" height="48" viewBox="0 0 48 48" fill="none" xmlns="http://www.w3.org/2000/svg">
<path d="M3.69922 37.738V18.765C3.69922 18.0603 3.94322 17.4613 4.43122 16.968C4.91922 16.475 5.52089 16.2285 6.23622 16.2285H9.59822V10.25C9.59822 9.53863 9.84689 8.93396 10.3442 8.43596C10.8416 7.93796 11.4466 7.68896 12.1592 7.68896H18.9332C19.6446 7.68896 20.2491 7.93796 20.7467 8.43596C21.2447 8.93396 21.4937 9.53863 21.4937 10.25V16.2285H26.5147V10.25C26.5147 9.53863 26.7632 8.93396 27.2602 8.43596C27.7576 7.93796 28.3626 7.68896 29.0752 7.68896H35.8492C36.5606 7.68896 37.1652 7.93796 37.6632 8.43596C38.1612 8.93396 38.4102 9.53863 38.4102 10.25V16.2285H41.7722C42.4769 16.2285 43.0759 16.475 43.5692 16.968C44.0625 17.4613 44.3092 18.0603 44.3092 18.765V37.738C44.3092 38.4506 44.0602 39.0556 43.5622 39.553C43.0642 40.0503 42.4596 40.299 41.7482 40.299H6.26022C5.54755 40.299 4.94255 40.0503 4.44522 39.553C3.94789 39.0556 3.69922 38.4506 3.69922 37.738ZM7.10572 36.8925H40.8907V19.635H7.10572V36.8925ZM13.0047 16.2285H18.0752V11.1075H13.0047V16.2285ZM29.9212 16.2285H34.9917V11.1075H29.9212V16.2285Z" fill="#006CC9"/>
</svg>
