<svg width="49" height="48" viewBox="0 0 49 48" fill="none" xmlns="http://www.w3.org/2000/svg">
<path d="M11.1919 24.1621C11.1919 26.2604 11.6403 28.1761 12.5369 29.9091C13.4336 31.6421 14.8914 33.1634 16.9104 34.4731V30.0601C16.9104 29.6097 17.0573 29.2371 17.3509 28.9421C17.6446 28.6474 18.0196 28.5001 18.4759 28.5001C18.9289 28.5001 19.3031 28.6474 19.5984 28.9421C19.8941 29.2371 20.0419 29.6097 20.0419 30.0601V38.4761C20.0419 38.9654 19.8803 39.3716 19.5569 39.6946C19.2336 40.0179 18.8274 40.1796 18.3384 40.1796H9.93394C9.48394 40.1796 9.11144 40.0311 8.81644 39.7341C8.52177 39.4374 8.37444 39.0624 8.37444 38.6091C8.37444 38.1591 8.52127 37.7864 8.81494 37.4911C9.1086 37.1957 9.4856 37.0481 9.94594 37.0481H14.5874C12.4541 35.4241 10.7851 33.6037 9.58044 31.5871C8.37577 29.5704 7.77344 27.0954 7.77344 24.1621C7.77344 21.1414 8.57227 18.2964 10.1699 15.6271C11.7679 12.9577 14.0568 10.9151 17.0364 9.49906C17.4428 9.31639 17.8389 9.32839 18.2249 9.53506C18.6109 9.74139 18.8873 10.0539 19.0539 10.4726C19.1949 10.8989 19.1889 11.3134 19.0359 11.7161C18.8826 12.1184 18.6026 12.4149 18.1959 12.6056C16.1586 13.6456 14.4819 15.1971 13.1659 17.2601C11.8499 19.3231 11.1919 21.6237 11.1919 24.1621ZM30.2039 40.4786C28.4659 40.4786 26.9856 39.8682 25.7629 38.6476C24.5403 37.4272 23.9289 35.9452 23.9289 34.2016C23.9289 32.5546 24.4888 31.1279 25.6084 29.9216C26.7284 28.7152 28.1044 28.0587 29.7364 27.9521C30.3348 26.7441 31.2063 25.7714 32.3509 25.0341C33.4956 24.2971 34.7801 23.9286 36.2044 23.9286C38.0358 23.9286 39.6166 24.5094 40.9469 25.6711C42.2776 26.8331 43.0723 28.2601 43.3309 29.9521H43.4309C44.8469 30.0001 46.0443 30.5381 47.0229 31.5661C48.0013 32.5937 48.4904 33.7902 48.4904 35.1556C48.4904 36.6222 47.9774 37.8761 46.9514 38.9171C45.9251 39.9581 44.6759 40.4786 43.2039 40.4786H30.2039ZM31.2524 13.5271V17.9401C31.2524 18.3904 31.1028 18.7631 30.8034 19.0581C30.5041 19.3527 30.1294 19.5001 29.6794 19.5001C29.2294 19.5001 28.8553 19.3516 28.5569 19.0546C28.2583 18.7572 28.1089 18.3819 28.1089 17.9286V9.52406C28.1089 9.03472 28.2706 8.62856 28.5939 8.30556C28.9173 7.98222 29.3274 7.82056 29.8244 7.82056H38.2169C38.6659 7.82056 39.0401 7.96806 39.3394 8.26306C39.6388 8.55773 39.7884 8.93022 39.7884 9.38056C39.7884 9.83089 39.6388 10.2054 39.3394 10.5041C39.0401 10.8027 38.6659 10.9521 38.2169 10.9521H33.5254C34.8444 12.0697 36.0399 13.3776 37.1119 14.8756C38.1839 16.3739 38.9866 17.9371 39.5199 19.5651C39.6773 20.0211 39.6356 20.4582 39.3949 20.8766C39.1543 21.2952 38.7894 21.5477 38.3004 21.6341C37.8448 21.7207 37.4076 21.6356 36.9889 21.3786C36.5706 21.1212 36.2748 20.7686 36.1014 20.3206C35.6508 19.0002 35.0308 17.7907 34.2414 16.6921C33.4518 15.5931 32.4554 14.5381 31.2524 13.5271ZM30.2039 37.2036H43.2039C43.7706 37.2036 44.2456 37.0119 44.6289 36.6286C45.0123 36.2452 45.2039 35.7702 45.2039 35.2036C45.2039 34.6446 45.0123 34.1714 44.6289 33.7841C44.2456 33.3971 43.7706 33.2036 43.2039 33.2036H40.7039V31.7036C40.7039 30.4446 40.2706 29.3797 39.4039 28.5091C38.5373 27.6387 37.4706 27.2036 36.2039 27.2036C34.9449 27.2036 33.8801 27.6119 33.0094 28.4286C32.1391 29.2452 31.7039 30.1702 31.7039 31.2036H30.2039C29.3706 31.2036 28.6623 31.4952 28.0789 32.0786C27.4956 32.6619 27.2039 33.3702 27.2039 34.2036C27.2039 35.0369 27.4956 35.7452 28.0789 36.3286C28.6623 36.9119 29.3706 37.2036 30.2039 37.2036Z" fill="#5AE0F6"/>
</svg>
