<svg width="48" height="48" viewBox="0 0 48 48" fill="none" xmlns="http://www.w3.org/2000/svg">
<path d="M22.4301 24.5425L19.3181 27.6665C18.9981 27.9822 18.6291 28.14 18.2111 28.14C17.7934 28.14 17.4304 27.9862 17.1221 27.6785C16.8061 27.3625 16.6462 26.9862 16.6426 26.5495C16.6386 26.1128 16.7944 25.7365 17.1101 25.4205L22.7961 19.685C23.1417 19.345 23.5451 19.175 24.0061 19.175C24.4667 19.175 24.8671 19.345 25.2071 19.685L30.9431 25.4325C31.2587 25.7485 31.4146 26.1165 31.4106 26.5365C31.4069 26.9565 31.2487 27.3205 30.9361 27.6285C30.6154 27.9448 30.2391 28.1008 29.8071 28.0965C29.3751 28.0922 29.0051 27.9322 28.6971 27.6165L25.5731 24.5425V36.8925H37.5321C38.9894 36.8925 40.2434 36.3677 41.2941 35.318C42.3447 34.2683 42.8701 33.0123 42.8701 31.55C42.8701 30.082 42.3452 28.8245 41.2956 27.7775C40.2459 26.7308 38.9899 26.2075 37.5276 26.2075H34.2701V21.876C34.2701 18.9457 33.2751 16.4267 31.2851 14.319C29.2951 12.2113 26.8357 11.1575 23.9071 11.1575C20.9607 11.1575 18.4867 12.2262 16.4851 14.3635C14.4837 16.5008 13.4831 19.0488 13.4831 22.0075H12.4256C10.3886 22.0075 8.6639 22.7218 7.25156 24.1505C5.83923 25.5788 5.13306 27.3445 5.13306 29.4475C5.13306 31.4838 5.85473 33.2338 7.29806 34.6975C8.7414 36.1608 10.4839 36.8925 12.5256 36.8925H17.7266C18.2072 36.8925 18.6112 37.057 18.9386 37.386C19.2662 37.715 19.4301 38.1212 19.4301 38.6045C19.4301 39.0878 19.2662 39.491 18.9386 39.814C18.6112 40.1373 18.2072 40.299 17.7266 40.299H12.5256C9.57656 40.299 7.0394 39.239 4.91406 37.119C2.78906 34.999 1.72656 32.4673 1.72656 29.524C1.72656 26.876 2.55556 24.5305 4.21356 22.4875C5.87156 20.4445 8.0204 19.215 10.6601 18.799C11.3587 15.5417 12.9581 12.884 15.4581 10.826C17.9581 8.76801 20.8404 7.73901 24.1051 7.73901C27.9014 7.73901 31.0944 9.10135 33.6841 11.826C36.2741 14.5507 37.6009 17.825 37.6646 21.649V22.849C40.0886 22.854 42.1299 23.6855 43.7886 25.3435C45.4472 27.0018 46.2766 29.0787 46.2766 31.574C46.2766 33.961 45.4134 36.0118 43.6871 37.7265C41.9604 39.4415 39.9072 40.299 37.5276 40.299H25.8481C24.9287 40.299 24.1292 39.9592 23.4496 39.2795C22.7699 38.5998 22.4301 37.8042 22.4301 36.8925V24.5425Z" fill="#5AE0F6"/>
</svg>
