<svg width="48" height="48" viewBox="0 0 48 48" fill="none" xmlns="http://www.w3.org/2000/svg">
<path d="M20.6136 29.8205L16.6636 25.8705C16.3796 25.5865 16.0193 25.4528 15.5826 25.4695C15.1463 25.4862 14.7868 25.6362 14.5041 25.9195C14.2214 26.2032 14.0801 26.5588 14.0801 26.9865C14.0801 27.4145 14.2214 27.7697 14.5041 28.052L19.3581 32.8565C19.7018 33.1965 20.1026 33.3665 20.5606 33.3665C21.0186 33.3665 21.4174 33.1965 21.7571 32.8565L31.1091 23.5045C31.3934 23.2195 31.5356 22.8713 31.5356 22.46C31.5356 22.0483 31.3939 21.7012 31.1106 21.4185C30.8309 21.1358 30.4818 20.9945 30.0631 20.9945C29.6444 20.9945 29.2954 21.1358 29.0161 21.4185L20.6136 29.8205ZM12.5736 40.299C9.56794 40.299 7.00844 39.2473 4.89511 37.144C2.78144 35.0407 1.72461 32.484 1.72461 29.474C1.72461 26.826 2.56194 24.4888 4.23661 22.4625C5.91128 20.4362 8.05178 19.215 10.6581 18.799C11.3568 15.5417 12.9561 12.884 15.4561 10.826C17.9561 8.76801 20.8384 7.73901 24.1031 7.73901C27.8661 7.73901 31.0508 9.10135 33.6571 11.826C36.2638 14.5507 37.5989 17.825 37.6626 21.649V22.849C40.0866 22.854 42.1279 23.6855 43.7866 25.3435C45.4453 27.0018 46.2746 29.0787 46.2746 31.574C46.2746 33.961 45.4173 36.0118 43.7026 37.7265C41.9876 39.4415 39.9366 40.299 37.5496 40.299H12.5736ZM12.5736 36.8925H37.5256C38.9879 36.8925 40.2439 36.3692 41.2936 35.3225C42.3433 34.2755 42.8681 33.018 42.8681 31.55C42.8681 30.082 42.3433 28.8245 41.2936 27.7775C40.2439 26.7308 38.9879 26.2075 37.5256 26.2075H34.2681V21.876C34.2681 18.879 33.2648 16.3433 31.2581 14.269C29.2514 12.1947 26.8004 11.1575 23.9051 11.1575C20.9921 11.1575 18.5264 12.2095 16.5081 14.3135C14.4901 16.4175 13.4811 18.9822 13.4811 22.0075H12.4236C10.3866 22.0075 8.66194 22.7218 7.24961 24.1505C5.83728 25.5788 5.13111 27.3445 5.13111 29.4475C5.13111 31.5172 5.85394 33.2755 7.29961 34.7225C8.74528 36.1692 10.5033 36.8925 12.5736 36.8925Z" fill="#006CC9"/>
</svg>
