<svg width="48" height="48" viewBox="0 0 48 48" fill="none" xmlns="http://www.w3.org/2000/svg">
<path d="M12.5741 40.299C9.56843 40.299 7.00893 39.2473 4.8956 37.144C2.78193 35.0407 1.7251 32.484 1.7251 29.474C1.7251 26.826 2.56243 24.4888 4.2371 22.4625C5.91176 20.4362 8.05226 19.215 10.6586 18.799C11.3573 15.5417 12.9566 12.884 15.4566 10.826C17.9566 8.76801 20.8389 7.73901 24.1036 7.73901C27.8666 7.73901 31.0513 9.10135 33.6576 11.826C36.2643 14.5507 37.5994 17.825 37.6631 21.649V22.849C40.0871 22.854 42.1284 23.6855 43.7871 25.3435C45.4458 27.0018 46.2751 29.0787 46.2751 31.574C46.2751 33.961 45.4178 36.0118 43.7031 37.7265C41.9881 39.4415 39.9371 40.299 37.5501 40.299H12.5741ZM12.5741 36.8925H37.5261C38.9884 36.8925 40.2444 36.3692 41.2941 35.3225C42.3438 34.2755 42.8686 33.018 42.8686 31.55C42.8686 30.082 42.3438 28.8245 41.2941 27.7775C40.2444 26.7308 38.9884 26.2075 37.5261 26.2075H34.2686V21.876C34.2686 18.879 33.2653 16.3433 31.2586 14.269C29.2519 12.1947 26.8009 11.1575 23.9056 11.1575C20.9926 11.1575 18.5269 12.2095 16.5086 14.3135C14.4906 16.4175 13.4816 18.9822 13.4816 22.0075H12.4241C10.3871 22.0075 8.66243 22.7218 7.2501 24.1505C5.83776 25.5788 5.1316 27.3445 5.1316 29.4475C5.1316 31.5172 5.85443 33.2755 7.3001 34.7225C8.74576 36.1692 10.5038 36.8925 12.5741 36.8925Z" fill="#14D3F3"/>
</svg>
