<svg width="48" height="48" viewBox="0 0 48 48" fill="none" xmlns="http://www.w3.org/2000/svg">
<path d="M30.6004 17.411L28.5699 15.3805C28.3379 15.1485 28.0647 15.0408 27.7504 15.0575C27.436 15.0742 27.1629 15.1985 26.9309 15.4305C26.6989 15.6625 26.5829 15.9357 26.5829 16.25C26.5829 16.5643 26.6989 16.8375 26.9309 17.0695L29.3949 19.5335C29.7349 19.8655 30.1347 20.0335 30.5944 20.0375C31.054 20.0415 31.4539 19.8735 31.7939 19.5335L37.0699 14.2195C37.3019 13.9875 37.4179 13.7143 37.4179 13.4C37.4179 13.0857 37.3019 12.8125 37.0699 12.5805C36.8379 12.3565 36.5667 12.2425 36.2564 12.2385C35.9457 12.2345 35.6745 12.3485 35.4429 12.5805L30.6004 17.411ZM7.50038 40.562C7.01971 40.562 6.61571 40.3975 6.28838 40.0685C5.96071 39.7395 5.79688 39.3333 5.79688 38.85C5.79688 38.3667 5.96071 37.9633 6.28838 37.64C6.61571 37.317 7.01971 37.1555 7.50038 37.1555H28.5004C28.981 37.1555 29.385 37.32 29.7124 37.649C30.04 37.978 30.2039 38.3842 30.2039 38.8675C30.2039 39.3508 30.04 39.754 29.7124 40.077C29.385 40.4003 28.981 40.562 28.5004 40.562H7.50038ZM31.9949 25.727C29.2935 25.727 26.9979 24.7803 25.1079 22.887C23.2182 20.9937 22.2734 18.6962 22.2734 15.9945C22.2734 13.2932 23.22 10.9955 25.1134 9.10149C27.0067 7.20782 29.3042 6.26099 32.0059 6.26099C34.7072 6.26099 37.0049 7.20966 38.8989 9.10699C40.7925 11.0043 41.7394 13.3038 41.7394 16.0055C41.7394 18.7068 40.7907 21.0025 38.8934 22.8925C36.996 24.7822 34.6965 25.727 31.9949 25.727ZM7.50038 23.2035C7.01971 23.2035 6.61571 23.0388 6.28838 22.7095C5.96071 22.3805 5.79688 21.9743 5.79688 21.491C5.79688 21.008 5.96071 20.6048 6.28838 20.2815C6.61571 19.9582 7.01971 19.7965 7.50038 19.7965H17.7079C18.1889 19.7965 18.595 19.9665 18.9264 20.3065C19.2577 20.6465 19.4234 21.0503 19.4234 21.518C19.4234 21.9617 19.2577 22.3535 18.9264 22.6935C18.595 23.0335 18.1889 23.2035 17.7079 23.2035H7.50038ZM7.50038 31.8825C7.01971 31.8825 6.61571 31.718 6.28838 31.389C5.96071 31.06 5.79688 30.6538 5.79688 30.1705C5.79688 29.6872 5.96071 29.284 6.28838 28.961C6.61571 28.6377 7.01971 28.476 7.50038 28.476H25.5364C26.009 28.476 26.411 28.646 26.7424 28.986C27.0737 29.3257 27.2394 29.7295 27.2394 30.1975C27.2394 30.6332 27.082 31.023 26.7674 31.367C26.4524 31.7107 26.042 31.8825 25.5364 31.8825H7.50038Z" fill="#5AE0F6"/>
</svg>
