<svg width="48" height="48" viewBox="0 0 48 48" fill="none" xmlns="http://www.w3.org/2000/svg">
<path d="M13.4007 40.6576C11.6774 40.6576 10.2627 40.0379 9.15669 38.7986C8.05035 37.5589 7.58052 36.0942 7.74719 34.4046H4.76469C4.28402 34.4046 3.87985 34.2401 3.55219 33.9111C3.22485 33.5817 3.06119 33.1756 3.06119 32.6926C3.06119 32.2092 3.22485 31.8059 3.55219 31.4826C3.87985 31.1596 4.28402 30.9981 4.76469 30.9981H9.39169C9.87569 30.4617 10.4597 30.0366 11.1437 29.7226C11.8277 29.4082 12.5795 29.2511 13.3992 29.2511C14.2189 29.2511 14.969 29.4084 15.6497 29.7231C16.33 30.0381 16.9165 30.4631 17.4092 30.9981H27.3692L32.0287 10.7491H11.1917C10.6947 10.7491 10.2929 10.5846 9.98619 10.2556C9.67985 9.92657 9.52669 9.52073 9.52669 9.03807C9.52669 8.5554 9.69035 8.15007 10.0177 7.82207C10.345 7.4944 10.753 7.33057 11.2417 7.33057H34.1417C34.6724 7.33057 35.1159 7.54807 35.4722 7.98307C35.8289 8.4184 35.9532 8.90123 35.8452 9.43157L34.2472 16.2966H38.7822C39.3269 16.2966 39.838 16.4149 40.3157 16.6516C40.7937 16.8879 41.194 17.2214 41.5167 17.6521L45.3852 22.8466C45.6872 23.2616 45.887 23.6912 45.9847 24.1356C46.0824 24.5802 46.0899 25.0456 46.0072 25.5316L44.5212 32.9991C44.4399 33.4024 44.2394 33.7374 43.9197 34.0041C43.6 34.2711 43.2367 34.4046 42.8297 34.4046H40.1037C40.2704 36.1016 39.7924 37.5681 38.6697 38.8041C37.5467 40.0397 36.1237 40.6576 34.4007 40.6576C32.6774 40.6576 31.2627 40.0379 30.1567 38.7986C29.0504 37.5589 28.5805 36.0942 28.7472 34.4046H19.1037C19.2704 36.1016 18.7924 37.5681 17.6697 38.8041C16.5467 40.0397 15.1237 40.6576 13.4007 40.6576ZM31.8877 26.5481H42.2907L42.6147 24.8261L38.7822 19.7036H33.4572L31.8877 26.5481ZM27.7692 29.1981L28.0942 27.8921C28.3109 27.0214 28.5525 25.9487 28.8192 24.6741C28.9655 24.0934 29.0934 23.5394 29.2027 23.0121C29.312 22.4844 29.4202 22.0259 29.5272 21.6366L29.8472 20.3321C30.0602 19.4621 30.302 18.3891 30.5727 17.1131C30.8434 15.8371 31.0807 14.7617 31.2847 13.8871L31.5907 12.5751L32.0287 10.7491L27.3692 30.9981L27.7692 29.1981ZM2.97019 26.3771C2.47319 26.3771 2.07135 26.2134 1.76469 25.8861C1.45802 25.5587 1.30469 25.1547 1.30469 24.6741C1.30469 24.1931 1.46635 23.7889 1.78969 23.4616C2.11302 23.1342 2.52319 22.9706 3.02019 22.9706H11.0322C11.5129 22.9706 11.9169 23.1351 12.2442 23.4641C12.5715 23.7934 12.7352 24.1996 12.7352 24.6826C12.7352 25.1659 12.5715 25.5692 12.2442 25.8926C11.9169 26.2156 11.5129 26.3771 11.0322 26.3771H2.97019ZM6.97019 18.8141C6.48152 18.8141 6.07335 18.6496 5.74569 18.3206C5.41835 17.9916 5.25469 17.5857 5.25469 17.1031C5.25469 16.6207 5.41835 16.2156 5.74569 15.8876C6.07335 15.5596 6.48152 15.3956 6.97019 15.3956H17.0202C17.4999 15.3956 17.9057 15.5624 18.2377 15.8961C18.5694 16.2301 18.7352 16.6382 18.7352 17.1206C18.7352 17.6032 18.5694 18.0062 18.2377 18.3296C17.9057 18.6526 17.4999 18.8141 17.0202 18.8141H6.97019ZM13.4237 37.2511C14.049 37.2511 14.5842 37.0207 15.0292 36.5601C15.4745 36.0994 15.6972 35.5564 15.6972 34.9311C15.6972 34.3061 15.4774 33.7709 15.0377 33.3256C14.5977 32.8802 14.0525 32.6576 13.4022 32.6576C12.7939 32.6576 12.2587 32.8776 11.7967 33.3176C11.3347 33.7572 11.1037 34.3022 11.1037 34.9526C11.1037 35.5612 11.334 36.0964 11.7947 36.5581C12.2554 37.0201 12.7984 37.2511 13.4237 37.2511ZM34.4237 37.2511C35.049 37.2511 35.5842 37.0207 36.0292 36.5601C36.4745 36.0994 36.6972 35.5564 36.6972 34.9311C36.6972 34.3061 36.4774 33.7709 36.0377 33.3256C35.5977 32.8802 35.0525 32.6576 34.4022 32.6576C33.7939 32.6576 33.2587 32.8776 32.7967 33.3176C32.3347 33.7572 32.1037 34.3022 32.1037 34.9526C32.1037 35.5612 32.334 36.0964 32.7947 36.5581C33.2554 37.0201 33.7984 37.2511 34.4237 37.2511Z" fill="#006CC9"/>
</svg>
