<svg width="48" height="48" viewBox="0 0 48 48" fill="none" xmlns="http://www.w3.org/2000/svg">
<path d="M24.0002 6.96998L10.9252 14.5145L24.0002 22.109L37.0372 14.5145L24.0002 6.96998ZM5.70117 32.4405V15.5605C5.70117 14.9585 5.84834 14.395 6.14267 13.87C6.43701 13.345 6.85767 12.9221 7.40467 12.6015L22.2967 4.01147C22.591 3.83681 22.872 3.71848 23.1397 3.65648C23.4077 3.59448 23.6928 3.56348 23.9952 3.56348C24.2978 3.56348 24.5913 3.59498 24.8757 3.65798C25.16 3.72098 25.436 3.83881 25.7037 4.01147L40.5957 12.6015C41.1427 12.9221 41.5653 13.345 41.8637 13.87C42.162 14.395 42.3112 14.9585 42.3112 15.5605V24.297C42.3112 24.778 42.1443 25.1821 41.8107 25.5095C41.4767 25.8368 41.0685 26.0005 40.5862 26.0005C40.1035 26.0005 39.7005 25.8368 39.3772 25.5095C39.0542 25.1821 38.8927 24.778 38.8927 24.297V17.2395L25.7652 24.9105C25.2348 25.2248 24.6672 25.3903 24.0622 25.407C23.4572 25.4236 22.8893 25.2748 22.3587 24.9605L9.10767 17.2895V32.4405L23.5132 40.7125C23.7698 40.8635 23.9748 41.0668 24.1282 41.3225C24.2818 41.5781 24.3587 41.8665 24.3587 42.1875C24.3587 42.8395 24.0748 43.3283 23.5072 43.654C22.9395 43.98 22.3738 43.9856 21.8102 43.671L7.40467 35.3995C6.86567 35.0708 6.44701 34.6468 6.14867 34.1275C5.85034 33.6081 5.70117 33.0458 5.70117 32.4405ZM36.8587 48.0005C34.2587 48.0005 32.0253 47.0771 30.1587 45.2305C28.292 43.3838 27.3587 41.1505 27.3587 38.5305C27.3587 35.9105 28.292 33.6671 30.1587 31.8005C32.0253 29.9338 34.2587 29.0005 36.8587 29.0005C39.4587 29.0005 41.692 29.9316 43.5587 31.794C45.4253 33.656 46.3587 35.9081 46.3587 38.5505C46.3587 41.1648 45.4253 43.3935 43.5587 45.2365C41.692 47.0791 39.4587 48.0005 36.8587 48.0005ZM36.5492 41.171L33.3067 37.9405C33.1307 37.7661 32.9477 37.679 32.7577 37.679C32.568 37.679 32.3858 37.7668 32.2112 37.9425C32.0445 38.1101 31.9612 38.2971 31.9612 38.5035C31.9612 38.7095 32.0445 38.8998 32.2112 39.0745L36.1537 43.079C36.3373 43.2606 36.5308 43.393 36.7342 43.476C36.9375 43.559 37.1483 43.6005 37.3667 43.6005C37.5853 43.6005 37.7938 43.559 37.9922 43.476C38.1902 43.393 38.3808 43.2606 38.5642 43.079L42.5687 39.0745C42.7433 38.8961 42.8287 38.7063 42.8247 38.505C42.8207 38.3033 42.7308 38.1151 42.5552 37.9405C42.3792 37.7661 42.1882 37.679 41.9822 37.679C41.7762 37.679 41.5858 37.7661 41.4112 37.9405L38.1807 41.171V33.5265C38.1807 33.3105 38.0995 33.1215 37.9372 32.9595C37.7748 32.7978 37.5855 32.717 37.3692 32.717C37.1465 32.717 36.9542 32.7978 36.7922 32.9595C36.6302 33.1215 36.5492 33.3105 36.5492 33.5265V41.171Z" fill="#5AE0F6"/>
</svg>
