<svg width="48" height="48" viewBox="0 0 48 48" fill="none" xmlns="http://www.w3.org/2000/svg">
<path d="M3.69922 36.848V35.233C3.69922 33.9776 4.01889 32.8633 4.65822 31.89C5.29722 30.917 6.16805 30.1765 7.27072 29.6685C9.27605 28.7685 11.3382 28.0395 13.4572 27.4815C15.5766 26.9235 17.7529 26.6445 19.9862 26.6445C20.4659 26.6445 20.8781 26.8081 21.2227 27.1355C21.5674 27.4625 21.7397 27.8745 21.7397 28.3715C21.7397 28.8465 21.5694 29.2471 21.2287 29.5735C20.8881 29.8998 20.4819 30.063 20.0102 30.063C18.1246 30.063 16.2614 30.2631 14.4207 30.6635C12.5801 31.0641 10.6756 31.7465 8.70722 32.7105C8.17355 32.9765 7.77322 33.3461 7.50622 33.8195C7.23922 34.2928 7.10572 34.7795 7.10572 35.2795V36.848H20.0362C20.5189 36.848 20.9234 37.0125 21.2497 37.3415C21.5764 37.6705 21.7397 38.0766 21.7397 38.56C21.7397 39.0433 21.5764 39.4465 21.2497 39.7695C20.9234 40.0928 20.5189 40.2545 20.0362 40.2545H7.10572C6.16072 40.2545 5.35672 39.9208 4.69372 39.2535C4.03072 38.5861 3.69922 37.7843 3.69922 36.848ZM34.3002 42.413C34.0742 42.413 33.8502 42.3881 33.6282 42.3385C33.4062 42.2888 33.1981 42.2016 33.0037 42.077L26.3972 38.211C25.9949 37.977 25.6831 37.664 25.4617 37.272C25.2404 36.8796 25.1297 36.451 25.1297 35.986V28.2915C25.1297 27.8238 25.2404 27.3928 25.4617 26.9985C25.6831 26.6041 25.9949 26.2895 26.3972 26.0545L33.0157 22.2C33.2131 22.081 33.4229 21.9971 33.6452 21.9485C33.8672 21.9001 34.0882 21.876 34.3082 21.876C34.5282 21.876 34.7402 21.9038 34.9442 21.9595C35.1482 22.0151 35.3517 22.0958 35.5547 22.2015L42.1592 26.0545C42.5599 26.2891 42.8796 26.6036 43.1182 26.998C43.3572 27.3926 43.4767 27.8238 43.4767 28.2915V35.986C43.4767 36.45 43.3586 36.8778 43.1222 37.2695C42.8859 37.6611 42.5649 37.975 42.1592 38.211L35.5527 42.077C35.3567 42.182 35.1546 42.2641 34.9462 42.3235C34.7379 42.3831 34.5226 42.413 34.3002 42.413ZM19.9957 23.5945C17.7064 23.5945 15.8347 22.8675 14.3807 21.4135C12.9264 19.9591 12.1992 18.0873 12.1992 15.798C12.1992 13.5086 12.9264 11.6361 14.3807 10.1805C15.8347 8.72446 17.7064 7.99646 19.9957 7.99646C22.2851 7.99646 24.1596 8.72446 25.6192 10.1805C27.0792 11.6361 27.8092 13.5086 27.8092 15.798C27.8092 18.0873 27.0792 19.9591 25.6192 21.4135C24.1596 22.8675 22.2851 23.5945 19.9957 23.5945ZM19.9957 20.188C21.2654 20.188 22.3154 19.7736 23.1457 18.945C23.9757 18.116 24.3907 17.0663 24.3907 15.796C24.3907 14.5223 23.9764 13.4718 23.1477 12.6445C22.3194 11.8171 21.2704 11.4035 20.0007 11.4035C18.7311 11.4035 17.6811 11.8173 16.8507 12.645C16.0207 13.473 15.6057 14.5213 15.6057 15.79C15.6057 17.0623 16.0201 18.1133 16.8487 18.943C17.6771 19.773 18.7261 20.188 19.9957 20.188ZM29.3047 27.4835L34.3092 30.412L39.3017 27.4835L34.3092 24.5935L29.3047 27.4835ZM35.6427 38.848L40.7852 35.9345V29.811L35.6427 32.851V38.848ZM27.8212 35.9195L32.9632 38.948V32.8935L27.8212 29.911V35.9195Z" fill="#5AE0F6"/>
</svg>
