<svg width="48" height="48" viewBox="0 0 48 48" fill="none" xmlns="http://www.w3.org/2000/svg">
<path d="M24.0021 6.96949L10.9271 14.514L24.0021 22.1085L37.0391 14.514L24.0021 6.96949ZM5.70312 32.44V15.56C5.70312 14.958 5.85029 14.3945 6.14463 13.8695C6.43896 13.3445 6.85962 12.9217 7.40663 12.601L22.2986 4.01099C22.593 3.83632 22.874 3.71799 23.1416 3.65599C23.4096 3.59399 23.6948 3.56299 23.9971 3.56299C24.2998 3.56299 24.5933 3.59449 24.8776 3.65749C25.162 3.72049 25.438 3.83832 25.7056 4.01099L40.5976 12.601C41.1446 12.9217 41.5673 13.3445 41.8656 13.8695C42.164 14.3945 42.3131 14.958 42.3131 15.56V24.2965C42.3131 24.7775 42.1463 25.1817 41.8126 25.509C41.4786 25.8363 41.0705 26 40.5881 26C40.1055 26 39.7025 25.8363 39.3791 25.509C39.0561 25.1817 38.8946 24.7775 38.8946 24.2965V17.239L25.7671 24.91C25.2368 25.2243 24.6691 25.3898 24.0641 25.4065C23.4591 25.4232 22.8913 25.2743 22.3606 24.96L9.10962 17.289V32.44L23.5151 40.712C23.7718 40.863 23.9768 41.0663 24.1301 41.322C24.2838 41.5777 24.3606 41.866 24.3606 42.187C24.3606 42.839 24.0768 43.3278 23.5091 43.6535C22.9415 43.9795 22.3758 43.9852 21.8121 43.6705L7.40663 35.399C6.86762 35.0703 6.44896 34.6463 6.15063 34.127C5.85229 33.6077 5.70312 33.0453 5.70312 32.44ZM36.8606 48C34.2606 48 32.0273 47.0767 30.1606 45.23C28.294 43.3833 27.3606 41.15 27.3606 38.53C27.3606 35.91 28.294 33.6667 30.1606 31.8C32.0273 29.9333 34.2606 29 36.8606 29C39.4606 29 41.694 29.9312 43.5606 31.7935C45.4273 33.6555 46.3606 35.9077 46.3606 38.55C46.3606 41.1643 45.4273 43.393 43.5606 45.236C41.694 47.0787 39.4606 48 36.8606 48ZM37.9826 38.302V33.172C37.9826 32.8573 37.8765 32.594 37.6641 32.382C37.4518 32.17 37.1875 32.064 36.8711 32.064C36.5485 32.064 36.2811 32.1712 36.0691 32.3855C35.8571 32.5998 35.7511 32.8662 35.7511 33.1845V38.226C35.7511 38.4617 35.7968 38.6855 35.8881 38.8975C35.9795 39.1092 36.1163 39.2998 36.2986 39.4695L40.0736 42.9335C40.257 43.1162 40.49 43.1992 40.7726 43.1825C41.0553 43.1658 41.286 43.0657 41.4646 42.882C41.6766 42.665 41.7743 42.4157 41.7576 42.134C41.741 41.8527 41.6286 41.6207 41.4206 41.438L37.9826 38.302Z" fill="#5AE0F6"/>
</svg>
