<svg width="48" height="48" viewBox="0 0 48 48" fill="none" xmlns="http://www.w3.org/2000/svg">
<path d="M13.7956 31.4361H26.7001C27.9681 31.4361 29.0351 30.9874 29.9011 30.0901C30.7671 29.1924 31.2001 28.1094 31.2001 26.8411C31.2001 25.5964 30.7591 24.5388 29.8771 23.6681C28.9951 22.7974 27.9308 22.3461 26.6841 22.3141H26.2341L26.1841 21.8641C25.8868 20.3438 25.1378 19.1049 23.9371 18.1476C22.7361 17.1899 21.3593 16.7111 19.8066 16.7111C18.5496 16.7111 17.4063 17.0428 16.3766 17.7061C15.3466 18.3694 14.5483 19.2558 13.9816 20.3651L13.8316 20.6151L13.5316 20.6651C12.096 20.7424 10.8783 21.2984 9.87862 22.3331C8.87929 23.3681 8.37962 24.6021 8.37962 26.0351C8.37962 27.5441 8.90613 28.8216 9.95912 29.8676C11.0125 30.9133 12.2913 31.4361 13.7956 31.4361ZM13.8916 28.2926C13.2256 28.2926 12.6643 28.0718 12.2076 27.6301C11.7513 27.1884 11.5231 26.6326 11.5231 25.9626C11.5231 25.2926 11.7513 24.7339 12.2076 24.2866C12.6643 23.8389 13.2256 23.6151 13.8916 23.6151H15.8796V23.6991C15.9036 22.6341 16.2963 21.7271 17.0576 20.9781C17.819 20.2291 18.734 19.8546 19.8026 19.8546C20.8796 19.8546 21.8045 20.2416 22.5771 21.0156C23.3498 21.7893 23.7361 22.7236 23.7361 23.8186V25.4361H26.6286C27.0426 25.4361 27.3841 25.5709 27.6531 25.8406C27.9221 26.1103 28.0566 26.4526 28.0566 26.8676C28.0566 27.2826 27.9221 27.6239 27.6531 27.8916C27.3841 28.1589 27.0426 28.2926 26.6286 28.2926H13.8916ZM15.6721 46.3586C15.1911 46.3586 14.787 46.1946 14.4596 45.8666C14.1323 45.5383 13.9686 45.1281 13.9686 44.6361C13.9686 44.1504 14.1318 43.7464 14.4581 43.4241C14.7848 43.1014 15.1895 42.9401 15.6721 42.9401H17.0926V38.0991H5.05912C4.13579 38.0991 3.33512 37.7613 2.65712 37.0856C1.97946 36.4103 1.64062 35.6126 1.64062 34.6926V13.4666C1.64062 12.5433 1.97946 11.7426 2.65712 11.0646C3.33512 10.3869 4.13579 10.0481 5.05912 10.0481H34.5326C35.456 10.0481 36.2566 10.3869 36.9346 11.0646C37.6123 11.7426 37.9511 12.5433 37.9511 13.4666V34.6926C37.9511 35.6126 37.6123 36.4103 36.9346 37.0856C36.2566 37.7613 35.456 38.0991 34.5326 38.0991H22.4991V42.9401H23.8696C24.3523 42.9401 24.7568 43.1071 25.0831 43.4411C25.4098 43.7748 25.5731 44.1829 25.5731 44.6656C25.5731 45.1479 25.4071 45.5508 25.0751 45.8741C24.7435 46.1971 24.3376 46.3586 23.8576 46.3586H15.6721ZM42.9511 26.0021V5.0481H11.6871C11.1985 5.0481 10.7905 4.8836 10.4631 4.5546C10.1358 4.22527 9.97213 3.8191 9.97213 3.3361C9.97213 2.85277 10.1358 2.44943 10.4631 2.1261C10.7905 1.8031 11.1985 1.6416 11.6871 1.6416H42.9511C43.8628 1.6416 44.6585 1.98143 45.3381 2.6611C46.0178 3.34077 46.3576 4.13644 46.3576 5.0481V26.0021C46.3576 26.4831 46.1931 26.8873 45.8641 27.2146C45.5351 27.5419 45.129 27.7056 44.6456 27.7056C44.1623 27.7056 43.7591 27.5419 43.4361 27.2146C43.1128 26.8873 42.9511 26.4831 42.9511 26.0021ZM5.05912 34.6926H34.5326V13.4666H5.05912V34.6926Z" fill="#006CC9"/>
</svg>
