<svg width="48" height="48" viewBox="0 0 48 48" fill="none" xmlns="http://www.w3.org/2000/svg">
<path d="M23.1797 40.299H5.40467C4.92367 40.299 4.51951 40.1345 4.19217 39.8055C3.86484 39.4765 3.70117 39.0703 3.70117 38.587C3.70117 38.1036 3.86484 37.7003 4.19217 37.377C4.51951 37.054 4.92367 36.8925 5.40467 36.8925H23.1797C23.6593 36.8925 24.0652 37.057 24.3972 37.386C24.7288 37.715 24.8947 38.1211 24.8947 38.6045C24.8947 39.0878 24.7288 39.491 24.3972 39.814C24.0652 40.1373 23.6593 40.299 23.1797 40.299ZM9.09567 33.8925C8.17267 33.8925 7.37217 33.5535 6.69417 32.8755C6.01617 32.1978 5.67717 31.3973 5.67717 30.474V11.1075C5.67717 10.1841 6.01617 9.38363 6.69417 8.70596C7.37217 8.02796 8.17267 7.68896 9.09567 7.68896H40.6077C41.0887 7.68896 41.4928 7.8558 41.8202 8.18946C42.1475 8.52346 42.3112 8.93163 42.3112 9.41396C42.3112 9.89663 42.1475 10.2996 41.8202 10.623C41.4928 10.946 41.0887 11.1075 40.6077 11.1075H9.09567V30.474H23.1797C23.6593 30.474 24.0652 30.6408 24.3972 30.9745C24.7288 31.3081 24.8947 31.7163 24.8947 32.199C24.8947 32.6816 24.7288 33.0845 24.3972 33.4075C24.0652 33.7308 23.6593 33.8925 23.1797 33.8925H9.09567ZM41.0717 37.0715V17.335H31.1217V37.0715H41.0717ZM30.4557 40.299C29.768 40.299 29.1692 40.044 28.6592 39.534C28.1495 39.0243 27.8947 38.4256 27.8947 37.738V16.6565C27.8947 15.9668 28.1495 15.3696 28.6592 14.865C29.1692 14.36 29.768 14.1075 30.4557 14.1075H41.7502C42.4378 14.1075 43.0365 14.36 43.5462 14.865C44.0562 15.3696 44.3112 15.9668 44.3112 16.6565V37.738C44.3112 38.4256 44.0562 39.0243 43.5462 39.534C43.0365 40.044 42.4378 40.299 41.7502 40.299H30.4557ZM36.1217 22.514C36.5493 22.514 36.9223 22.356 37.2407 22.04C37.5587 21.7243 37.7177 21.3545 37.7177 20.9305C37.7177 20.5028 37.5587 20.13 37.2407 19.812C36.9223 19.494 36.5413 19.335 36.0977 19.335C35.69 19.335 35.3282 19.494 35.0122 19.812C34.6962 20.13 34.5382 20.5108 34.5382 20.9545C34.5382 21.3625 34.6962 21.7243 35.0122 22.04C35.3282 22.356 35.698 22.514 36.1217 22.514Z" fill="#006CC9"/>
</svg>
