<svg width="49" height="48" viewBox="0 0 49 48" fill="none" xmlns="http://www.w3.org/2000/svg">
<path d="M24.1435 10.85C25.4848 9.342 27.0982 8.15667 28.9835 7.294C30.8688 6.43133 32.8555 6 34.9435 6C38.6102 6 41.7268 7.28333 44.2935 9.85C46.8602 12.4167 48.1435 15.5333 48.1435 19.2C48.1435 20.356 48.0122 21.4807 47.7495 22.574C47.4868 23.6673 47.1262 24.7227 46.6675 25.74C46.4515 26.2293 46.1197 26.5797 45.672 26.791C45.224 27.002 44.7555 27.0162 44.2665 26.8335C43.8358 26.6588 43.5233 26.3687 43.329 25.963C43.1343 25.5573 43.1283 25.1598 43.311 24.7705C43.7697 23.9025 44.122 22.9998 44.368 22.0625C44.614 21.1252 44.737 20.171 44.737 19.2C44.737 16.466 43.7883 14.1502 41.891 12.2525C39.9933 10.3552 37.6775 9.4065 34.9435 9.4065C33.0912 9.4065 31.3735 9.889 29.7905 10.854C28.2072 11.8187 26.7807 12.9812 25.511 14.3415C25.1463 14.7398 24.6952 14.939 24.1575 14.939C23.6198 14.939 23.1593 14.7398 22.776 14.3415C21.492 12.9892 20.061 11.8287 18.483 10.86C16.905 9.891 15.1918 9.4065 13.3435 9.4065C10.6095 9.4065 8.29567 10.3552 6.402 12.2525C4.50867 14.1502 3.562 16.4672 3.562 19.2035C3.562 20.1732 3.685 21.1262 3.931 22.0625C4.177 22.9988 4.52533 23.9055 4.976 24.7825C5.15067 25.1718 5.14067 25.557 4.946 25.938C4.75167 26.3193 4.44717 26.6012 4.0325 26.7835C3.57983 26.9662 3.11917 26.9545 2.6505 26.7485C2.1815 26.5425 1.84183 26.1937 1.6315 25.702C1.16083 24.6767 0.795167 23.6175 0.5345 22.5245C0.273833 21.4312 0.1435 20.323 0.1435 19.2C0.1435 15.5333 1.42683 12.4167 3.9935 9.85C6.56017 7.28333 9.67683 6 13.3435 6C15.4435 6 17.4332 6.43133 19.3125 7.294C21.1918 8.15667 22.8022 9.342 24.1435 10.85ZM1.7035 44.7175C1.2225 44.7175 0.818333 44.5538 0.491 44.2265C0.163667 43.8992 0 43.495 0 43.014V41.924C0 40.9647 0.356 40.1298 1.068 39.4195C1.78 38.7095 2.78133 38.1838 4.072 37.8425C4.86667 37.6075 5.60483 37.4862 6.2865 37.4785C6.96783 37.4705 7.68933 37.4918 8.451 37.5425C8.716 37.5588 8.92717 37.6748 9.0845 37.8905C9.24183 38.1062 9.27733 38.3503 9.191 38.623C9.06533 39.0513 8.97217 39.4882 8.9115 39.9335C8.85083 40.3788 8.8205 40.8423 8.8205 41.324V43.014C8.8205 43.495 8.65683 43.8992 8.3295 44.2265C8.00217 44.5538 7.59817 44.7175 7.1175 44.7175H1.7035ZM12 43.014V41.324C12 39.1093 13.1218 37.3235 15.3655 35.9665C17.6092 34.6092 20.5352 33.9305 24.1435 33.9305C27.7912 33.9305 30.727 34.6092 32.951 35.9665C35.175 37.3235 36.287 39.1093 36.287 41.324V43.014C36.287 43.495 36.1233 43.8992 35.796 44.2265C35.4687 44.5538 35.0645 44.7175 34.5835 44.7175H13.7035C13.2225 44.7175 12.8183 44.5538 12.491 44.2265C12.1637 43.8992 12 43.495 12 43.014ZM41.1695 44.7175C40.6888 44.7175 40.2848 44.5538 39.9575 44.2265C39.6302 43.8992 39.4665 43.495 39.4665 43.014V41.324C39.4665 40.8423 39.437 40.3788 39.378 39.9335C39.3193 39.4882 39.2293 39.0513 39.108 38.623C39.0137 38.3503 39.0452 38.1062 39.2025 37.8905C39.3598 37.6748 39.571 37.5588 39.836 37.5425C40.5977 37.4918 41.3192 37.4705 42.0005 37.4785C42.6822 37.4862 43.4203 37.6075 44.215 37.8425C45.5057 38.1838 46.507 38.7095 47.219 39.4195C47.931 40.1298 48.287 40.9647 48.287 41.924V43.014C48.287 43.495 48.1233 43.8992 47.796 44.2265C47.4687 44.5538 47.0645 44.7175 46.5835 44.7175H41.1695ZM24.133 37.1575C21.593 37.1575 19.5195 37.5377 17.9125 38.298C16.3055 39.058 15.4702 40.0348 15.4065 41.2285V41.4785H32.8805V41.1785C32.8168 40.0182 31.9898 39.058 30.3995 38.298C28.8092 37.5377 26.7203 37.1575 24.133 37.1575ZM7.6235 35.9665C6.64617 35.9665 5.80783 35.6142 5.1085 34.9095C4.4095 34.2052 4.06 33.3593 4.06 32.372C4.06 31.3807 4.41133 30.5353 5.114 29.836C5.81667 29.1367 6.66067 28.787 7.646 28.787C8.635 28.787 9.48117 29.1373 10.1845 29.838C10.8875 30.5387 11.239 31.3908 11.239 32.3945C11.239 33.3692 10.8878 34.2082 10.1855 34.9115C9.48317 35.6148 8.62917 35.9665 7.6235 35.9665ZM40.6235 35.9665C39.6462 35.9665 38.8078 35.6142 38.1085 34.9095C37.4095 34.2052 37.06 33.3593 37.06 32.372C37.06 31.3807 37.4113 30.5353 38.114 29.836C38.8167 29.1367 39.6607 28.787 40.646 28.787C41.635 28.787 42.4812 29.1373 43.1845 29.838C43.8875 30.5387 44.239 31.3908 44.239 32.3945C44.239 33.3692 43.8878 34.2082 43.1855 34.9115C42.4832 35.6148 41.6292 35.9665 40.6235 35.9665ZM24.1495 32.4425C22.4385 32.4425 20.9858 31.8453 19.7915 30.651C18.5972 29.4567 18 28.004 18 26.293C18 24.557 18.5972 23.1002 19.7915 21.9225C20.9858 20.7445 22.4385 20.1555 24.1495 20.1555C25.8855 20.1555 27.3423 20.7445 28.52 21.9225C29.698 23.1002 30.287 24.557 30.287 26.293C30.287 28.004 29.698 29.4567 28.52 30.651C27.3423 31.8453 25.8855 32.4425 24.1495 32.4425ZM24.161 23.3825C23.34 23.3825 22.6478 23.6597 22.0845 24.214C21.5208 24.768 21.239 25.4563 21.239 26.279C21.239 27.0937 21.5183 27.7847 22.077 28.352C22.6353 28.9197 23.33 29.2035 24.161 29.2035C24.984 29.2035 25.6728 28.9218 26.2275 28.3585C26.7825 27.7952 27.06 27.1023 27.06 26.28C27.06 25.45 26.7802 24.7595 26.2205 24.2085C25.6608 23.6578 24.9743 23.3825 24.161 23.3825Z" fill="#006CC9"/>
</svg>
