<svg width="48" height="48" viewBox="0 0 48 48" fill="none" xmlns="http://www.w3.org/2000/svg">
<path d="M24.0004 44.2036C21.2017 44.2036 18.5739 43.6746 16.1169 42.6166C13.6595 41.5586 11.5209 40.1196 9.70087 38.2996C7.88087 36.4796 6.44187 34.3409 5.38387 31.8836C4.32587 29.4266 3.79688 26.7987 3.79688 24.0001C3.79688 19.8891 4.92338 16.1829 7.17638 12.8816C9.42938 9.58023 12.3954 7.1389 16.0744 5.55757C16.557 5.35924 17.0412 5.32473 17.5269 5.45407C18.0129 5.5834 18.359 5.87657 18.5654 6.33357C18.764 6.72423 18.7737 7.13124 18.5944 7.55457C18.415 7.97757 18.1174 8.2884 17.7014 8.48707C14.505 9.7364 11.9344 11.7727 9.98938 14.5961C8.04437 17.4197 7.07187 20.5544 7.07187 24.0001C7.07187 28.7094 8.71604 32.7081 12.0044 35.9961C15.2924 39.2844 19.291 40.9286 24.0004 40.9286C28.7097 40.9286 32.7084 39.2844 35.9964 35.9961C39.2847 32.7081 40.9289 28.7094 40.9289 24.0001C40.9289 20.5544 39.9564 17.4197 38.0114 14.5961C36.0664 11.7727 33.4997 9.7364 30.3114 8.48707C29.8874 8.2884 29.5857 7.97757 29.4064 7.55457C29.227 7.13124 29.2405 6.72423 29.4469 6.33357C29.6535 5.87657 30.0039 5.5854 30.4979 5.46007C30.9915 5.3344 31.4797 5.3709 31.9624 5.56957C35.6254 7.1589 38.5814 9.60223 40.8304 12.8996C43.0794 16.1969 44.2039 19.8971 44.2039 24.0001C44.2039 26.7987 43.6749 29.4266 42.6169 31.8836C41.5589 34.3409 40.1199 36.4796 38.2999 38.2996C36.4799 40.1196 34.3412 41.5586 31.8839 42.6166C29.4269 43.6746 26.799 44.2036 24.0004 44.2036ZM22.2969 25.1101V5.59807C22.2969 5.10873 22.4585 4.70057 22.7819 4.37357C23.1052 4.04623 23.5114 3.88257 24.0004 3.88257C24.4894 3.88257 24.8955 4.04623 25.2189 4.37357C25.5422 4.70057 25.7039 5.10873 25.7039 5.59807V25.1101L30.7069 20.1066C31.0469 19.7666 31.4447 19.5966 31.9004 19.5966C32.356 19.5966 32.7539 19.7666 33.0939 20.1066C33.4339 20.4466 33.6039 20.8444 33.6039 21.3001C33.6039 21.7557 33.4339 22.1536 33.0939 22.4936L25.2059 30.3816C24.8659 30.7216 24.464 30.8916 24.0004 30.8916C23.5367 30.8916 23.1349 30.7216 22.7949 30.3816L14.9069 22.4936C14.5669 22.1536 14.3969 21.7557 14.3969 21.3001C14.3969 20.8444 14.5669 20.4466 14.9069 20.1066C15.2469 19.7666 15.6447 19.5966 16.1004 19.5966C16.556 19.5966 16.9539 19.7666 17.2939 20.1066L22.2969 25.1101Z" fill="#5AE0F6"/>
</svg>
