<svg width="48" height="48" viewBox="0 0 48 48" fill="none" xmlns="http://www.w3.org/2000/svg">
<path d="M1.81299 40.5835V37.376C1.81299 36.1433 2.10566 35.133 2.69099 34.345C3.27599 33.557 4.05582 32.9296 5.03049 32.463C6.83049 31.5963 8.77732 30.8756 10.871 30.301C12.965 29.7263 15.314 29.439 17.918 29.439C20.522 29.439 22.8688 29.7223 24.9585 30.289C27.0485 30.8556 28.9975 31.5723 30.8055 32.439C31.7722 32.9136 32.548 33.5478 33.133 34.3415C33.7183 35.1348 34.011 36.1463 34.011 37.376V40.5835C34.011 41.0728 33.8493 41.479 33.526 41.802C33.203 42.1253 32.7968 42.287 32.3075 42.287H3.51649C3.02716 42.287 2.62099 42.1253 2.29799 41.802C1.97465 41.479 1.81299 41.0728 1.81299 40.5835ZM5.23149 38.8685H30.6045V37.412C30.6045 36.912 30.4628 36.5096 30.1795 36.205C29.8962 35.9003 29.5545 35.6646 29.1545 35.498C27.7212 34.8646 26.1292 34.2641 24.3785 33.6965C22.6275 33.1291 20.474 32.8455 17.918 32.8455C15.3617 32.8455 13.2082 33.1311 11.4575 33.7025C9.70682 34.2741 8.11482 34.8735 6.68149 35.5005C6.27349 35.6655 5.92982 35.9003 5.65049 36.205C5.37116 36.5096 5.23149 36.912 5.23149 37.412V38.8685ZM17.918 26.439C15.6343 26.439 13.7625 25.6955 12.3025 24.2085C10.8428 22.7215 10.113 20.8853 10.113 18.7H9.61299C9.32132 18.7 9.06782 18.592 8.85249 18.376C8.63716 18.1603 8.52949 17.9061 8.52949 17.6135C8.52949 17.3245 8.63716 17.072 8.85249 16.856C9.06782 16.6403 9.32132 16.5325 9.61299 16.5325H10.113C10.113 15.1595 10.4683 13.9176 11.179 12.807C11.8893 11.6966 12.8217 10.812 13.976 10.153V12.1105C13.976 12.3215 14.0502 12.5 14.1985 12.646C14.3465 12.792 14.5263 12.865 14.738 12.865C14.9633 12.865 15.1467 12.7923 15.288 12.647C15.4293 12.5016 15.5 12.3255 15.5 12.1185V9.52696C15.7693 9.4683 16.139 9.41196 16.609 9.35796C17.0787 9.30396 17.532 9.27696 17.969 9.27696C18.3977 9.27696 18.8453 9.30396 19.312 9.35796C19.7787 9.41196 20.1485 9.46813 20.4215 9.52646V12.1185C20.4215 12.3255 20.4925 12.5016 20.6345 12.647C20.7768 12.7923 20.9647 12.865 21.198 12.865C21.406 12.865 21.585 12.792 21.735 12.646C21.885 12.5 21.96 12.323 21.96 12.115V10.153C23.1063 10.812 24.018 11.6965 24.695 12.8065C25.3723 13.9168 25.711 15.1588 25.711 16.5325H26.211C26.5027 16.5325 26.7562 16.6401 26.9715 16.8555C27.1868 17.0705 27.2945 17.3236 27.2945 17.615C27.2945 17.9063 27.1868 18.16 26.9715 18.376C26.7562 18.592 26.5027 18.7 26.211 18.7H25.711C25.711 20.889 24.983 22.7261 23.527 24.2115C22.0713 25.6965 20.2017 26.439 17.918 26.439ZM17.9235 23.0205C19.2838 23.0205 20.354 22.6143 21.134 21.802C21.9143 20.99 22.3045 19.932 22.3045 18.628H13.5315C13.5315 19.9296 13.921 20.9871 14.7 21.8005C15.4787 22.6138 16.5532 23.0205 17.9235 23.0205ZM33.177 28.5695L33.127 28.0695C32.8937 27.9361 32.6515 27.7861 32.4005 27.6195C32.1492 27.4528 31.9228 27.2821 31.7215 27.1075L31.1675 27.4075C30.9298 27.5408 30.7027 27.5746 30.486 27.509C30.269 27.4433 30.082 27.312 29.925 27.115L29.877 27.0195C29.7103 26.7861 29.652 26.5445 29.702 26.2945C29.752 26.0445 29.877 25.8361 30.077 25.6695L30.627 25.2695C30.5603 25.1361 30.527 25.0111 30.527 24.8945V24.1445C30.527 24.0278 30.5603 23.9028 30.627 23.7695L30.077 23.3695C29.877 23.2028 29.752 23.0028 29.702 22.7695C29.652 22.5361 29.7103 22.3028 29.877 22.0695L29.927 21.9195C30.0857 21.7195 30.2747 21.5861 30.494 21.5195C30.7133 21.4528 30.941 21.4861 31.177 21.6195L31.727 21.9195L32.427 21.4195C32.6603 21.2528 32.8937 21.1028 33.127 20.9695L33.177 20.4195C33.2103 20.1528 33.3187 19.9361 33.502 19.7695C33.6853 19.6028 33.9103 19.5195 34.177 19.5195H34.277C34.5357 19.5195 34.758 19.6111 34.944 19.7945C35.13 19.9778 35.2403 20.2028 35.275 20.4695L35.327 20.9695C35.5603 21.1008 35.7917 21.2503 36.021 21.418C36.2503 21.5856 36.4857 21.7528 36.727 21.9195L37.277 21.6195C37.5103 21.4861 37.7353 21.4528 37.952 21.5195C38.1687 21.5861 38.3603 21.7195 38.527 21.9195L38.577 22.0195C38.7357 22.2528 38.792 22.4945 38.746 22.7445C38.7 22.9945 38.577 23.2028 38.377 23.3695L37.827 23.7695C37.8857 23.9028 37.917 24.0278 37.921 24.1445C37.925 24.2611 37.927 24.3861 37.927 24.5195C37.927 24.6528 37.925 24.7778 37.921 24.8945C37.917 25.0111 37.8857 25.1361 37.827 25.2695L38.377 25.6695C38.577 25.8361 38.7 26.0361 38.746 26.2695C38.792 26.5028 38.7337 26.7361 38.571 26.9695L38.527 27.1195C38.3603 27.3195 38.1687 27.4528 37.952 27.5195C37.7353 27.5861 37.5103 27.5528 37.277 27.4195L36.727 27.1195C36.527 27.2861 36.302 27.4528 36.052 27.6195C35.802 27.7861 35.5603 27.9361 35.327 28.0695L35.275 28.6195C35.2403 28.8861 35.13 29.1028 34.944 29.2695C34.758 29.4361 34.5357 29.5195 34.277 29.5195H34.177C33.9103 29.5195 33.6853 29.4278 33.502 29.2445C33.3187 29.0611 33.2103 28.8361 33.177 28.5695ZM34.227 26.4195C34.7603 26.4195 35.2103 26.2361 35.577 25.8695C35.9437 25.5028 36.127 25.0528 36.127 24.5195C36.127 23.9861 35.9437 23.5361 35.577 23.1695C35.2103 22.8028 34.7583 22.6195 34.221 22.6195C33.6837 22.6195 33.2337 22.8028 32.871 23.1695C32.5083 23.5361 32.327 23.9861 32.327 24.5195C32.327 25.0528 32.5083 25.5028 32.871 25.8695C33.2337 26.2361 33.6857 26.4195 34.227 26.4195ZM38.487 17.886L38.237 16.836C37.9037 16.7026 37.562 16.5193 37.212 16.286C36.862 16.0526 36.5703 15.8026 36.337 15.536L34.937 16.039C34.7037 16.1116 34.4787 16.1126 34.262 16.042C34.0453 15.9713 33.8703 15.836 33.737 15.636L33.537 15.336C33.4037 15.1026 33.362 14.8693 33.412 14.636C33.462 14.4026 33.587 14.2026 33.787 14.036L34.887 13.186C34.8203 13.0193 34.762 12.836 34.712 12.636C34.662 12.436 34.637 12.236 34.637 12.036C34.637 11.836 34.662 11.638 34.712 11.442C34.762 11.246 34.8203 11.0606 34.887 10.886L33.787 10.036C33.587 9.8773 33.462 9.6718 33.412 9.41946C33.362 9.16746 33.4037 8.94063 33.537 8.73896L33.737 8.48596C33.8703 8.28596 34.0453 8.1443 34.262 8.06096C34.4787 7.97763 34.7037 7.9693 34.937 8.03596L36.337 8.53596C36.5703 8.2773 36.862 8.02146 37.212 7.76846C37.562 7.51546 37.9037 7.33796 38.237 7.23596L38.487 6.18596C38.5537 5.98596 38.6703 5.8193 38.837 5.68596C39.0037 5.55263 39.187 5.48596 39.387 5.48596H39.887C40.087 5.48596 40.2703 5.55263 40.437 5.68596C40.6037 5.8193 40.7203 5.98596 40.787 6.18596L41.037 7.23596C41.3703 7.33596 41.712 7.51296 42.062 7.76696C42.412 8.02096 42.7037 8.2773 42.937 8.53596L44.337 8.03596C44.5703 7.9693 44.7953 7.9693 45.012 8.03596C45.2287 8.10263 45.4037 8.23596 45.537 8.43596L45.737 8.73596C45.8703 8.9693 45.912 9.20463 45.862 9.44196C45.812 9.6793 45.687 9.8773 45.487 10.036L44.387 10.886C44.4537 11.0606 44.512 11.2468 44.562 11.4445C44.612 11.6425 44.637 11.8396 44.637 12.036C44.637 12.236 44.612 12.436 44.562 12.636C44.512 12.836 44.4537 13.0193 44.387 13.186L45.487 14.036C45.687 14.2026 45.812 14.411 45.862 14.661C45.912 14.911 45.8703 15.136 45.737 15.336L45.537 15.586C45.4037 15.786 45.2287 15.9296 45.012 16.017C44.7953 16.1043 44.5703 16.1116 44.337 16.039L42.937 15.536C42.7037 15.8026 42.412 16.0526 42.062 16.286C41.712 16.5193 41.3703 16.7026 41.037 16.836L40.787 17.886C40.7203 18.086 40.6037 18.2526 40.437 18.386C40.2703 18.5193 40.087 18.586 39.887 18.586H39.387C39.187 18.586 39.0037 18.5193 38.837 18.386C38.6703 18.2526 38.5537 18.086 38.487 17.886ZM39.637 14.936C40.4703 14.936 41.162 14.661 41.712 14.111C42.262 13.561 42.537 12.8693 42.537 12.036C42.537 11.2026 42.262 10.511 41.712 9.96096C41.162 9.41096 40.4703 9.13596 39.637 9.13596C38.8037 9.13596 38.112 9.41096 37.562 9.96096C37.012 10.511 36.737 11.2026 36.737 12.036C36.737 12.8693 37.012 13.561 37.562 14.111C38.112 14.661 38.8037 14.936 39.637 14.936Z" fill="#14D3F3"/>
</svg>
