<svg width="48" height="48" viewBox="0 0 48 48" fill="none" xmlns="http://www.w3.org/2000/svg">
<path d="M22.4267 31.448V36.5065C22.4267 36.9518 22.5764 37.3252 22.8757 37.6265C23.1754 37.9278 23.5525 38.0785 24.0072 38.0785C24.4615 38.0785 24.8356 37.9295 25.1292 37.6315C25.4229 37.3335 25.5697 36.9585 25.5697 36.5065V31.448H30.6287C31.074 31.448 31.4474 31.2965 31.7487 30.9935C32.0497 30.6905 32.2002 30.3152 32.2002 29.8675C32.2002 29.4128 32.0514 29.0387 31.7537 28.745C31.4557 28.4513 31.0807 28.3045 30.6287 28.3045H25.5697V23.2335C25.5697 22.7882 25.4201 22.415 25.1207 22.114C24.8211 21.8127 24.4439 21.662 23.9892 21.662C23.5349 21.662 23.1609 21.8127 22.8672 22.114C22.5736 22.415 22.4267 22.7882 22.4267 23.2335V28.3045H17.3677C16.9224 28.3045 16.5491 28.4542 16.2477 28.7535C15.9467 29.0532 15.7962 29.4283 15.7962 29.879C15.7962 30.3297 15.9451 30.7038 16.2427 31.0015C16.5407 31.2992 16.9157 31.448 17.3677 31.448H22.4267ZM11.1057 44.275C10.1691 44.275 9.36705 43.9415 8.69972 43.2745C8.03272 42.6072 7.69922 41.8052 7.69922 40.8685V19.3835C7.69922 18.4435 8.03272 17.6388 8.69972 16.9695C9.36705 16.2998 10.1691 15.965 11.1057 15.965H14.3667V11.4285C14.3667 8.74949 15.3046 6.46849 17.1802 4.58549C19.0556 2.70249 21.3291 1.76099 24.0007 1.76099C26.6724 1.76099 28.945 2.70249 30.8187 4.58549C32.6927 6.46849 33.6297 8.74949 33.6297 11.4285V15.965H36.8907C37.8307 15.965 38.6354 16.2998 39.3047 16.9695C39.9744 17.6388 40.3092 18.4435 40.3092 19.3835V40.8685C40.3092 41.8052 39.9744 42.6072 39.3047 43.2745C38.6354 43.9415 37.8307 44.275 36.8907 44.275H11.1057ZM11.1057 40.8685H36.8907V19.3835H11.1057V40.8685ZM17.7732 15.965H30.2232V11.431C30.2232 9.68465 29.6207 8.20615 28.4157 6.99549C27.2107 5.78482 25.7411 5.17949 24.0067 5.17949C22.2727 5.17949 20.8004 5.78482 19.5897 6.99549C18.3787 8.20615 17.7732 9.68465 17.7732 11.431V15.965Z" fill="#5AE0F6"/>
</svg>
