<svg width="48" height="48" viewBox="0 0 48 48" fill="none" xmlns="http://www.w3.org/2000/svg">
<path d="M28.1776 29.6686C27.4029 28.0389 25.9244 26.7336 23.7421 25.7526C21.5594 24.7719 19.2874 24.2816 16.9261 24.2816C14.5647 24.2816 12.2911 24.7719 10.1051 25.7526C7.91873 26.7336 6.42556 28.0389 5.62556 29.6686H28.1776ZM16.9516 21.1501C18.6016 21.1501 20.2186 21.3354 21.8026 21.7061C23.3866 22.0768 24.8457 22.6561 26.1801 23.4441C27.5141 24.2321 28.6644 25.2333 29.6311 26.4476C30.5977 27.6616 31.2802 29.0994 31.6786 30.7611C31.7946 31.2914 31.6839 31.7639 31.3466 32.1786C31.0092 32.5929 30.5689 32.8001 30.0256 32.8001H3.82756C3.28423 32.8001 2.8439 32.5929 2.50656 32.1786C2.16923 31.7639 2.05856 31.2914 2.17456 30.7611C2.5729 29.0994 3.2534 27.6616 4.21606 26.4476C5.17873 25.2333 6.32723 24.2321 7.66156 23.4441C8.99556 22.6561 10.4609 22.0768 12.0576 21.7061C13.6542 21.3354 15.2856 21.1501 16.9516 21.1501ZM3.28656 39.2601C2.84456 39.2601 2.47406 39.1086 2.17506 38.8056C1.87606 38.5029 1.72656 38.1279 1.72656 37.6806C1.72656 37.2366 1.87606 36.8669 2.17506 36.5716C2.47406 36.2763 2.84456 36.1286 3.28656 36.1286H30.5666C31.0086 36.1286 31.3791 36.2788 31.6781 36.5791C31.9771 36.8794 32.1266 37.2518 32.1266 37.6961C32.1266 38.1401 31.9771 38.5118 31.6781 38.8111C31.3791 39.1104 31.0086 39.2601 30.5666 39.2601H3.28656ZM39.4786 46.2751H36.8301C36.3491 46.2751 35.9449 46.1106 35.6176 45.7816C35.2902 45.4526 35.1266 45.0464 35.1266 44.5631C35.1266 44.0798 35.2902 43.6766 35.6176 43.3536C35.9449 43.0303 36.3491 42.8686 36.8301 42.8686H39.5581L42.3601 14.1316H24.0996C23.6102 14.1316 23.2124 13.9671 22.9061 13.6381C22.5994 13.3091 22.4461 12.9029 22.4461 12.4196C22.4461 11.9363 22.6097 11.5331 22.9371 11.2101C23.2644 10.8868 23.6686 10.7251 24.1496 10.7251H32.3721V3.3566C32.3721 2.88893 32.5307 2.5001 32.8481 2.1901C33.1651 1.8801 33.5572 1.7251 34.0246 1.7251C34.4919 1.7251 34.8792 1.8801 35.1866 2.1901C35.4936 2.5001 35.6471 2.88893 35.6471 3.3566V10.7251H44.3996C44.9109 10.7251 45.3412 10.9114 45.6906 11.2841C46.0399 11.6571 46.1772 12.0924 46.1026 12.5901L42.8906 43.1916C42.7796 44.0696 42.4011 44.8029 41.7551 45.3916C41.1087 45.9806 40.3499 46.2751 39.4786 46.2751ZM3.28656 46.2751C2.84456 46.2751 2.47406 46.1238 2.17506 45.8211C1.87606 45.5184 1.72656 45.1434 1.72656 44.6961C1.72656 44.2518 1.87606 43.8819 2.17506 43.5866C2.47406 43.2913 2.84456 43.1436 3.28656 43.1436H30.5666C31.0086 43.1436 31.3791 43.2938 31.6781 43.5941C31.9771 43.8948 32.1266 44.2671 32.1266 44.7111C32.1266 45.1551 31.9771 45.5268 31.6781 45.8261C31.3791 46.1254 31.0086 46.2751 30.5666 46.2751H3.28656Z" fill="#006CC9"/>
</svg>
