<svg width="48" height="48" viewBox="0 0 48 48" fill="none" xmlns="http://www.w3.org/2000/svg">
<path d="M4.44531 33.3295V14.6705C4.44531 14.1482 4.61531 13.7337 4.95531 13.427C5.29531 13.1207 5.69315 12.9675 6.14881 12.9675C6.33948 12.9675 6.51148 12.9965 6.66481 13.0545C6.81781 13.1125 6.96898 13.1955 7.11831 13.3035L20.5433 22.5825C20.8006 22.7652 20.9873 22.9809 21.1033 23.2295C21.2193 23.4779 21.2773 23.7347 21.2773 24C21.2773 24.2654 21.2193 24.5222 21.1033 24.7705C20.9873 25.0192 20.8006 25.2349 20.5433 25.4175L7.11831 34.6965C6.96898 34.8045 6.81781 34.8875 6.66481 34.9455C6.51148 35.0035 6.33948 35.0325 6.14881 35.0325C5.69315 35.0325 5.29531 34.8794 4.95531 34.573C4.61531 34.2664 4.44531 33.8519 4.44531 33.3295ZM25.4533 33.3295V14.6705C25.4533 14.1482 25.6231 13.7337 25.9628 13.427C26.3028 13.1207 26.7006 12.9675 27.1563 12.9675C27.339 12.9675 27.509 12.9965 27.6663 13.0545C27.8236 13.1125 27.9768 13.1955 28.1258 13.3035L41.5388 22.5825C41.8041 22.7652 41.9948 22.9809 42.1108 23.2295C42.2268 23.4779 42.2848 23.7347 42.2848 24C42.2848 24.2654 42.2268 24.5222 42.1108 24.7705C41.9948 25.0192 41.8041 25.2349 41.5388 25.4175L28.1258 34.6965C27.9768 34.8045 27.8236 34.8875 27.6663 34.9455C27.509 35.0035 27.339 35.0325 27.1563 35.0325C26.7006 35.0325 26.3028 34.8794 25.9628 34.573C25.6231 34.2664 25.4533 33.8519 25.4533 33.3295ZM7.86381 30.0465L16.6033 24L7.86381 17.9535V30.0465ZM28.8598 30.0465L37.6228 24L28.8598 17.9535V30.0465Z" fill="#006CC9"/>
</svg>
