<svg width="48" height="48" viewBox="0 0 48 48" fill="none" xmlns="http://www.w3.org/2000/svg">
<path d="M8.99976 42.4061C8.0801 42.4061 7.28243 42.0683 6.60676 41.3926C5.93109 40.7169 5.59326 39.9193 5.59326 38.9996V7.42811C5.59326 6.94711 5.75776 6.54294 6.08676 6.21561C6.41576 5.88828 6.82193 5.72461 7.30526 5.72461C7.78859 5.72461 8.19176 5.88828 8.51476 6.21561C8.8381 6.54294 8.99976 6.94711 8.99976 7.42811V38.9996H40.7033C41.1839 38.9996 41.5899 39.1641 41.9213 39.4931C42.2526 39.8221 42.4183 40.2283 42.4183 40.7116C42.4183 41.1949 42.2526 41.5981 41.9213 41.9211C41.5899 42.2444 41.1839 42.4061 40.7033 42.4061H8.99976ZM14.4358 35.2496C13.9581 35.2496 13.5578 35.0859 13.2348 34.7586C12.9114 34.4313 12.7498 34.0271 12.7498 33.5461V19.9781C12.7498 19.4971 12.9124 19.0929 13.2378 18.7656C13.5631 18.4383 13.9646 18.2746 14.4423 18.2746H17.1453C17.6229 18.2746 18.0233 18.4383 18.3463 18.7656C18.6696 19.0929 18.8313 19.4971 18.8313 19.9781V33.5461C18.8313 34.0271 18.6686 34.4313 18.3433 34.7586C18.0183 35.0859 17.6168 35.2496 17.1388 35.2496H14.4358ZM24.4793 35.2496C23.9936 35.2496 23.5893 35.0859 23.2663 34.7586C22.9429 34.4313 22.7813 34.0271 22.7813 33.5461V9.67811C22.7813 9.19711 22.9439 8.79294 23.2693 8.46561C23.5946 8.13828 24.0001 7.97461 24.4858 7.97461H27.1888C27.6664 7.97461 28.0668 8.13828 28.3898 8.46561C28.7131 8.79294 28.8748 9.19711 28.8748 9.67811V33.5461C28.8748 34.0271 28.7121 34.4313 28.3868 34.7586C28.0614 35.0859 27.6599 35.2496 27.1823 35.2496H24.4793ZM34.3228 35.2496C33.8371 35.2496 33.4328 35.0859 33.1098 34.7586C32.7864 34.4313 32.6248 34.0271 32.6248 33.5461V28.1781C32.6248 27.6971 32.7874 27.2929 33.1128 26.9656C33.4381 26.6383 33.8436 26.4746 34.3293 26.4746H37.0203C37.4979 26.4746 37.9003 26.6383 38.2273 26.9656C38.5546 27.2929 38.7183 27.6971 38.7183 28.1781V33.5461C38.7183 34.0271 38.5536 34.4313 38.2243 34.7586C37.8953 35.0859 37.4918 35.2496 37.0138 35.2496H34.3228Z" fill="#006CC9"/>
</svg>
