<svg width="48" height="48" viewBox="0 0 48 48" fill="none" xmlns="http://www.w3.org/2000/svg">
<path d="M15.8303 24.114V14.44C15.8303 13.79 16.0553 13.2405 16.5053 12.7915C16.9556 12.3429 17.507 12.1185 18.1593 12.1185C18.8116 12.1185 19.3605 12.3429 19.8058 12.7915C20.2508 13.2405 20.4733 13.79 20.4733 14.44V24.114C20.4733 24.7644 20.2483 25.3139 19.7983 25.7625C19.348 26.2115 18.7966 26.436 18.1443 26.436C17.492 26.436 16.9431 26.2115 16.4978 25.7625C16.0528 25.3139 15.8303 24.7644 15.8303 24.114ZM25.6018 26.0285V6.17853C25.6018 5.53686 25.828 4.99137 26.2803 4.54203C26.7326 4.09303 27.282 3.86853 27.9283 3.86853C28.5743 3.86853 29.12 4.09303 29.5653 4.54203C30.0106 4.99137 30.2333 5.53686 30.2333 6.17853V26.0285C30.2333 26.7942 29.9981 27.3725 29.5278 27.7635C29.0571 28.1545 28.5265 28.35 27.9358 28.35C27.3451 28.35 26.8085 28.1545 26.3258 27.7635C25.8431 27.3725 25.6018 26.7942 25.6018 26.0285ZM6.07031 31.1715V22.73C6.07031 22.0877 6.29648 21.5419 6.74881 21.0925C7.20115 20.6432 7.75048 20.4185 8.39681 20.4185C9.04281 20.4185 9.58848 20.6434 10.0338 21.093C10.4791 21.5427 10.7018 22.0889 10.7018 22.7315V31.1775C10.7018 31.9395 10.4651 32.516 9.99181 32.907C9.51815 33.298 8.98698 33.4935 8.39831 33.4935C7.80965 33.4935 7.27448 33.298 6.79281 32.907C6.31115 32.516 6.07031 31.9375 6.07031 31.1715ZM9.62031 42.2195C8.91098 42.2195 8.41931 41.879 8.14531 41.198C7.87131 40.5167 7.99165 39.9189 8.50631 39.4045L17.1463 30.752C17.453 30.4457 17.8321 30.2842 18.2838 30.2675C18.7358 30.2509 19.1356 30.3917 19.4833 30.69L25.7398 36.2085L38.9353 23.013H36.2268C35.7611 23.013 35.3708 22.8545 35.0558 22.5375C34.7408 22.2205 34.5833 21.8284 34.5833 21.361C34.5833 20.8937 34.741 20.5064 35.0563 20.199C35.3717 19.8917 35.7618 19.738 36.2268 19.738H42.8483C43.3293 19.738 43.7335 19.9017 44.0608 20.229C44.3881 20.5564 44.5518 20.9605 44.5518 21.4415V28.013C44.5518 28.4754 44.394 28.8629 44.0783 29.1755C43.763 29.4882 43.3722 29.6445 42.9058 29.6445C42.4392 29.6445 42.051 29.4882 41.7413 29.1755C41.4316 28.8629 41.2768 28.4754 41.2768 28.013V25.3045L26.9833 39.598C26.669 39.9124 26.284 40.0759 25.8283 40.0885C25.3727 40.1012 24.9746 39.9544 24.6343 39.648L18.4018 34.1555L10.8353 41.7335C10.6606 41.9162 10.469 42.0429 10.2603 42.1135C10.0516 42.1842 9.83831 42.2195 9.62031 42.2195Z" fill="#5AE0F6"/>
</svg>
