<svg width="48" height="48" viewBox="0 0 48 48" fill="none" xmlns="http://www.w3.org/2000/svg">
<path d="M39.436 21.8L31.0295 13.3435C30.6815 13.0035 30.5075 12.5973 30.5075 12.125C30.5075 11.6527 30.6815 11.2465 31.0295 10.9065C31.3692 10.5665 31.765 10.3965 32.217 10.3965C32.6687 10.3965 33.0685 10.5665 33.4165 10.9065L43.1045 20.5945C43.2872 20.7772 43.4198 20.9678 43.5025 21.1665C43.5848 21.3648 43.626 21.576 43.626 21.8C43.626 22.024 43.5848 22.2352 43.5025 22.4335C43.4198 22.6322 43.2872 22.8228 43.1045 23.0055L33.4665 32.6435C33.1265 32.9835 32.7183 33.1535 32.242 33.1535C31.7657 33.1535 31.3615 32.9835 31.0295 32.6435C30.6815 32.3035 30.5012 31.9057 30.4885 31.45C30.4758 30.9943 30.6395 30.5965 30.9795 30.2565L39.436 21.8ZM28.147 23.5035H13.8535C11.9012 23.5035 10.297 24.1315 9.041 25.3875C7.78467 26.6435 7.1565 28.2477 7.1565 30.2V36.5955C7.1565 37.0848 6.995 37.491 6.672 37.814C6.34867 38.1373 5.9425 38.299 5.4535 38.299C4.96417 38.299 4.558 38.1373 4.235 37.814C3.91167 37.491 3.75 37.0848 3.75 36.5955V30.2C3.75 27.319 4.71167 24.9148 6.635 22.9875C8.558 21.0602 10.9642 20.0965 13.8535 20.0965H28.147L21.4435 13.3315C21.1038 12.9995 20.934 12.5973 20.934 12.125C20.934 11.6527 21.1038 11.2465 21.4435 10.9065C21.7755 10.5665 22.1713 10.3965 22.631 10.3965C23.0907 10.3965 23.4905 10.5665 23.8305 10.9065L33.5185 20.5945C33.7012 20.7772 33.8338 20.9678 33.9165 21.1665C33.9992 21.3648 34.0405 21.576 34.0405 21.8C34.0405 22.024 33.9992 22.2352 33.9165 22.4335C33.8338 22.6322 33.7012 22.8228 33.5185 23.0055L23.8805 32.6435C23.5405 32.9835 23.1323 33.1535 22.656 33.1535C22.1797 33.1535 21.7755 32.9835 21.4435 32.6435C21.1038 32.3035 20.9275 31.9057 20.9145 31.45C20.9018 30.9943 21.0655 30.5965 21.4055 30.2565L28.147 23.5035Z" fill="#006CC9"/>
</svg>
