<svg width="48" height="48" viewBox="0 0 48 48" fill="none" xmlns="http://www.w3.org/2000/svg">
<path d="M13.2542 33.9629V40.5954C13.2542 41.0764 13.0875 41.4805 12.7542 41.8079C12.4212 42.1352 12.0132 42.2989 11.5302 42.2989C11.0469 42.2989 10.6435 42.1352 10.3202 41.8079C9.9972 41.4805 9.8357 41.0764 9.8357 40.5954V33.9629H7.3887C6.90803 33.9629 6.50403 33.7984 6.1767 33.4694C5.84937 33.1404 5.6857 32.7302 5.6857 32.2389C5.6857 31.7555 5.84937 31.3524 6.1767 31.0294C6.50403 30.7061 6.90803 30.5444 7.3887 30.5444H9.8357V20.8184L5.0702 24.4174C4.68753 24.7237 4.27503 24.8459 3.8327 24.7839C3.39037 24.7222 3.01987 24.5007 2.7212 24.1194C2.42287 23.7541 2.31103 23.3416 2.3857 22.8819C2.46003 22.4222 2.68387 22.0431 3.0572 21.7444L21.9497 7.29239C22.256 7.06039 22.5847 6.87805 22.9357 6.74539C23.2867 6.61272 23.6417 6.54639 24.0007 6.54639C24.3597 6.54639 24.7147 6.61272 25.0657 6.74539C25.4167 6.87805 25.7454 7.06039 26.0517 7.29239L44.9682 21.7444C45.3412 22.0431 45.5527 22.4222 45.6027 22.8819C45.6527 23.3416 45.5325 23.7541 45.2422 24.1194C44.9435 24.5007 44.571 24.7222 44.1247 24.7839C43.6784 24.8459 43.2679 24.7237 42.8932 24.4174L38.1157 20.7564V30.5444H40.5747C41.0554 30.5444 41.4594 30.7089 41.7867 31.0379C42.114 31.3669 42.2777 31.7731 42.2777 32.2564C42.2777 32.7477 42.114 33.1551 41.7867 33.4784C41.4594 33.8014 41.0554 33.9629 40.5747 33.9629H38.1157V40.5954C38.1157 41.0764 37.9512 41.4805 37.6222 41.8079C37.2932 42.1352 36.887 42.2989 36.4037 42.2989C35.9207 42.2989 35.5175 42.1352 35.1942 41.8079C34.8709 41.4805 34.7092 41.0764 34.7092 40.5954V33.9629H25.7042V40.6074C25.7042 41.0884 25.5375 41.4905 25.2042 41.8139C24.8712 42.1372 24.4632 42.2989 23.9802 42.2989C23.4969 42.2989 23.0955 42.1352 22.7762 41.8079C22.4569 41.4805 22.2972 41.0764 22.2972 40.5954V33.9629H13.2542ZM13.2542 30.5444H22.2972V11.2704L13.2542 18.1834V30.5444ZM25.7042 30.5444H34.7092V18.1834L25.7042 11.2584V30.5444Z" fill="#006CC9"/>
</svg>
