<svg width="48" height="48" viewBox="0 0 48 48" fill="none" xmlns="http://www.w3.org/2000/svg">
<path d="M33.1836 37.6065L38.8661 31.874C39.2045 31.542 39.594 31.376 40.0346 31.376C40.4753 31.376 40.8656 31.542 41.2056 31.874C41.5373 32.214 41.7011 32.6141 41.6971 33.0745C41.6931 33.5348 41.5253 33.931 41.1936 34.263L34.3391 41.1055C33.9985 41.4531 33.5985 41.627 33.1391 41.627C32.6798 41.627 32.2801 41.4531 31.9401 41.1055L28.7661 37.8935C28.4265 37.5555 28.265 37.166 28.2816 36.725C28.2983 36.2843 28.4765 35.8961 28.8161 35.5605C29.1561 35.2245 29.5465 35.0585 29.9871 35.0625C30.4278 35.0665 30.8173 35.2345 31.1556 35.5665L33.1836 37.6065ZM7.35863 42.299C6.89463 42.299 6.50279 42.1381 6.18313 41.8165C5.86313 41.4945 5.70312 41.1001 5.70312 40.6335C5.70312 40.1668 5.86313 39.774 6.18313 39.455C6.50279 39.1356 6.89463 38.976 7.35863 38.976H22.3466C22.8106 38.976 23.2025 39.1376 23.5221 39.461C23.8421 39.7843 24.0021 40.1805 24.0021 40.6495C24.0021 41.1188 23.8421 41.511 23.5221 41.826C23.2025 42.1413 22.8106 42.299 22.3466 42.299H7.35863ZM7.35863 33.977C6.89463 33.977 6.50279 33.8161 6.18313 33.4945C5.86313 33.1728 5.70312 32.7786 5.70312 32.312C5.70312 31.8453 5.86313 31.4523 6.18313 31.133C6.50279 30.814 6.89463 30.6545 7.35863 30.6545H22.3466C22.8106 30.6545 23.2025 30.8161 23.5221 31.1395C23.8421 31.4628 24.0021 31.859 24.0021 32.328C24.0021 32.797 23.8421 33.1891 23.5221 33.5045C23.2025 33.8195 22.8106 33.977 22.3466 33.977H7.35863ZM7.35863 25.6555C6.89463 25.6555 6.50279 25.4946 6.18313 25.173C5.86313 24.851 5.70312 24.4566 5.70312 23.99C5.70312 23.5233 5.86313 23.1305 6.18313 22.8115C6.50279 22.4921 6.89463 22.3325 7.35863 22.3325H40.6456C41.113 22.3325 41.5076 22.4941 41.8296 22.8175C42.152 23.1408 42.3131 23.5371 42.3131 24.0065C42.3131 24.4755 42.152 24.8675 41.8296 25.1825C41.5076 25.4978 41.113 25.6555 40.6456 25.6555H7.35863ZM7.35863 17.3335C6.89463 17.3335 6.50279 17.1726 6.18313 16.851C5.86313 16.5293 5.70312 16.1351 5.70312 15.6685C5.70312 15.2018 5.86313 14.8088 6.18313 14.4895C6.50279 14.1705 6.89463 14.011 7.35863 14.011H40.6456C41.113 14.011 41.5076 14.1726 41.8296 14.496C42.152 14.8193 42.3131 15.2155 42.3131 15.6845C42.3131 16.1535 42.152 16.5456 41.8296 16.861C41.5076 17.176 41.113 17.3335 40.6456 17.3335H7.35863ZM7.35863 9.01196C6.89463 9.01196 6.50279 8.85113 6.18313 8.52946C5.86313 8.20746 5.70312 7.81313 5.70312 7.34646C5.70312 6.8798 5.86313 6.48696 6.18313 6.16796C6.50279 5.84863 6.89463 5.68896 7.35863 5.68896H40.6456C41.113 5.68896 41.5076 5.85063 41.8296 6.17396C42.152 6.4973 42.3131 6.89363 42.3131 7.36296C42.3131 7.83196 42.152 8.22396 41.8296 8.53896C41.5076 8.8543 41.113 9.01196 40.6456 9.01196H7.35863Z" fill="#5AE0F6"/>
</svg>
