<svg width="48" height="48" viewBox="0 0 48 48" fill="none" xmlns="http://www.w3.org/2000/svg">
<path d="M19.5757 32C20.634 32 21.5172 31.6375 22.2252 30.9125C22.9332 30.1875 23.2872 29.3111 23.2872 28.2835C23.2872 27.2561 22.9337 26.3801 22.2267 25.6555C21.5197 24.9308 20.6453 24.5685 19.6037 24.5685C18.5623 24.5685 17.6773 24.929 16.9487 25.65C16.22 26.371 15.8557 27.2453 15.8557 28.273C15.8557 29.3003 16.2185 30.1783 16.9442 30.907C17.6698 31.6356 18.547 32 19.5757 32ZM28.4177 32C29.445 32 30.323 31.6375 31.0517 30.9125C31.7803 30.1875 32.1447 29.3111 32.1447 28.2835C32.1447 27.2561 31.7822 26.3801 31.0572 25.6555C30.3322 24.9308 29.456 24.5685 28.4287 24.5685C27.401 24.5685 26.5248 24.929 25.8002 25.65C25.0755 26.371 24.7132 27.2453 24.7132 28.273C24.7132 29.3003 25.0737 30.1783 25.7947 30.907C26.5157 31.6356 27.39 32 28.4177 32ZM23.9947 22.7815C25.0223 22.7815 25.9005 22.428 26.6292 21.721C27.3575 21.014 27.7217 20.1396 27.7217 19.098C27.7217 18.0566 27.3593 17.1716 26.6347 16.443C25.9097 15.7143 25.0333 15.35 24.0057 15.35C22.978 15.35 22.0998 15.7128 21.3712 16.4385C20.6428 17.1645 20.2787 18.0418 20.2787 19.0705C20.2787 20.1285 20.641 21.0115 21.3657 21.7195C22.0907 22.4275 22.967 22.7815 23.9947 22.7815ZM24.0152 44.299C21.2085 44.299 18.5745 43.7676 16.1132 42.705C13.6518 41.6423 11.4992 40.189 9.65517 38.345C7.81117 36.501 6.35784 34.3476 5.29517 31.885C4.23251 29.4223 3.70117 26.7861 3.70117 23.9765C3.70117 21.1671 4.23251 18.5305 5.29517 16.0665C6.35784 13.6028 7.81051 11.4571 9.65317 9.62946C11.4958 7.80146 13.6488 6.35446 16.1122 5.28846C18.5755 4.22213 21.2123 3.68896 24.0227 3.68896C26.8327 3.68896 29.4702 4.2218 31.9352 5.28746C34.3998 6.35313 36.5457 7.7993 38.3727 9.62596C40.2 11.4526 41.6465 13.6006 42.7122 16.07C43.7782 18.5393 44.3112 21.1781 44.3112 23.9865C44.3112 26.7945 43.778 29.429 42.7117 31.89C41.6457 34.3513 40.1987 36.5005 38.3707 38.3375C36.543 40.1741 34.3952 41.627 31.9272 42.696C29.4592 43.7646 26.8218 44.299 24.0152 44.299ZM24.0252 40.8925C28.7098 40.8925 32.6923 39.2466 35.9727 35.955C39.2527 32.663 40.8927 28.6696 40.8927 23.975C40.8927 19.2903 39.2557 15.3078 35.9817 12.0275C32.708 8.74746 28.7122 7.10746 23.9942 7.10746C19.3222 7.10746 15.3397 8.74446 12.0467 12.0185C8.75401 15.2921 7.10767 19.288 7.10767 24.006C7.10767 28.678 8.75351 32.6605 12.0452 35.9535C15.3372 39.2461 19.3305 40.8925 24.0252 40.8925Z" fill="#006CC9"/>
</svg>
