<svg width="48" height="48" viewBox="0 0 48 48" fill="none" xmlns="http://www.w3.org/2000/svg">
<path d="M38.5838 44.6334C38.3598 44.6334 38.1506 44.5942 37.9562 44.5159C37.7616 44.4372 37.5729 44.3066 37.3903 44.1239L25.1112 31.8444C24.9286 31.6617 24.7979 31.4732 24.7192 31.2789C24.6406 31.0842 24.6012 30.8749 24.6012 30.6509C24.6012 30.4269 24.6406 30.2157 24.7192 30.0174C24.7979 29.8187 24.9286 29.6281 25.1112 29.4454L29.3848 25.1714C29.5674 24.9891 29.7561 24.8566 29.9508 24.7739C30.1454 24.6912 30.3586 24.6499 30.5903 24.6499C30.8143 24.6499 31.0236 24.6912 31.2183 24.7739C31.4126 24.8566 31.6011 24.9891 31.7838 25.1714L44.0633 37.4629C44.2459 37.6456 44.3786 37.8322 44.4613 38.0229C44.5436 38.2132 44.5848 38.4244 44.5848 38.6564C44.5848 38.8804 44.5416 39.0916 44.4553 39.2899C44.3686 39.4886 44.2379 39.6752 44.0633 39.8499L39.7893 44.1239C39.6066 44.3066 39.4181 44.4372 39.2238 44.5159C39.0291 44.5942 38.8158 44.6334 38.5838 44.6334ZM38.5958 40.7349L40.6743 38.6564L30.5783 28.5489L28.5002 30.6269L38.5958 40.7349ZM9.38075 44.6219C9.15675 44.6219 8.93908 44.5846 8.72775 44.5099C8.51675 44.4352 8.31992 44.3066 8.13725 44.1239L3.91325 39.8999C3.73058 39.7252 3.60192 39.5342 3.52725 39.3269C3.45258 39.1199 3.41525 38.9004 3.41525 38.6684C3.41525 38.4444 3.45258 38.2332 3.52725 38.0349C3.60192 37.8362 3.73058 37.6456 3.91325 37.4629L15.4382 25.9499H19.7958L21.6597 24.0859L12.7663 15.1924H9.84475L3.34375 8.6914L8.56875 3.4664L15.0697 9.96739V12.8889L23.9632 21.7824L30.4993 15.2464L27.0893 11.8369L29.8893 9.0489H24.2393L23.2317 8.0294L29.9428 1.3064L30.9622 2.3379V7.9759L33.7623 5.1759L42.4633 13.8889C42.9793 14.4129 43.3869 15.0119 43.6863 15.6859C43.9853 16.3596 44.1348 17.0751 44.1348 17.8324C44.1348 18.5471 44.0106 19.2346 43.7622 19.8949C43.5136 20.5556 43.1733 21.1517 42.7413 21.6834L38.3838 17.3259L35.5122 20.1979L32.8523 17.5379L22.0992 28.2914V32.6109L10.5743 44.1239C10.3916 44.3066 10.2049 44.4352 10.0143 44.5099C9.82358 44.5846 9.61242 44.6219 9.38075 44.6219ZM9.38075 40.7349L19.5002 30.6269V28.5489H17.4218L7.30225 38.6564L9.38075 40.7349ZM9.38075 40.7349L7.30225 38.6564L8.36625 39.6704L9.38075 40.7349Z" fill="#5AE0F6"/>
</svg>
