<svg width="48" height="48" viewBox="0 0 48 48" fill="none" xmlns="http://www.w3.org/2000/svg">
<path d="M17.8161 42.299C17.3355 42.299 16.9315 42.1353 16.6041 41.808C16.2768 41.4806 16.1131 41.0765 16.1131 40.5955V31.889H7.40663C6.92562 31.889 6.52146 31.7253 6.19412 31.398C5.86679 31.0706 5.70312 30.6666 5.70312 30.186V17.764C5.70312 17.2833 5.86679 16.8793 6.19412 16.552C6.52146 16.2246 6.92562 16.061 7.40663 16.061H16.1131V7.40446C16.1131 6.92346 16.2768 6.5173 16.6041 6.18596C16.9315 5.85463 17.3355 5.68896 17.8161 5.68896H30.2381C30.7188 5.68896 31.1228 5.85463 31.4501 6.18596C31.7775 6.5173 31.9411 6.92346 31.9411 7.40446V16.061H40.5976C41.0786 16.061 41.4848 16.2246 41.8161 16.552C42.1475 16.8793 42.3131 17.2833 42.3131 17.764V30.186C42.3131 30.6666 42.1475 31.0706 41.8161 31.398C41.4848 31.7253 41.0786 31.889 40.5976 31.889H31.9411V40.5955C31.9411 41.0765 31.7775 41.4806 31.4501 41.808C31.1228 42.1353 30.7188 42.299 30.2381 42.299H17.8161ZM19.5196 38.8925H28.5346V28.4825H38.8946V19.4675H28.5346V9.10746H19.5196V19.4675H9.10962V28.4825H19.5196V38.8925Z" fill="#006CC9"/>
</svg>
