<svg width="48" height="48" viewBox="0 0 48 48" fill="none" xmlns="http://www.w3.org/2000/svg">
<path d="M21.8171 23.0796C22.3711 23.0796 22.8417 22.8856 23.2291 22.4976C23.6164 22.1096 23.8101 21.6346 23.8101 21.0726C23.8101 20.5186 23.6141 20.0479 23.2221 19.6606C22.8301 19.2733 22.3551 19.0796 21.7971 19.0796C21.2391 19.0796 20.7684 19.2756 20.3851 19.6676C20.0017 20.0596 19.8101 20.5346 19.8101 21.0926C19.8101 21.6506 20.0041 22.1213 20.3921 22.5046C20.7801 22.8879 21.2551 23.0796 21.8171 23.0796ZM23.2601 30.7796L31.5601 22.4796C31.8601 22.1773 32.0101 21.8183 32.0101 21.4026C32.0101 20.9873 31.8591 20.6296 31.5571 20.3296C31.2474 20.0296 30.8866 19.8796 30.4746 19.8796C30.0626 19.8796 29.7077 20.0296 29.4101 20.3296L21.0601 28.6796C20.7521 28.9796 20.6064 29.3296 20.6231 29.7296C20.6397 30.1296 20.8009 30.4796 21.1066 30.7796C21.4122 31.0796 21.7706 31.2296 22.1816 31.2296C22.5926 31.2296 22.9521 31.0796 23.2601 30.7796ZM30.8171 32.0796C31.3711 32.0796 31.8417 31.8856 32.2291 31.4976C32.6164 31.1096 32.8101 30.6346 32.8101 30.0726C32.8101 29.5186 32.6141 29.0479 32.2221 28.6606C31.8301 28.2733 31.3551 28.0796 30.7971 28.0796C30.2391 28.0796 29.7684 28.2756 29.3851 28.6676C29.0017 29.0596 28.8101 29.5346 28.8101 30.0926C28.8101 30.6506 29.0041 31.1213 29.3921 31.5046C29.7801 31.8879 30.2551 32.0796 30.8171 32.0796ZM39.1306 39.8686H13.4891C12.5661 39.8686 11.7656 39.5296 11.0876 38.8516C10.4096 38.1739 10.0706 37.3734 10.0706 36.4501V5.1316C10.0706 4.2116 10.4096 3.41393 11.0876 2.7386C11.7656 2.06293 12.5661 1.7251 13.4891 1.7251H29.3406C29.8092 1.7251 30.2559 1.81843 30.6806 2.0051C31.1052 2.19176 31.4747 2.43827 31.7891 2.7446L41.5176 12.4731C41.8242 12.7874 42.0707 13.1569 42.2571 13.5816C42.4437 14.0063 42.5371 14.4529 42.5371 14.9216V36.4501C42.5371 37.3734 42.1972 38.1739 41.5176 38.8516C40.8379 39.5296 40.0422 39.8686 39.1306 39.8686ZM39.1306 14.6731H31.9501C31.2374 14.6731 30.6324 14.4244 30.1351 13.9271C29.6377 13.4298 29.3891 12.8248 29.3891 12.1121V5.1316H13.4891V36.4501H39.1306V14.6731ZM7.07056 46.2751C6.1509 46.2751 5.35323 45.9373 4.67756 45.2616C4.0019 44.5863 3.66406 43.7886 3.66406 42.8686V13.7296C3.66406 13.2486 3.82873 12.8444 4.15806 12.5171C4.48706 12.1898 4.89306 12.0261 5.37606 12.0261C5.8594 12.0261 6.26273 12.1898 6.58606 12.5171C6.90906 12.8444 7.07056 13.2486 7.07056 13.7296V42.8686H30.3511C30.8321 42.8686 31.2362 43.0331 31.5636 43.3621C31.8909 43.6911 32.0546 44.0973 32.0546 44.5806C32.0546 45.0639 31.8909 45.4671 31.5636 45.7901C31.2362 46.1134 30.8321 46.2751 30.3511 46.2751H7.07056Z" fill="#5AE0F6"/>
</svg>
