<svg width="48" height="48" viewBox="0 0 48 48" fill="none" xmlns="http://www.w3.org/2000/svg">
<path d="M1.68896 16.6305C1.68896 13.5382 2.7258 10.9195 4.79946 8.77449C6.87346 6.62983 9.4363 5.5575 12.488 5.5575C14.3823 5.5575 16.1353 5.98716 17.747 6.84649C19.3583 7.70616 20.772 8.96999 21.988 10.638C23.404 8.87799 24.8923 7.59116 26.453 6.77749C28.0136 5.96416 29.6906 5.5575 31.484 5.5575C34.1106 5.5575 36.3458 6.42416 38.1895 8.1575C40.0335 9.89083 41.2086 12.0155 41.715 14.5315C41.8216 14.9795 41.7491 15.3893 41.4975 15.761C41.2461 16.133 40.8956 16.3685 40.446 16.4675C39.9963 16.5668 39.5871 16.4925 39.2185 16.2445C38.8495 15.9965 38.6121 15.6472 38.5065 15.1965C38.2225 13.4272 37.4695 11.948 36.2475 10.759C35.0251 9.57033 33.4368 8.97599 31.4825 8.97599C29.7595 8.97599 28.212 9.47683 26.84 10.4785C25.4676 11.4798 24.3888 12.7685 23.6035 14.3445C23.4208 14.6592 23.181 14.9137 22.884 15.108C22.5873 15.3027 22.272 15.4 21.938 15.4C21.5983 15.4 21.2898 15.3047 21.0125 15.114C20.7351 14.9237 20.5093 14.6672 20.335 14.3445C19.5573 12.7605 18.4878 11.4698 17.1265 10.4725C15.7651 9.47483 14.2166 8.97599 12.481 8.97599C10.3096 8.97599 8.53797 9.70816 7.16597 11.1725C5.79363 12.6368 5.10747 14.4547 5.10747 16.626C5.10747 17.937 5.36413 19.2087 5.87747 20.441C6.3908 21.6733 7.2828 23.0733 8.55347 24.641C9.82447 26.2087 11.5541 28.038 13.7425 30.129C15.9308 32.22 18.6793 34.7998 21.988 37.8685L26.264 34.1205C26.5713 33.8142 26.9495 33.671 27.3985 33.691C27.8475 33.711 28.2313 33.8775 28.55 34.1905C28.8906 34.5172 29.059 34.925 29.055 35.414C29.051 35.9033 28.8623 36.3012 28.489 36.6075L24.289 40.3295C23.9573 40.6278 23.5883 40.8433 23.182 40.976C22.776 41.1087 22.3738 41.175 21.9755 41.175C21.5775 41.175 21.182 41.1048 20.789 40.9645C20.3963 40.8242 20.0456 40.5998 19.737 40.2915C17.9116 38.6058 15.948 36.8258 13.846 34.9515C11.7443 33.0772 9.79363 31.1397 7.99397 29.139C6.1943 27.1383 4.69363 25.0817 3.49196 22.969C2.28996 20.8563 1.68896 18.7435 1.68896 16.6305ZM35.938 27.7035H31.1415C30.6605 27.7035 30.2563 27.5388 29.929 27.2095C29.6016 26.8805 29.438 26.4743 29.438 25.991C29.438 25.508 29.6016 25.1048 29.929 24.7815C30.2563 24.4582 30.6605 24.2965 31.1415 24.2965H35.938V19.5C35.938 19.0193 36.1025 18.6153 36.4315 18.288C36.7605 17.9603 37.1666 17.7965 37.65 17.7965C38.1333 17.7965 38.5366 17.9603 38.86 18.288C39.183 18.6153 39.3445 19.0193 39.3445 19.5V24.2965H44.1415C44.6221 24.2965 45.0261 24.4612 45.3535 24.7905C45.6808 25.1195 45.8445 25.5257 45.8445 26.009C45.8445 26.492 45.6808 26.8952 45.3535 27.2185C45.0261 27.5418 44.6221 27.7035 44.1415 27.7035H39.3445V32.5C39.3445 32.9807 39.18 33.3847 38.851 33.712C38.522 34.0397 38.1158 34.2035 37.6325 34.2035C37.1491 34.2035 36.746 34.0397 36.423 33.712C36.0996 33.3847 35.938 32.9807 35.938 32.5V27.7035Z" fill="#006CC9"/>
</svg>
