<svg width="48" height="48" viewBox="0 0 48 48" fill="none" xmlns="http://www.w3.org/2000/svg">
<path d="M13.4767 16.1284C13.6607 16.3108 13.8619 16.4019 14.0802 16.4019C14.2989 16.4019 14.4994 16.3108 14.6817 16.1284L17.2267 13.6214C17.4091 13.4498 17.5002 13.2453 17.5002 13.0079C17.5002 12.7706 17.4091 12.5608 17.2267 12.3784L14.6817 9.87144C14.4977 9.68911 14.2966 9.59794 14.0782 9.59794C13.8596 9.59794 13.6591 9.68911 13.4767 9.87144L10.9317 12.3784C10.7494 12.5501 10.6582 12.7546 10.6582 12.9919C10.6582 13.2293 10.7494 13.4391 10.9317 13.6214L13.4767 16.1284ZM7.10572 28.2629C6.18572 28.2629 5.38805 27.9239 4.71272 27.2459C4.03705 26.5683 3.69922 25.7678 3.69922 24.8444V5.05994C3.69922 4.13994 4.03705 3.34211 4.71272 2.66644C5.38805 1.99111 6.18572 1.65344 7.10572 1.65344H40.8907C41.814 1.65344 42.6146 1.99111 43.2922 2.66644C43.9702 3.34211 44.3092 4.13994 44.3092 5.05994V24.8444C44.3092 25.7678 43.9702 26.5683 43.2922 27.2459C42.6146 27.9239 41.814 28.2629 40.8907 28.2629H35.7092C35.2239 28.2629 34.8251 28.0984 34.5127 27.7694C34.2001 27.4404 34.0437 27.0323 34.0437 26.5449C34.0437 26.0576 34.2074 25.6524 34.5347 25.3294C34.8621 25.0061 35.2662 24.8444 35.7472 24.8444H40.8907V5.05994H7.10572V24.8444H12.2492C12.7302 24.8444 13.1344 25.0089 13.4617 25.3379C13.7891 25.6669 13.9527 26.0751 13.9527 26.5624C13.9527 27.0498 13.7891 27.4551 13.4617 27.7784C13.1344 28.1014 12.7302 28.2629 12.2492 28.2629H7.10572ZM33.0012 13.7019C33.7659 13.7019 34.4149 13.4343 34.9482 12.8989C35.4816 12.3639 35.7482 11.7139 35.7482 10.9489C35.7482 10.1923 35.4806 9.54527 34.9452 9.00794C34.4099 8.47061 33.7599 8.20194 32.9952 8.20194C32.2306 8.20194 31.5816 8.47161 31.0482 9.01094C30.5149 9.55027 30.2482 10.1983 30.2482 10.9549C30.2482 11.7196 30.5159 12.3686 31.0512 12.9019C31.5866 13.4353 32.2366 13.7019 33.0012 13.7019ZM11.5462 46.3584C11.0652 46.3584 10.6611 46.1948 10.3337 45.8674C10.0064 45.5401 9.84272 45.1361 9.84272 44.6554V41.9914C9.84272 40.7928 10.1747 39.6814 10.8387 38.6574C11.5027 37.6334 12.3821 36.8636 13.4767 36.3479C15.1224 35.5813 16.8327 35.0043 18.6077 34.6169C20.3827 34.2296 22.1796 34.0359 23.9982 34.0359C25.8169 34.0359 27.6137 34.2296 29.3887 34.6169C31.1637 35.0043 32.8741 35.5813 34.5197 36.3479C35.6154 36.8606 36.4969 37.6296 37.1642 38.6549C37.8319 39.6806 38.1657 40.7928 38.1657 41.9914V44.6554C38.1657 45.1361 37.9997 45.5401 37.6677 45.8674C37.3361 46.1948 36.9302 46.3584 36.4502 46.3584H11.5462ZM13.2132 43.0359H34.7832V41.8714C34.6956 41.3081 34.4591 40.7876 34.0737 40.3099C33.6887 39.8323 33.1969 39.4641 32.5982 39.2054C31.2446 38.6024 29.8484 38.1439 28.4097 37.8299C26.9711 37.5156 25.5001 37.3584 23.9967 37.3584C22.4934 37.3584 21.0229 37.5156 19.5852 37.8299C18.1476 38.1439 16.7519 38.6024 15.3982 39.2054C14.7996 39.4641 14.3077 39.8323 13.9227 40.3099C13.5374 40.7876 13.3009 41.3081 13.2132 41.8714V43.0359ZM24.0012 32.0359C22.0182 32.0359 20.3294 31.3373 18.9347 29.9399C17.5401 28.5429 16.8427 26.8524 16.8427 24.8684C16.8427 22.8951 17.5402 21.2093 18.9352 19.8109C20.3302 18.4123 22.0181 17.7129 23.9987 17.7129C25.9794 17.7129 27.6691 18.4123 29.0677 19.8109C30.4664 21.2093 31.1657 22.8971 31.1657 24.8744C31.1657 26.8514 30.4674 28.5393 29.0707 29.9379C27.6741 31.3366 25.9842 32.0359 24.0012 32.0359ZM23.9862 28.7129C25.0582 28.7129 25.9691 28.3421 26.7187 27.6004C27.4681 26.8588 27.8427 25.9539 27.8427 24.8859C27.8427 23.8179 27.4719 22.9093 26.7302 22.1599C25.9886 21.4106 25.0819 21.0359 24.0102 21.0359C22.9382 21.0359 22.0294 21.4074 21.2837 22.1504C20.5384 22.8931 20.1657 23.7951 20.1657 24.8564C20.1657 25.9284 20.5346 26.8393 21.2722 27.5889C22.0099 28.3383 22.9146 28.7129 23.9862 28.7129Z" fill="#5AE0F6"/>
</svg>
