<svg width="24" height="24" viewBox="0 0 24 24" fill="none" xmlns="http://www.w3.org/2000/svg">
<path d="M12.001 2.34473C14.0253 2.34473 15.804 3.04933 17.3564 4.47754C18.88 5.87913 19.6562 7.7626 19.6562 10.1826C19.6562 11.1679 19.4393 12.1526 18.9971 13.1406C18.5436 14.154 17.9745 15.1246 17.2891 16.0527C16.5977 16.9889 15.8469 17.8627 15.0361 18.6738C14.2131 19.4974 13.4458 20.2259 12.7344 20.8594L12.7285 20.8643L12.7236 20.8691C12.6331 20.9548 12.5285 21.017 12.4062 21.0566C12.2598 21.1041 12.1226 21.126 11.9932 21.126C11.8639 21.126 11.7303 21.104 11.5908 21.0576C11.4751 21.0191 11.377 20.959 11.291 20.875L11.2822 20.8662L11.2725 20.8584C10.5575 20.2252 9.78851 19.497 8.96582 18.6738C8.15507 17.8627 7.40425 16.9889 6.71289 16.0527C6.02763 15.1248 5.45921 14.1547 5.00781 13.1416C4.56744 12.1534 4.35162 11.1682 4.35156 10.1826C4.35156 7.76231 5.12768 5.8791 6.64941 4.47754C8.19974 3.04953 9.9767 2.34475 12.001 2.34473ZM12.001 3.05371C10.0657 3.05371 8.41091 3.72261 7.06934 5.05664C5.71975 6.39887 5.05469 8.12233 5.05469 10.1826C5.0548 11.6021 5.6486 13.1413 6.75293 14.7861C7.85778 16.4317 9.49846 18.2606 11.6602 20.2715L11.9971 20.585L12.3369 20.2764C14.5497 18.2689 16.2073 16.4381 17.29 14.7852C18.3688 13.138 18.9472 11.5989 18.9473 10.1826C18.9473 8.12228 18.2823 6.39888 16.9326 5.05664V5.05566C15.5908 3.72177 13.9361 3.05375 12.001 3.05371ZM11.999 8.70215C12.3652 8.7022 12.663 8.82522 12.9199 9.08105C13.1761 9.33617 13.2988 9.63248 13.2988 9.99805C13.2988 10.3642 13.1758 10.6605 12.9209 10.915C12.666 11.1694 12.3693 11.292 12.0029 11.292C11.6359 11.2919 11.3402 11.169 11.0859 10.916C10.8324 10.6634 10.7091 10.3691 10.709 10.0029C10.709 9.68146 10.8033 9.41279 10.9971 9.17871L11.0859 9.08105C11.3389 8.82567 11.6335 8.70215 11.999 8.70215Z" fill="#00050A" stroke="#00050A"/>
</svg>
