<svg width="48" height="48" viewBox="0 0 48 48" fill="none" xmlns="http://www.w3.org/2000/svg">
<path d="M40.8945 7.68945C41.8177 7.68945 42.6183 8.02826 43.2959 8.70605C43.9739 9.38372 44.3135 10.1851 44.3135 11.1084V36.8926C44.3135 37.8126 43.9739 38.6108 43.2959 39.2861C42.6183 39.9617 41.8178 40.2998 40.8945 40.2998H7.10938C6.18956 40.2997 5.39203 39.9616 4.7168 39.2861C4.04113 38.6108 3.70312 37.8126 3.70312 36.8926V11.1084C3.70312 10.1851 4.04113 9.38372 4.7168 8.70605C5.39201 8.02831 6.18961 7.68951 7.10938 7.68945H40.8945ZM7.10938 36.8926H40.8945V14.1328L24.9229 24.6494C24.7666 24.7324 24.6197 24.8005 24.4824 24.8545C24.3451 24.9085 24.1846 24.9355 24.002 24.9355C23.8195 24.9355 23.6597 24.9084 23.5225 24.8545C23.3853 24.8005 23.2382 24.7323 23.082 24.6494L7.10938 14.1328V36.8926ZM24.002 22.0078L40.6943 11.1084H7.35938L24.002 22.0078Z" fill="#006CC9"/>
<path d="M40.8945 7.68945C41.8177 7.68945 42.6183 8.02826 43.2959 8.70605C43.9739 9.38372 44.3135 10.1851 44.3135 11.1084V36.8926C44.3135 37.8126 43.9739 38.6108 43.2959 39.2861C42.6183 39.9617 41.8178 40.2998 40.8945 40.2998H7.10938C6.18956 40.2997 5.39203 39.9616 4.7168 39.2861C4.04113 38.6108 3.70312 37.8126 3.70312 36.8926V11.1084C3.70312 10.1851 4.04113 9.38372 4.7168 8.70605C5.39201 8.02831 6.18961 7.68951 7.10938 7.68945H40.8945ZM7.10938 36.8926H40.8945V14.1328L24.9229 24.6494C24.7666 24.7324 24.6197 24.8005 24.4824 24.8545C24.3451 24.9085 24.1846 24.9355 24.002 24.9355C23.8195 24.9355 23.6597 24.9084 23.5225 24.8545C23.3853 24.8005 23.2382 24.7323 23.082 24.6494L7.10938 14.1328V36.8926ZM24.002 22.0078L40.6943 11.1084H7.35938L24.002 22.0078Z" stroke="#00050A"/>
</svg>
