<svg width="48" height="48" viewBox="0 0 48 48" fill="none" xmlns="http://www.w3.org/2000/svg">
<path d="M19.9957 23.5946C17.7064 23.5946 15.8347 22.8676 14.3807 21.4136C12.9264 19.9593 12.1992 18.0874 12.1992 15.7981C12.1992 13.5088 12.9264 11.6362 14.3807 10.1806C15.8347 8.72458 17.7064 7.99658 19.9957 7.99658C22.2851 7.99658 24.1596 8.72458 25.6192 10.1806C27.0792 11.6362 27.8092 13.5088 27.8092 15.7981C27.8092 18.0874 27.0792 19.9593 25.6192 21.4136C24.1596 22.8676 22.2851 23.5946 19.9957 23.5946ZM3.69922 36.8481V35.2331C3.69922 33.9778 4.01889 32.8468 4.65822 31.8401C5.29722 30.8337 6.16805 30.0766 7.27072 29.5686C9.20139 28.7099 11.1917 28.0059 13.2417 27.4566C15.2917 26.9073 17.3914 26.6326 19.5407 26.6326C20.0311 26.6326 20.4396 26.7963 20.7662 27.1236C21.0926 27.4509 21.2557 27.8561 21.2557 28.3391C21.2557 28.8304 21.0901 29.2406 20.7587 29.5696C20.4274 29.8986 20.0214 30.0631 19.5407 30.0631C17.6471 30.0631 15.7932 30.2904 13.9792 30.7451C12.1652 31.1998 10.4047 31.8539 8.69772 32.7076C8.23639 32.9716 7.85572 33.3286 7.55572 33.7786C7.25572 34.2289 7.10572 34.7293 7.10572 35.2796V36.8481H19.6027C20.0834 36.8481 20.4874 37.0126 20.8147 37.3416C21.1421 37.6706 21.3057 38.0768 21.3057 38.5601C21.3057 39.0434 21.1421 39.4466 20.8147 39.7696C20.4874 40.0929 20.0834 40.2546 19.6027 40.2546H7.10572C6.16072 40.2546 5.35672 39.9209 4.69372 39.2536C4.03072 38.5863 3.69922 37.7844 3.69922 36.8481ZM33.3177 41.0771L32.9797 38.9631C32.4291 38.8044 31.8701 38.5708 31.3027 38.2621C30.7354 37.9534 30.2596 37.6031 29.8752 37.2111L28.0232 37.5991C27.7329 37.6737 27.4566 37.6554 27.1942 37.5441C26.9319 37.4331 26.7271 37.2521 26.5797 37.0011L26.2727 36.4771C26.0947 36.1868 26.0307 35.8923 26.0807 35.5936C26.1307 35.2949 26.2677 35.0376 26.4917 34.8216L28.1057 33.3076C28.0311 33.0316 27.9957 32.6329 27.9997 32.1116C28.0037 31.5903 28.0391 31.1961 28.1057 30.9291L26.4797 29.3891C26.2644 29.2084 26.1316 28.9641 26.0812 28.6561C26.0309 28.3477 26.0936 28.0646 26.2692 27.8066L26.5797 27.1836C26.7274 26.9296 26.9219 26.7561 27.1632 26.6631C27.4046 26.5704 27.6706 26.5574 27.9612 26.6241L29.8752 27.0121C30.2596 26.6281 30.7354 26.2798 31.3027 25.9671C31.8701 25.6544 32.4291 25.4226 32.9797 25.2716L33.3177 23.1696C33.3861 22.7996 33.5511 22.4994 33.8127 22.2691C34.0744 22.0391 34.3796 21.9241 34.7282 21.9241H35.1787C35.5184 21.9241 35.8184 22.0397 36.0787 22.2711C36.3391 22.5024 36.5064 22.7979 36.5807 23.1576L36.9227 25.2701C37.4631 25.4221 38.0189 25.6544 38.5902 25.9671C39.1616 26.2798 39.6387 26.6281 40.0217 27.0121L41.8872 26.6241C42.1699 26.5574 42.4436 26.5778 42.7082 26.6851C42.9729 26.7928 43.1764 26.9756 43.3187 27.2336L43.6242 27.7421C43.8032 28.0431 43.8657 28.3409 43.8117 28.6356C43.7577 28.9299 43.6187 29.1851 43.3947 29.4011L41.7807 30.9271C41.8634 31.2004 41.9027 31.5964 41.8987 32.1151C41.8947 32.6341 41.8554 33.0316 41.7807 33.3076L43.3912 34.8181C43.6175 35.0111 43.7577 35.2633 43.8117 35.5746C43.8657 35.8859 43.8054 36.1701 43.6307 36.4271L43.3187 37.0511C43.1694 37.3084 42.9725 37.4808 42.7282 37.5681C42.4836 37.6554 42.2159 37.6658 41.9252 37.5991L40.0232 37.2111C39.6392 37.6031 39.1616 37.9534 38.5902 38.2621C38.0189 38.5708 37.4617 38.8044 36.9187 38.9631L36.5807 41.0651C36.5054 41.4324 36.3362 41.7299 36.0732 41.9576C35.8102 42.1853 35.5074 42.2991 35.1647 42.2991H34.7247C34.3821 42.2991 34.0787 42.1851 33.8147 41.9571C33.5507 41.7294 33.3851 41.4361 33.3177 41.0771ZM34.9492 36.0456C36.1239 36.0456 37.0722 35.6849 37.7942 34.9636C38.5166 34.2422 38.8777 33.2916 38.8777 32.1116C38.8777 30.9316 38.5166 29.9808 37.7942 29.2591C37.0719 28.5378 36.1231 28.1771 34.9477 28.1771C33.7727 28.1771 32.8225 28.5382 32.0972 29.2606C31.3719 29.9826 31.0092 30.9309 31.0092 32.1056C31.0092 33.2896 31.3722 34.2422 32.0982 34.9636C32.8242 35.6849 33.7746 36.0456 34.9492 36.0456ZM19.9957 20.1881C21.2654 20.1881 22.3154 19.7738 23.1457 18.9451C23.9757 18.1161 24.3907 17.0664 24.3907 15.7961C24.3907 14.5224 23.9764 13.4719 23.1477 12.6446C22.3194 11.8173 21.2704 11.4036 20.0007 11.4036C18.7311 11.4036 17.6811 11.8174 16.8507 12.6451C16.0207 13.4731 15.6057 14.5214 15.6057 15.7901C15.6057 17.0624 16.0201 18.1134 16.8487 18.9431C17.6771 19.7731 18.7261 20.1881 19.9957 20.1881Z" fill="#5AE0F6"/>
</svg>
