<svg width="48" height="48" viewBox="0 0 48 48" fill="none" xmlns="http://www.w3.org/2000/svg">
<path d="M27.1331 26.725C25.4664 26.725 24.0497 26.1416 22.8831 24.975C21.7164 23.8083 21.1331 22.3916 21.1331 20.725C21.1331 19.0583 21.7164 17.6416 22.8831 16.475C24.0497 15.3083 25.4664 14.725 27.1331 14.725C28.7997 14.725 30.2164 15.3083 31.3831 16.475C32.5497 17.6416 33.1331 19.0583 33.1331 20.725C33.1331 22.3916 32.5497 23.8083 31.3831 24.975C30.2164 26.1416 28.7997 26.725 27.1331 26.725ZM11.4201 34C10.4757 34 9.6699 33.6663 9.00256 32.999C8.33523 32.3316 8.00156 31.5258 8.00156 30.5815V10.8685C8.00156 9.92845 8.33523 9.12362 9.00256 8.45395C9.6699 7.78462 10.4757 7.44995 11.4201 7.44995H42.8701C43.8067 7.44995 44.6087 7.78462 45.2761 8.45395C45.9431 9.12362 46.2766 9.92845 46.2766 10.8685V30.5815C46.2766 31.5258 45.9431 32.3316 45.2761 32.999C44.6087 33.6663 43.8067 34 42.8701 34H11.4201ZM16.2766 30.725H38.0016C38.0016 29.325 38.4849 28.1416 39.4516 27.175C40.4182 26.2083 41.6016 25.725 43.0016 25.725V15.725C41.6016 15.725 40.4182 15.2396 39.4516 14.269C38.4849 13.2983 38.0016 12.117 38.0016 10.725H16.2766C16.2766 12.117 15.7932 13.2983 14.8266 14.269C13.8599 15.2396 12.6766 15.725 11.2766 15.725V25.725C12.6766 25.725 13.8599 26.2083 14.8266 27.175C15.7932 28.1416 16.2766 29.325 16.2766 30.725ZM38.2981 40.275H5.13306C4.1964 40.275 3.3944 39.9415 2.72706 39.2745C2.06006 38.6071 1.72656 37.8051 1.72656 36.8685V15.7035C1.72656 15.2225 1.89106 14.8183 2.22006 14.491C2.54906 14.1636 2.95523 14 3.43856 14C3.9219 14 4.32506 14.1636 4.64806 14.491C4.9714 14.8183 5.13306 15.2225 5.13306 15.7035V36.8685H38.2981C38.7791 36.8685 39.1832 37.033 39.5106 37.362C39.8379 37.691 40.0016 38.0971 40.0016 38.5805C40.0016 39.0638 39.8379 39.4669 39.5106 39.79C39.1832 40.1133 38.7791 40.275 38.2981 40.275Z" fill="#5AE0F6"/>
</svg>
