<svg width="48" height="48" viewBox="0 0 48 48" fill="none" xmlns="http://www.w3.org/2000/svg">
<path d="M14.4252 21.1677C12.5555 21.1677 10.9675 20.5112 9.66117 19.1982C8.35451 17.8855 7.70117 16.2958 7.70117 14.4292C7.70117 12.5625 8.3575 10.9745 9.67017 9.66517C10.9828 8.35584 12.5725 7.70117 14.4392 7.70117C16.3058 7.70117 17.8938 8.35717 19.2032 9.66917C20.5128 10.9808 21.1677 12.5695 21.1677 14.4352C21.1677 16.3045 20.5112 17.8938 19.1982 19.2032C17.8855 20.5128 16.2945 21.1677 14.4252 21.1677ZM14.4227 17.7612C15.3463 17.7612 16.1337 17.4378 16.7847 16.7912C17.4357 16.1445 17.7612 15.3593 17.7612 14.4357C17.7612 13.512 17.4378 12.7285 16.7912 12.0852C16.1445 11.4415 15.3593 11.1197 14.4357 11.1197C13.512 11.1197 12.7285 11.4392 12.0852 12.0782C11.4415 12.7175 11.1197 13.499 11.1197 14.4227C11.1197 15.3463 11.4392 16.1337 12.0782 16.7847C12.7175 17.4357 13.499 17.7612 14.4227 17.7612ZM33.5607 40.2992C31.6963 40.2992 30.109 39.6435 28.7987 38.3322C27.488 37.0212 26.8327 35.4322 26.8327 33.5652C26.8327 31.6978 27.4892 30.109 28.8022 28.7987C30.1148 27.488 31.7058 26.8327 33.5752 26.8327C35.4448 26.8327 37.0348 27.4908 38.3452 28.8072C39.6558 30.1235 40.3112 31.7127 40.3112 33.5747C40.3112 35.4367 39.6522 37.0228 38.3342 38.3332C37.0162 39.6438 35.425 40.2992 33.5607 40.2992ZM33.5647 36.8927C34.4883 36.8927 35.2718 36.5702 35.9152 35.9252C36.5588 35.2802 36.8807 34.497 36.8807 33.5757C36.8807 32.6543 36.5612 31.87 35.9222 31.2227C35.2828 30.575 34.5013 30.2512 33.5777 30.2512C32.654 30.2512 31.8667 30.5737 31.2157 31.2187C30.5647 31.8637 30.2392 32.6468 30.2392 33.5682C30.2392 34.4895 30.5625 35.2738 31.2092 35.9212C31.8558 36.5688 32.641 36.8927 33.5647 36.8927ZM8.89467 39.1057C8.547 38.7633 8.37317 38.3668 8.37317 37.9162C8.37317 37.4655 8.547 37.0663 8.89467 36.7187L36.7427 8.88267C37.0823 8.54301 37.4782 8.37317 37.9302 8.37317C38.3818 8.37317 38.7777 8.54501 39.1177 8.88867C39.4573 9.23267 39.6272 9.62851 39.6272 10.0762C39.6272 10.5242 39.4573 10.918 39.1177 11.2577L11.2817 39.1057C10.9377 39.4533 10.5388 39.6272 10.0852 39.6272C9.6315 39.6272 9.23467 39.4533 8.89467 39.1057Z" fill="#006CC9"/>
</svg>
