<svg width="48" height="48" viewBox="0 0 48 48" fill="none" xmlns="http://www.w3.org/2000/svg">
<path d="M10.4412 32.6686L15.7672 7.15205C15.8419 6.76172 16.0372 6.43355 16.3532 6.16755C16.6692 5.90155 17.0264 5.76855 17.4247 5.76855H18.1727C18.5634 5.76855 18.9185 5.89955 19.2382 6.16155C19.5582 6.42355 19.7555 6.74972 19.8302 7.14005L26.1987 36.7666L30.1292 19.4901C30.1959 19.0997 30.3975 18.7736 30.7342 18.5116C31.0705 18.2496 31.434 18.1186 31.8247 18.1186H32.6727C33.0634 18.1186 33.4185 18.2412 33.7382 18.4866C34.0582 18.7319 34.2722 19.0497 34.3802 19.4401L37.6062 32.6686H42.5487C42.9887 32.6686 43.3622 32.8222 43.6692 33.1296C43.9765 33.4366 44.1302 33.8101 44.1302 34.2501C44.1302 34.6901 43.9765 35.0719 43.6692 35.3956C43.3622 35.7196 42.9887 35.8816 42.5487 35.8816H36.4087C35.994 35.8816 35.6335 35.7592 35.3272 35.5146C35.0205 35.2702 34.8299 34.9574 34.7552 34.5761L32.2987 24.7621L28.0802 42.8981C28.0055 43.2884 27.8249 43.5916 27.5382 43.8076C27.2519 44.0236 26.9134 44.1316 26.5227 44.1316H25.7747C25.384 44.1316 25.0455 44.0152 24.7592 43.7826C24.4725 43.5499 24.2959 43.2384 24.2292 42.8481L17.8487 13.3456L13.3922 34.5261C13.3175 34.9407 13.1269 35.2702 12.8202 35.5146C12.5139 35.7592 12.1534 35.8816 11.7387 35.8816H5.44869C5.00869 35.8816 4.63519 35.7196 4.32819 35.3956C4.02085 35.0719 3.86719 34.6901 3.86719 34.2501C3.86719 33.8101 4.02919 33.4366 4.35319 33.1296C4.67685 32.8222 5.05869 32.6686 5.49869 32.6686H10.4412Z" fill="#5AE0F6"/>
</svg>
