<svg width="48" height="48" viewBox="0 0 48 48" fill="none" xmlns="http://www.w3.org/2000/svg">
<path d="M14.6897 42.349C13.4527 42.3236 12.2776 42.0141 11.1642 41.4205C10.0506 40.8271 9.00289 39.95 8.02122 38.789C6.66322 37.1743 5.60339 35.2431 4.84172 32.9955C4.08005 30.7475 3.69922 28.4316 3.69922 26.048C3.69922 23.2333 4.23022 20.5875 5.29222 18.1105C6.35422 15.6331 7.80089 13.4776 9.63222 11.644C11.4636 9.80996 13.6141 8.35896 16.0837 7.29096C18.5534 6.22296 21.1936 5.68896 24.0042 5.68896C26.8146 5.68896 29.4544 6.22396 31.9237 7.29396C34.3931 8.36396 36.5419 9.8298 38.3702 11.6915C40.1986 13.5531 41.6454 15.7375 42.7107 18.2445C43.7764 20.7515 44.3092 23.4406 44.3092 26.312C44.3092 28.8596 43.8972 31.2721 43.0732 33.5495C42.2492 35.8265 41.0747 37.7451 39.5497 39.3055C38.5604 40.3185 37.5289 41.079 36.4552 41.587C35.3819 42.095 34.2816 42.349 33.1542 42.349C32.5409 42.349 31.9282 42.272 31.3162 42.118C30.7042 41.964 30.0912 41.733 29.4772 41.425L26.6502 40.013C26.2169 39.7876 25.7772 39.623 25.3312 39.519C24.8852 39.415 24.4369 39.363 23.9862 39.363C23.5356 39.363 23.0872 39.415 22.6412 39.519C22.1952 39.623 21.7556 39.7876 21.3222 40.013L18.5072 41.425C17.8679 41.7583 17.2347 42.002 16.6077 42.156C15.9807 42.31 15.3414 42.3743 14.6897 42.349ZM14.8342 39.038C15.1959 39.038 15.5604 38.99 15.9277 38.894C16.2951 38.798 16.6621 38.6666 17.0287 38.5L19.8527 37.088C20.5021 36.78 21.1679 36.5406 21.8502 36.37C22.5329 36.1993 23.2352 36.114 23.9572 36.114C24.6792 36.114 25.3806 36.191 26.0612 36.345C26.7416 36.499 27.4209 36.7426 28.0992 37.076L30.9557 38.5C31.3224 38.6666 31.6819 38.798 32.0342 38.894C32.3866 38.99 32.7429 39.038 33.1032 39.038C33.8412 39.038 34.5646 38.8586 35.2732 38.5C35.9819 38.1413 36.6656 37.6033 37.3242 36.886C38.4989 35.6193 39.4029 34.0583 40.0362 32.203C40.6696 30.3476 40.9862 28.384 40.9862 26.312C40.9862 21.4453 39.3446 17.3453 36.0612 14.012C32.7779 10.6786 28.7569 9.01196 23.9982 9.01196C19.2396 9.01196 15.2186 10.6933 11.9352 14.056C8.65189 17.4186 7.01022 21.5373 7.01022 26.412C7.01022 28.512 7.32689 30.4703 7.96022 32.287C8.59355 34.1036 9.49355 35.6453 10.6602 36.912C11.3269 37.6373 12.0022 38.173 12.6862 38.519C13.3702 38.865 14.0862 39.038 14.8342 39.038ZM23.9982 29.7035C25.0249 29.7035 25.8987 29.3428 26.6197 28.6215C27.3411 27.9005 27.7017 27.0266 27.7017 26C27.7017 25.7333 27.6767 25.4686 27.6267 25.206C27.5767 24.9433 27.4889 24.6953 27.3632 24.462L30.3952 20.613C30.7639 21.0556 31.0932 21.5273 31.3832 22.028C31.6732 22.5283 31.8916 23.0668 32.0382 23.6435C32.1306 24.0501 32.3362 24.403 32.6552 24.702C32.9746 25.0013 33.3374 25.151 33.7437 25.151C34.3251 25.151 34.7629 24.9081 35.0572 24.4225C35.3519 23.9365 35.4119 23.4028 35.2372 22.8215C34.4469 20.3165 33.0276 18.2655 30.9792 16.6685C28.9309 15.0715 26.6039 14.273 23.9982 14.273C21.3679 14.273 19.0264 15.0651 16.9737 16.6495C14.9211 18.2338 13.5162 20.2911 12.7592 22.8215C12.5846 23.4028 12.6509 23.9365 12.9582 24.4225C13.2652 24.9081 13.6981 25.151 14.2567 25.151C14.6604 25.151 15.0116 25.0013 15.3102 24.702C15.6089 24.403 15.8249 24.0501 15.9582 23.6435C16.5016 21.8391 17.5101 20.3781 18.9837 19.2605C20.4571 18.1425 22.1286 17.5835 23.9982 17.5835C24.6662 17.5835 25.3177 17.6628 25.9527 17.8215C26.5874 17.9805 27.2054 18.2171 27.8067 18.5315L24.7872 22.385C24.6522 22.3516 24.5207 22.3286 24.3927 22.316C24.2647 22.303 24.1332 22.2965 23.9982 22.2965C22.9716 22.2965 22.0977 22.6571 21.3767 23.3785C20.6554 24.0995 20.2947 24.9733 20.2947 26C20.2947 27.0266 20.6554 27.9005 21.3767 28.6215C22.0977 29.3428 22.9716 29.7035 23.9982 29.7035Z" fill="#5AE0F6"/>
</svg>
