<svg width="48" height="48" viewBox="0 0 48 48" fill="none" xmlns="http://www.w3.org/2000/svg">
<path d="M24.0002 40.8045C27.4935 39.6058 30.3907 37.4661 32.6917 34.3855C34.9923 31.3044 36.3427 27.8426 36.7427 24H24.0002V7.36945L11.1077 12.1835V21.9C11.1077 22.292 11.116 22.6336 11.1327 22.925C11.1493 23.2163 11.191 23.5746 11.2577 24H24.0002V40.8045ZM24.0002 44.087C23.8095 44.087 23.6273 44.0683 23.4537 44.031C23.2797 43.9936 23.1013 43.9376 22.9187 43.863C18.2453 42.2963 14.5408 39.4521 11.8052 35.3305C9.06917 31.2088 7.70117 26.7153 7.70117 21.85V12.1335C7.70117 11.4125 7.9065 10.7558 8.31717 10.1635C8.7275 9.57112 9.25984 9.14629 9.91417 8.88895L22.8067 4.07495C23.2133 3.92562 23.6112 3.85095 24.0002 3.85095C24.3892 3.85095 24.787 3.92562 25.1937 4.07495L38.0862 8.88895C38.7405 9.14629 39.2748 9.57112 39.6892 10.1635C40.1038 10.7558 40.3112 11.4125 40.3112 12.1335V21.85C40.3112 26.7153 38.9412 31.2088 36.2012 35.3305C33.4615 39.4521 29.755 42.2963 25.0817 43.863C24.899 43.9376 24.7207 43.9936 24.5467 44.031C24.373 44.0683 24.1908 44.087 24.0002 44.087Z" fill="#14D3F3"/>
</svg>
