<svg width="48" height="48" viewBox="0 0 48 48" fill="none" xmlns="http://www.w3.org/2000/svg">
<path d="M20.882 44.299C20.3837 44.299 19.9412 44.143 19.5545 43.831C19.1678 43.519 18.9412 43.1136 18.8745 42.615L18.1245 37.9035C17.5388 37.6938 16.914 37.399 16.25 37.019C15.586 36.639 15.0072 36.2481 14.5135 35.8465L10.2255 37.8465C9.73485 38.0545 9.24035 38.0815 8.74201 37.9275C8.24335 37.7735 7.85668 37.464 7.58201 36.999L4.51451 31.488C4.23218 31.0386 4.15135 30.5668 4.27201 30.0725C4.39268 29.5778 4.66485 29.1725 5.08851 28.8565L9.07651 25.9065C9.01785 25.6305 8.98018 25.3128 8.96351 24.9535C8.94685 24.5938 8.93851 24.276 8.93851 24C8.93851 23.724 8.94685 23.4061 8.96351 23.0465C8.98018 22.6871 9.01785 22.3695 9.07651 22.0935L5.08851 19.1555C4.65685 18.8395 4.38268 18.4341 4.26601 17.9395C4.14935 17.4451 4.23218 16.9693 4.51451 16.512L7.58201 11.001C7.85668 10.5516 8.24135 10.246 8.73601 10.084C9.23068 9.9223 9.72318 9.94546 10.2135 10.1535L14.5375 12.1535C15.0232 11.7598 15.596 11.375 16.256 10.999C16.916 10.623 17.5388 10.3428 18.1245 10.1585L18.8745 5.39646C18.9412 4.89013 19.1678 4.47896 19.5545 4.16296C19.9412 3.84696 20.3837 3.68896 20.882 3.68896H27.117C27.6153 3.68896 28.0578 3.84696 28.4445 4.16296C28.8312 4.47896 29.0578 4.89013 29.1245 5.39646L29.8745 10.1085C30.4602 10.3261 31.0913 10.6146 31.768 10.974C32.4447 11.3333 33.0172 11.7265 33.4855 12.1535L37.7735 10.1535C38.2642 9.94546 38.7503 9.9223 39.232 10.084C39.714 10.246 40.0923 10.5516 40.367 11.001L43.496 16.512C43.7707 16.9693 43.8497 17.4535 43.733 17.9645C43.6163 18.4758 43.3422 18.8728 42.9105 19.1555L38.9105 21.9935C38.9692 22.3028 39.0088 22.6371 39.0295 22.9965C39.0502 23.3561 39.0605 23.6906 39.0605 24C39.0605 24.3093 39.0502 24.6355 39.0295 24.9785C39.0088 25.3211 38.9692 25.6471 38.9105 25.9565L42.9105 28.8445C43.3422 29.1271 43.6163 29.5241 43.733 30.0355C43.8497 30.5465 43.7707 31.0306 43.496 31.488L40.417 36.999C40.1423 37.4563 39.7577 37.7638 39.263 37.9215C38.7683 38.0795 38.2758 38.0545 37.7855 37.8465L33.4735 35.8465C32.9798 36.2481 32.4113 36.6453 31.768 37.038C31.1247 37.4306 30.4935 37.7191 29.8745 37.9035L29.1245 42.615C29.0578 43.1136 28.8312 43.519 28.4445 43.831C28.0578 44.143 27.6153 44.299 27.117 44.299H20.882ZM21.895 40.8925H26.092L26.804 35.3045C27.912 35.0378 28.9635 34.6211 29.9585 34.0545C30.9538 33.4878 31.8515 32.7925 32.6515 31.9685L37.9515 34.2685L39.844 30.824L35.168 27.398C35.3013 26.8233 35.4117 26.257 35.499 25.699C35.5863 25.141 35.63 24.5746 35.63 24C35.63 23.4253 35.5947 22.859 35.524 22.301C35.4533 21.743 35.3347 21.1766 35.168 20.602L39.856 17.176L37.9515 13.7315L32.6635 16.0315C31.8968 15.1488 31.0222 14.4098 30.0395 13.8145C29.0572 13.2191 27.9787 12.8421 26.804 12.6835L26.104 7.10746H21.895L21.207 12.6835C20.0577 12.9088 18.9835 13.3108 17.9845 13.8895C16.9852 14.4681 16.0982 15.1821 15.3235 16.0315L10.0475 13.7315L8.14301 17.176L12.807 20.59C12.6737 21.1646 12.5633 21.733 12.476 22.295C12.3887 22.857 12.345 23.4253 12.345 24C12.345 24.5746 12.3887 25.145 12.476 25.711C12.5633 26.277 12.6737 26.8433 12.807 27.41L8.14301 30.824L10.0475 34.2685L15.3235 31.9685C16.1315 32.7845 17.0352 33.4798 18.0345 34.0545C19.0335 34.6291 20.091 35.0498 21.207 35.3165L21.895 40.8925ZM23.9755 30.5C25.7755 30.5 27.3088 29.8666 28.5755 28.6C29.8422 27.3333 30.4755 25.8 30.4755 24C30.4755 22.2 29.8422 20.6666 28.5755 19.4C27.3088 18.1333 25.7755 17.5 23.9755 17.5C22.1755 17.5 20.6422 18.1333 19.3755 19.4C18.1088 20.6666 17.4755 22.2 17.4755 24C17.4755 25.8 18.1088 27.3333 19.3755 28.6C20.6422 29.8666 22.1755 30.5 23.9755 30.5Z" fill="#006CC9"/>
</svg>
