<svg width="48" height="48" viewBox="0 0 48 48" fill="none" xmlns="http://www.w3.org/2000/svg">
<path d="M19.7017 32H28.2947C28.7757 32 29.1799 31.8363 29.5072 31.509C29.8345 31.1816 29.9982 30.7775 29.9982 30.2965V23.5C29.9982 23.075 29.8545 22.7186 29.5672 22.431C29.2796 22.1436 28.9232 22 28.4982 22H27.9982V20C27.9982 18.9 27.6066 17.9583 26.8232 17.175C26.0399 16.3916 25.0982 16 23.9982 16C22.8982 16 21.9566 16.3916 21.1732 17.175C20.3899 17.9583 19.9982 18.9 19.9982 20V22H19.4982C19.0732 22 18.7171 22.1436 18.4297 22.431C18.1421 22.7186 17.9982 23.075 17.9982 23.5V30.2965C17.9982 30.7775 18.1619 31.1816 18.4892 31.509C18.8166 31.8363 19.2207 32 19.7017 32ZM21.4982 22V20C21.4982 19.3333 21.7482 18.775 22.2482 18.325C22.7482 17.875 23.3316 17.65 23.9982 17.65C24.6649 17.65 25.2482 17.8751 25.7482 18.3255C26.2482 18.7761 26.4982 19.3343 26.4982 20V22H21.4982ZM23.9982 44.087C23.7969 44.087 23.6084 44.0683 23.4327 44.031C23.2567 43.9936 23.0847 43.9376 22.9167 43.863C18.2434 42.2963 14.5389 39.4518 11.8032 35.3295C9.06722 31.2068 7.69922 26.7118 7.69922 21.8445V12.1335C7.69922 11.4041 7.90239 10.7448 8.30872 10.1555C8.71505 9.56612 9.24955 9.14395 9.91222 8.88895L22.8047 4.07495C23.2114 3.92562 23.6092 3.85095 23.9982 3.85095C24.3872 3.85095 24.785 3.92562 25.1917 4.07495L38.0842 8.88895C38.7469 9.14395 39.2834 9.56612 39.6937 10.1555C40.104 10.7448 40.3092 11.4041 40.3092 12.1335V21.8445C40.3092 26.7118 38.9392 31.2068 36.1992 35.3295C33.4596 39.4518 29.753 42.2963 25.0797 43.863C24.9117 43.9376 24.7397 43.9936 24.5637 44.031C24.3881 44.0683 24.1996 44.087 23.9982 44.087ZM23.9982 40.7545C27.7915 39.4478 30.8887 37.0541 33.2897 33.5735C35.6904 30.0924 36.8907 26.1858 36.8907 21.8535V12.1335L23.9982 7.26945L11.1057 12.1395V21.848C11.1057 26.184 12.3061 30.0924 14.7067 33.5735C17.1077 37.0541 20.2049 39.4478 23.9982 40.7545Z" fill="#5AE0F6"/>
</svg>
