<svg width="48" height="48" viewBox="0 0 48 48" fill="none" xmlns="http://www.w3.org/2000/svg">
<path d="M10.0131 21.562L4.56063 18.474C4.29596 18.3343 4.08679 18.1328 3.93313 17.8695C3.77979 17.6065 3.70312 17.3188 3.70312 17.0065V10.7545C3.70312 10.4421 3.77979 10.1545 3.93313 9.89146C4.08679 9.62813 4.29596 9.42663 4.56063 9.28696L10.0131 6.21096C10.2675 6.06163 10.5466 5.98696 10.8506 5.98696C11.1546 5.98696 11.4391 6.06163 11.7041 6.21096L17.1686 9.28696C17.4253 9.42663 17.6325 9.62813 17.7901 9.89146C17.9475 10.1545 18.0261 10.4421 18.0261 10.7545V17.0065C18.0261 17.3188 17.9475 17.6065 17.7901 17.8695C17.6325 18.1328 17.4253 18.3343 17.1686 18.474L11.7041 21.562C11.4498 21.7113 11.1706 21.786 10.8666 21.786C10.5626 21.786 10.2781 21.7113 10.0131 21.562ZM10.8586 18.239L14.7031 16.035V11.726L10.8586 9.52146L7.02612 11.726V16.035L10.8586 18.239ZM32.8131 22.4945V18.674L38.6096 22.0545C39.1486 22.3731 39.5673 22.7883 39.8656 23.3C40.164 23.8116 40.3131 24.366 40.3131 24.963V35.276C40.3131 35.8653 40.164 36.4176 39.8656 36.933C39.5673 37.4486 39.1486 37.862 38.6096 38.173L29.8606 43.2915C29.3193 43.5978 28.745 43.751 28.1376 43.751C27.53 43.751 26.961 43.5978 26.4306 43.2915L17.6816 38.173C17.1426 37.862 16.726 37.4486 16.4316 36.933C16.1373 36.4176 15.9901 35.8653 15.9901 35.276V24.963C15.9901 24.366 16.1373 23.8116 16.4316 23.3C16.726 22.7883 17.1426 22.3731 17.6816 22.0545L23.4901 18.674V22.4945L19.3131 24.9535V35.3115L28.1456 40.4285L36.9901 35.3115V24.9535L32.8131 22.4945ZM29.8131 15.012V25.3565C29.8131 25.8215 29.6506 26.2136 29.3256 26.533C29.0003 26.8523 28.604 27.012 28.1366 27.012C27.6693 27.012 27.2781 26.8523 26.9631 26.533C26.6478 26.2136 26.4901 25.8215 26.4901 25.3565V5.40446C26.4901 4.92346 26.6538 4.5173 26.9811 4.18596C27.3085 3.85463 27.7126 3.68896 28.1936 3.68896H41.1806C41.8436 3.68896 42.3408 3.99346 42.6721 4.60246C43.0038 5.2118 42.979 5.7983 42.5976 6.36196L41.2271 8.38696C41.0365 8.67363 40.9411 8.9938 40.9411 9.34746C40.9411 9.70146 41.0365 10.0276 41.2271 10.326L42.5976 12.339C42.979 12.9106 43.0038 13.4991 42.6721 14.1045C42.3408 14.7095 41.8436 15.012 41.1806 15.012H29.8131Z" fill="#006CC9"/>
</svg>
