<svg width="48" height="48" viewBox="0 0 48 48" fill="none" xmlns="http://www.w3.org/2000/svg">
<path d="M33.4482 39.0774L33.1102 36.9634C32.5592 36.8048 32 36.5711 31.4327 36.2624C30.8653 35.9538 30.3897 35.6034 30.0057 35.2114L28.1537 35.5994C27.863 35.6741 27.5865 35.6558 27.3242 35.5445C27.0618 35.4335 26.8572 35.2525 26.7102 35.0015L26.4032 34.4775C26.2252 34.1871 26.1612 33.8926 26.2112 33.594C26.2612 33.2953 26.398 33.038 26.6217 32.8219L28.2362 31.3079C28.1615 31.0319 28.1262 30.6333 28.1302 30.1119C28.1342 29.5906 28.1695 29.1964 28.2362 28.9294L26.6102 27.3895C26.3945 27.2088 26.2617 26.9645 26.2117 26.6565C26.1613 26.3481 26.224 26.065 26.3997 25.807L26.7102 25.184C26.8578 24.93 27.0523 24.7565 27.2937 24.6635C27.535 24.5708 27.801 24.5578 28.0917 24.6245L30.0057 25.0124C30.3897 24.6285 30.8653 24.2801 31.4327 23.9675C32 23.6548 32.5592 23.423 33.1102 23.272L33.4482 21.17C33.5165 20.8 33.6815 20.4998 33.9432 20.2695C34.2045 20.0395 34.5097 19.9244 34.8587 19.9244H35.3092C35.6485 19.9244 35.9483 20.0401 36.2087 20.2715C36.4693 20.5028 36.6368 20.7983 36.7112 21.158L37.0532 23.2705C37.5932 23.4225 38.1488 23.6548 38.7202 23.9675C39.2915 24.2801 39.7687 24.6285 40.1517 25.0124L42.0177 24.6245C42.3003 24.5578 42.5738 24.5781 42.8382 24.6855C43.1028 24.7931 43.3065 24.976 43.4492 25.234L43.7542 25.7425C43.9335 26.0435 43.9962 26.3413 43.9422 26.636C43.8882 26.9303 43.7492 27.1854 43.5252 27.4014L41.9112 28.9275C41.9938 29.2008 42.0332 29.5968 42.0292 30.1154C42.0252 30.6344 41.9858 31.0319 41.9112 31.3079L43.5212 32.8184C43.7478 33.0114 43.8882 33.2636 43.9422 33.5749C43.9962 33.8863 43.9358 34.1705 43.7612 34.4275L43.4492 35.0515C43.2998 35.3088 43.1028 35.4811 42.8582 35.5684C42.6138 35.6558 42.3463 35.6661 42.0557 35.5994L40.1537 35.2114C39.7693 35.6034 39.2915 35.9538 38.7202 36.2624C38.1488 36.5711 37.5918 36.8048 37.0492 36.9634L36.7112 39.0654C36.6358 39.4328 36.4665 39.7303 36.2032 39.958C35.9402 40.1856 35.6373 40.2994 35.2947 40.2994H34.8547C34.512 40.2994 34.2088 40.1855 33.9452 39.9575C33.6812 39.7298 33.5155 39.4364 33.4482 39.0774ZM23.0937 24.405C23.3763 23.8463 23.684 23.3213 24.0167 22.83C24.349 22.3386 24.7065 21.8636 25.0892 21.405H19.6077C19.1827 21.405 18.8265 21.5486 18.5392 21.836C18.2515 22.1236 18.1077 22.48 18.1077 22.905C18.1077 23.348 18.2542 23.7129 18.5472 24C18.8405 24.2873 19.206 24.4223 19.6437 24.405H23.0937ZM21.8002 30.4049C21.8082 30.353 21.8142 30.3055 21.8182 30.2624C21.8222 30.2191 21.8242 30.1709 21.8242 30.118C21.8242 29.6463 21.8448 29.1861 21.8862 28.7374C21.9275 28.2888 21.9893 27.8446 22.0717 27.405H13.6092C13.1832 27.405 12.8265 27.5495 12.5392 27.8385C12.2515 28.1278 12.1077 28.4861 12.1077 28.9135C12.1077 29.3411 12.2515 29.6966 12.5392 29.9799C12.8265 30.2633 13.1842 30.4049 13.6122 30.4049H21.8002ZM7.10767 40.2994C6.16267 40.2994 5.35867 39.9679 4.69567 39.3049C4.03267 38.6419 3.70117 37.8379 3.70117 36.8929V11.108C3.70117 10.1596 4.03267 9.35278 4.69567 8.68745C5.35867 8.02212 6.16267 7.68945 7.10767 7.68945H40.8927C41.841 7.68945 42.6478 8.02212 43.3132 8.68745C43.9785 9.35278 44.3112 10.1596 44.3112 11.108V17.7235C44.3112 18.2041 44.1443 18.6081 43.8107 18.9355C43.4767 19.2628 43.0685 19.4265 42.5862 19.4265C42.1035 19.4265 41.7005 19.2628 41.3772 18.9355C41.0542 18.6081 40.8927 18.2041 40.8927 17.7235V11.108H7.10767V36.8929H23.4467C23.9277 36.8929 24.3318 37.0574 24.6592 37.3864C24.9865 37.7154 25.1502 38.1216 25.1502 38.6049C25.1502 39.0883 24.9865 39.4915 24.6592 39.8144C24.3318 40.1378 23.9277 40.2994 23.4467 40.2994H7.10767ZM35.0802 34.046C36.1638 34.046 37.0893 33.6603 37.8567 32.889C38.624 32.1176 39.0077 31.1903 39.0077 30.107C39.0077 29.0303 38.6227 28.1061 37.8527 27.3344C37.0827 26.5631 36.157 26.1775 35.0757 26.1775C33.9943 26.1775 33.0678 26.5641 32.2962 27.3375C31.5248 28.1105 31.1392 29.0361 31.1392 30.1145C31.1392 31.1928 31.525 32.1176 32.2967 32.889C33.0687 33.6603 33.9965 34.046 35.0802 34.046ZM13.6167 24.405C14.044 24.405 14.3993 24.2603 14.6827 23.971C14.966 23.682 15.1077 23.3236 15.1077 22.896C15.1077 22.4686 14.9632 22.1133 14.6742 21.83C14.3848 21.5466 14.0265 21.405 13.5992 21.405C13.1715 21.405 12.816 21.5495 12.5327 21.8385C12.2493 22.1278 12.1077 22.4861 12.1077 22.9135C12.1077 23.3411 12.2523 23.6966 12.5417 23.9799C12.8307 24.2633 13.189 24.405 13.6167 24.405Z" fill="#006CC9"/>
</svg>
