<svg width="48" height="48" viewBox="0 0 48 48" fill="none" xmlns="http://www.w3.org/2000/svg">
<path d="M14.5697 17.985H5.33372C4.86405 17.985 4.47422 17.8291 4.16422 17.5175C3.85422 17.2058 3.69922 16.8168 3.69922 16.3505C3.69922 15.8838 3.85422 15.4956 4.16422 15.186C4.47422 14.8763 4.86405 14.7215 5.33372 14.7215H14.5697V7.85545L11.8592 10.5785C11.5292 10.9021 11.1439 11.064 10.7032 11.064C10.2622 11.064 9.87272 10.9021 9.53472 10.5785C9.22472 10.2545 9.07172 9.87045 9.07572 9.42645C9.07972 8.98279 9.24372 8.59895 9.56772 8.27495L15.0082 2.83495C15.3479 2.49495 15.7476 2.32495 16.2072 2.32495C16.6672 2.32495 17.0671 2.49495 17.4067 2.83495L22.8592 8.28695C23.1752 8.61228 23.3371 8.99445 23.3447 9.43345C23.3527 9.87278 23.1999 10.2545 22.8862 10.5785C22.5442 10.9021 22.1512 11.064 21.7072 11.064C21.2636 11.064 20.8797 10.8981 20.5557 10.5665L17.8447 7.85545V30.0035H42.6777C43.1397 30.0035 43.5272 30.1618 43.8402 30.4785C44.1529 30.7951 44.3092 31.1875 44.3092 31.6555C44.3092 32.1201 44.1529 32.5068 43.8402 32.8155C43.5272 33.1241 43.1397 33.2785 42.6777 33.2785H33.4502V40.1445L36.1612 37.4335C36.4816 37.1018 36.8621 36.9358 37.3027 36.9355C37.7437 36.9351 38.1384 37.1011 38.4867 37.4335C38.7957 37.7575 38.9482 38.1395 38.9442 38.5794C38.9402 39.0191 38.7764 39.401 38.4527 39.725L33.0002 45.177C32.6599 45.517 32.2619 45.685 31.8062 45.681C31.3509 45.677 30.9532 45.5089 30.6132 45.177L25.1612 39.713C24.8372 39.397 24.6732 39.0191 24.6692 38.5794C24.6652 38.1395 24.8179 37.7575 25.1272 37.4335C25.4732 37.1011 25.8664 36.9371 26.3067 36.9415C26.7467 36.9458 27.1327 37.1098 27.4647 37.4335L30.1632 40.1445V33.2785H17.8447C16.9081 33.2785 16.1281 32.9693 15.5047 32.351C14.8814 31.733 14.5697 30.9505 14.5697 30.0035V17.985ZM30.1632 27.0035V17.985H20.8447V14.7215H30.1632C31.1089 14.7215 31.8932 15.0308 32.5162 15.6495C33.1389 16.2678 33.4502 17.0463 33.4502 17.985V27.0035H30.1632Z" fill="#006CC9"/>
</svg>
