<?xml version="1.0" encoding="UTF-8"?>
<svg id="Layer_1" xmlns="http://www.w3.org/2000/svg" version="1.1" viewBox="0 0 876.26 209.65">
  <!-- Generator: Adobe Illustrator 29.8.2, SVG Export Plug-In . SVG Version: 2.1.1 Build 3)  -->
  <defs>
    <style>
      .st0 {
        fill: #f90;
      }

      .st1 {
        fill: #242e3d;
      }
    </style>
  </defs>
  <g>
    <path class="st1" d="M72.16,55.66c-.08,2.57.24,5.14.97,7.61.74,2.1,1.66,4.14,2.76,6.14.37.58.57,1.21.59,1.94-.11,1.05-.72,1.99-1.64,2.52l-5.37,3.57c-.66.42-1.43.68-2.23.73-.96-.05-1.87-.47-2.52-1.21-1.17-1.15-2.2-2.52-3.05-3.93-.83-1.47-1.7-3.09-2.6-4.98-6.08,7.55-15.32,11.91-25.03,11.75-6.25.31-12.38-1.89-17-6.08-8.9-9.81-8.23-24.97,1.49-33.94,5.92-4.67,13.33-7.03,20.86-6.61,3.02,0,6.03.26,9.02.68,3.13.42,6.37,1.05,9.76,1.89v-6.24c.5-4.93-.94-9.81-4.02-13.64-3.94-3.04-8.9-4.46-13.85-3.93-3.09,0-6.16.37-9.16,1.1-3.12.73-6.18,1.68-9.16,2.89-.97.47-1.97.84-2.98,1.15-.44.1-.89.16-1.34.21-1.19,0-1.78-.89-1.78-2.68v-4.2c-.07-1.05.14-2.05.63-2.99.63-.79,1.45-1.36,2.38-1.78,3.43-1.63,7.01-2.94,10.7-3.88C33.9.64,38.36.11,42.83.11c8.04-.68,16.04,1.78,22.27,6.92,5.12,5.72,7.67,13.27,7.08,20.93l-.02,27.7ZM37.57,68.62c3,0,5.98-.52,8.81-1.52,3.12-1.1,5.89-2.99,8.04-5.46,1.38-1.57,2.38-3.41,2.91-5.46.58-2.41.86-4.88.82-7.34v-3.62c-2.58-.58-5.19-1.05-7.83-1.42-2.64-.31-5.31-.47-7.97-.47-4.49-.37-8.96.84-12.67,3.41-5.12,5.09-5.58,13.22-1.04,18.83,2.45,2.2,5.68,3.3,8.94,3.04M105.95,77.91c-1.15.05-2.3-.21-3.28-.84-.91-.94-1.53-2.1-1.79-3.36L80.92,7.88c-.38-1.15-.63-2.31-.74-3.46-.14-1,.55-1.94,1.56-2.05.17-.05.35-.05.53,0h8.35c1.18-.16,2.36.16,3.35.79.87.94,1.45,2.1,1.72,3.36l14.3,56.34,13.26-56.34c.18-1.31.75-2.47,1.65-3.36,1.02-.63,2.22-.94,3.42-.84h6.86c1.2-.1,2.4.21,3.43.84.89.89,1.46,2.1,1.64,3.36l13.41,57.02,14.75-57.02c.26-1.26.85-2.41,1.71-3.36,1-.68,2.18-.94,3.36-.84h7.89c1.01-.16,1.94.58,2.08,1.57.03.16.03.31,0,.52,0,.42-.06.89-.15,1.31-.17.73-.38,1.42-.63,2.1l-20.56,65.89c-.26,1.26-.88,2.41-1.79,3.3-.98.63-2.12.94-3.28.84h-7.3c-1.21.1-2.42-.21-3.43-.89-.88-.94-1.45-2.15-1.64-3.41l-13.26-54.87-13.11,54.87c-.19,1.26-.76,2.47-1.64,3.41-1.01.68-2.21,1-3.43.89l-7.27.05ZM215.31,80.16c-4.41,0-8.81-.52-13.11-1.52-3.41-.68-6.72-1.84-9.84-3.41-1.1-.52-2-1.36-2.61-2.41-.34-.73-.51-1.52-.51-2.36v-4.3c0-1.84.64-2.73,1.93-2.73.54.05,1.06.1,1.57.31.54.21,1.26.52,2.16.89,3.01,1.36,6.16,2.36,9.39,2.99,3.34.68,6.72,1.05,10.13,1.05,4.33.26,8.64-.73,12.44-2.83,2.83-1.68,4.51-4.77,4.41-8.08.07-2.2-.77-4.35-2.31-5.93-2.49-2.1-5.41-3.62-8.57-4.46l-12.36-3.88c-5.35-1.42-10.12-4.41-13.66-8.66-2.75-3.57-4.25-7.92-4.25-12.38-.07-3.3.73-6.56,2.31-9.44,1.54-2.73,3.62-5.14,6.11-7.03,2.65-1.99,5.66-3.46,8.86-4.41,3.48-1,7.08-1.47,10.7-1.47,1.92,0,3.83.1,5.74.37,1.94.26,3.78.58,5.51,1,1.74.37,3.36.84,4.84,1.31,1.23.42,2.43.89,3.57,1.52.97.47,1.83,1.21,2.52,2.05.55.84.8,1.84.74,2.83v4.04c0,1.78-.65,2.68-1.94,2.68-1.14-.1-2.26-.47-3.27-1.05-5.16-2.2-10.74-3.36-16.37-3.25-3.92-.21-7.83.58-11.33,2.36-2.66,1.57-4.22,4.51-4.02,7.61-.05,2.26.86,4.46,2.52,6.03,2.77,2.2,5.96,3.83,9.38,4.72l12.06,3.83c5.14,1.36,9.75,4.2,13.22,8.18,2.61,3.46,4,7.66,3.95,11.96.05,3.41-.71,6.82-2.23,9.91-1.49,2.89-3.6,5.46-6.18,7.5-2.81,2.15-6.02,3.78-9.44,4.77-3.92,1.1-7.99,1.68-12.07,1.63"/>
    <path class="st0" d="M231.42,121.5c-28.03,20.68-68.67,31.69-103.66,31.69-46.75.25-91.91-16.99-126.62-48.32-2.63-2.36-.28-5.61,2.87-3.78,38.58,22.07,82.26,33.66,126.7,33.63,33.2-.16,66.04-6.88,96.64-19.78,4.74-1.99,8.71,3.15,4.08,6.55M235.71,140.16c-1.03,2.55,1.17,3.58,3.49,1.65,15.04-12.59,18.92-38.94,15.84-42.77-3.08-3.78-29.34-6.98-45.39,4.25-2.47,1.73-2.04,4.14.7,3.78,9.03-1.05,29.14-3.46,32.73,1.1,3.59,4.62-3.99,23.52-7.37,31.97"/>
  </g>
  <path class="st1" d="M338.26,48.75v27.58h-15.91V.79s28.88,0,28.88,0c6.81-.37,13.5,1.94,18.63,6.43,9.16,9.91,9.16,25.2,0,35.11-5.14,4.49-11.82,6.79-18.63,6.43h-12.97ZM338.26,36.54h11.12c3.08.21,6.1-.88,8.34-3,3.86-5.21,3.86-12.33,0-17.55-2.24-2.12-5.26-3.21-8.34-3h-11.12v23.55ZM443.37,76.32l-5.35-17.22h-25.81l-5.11,17.22h-17.16L416.54.79h17.98l26.59,75.54h-17.75ZM415.68,47.33h18.96l-9.58-31.62-9.37,31.62ZM483.58,76.32V.79h29.1c6.78-.37,13.44,1.85,18.64,6.21,4.66,4.34,7.18,10.53,6.87,16.9.05,4.2-1.21,8.31-3.59,11.77-2.56,3.61-6.06,6.45-10.13,8.18l18.74,32.48h-16.9l-16.37-29.32h-10.7v29.32h-15.66ZM499.28,35.66h11.33c5.57.77,10.7-3.12,11.47-8.68.13-.95.13-1.92-.02-2.87.8-5.45-2.97-10.52-8.43-11.32-.92-.14-1.87-.14-2.8-.02h-11.55v22.88ZM581.67,76.32V13.87h-22.99V.79h62.35v13.08s-23,0-23,0v62.46h-16.36ZM660.09,23.89v52.43h-14.38V.79h17.44l30.73,52.88V.79h14.39v75.54h-17.45l-30.73-52.43ZM737.78,76.32V.79h49.67v12.65h-33.36v17.87h27.17v12.65h-27.17v19.72h33.36v12.65h-49.67ZM816.62,76.32V.79h29.11c6.77-.37,13.48,1.85,18.62,6.21,4.67,4.34,7.19,10.53,6.87,16.9.05,4.2-1.21,8.31-3.62,11.77-2.52,3.62-6.03,6.45-10.12,8.18l18.78,32.48h-16.89l-16.37-29.32h-10.7v29.32h-15.68ZM832.31,35.67h11.33c5.56.77,10.7-3.11,11.49-8.67.11-.96.11-1.93,0-2.89.79-5.45-2.99-10.51-8.45-11.32-.94-.14-1.89-.14-2.78-.02h-11.59v22.88Z"/>
  <path class="st1" d="M476.24,128.85h13.99l-7.03-20.35-6.96,20.35ZM495.69,145.56l-3.69-11.07h-17.62l-3.56,11.07h-7.75l16.12-44.06h8.39l15.87,44.06h-7.75Z"/>
  <path class="st1" d="M522.05,140.35c2.62-.04,5.18-.89,7.31-2.42v-17.48c-2.09-1.5-4.61-2.3-7.19-2.29-2.42-.2-4.78.81-6.29,2.7-1.52,2.49-2.21,5.39-2,8.3.05,7.45,2.76,11.19,8.17,11.19ZM530.45,145.56l-.77-3.15c-2.72,2.49-6.29,3.85-9.98,3.82-3.79.13-7.41-1.57-9.76-4.55-2.6-3.53-3.89-7.85-3.66-12.23-.06-3.07.5-6.12,1.65-8.96.99-2.43,2.64-4.54,4.77-6.07,2.17-1.49,4.75-2.26,7.38-2.2,3.39,0,6.67,1.16,9.28,3.31v-17.04h7.51v47.05l-6.43.03Z"/>
  <polygon class="st1" points="554.41 145.56 541.89 113.2 549.39 113.2 558.1 138.83 566.63 113.2 574.12 113.2 561.66 145.56 554.41 145.56"/>
  <path class="st1" d="M589.39,141.16c1.3-.02,2.58-.29,3.78-.8,1.38-.57,2.69-1.32,3.86-2.25v-6.11c-1.91-.44-3.87-.67-5.84-.7-4.29,0-6.44,1.72-6.44,5.15-.07,1.28.38,2.53,1.26,3.47.91.87,2.14,1.32,3.39,1.25v-.02ZM597.97,145.56l-.57-3.15c-1.47,1.26-3.14,2.27-4.93,2.99-1.7.7-3.53,1.07-5.38,1.08-2.66.12-5.26-.85-7.21-2.67-3.82-4-3.68-10.33.32-14.15.1-.09.2-.19.31-.28,2.61-1.98,5.85-2.98,9.12-2.8,2.49.02,4.97.35,7.39.95v-3.78c.17-1.64-.33-3.27-1.41-4.52-1.43-.99-3.17-1.43-4.9-1.26-3.88.11-7.72.81-11.38,2.1v-5.28c1.86-.89,3.82-1.52,5.85-1.88,2.29-.48,4.63-.71,6.96-.71,3.32-.28,6.62.62,9.35,2.52,2.16,2.05,3.26,4.98,3.01,7.94v22.83l-6.54.06Z"/>
  <path class="st1" d="M634.47,145.56v-21.4c.14-1.62-.31-3.23-1.26-4.55-1.09-1.04-2.58-1.56-4.08-1.43-3.07.09-6.05,1.05-8.58,2.8v24.6h-7.51v-32.38h6.23l.76,3.55c3.54-2.84,7.92-4.43,12.46-4.51,2.59-.18,5.14.7,7.06,2.45,1.73,1.95,2.6,4.5,2.42,7.09v23.78h-7.51Z"/>
  <path class="st1" d="M673.69,144.29c-2.79,1.38-5.86,2.06-8.96,1.98-4.26.27-8.43-1.31-11.45-4.33-2.85-3.42-4.29-7.82-4-12.26-.28-4.59,1.2-9.12,4.14-12.65,3.01-3.12,7.23-4.77,11.57-4.52,2.93-.04,5.82.6,8.46,1.89v5.28c-2.35-.73-4.78-1.13-7.24-1.21-2.61-.23-5.18.72-7.03,2.58-1.69,2.3-2.49,5.13-2.26,7.98v.82c-.24,2.81.57,5.62,2.26,7.88,1.87,1.83,4.43,2.75,7.03,2.52,2.55-.04,5.07-.46,7.5-1.26v5.31Z"/>
  <path class="st1" d="M693.24,117.71c-2.02-.07-3.97.78-5.31,2.29-1.45,1.73-2.28,3.9-2.34,6.16h13.92v-.51c.14-2.09-.42-4.17-1.6-5.9-1.14-1.4-2.87-2.16-4.67-2.04ZM685.59,131.19c-.12,2.62.82,5.17,2.6,7.09,2.12,1.67,4.78,2.48,7.47,2.26,3.35-.06,6.67-.66,9.82-1.78v5.28c-1.62.82-3.34,1.44-5.11,1.82-2.01.45-4.08.67-6.14.67-4.47.32-8.88-1.25-12.14-4.32-2.97-3.49-4.45-8.02-4.13-12.59-.28-4.62,1.15-9.16,4.03-12.78,2.88-3.14,7.03-4.83,11.29-4.58,3.52-.23,6.98,1,9.57,3.4,2.36,2.64,3.56,6.11,3.34,9.64.02,1.98-.16,3.97-.55,5.91h-20.05Z"/>
  <path class="st1" d="M727.61,140.35c2.62-.04,5.17-.88,7.31-2.42v-17.48c-2.09-1.51-4.61-2.3-7.19-2.29-2.41-.19-4.75.82-6.26,2.7-1.52,2.49-2.22,5.39-2,8.3,0,7.45,2.72,11.19,8.14,11.19ZM736,145.56l-.76-3.15c-2.72,2.49-6.29,3.85-9.98,3.82-3.79.13-7.42-1.57-9.76-4.55-2.59-3.54-3.88-7.85-3.65-12.23-.06-3.07.5-6.12,1.65-8.96.99-2.43,2.63-4.55,4.77-6.07,2.17-1.49,4.75-2.26,7.38-2.2,3.39,0,6.67,1.16,9.28,3.31v-17.04h7.53v47.05l-6.45.03Z"/>
  <polygon class="st1" points="778.33 145.56 778.33 107.86 764.54 107.86 764.54 101.5 799.89 101.5 799.89 107.86 786.09 107.86 786.09 145.56 778.33 145.56"/>
  <path class="st1" d="M805.61,145.56v-32.36h7.5v32.36h-7.5ZM809.38,107.86c-1.21.07-2.41-.35-3.3-1.15-1.63-1.8-1.63-4.54,0-6.35,1.94-1.53,4.67-1.53,6.61,0,1.63,1.8,1.63,4.54,0,6.35-.94.8-2.1,1.21-3.3,1.15Z"/>
  <path class="st1" d="M836.19,117.71c-2.05-.07-3.99.78-5.35,2.29-1.42,1.73-2.26,3.9-2.31,6.16h13.9v-.51c.16-2.09-.42-4.17-1.57-5.9-1.15-1.4-2.89-2.16-4.67-2.04ZM828.53,131.19c-.1,2.62.79,5.17,2.57,7.09,2.15,1.67,4.83,2.48,7.5,2.26,3.36-.06,6.61-.66,9.81-1.78v5.28c-1.63.82-3.3,1.44-5.14,1.82-1.99.45-4.04.67-6.14.67-4.46.32-8.86-1.25-12.12-4.32-2.99-3.49-4.46-8.02-4.14-12.59-.26-4.62,1.15-9.16,4.04-12.78,2.89-3.14,7.03-4.83,11.28-4.58,3.51-.23,7.03,1,9.6,3.4,2.31,2.64,3.51,6.11,3.36,9.64,0,1.98-.21,3.97-.58,5.91h-20.04Z"/>
  <path class="st1" d="M856.44,145.56v-32.36h6.24l1,4.83c1.31-1.58,2.94-2.92,4.77-3.94,1.52-.77,3.15-1.15,4.83-1.14.84,0,1.73.06,2.62.19v6.87c-1.21-.22-2.41-.33-3.67-.33-2.94-.05-5.88.8-8.29,2.42v23.46h-7.5Z"/>
  <path class="st1" d="M651.8,188.23c-2.91-.96-5.54-2.64-7.65-4.86-1.62-2-2.47-4.52-2.38-7.09-.15-3.6,1.38-7.07,4.16-9.38,3.21-2.46,7.19-3.68,11.22-3.47,4.08.04,8.1.81,11.89,2.29v6.17c-3.57-1.19-7.31-1.83-11.07-1.89-5.55,0-8.32,1.89-8.32,5.67-.04,1.35.51,2.65,1.51,3.56,1.59,1.25,3.4,2.2,5.33,2.8l5.32,1.97c2.91.92,5.52,2.57,7.62,4.77,1.62,2.01,2.45,4.54,2.36,7.12.18,3.89-1.5,7.63-4.52,10.07-3.58,2.62-7.97,3.92-12.41,3.66-2.26,0-4.52-.23-6.73-.67-2.04-.38-4.03-1.02-5.92-1.89v-6.17c2.09.69,4.25,1.22,6.43,1.59,1.99.36,4.02.55,6.05.57,2.39.15,4.76-.41,6.83-1.62,1.56-1.03,2.46-2.81,2.38-4.68.04-1.33-.49-2.62-1.44-3.56-1.51-1.24-3.23-2.19-5.08-2.8l-5.58-2.17Z"/>
  <path class="st1" d="M693.18,180.66c-2.02-.07-3.97.77-5.31,2.29-1.45,1.73-2.28,3.9-2.34,6.16h13.92v-.51c.14-2.09-.42-4.17-1.6-5.9-1.14-1.4-2.87-2.16-4.67-2.04ZM685.52,194.14c-.12,2.62.82,5.17,2.61,7.09,2.12,1.67,4.78,2.47,7.47,2.26,3.35-.06,6.67-.66,9.82-1.78v5.28c-1.62.82-3.34,1.44-5.11,1.82-2.01.45-4.08.67-6.15.67-4.47.32-8.88-1.25-12.13-4.32-2.97-3.49-4.46-8.02-4.14-12.59-.28-4.62,1.15-9.17,4.03-12.78,2.88-3.14,7.03-4.83,11.29-4.58,3.52-.23,6.98,1,9.57,3.4,2.36,2.63,3.57,6.11,3.34,9.64.02,1.98-.16,3.97-.55,5.91h-20.05Z"/>
  <path class="st1" d="M713.43,208.51v-32.37h6.23l1.02,4.83c1.35-1.58,2.96-2.92,4.76-3.94,1.5-.77,3.16-1.15,4.84-1.14.88,0,1.74.06,2.61.19v6.87c-1.2-.22-2.41-.33-3.64-.33-2.96-.05-5.86.8-8.32,2.42v23.46h-7.51Z"/>
  <polygon class="st1" points="748.64 208.51 736.16 176.15 743.66 176.15 752.37 201.78 760.86 176.15 768.36 176.15 755.93 208.51 748.64 208.51"/>
  <path class="st1" d="M773.61,208.51v-32.37h7.5v32.37s-7.5,0-7.5,0ZM777.39,170.81c-1.21.07-2.41-.35-3.3-1.15-1.63-1.81-1.63-4.54,0-6.35,1.94-1.53,4.67-1.53,6.61,0,1.63,1.81,1.63,4.55,0,6.35-.89.8-2.1,1.22-3.3,1.15Z"/>
  <path class="st1" d="M813.32,207.24c-2.78,1.38-5.87,2.06-8.97,1.98-4.25.27-8.45-1.31-11.44-4.33-2.88-3.42-4.3-7.82-3.99-12.26-.31-4.59,1.15-9.12,4.09-12.65,3.04-3.12,7.24-4.77,11.59-4.52,2.94-.04,5.82.6,8.45,1.89v5.28c-2.36-.73-4.77-1.13-7.24-1.21-2.62-.22-5.19.72-7.03,2.58-1.68,2.3-2.47,5.13-2.26,7.98v.82c-.21,2.81.58,5.61,2.26,7.88,1.84,1.83,4.41,2.75,7.03,2.52,2.57-.04,5.09-.46,7.5-1.26v5.31Z"/>
  <path class="st1" d="M832.78,180.66c-1.99-.07-3.93.77-5.3,2.29-1.42,1.73-2.26,3.9-2.36,6.16h13.95v-.51c.16-2.09-.42-4.17-1.63-5.9-1.1-1.4-2.83-2.16-4.67-2.04ZM825.12,194.14c-.1,2.62.84,5.17,2.62,7.09,2.1,1.67,4.77,2.48,7.45,2.26,3.36-.06,6.71-.66,9.86-1.78v5.28c-1.68.82-3.36,1.44-5.14,1.82-1.99.45-4.04.67-6.14.67-4.46.32-8.87-1.25-12.12-4.32-2.99-3.49-4.46-8.02-4.14-12.59-.26-4.62,1.15-9.17,4.04-12.78,2.88-3.14,7.03-4.83,11.28-4.58,3.51-.23,6.98,1,9.55,3.4,2.41,2.64,3.62,6.11,3.36,9.64.05,1.98-.16,3.97-.58,5.91h-20.04Z"/>
  <path class="st1" d="M867.77,199.74c0-.85-.31-1.67-.94-2.27-.94-.78-2.1-1.37-3.3-1.74l-5.25-2.04c-4.2-1-7.13-4.65-7.19-8.9-.16-2.74,1.1-5.36,3.3-7.03,2.52-1.82,5.66-2.73,8.81-2.58,3.3-.05,6.56.65,9.55,2.04v5.27c-2.99-.99-6.08-1.53-9.13-1.58-1.52-.11-2.99.19-4.3.86-.94.58-1.47,1.62-1.36,2.7-.1.86.31,1.69.94,2.26,1.1.8,2.31,1.45,3.57,1.89l4.93,1.89c2.05.68,3.93,1.89,5.51,3.49,1.15,1.46,1.78,3.29,1.63,5.15.16,2.92-1.1,5.74-3.36,7.55-2.78,2-6.19,2.97-9.6,2.77-1.94.01-3.88-.2-5.82-.63-1.73-.36-3.41-.96-5.04-1.78v-5.28c3.51,1.21,7.13,1.87,10.86,1.97,1.57.12,3.2-.22,4.67-.99,1-.67,1.57-1.83,1.52-3.03Z"/>
</svg>