<?xml version="1.0" encoding="UTF-8"?>
<svg id="Layer_1" xmlns="http://www.w3.org/2000/svg" version="1.1" viewBox="0 0 987 155.27">
  <!-- Generator: Adobe Illustrator 29.8.2, SVG Export Plug-In . SVG Version: 2.1.1 Build 3)  -->
  <defs>
    <style>
      .st0 {
        fill: #00739d;
      }

      .st1 {
        fill: #666766;
      }
    </style>
  </defs>
  <g>
    <path class="st1" d="M282.96,116.58c-5.22,2.72-10.65,4.69-16.33,5.89-5.66,1.21-11.44,1.82-17.34,1.82-6.27,0-12.05-.99-17.34-2.95-5.29-1.97-9.86-4.78-13.72-8.45-3.85-3.66-6.85-8.11-9.01-13.31-2.15-5.22-3.23-11.04-3.23-17.45s1.08-12.25,3.23-17.45c2.15-5.22,5.16-9.65,9.01-13.32,3.86-3.65,8.43-6.47,13.72-8.44,5.29-1.97,11.07-2.95,17.34-2.95s12.34.78,17.74,2.33c5.39,1.54,10.15,4.21,14.22,7.98l-12.47,13.6c-2.41-2.49-5.13-4.38-8.16-5.66s-6.8-1.93-11.34-1.93c-3.78,0-7.19.64-10.25,1.93-3.06,1.28-5.69,3.07-7.88,5.38-2.19,2.3-3.87,5.04-5.05,8.22-1.17,3.17-1.75,6.6-1.75,10.31s.58,7.24,1.75,10.37c1.18,3.14,2.86,5.85,5.05,8.16,2.18,2.31,4.81,4.1,7.88,5.38,3.05,1.28,6.47,1.93,10.25,1.93s7.18-.44,9.98-1.3c2.8-.87,5.02-1.76,6.69-2.66v-13.03h-14.4v-16.33h31.4v41.94Z"/>
    <path class="st1" d="M383.15,91.3c0,4.76-.72,9.14-2.15,13.15-1.44,4.01-3.57,7.48-6.41,10.42-2.83,2.95-6.37,5.26-10.59,6.92-4.23,1.66-9.11,2.49-14.63,2.49s-10.5-.84-14.73-2.49c-4.23-1.66-7.76-3.96-10.59-6.92-2.84-2.94-4.97-6.42-6.41-10.42-1.44-4.01-2.15-8.39-2.15-13.15v-49.3h17.68v48.61c0,2.49.39,4.8,1.19,6.91.79,2.12,1.9,3.95,3.34,5.5,1.43,1.55,3.15,2.76,5.16,3.62,2,.88,4.17,1.3,6.51,1.3s4.5-.42,6.46-1.3c1.97-.86,3.66-2.07,5.1-3.62,1.44-1.54,2.55-3.37,3.34-5.5.8-2.11,1.19-4.42,1.19-6.91v-48.61h17.68v49.3Z"/>
    <rect class="st1" x="416.24" y="42.01" width="17.68" height="80.24"/>
    <path class="st1" d="M467.01,42h26.52c6.42,0,12.53.72,18.3,2.15,5.78,1.44,10.83,3.76,15.12,6.98,4.31,3.21,7.73,7.38,10.26,12.52,2.54,5.15,3.8,11.38,3.8,18.71,0,6.5-1.23,12.23-3.69,17.16-2.45,4.95-5.76,9.11-9.92,12.47-4.15,3.36-8.95,5.91-14.39,7.65-5.43,1.74-11.15,2.61-17.11,2.61h-28.9V42ZM484.69,105.92h9.18c4.08,0,7.88-.41,11.39-1.24,3.51-.84,6.55-2.22,9.12-4.14,2.57-1.93,4.6-4.46,6.07-7.6,1.47-3.13,2.22-6.97,2.22-11.5,0-3.92-.75-7.34-2.22-10.26-1.47-2.9-3.46-5.3-5.95-7.19-2.49-1.88-5.41-3.3-8.78-4.24-3.36-.94-6.89-1.42-10.6-1.42h-10.42v47.6Z"/>
    <polygon class="st1" points="570.71 42 625.23 42 625.23 58.33 588.4 58.33 588.4 73.29 623.19 73.29 623.19 89.6 588.4 89.6 588.4 105.93 627.27 105.93 627.27 122.24 570.71 122.24 570.71 42"/>
    <polygon class="st1" points="650.05 42 669.32 42 682.12 93.45 682.35 93.45 699.12 42 715.56 42 732.22 94.82 732.44 94.82 745.93 42 763.84 42 740.37 122.24 724.63 122.24 706.95 66.71 706.72 66.71 689.04 122.24 673.85 122.24 650.05 42"/>
    <rect class="st1" x="788.55" y="42.01" width="17.68" height="80.24"/>
    <path class="st1" d="M839.32,42h31.06c4.08,0,7.95.4,11.62,1.19,3.66.8,6.87,2.12,9.64,3.96,2.75,1.85,4.95,4.35,6.57,7.48,1.61,3.14,2.43,7.04,2.43,11.73,0,5.66-1.47,10.49-4.42,14.45-2.95,3.96-7.26,6.48-12.92,7.54l20.4,33.88h-21.2l-16.77-32.07h-8.73v32.07h-17.68V42ZM857,75.21h10.42c1.59,0,3.27-.05,5.05-.18,1.77-.1,3.37-.44,4.81-1.01,1.43-.57,2.62-1.45,3.57-2.66.94-1.21,1.41-2.91,1.41-5.1,0-2.04-.41-3.66-1.24-4.88-.83-1.2-1.89-2.13-3.17-2.77-1.29-.64-2.76-1.08-4.43-1.3-1.66-.23-3.28-.34-4.87-.34h-11.56v18.25Z"/>
  </g>
  <g>
    <polygon class="st1" points="930.44 42 984.96 42 984.96 58.33 948.12 58.33 948.12 73.29 982.92 73.29 982.92 89.6 948.12 89.6 948.12 105.93 987 105.93 987 122.24 930.44 122.24 930.44 42"/>
    <polygon class="st0" points="155.26 31.06 155.26 0 31.05 0 0 0 0 31.06 0 124.22 0 155.26 31.05 155.26 93.16 155.27 93.16 124.22 31.05 124.22 31.05 31.06 155.26 31.06"/>
    <polygon class="st0" points="155.26 62.11 62.1 62.11 62.1 93.17 124.21 93.17 124.21 155.27 155.26 155.27 155.26 93.17 155.26 62.11"/>
  </g>
</svg>