<?xml version="1.0" encoding="UTF-8"?>
<svg id="Layer_1" xmlns="http://www.w3.org/2000/svg" version="1.1" viewBox="0 0 850 180">
  <!-- Generator: Adobe Illustrator 29.8.2, SVG Export Plug-In . SVG Version: 2.1.1 Build 3)  -->
  <defs>
    <style>
      .st0 {
        fill: #1d252c;
      }

      .st1 {
        fill: #1ce783;
      }

      .st2 {
        fill: #00ac69;
      }
    </style>
  </defs>
  <g>
    <polygon class="st2" points="121.19 65.55 121.19 114.45 78.84 138.91 78.84 169.49 147.68 129.74 147.68 50.26 121.19 65.55"/>
    <polygon class="st1" points="78.84 41.09 121.19 65.55 147.68 50.26 147.68 50.26 78.84 10.51 10 50.26 10 50.26 36.48 65.55 78.84 41.09"/>
    <polygon class="st0" points="52.36 105.29 52.36 154.2 78.84 169.49 78.84 90 10 50.26 10 80.83 52.36 105.29"/>
  </g>
  <g>
    <path class="st0" d="M242.17,50.14c-14.82,0-21.84,9.36-21.84,9.36h-.78l-1.56-7.8h-17.94v79.56h19.5v-46.02c0-10.14,7.02-17.16,17.16-17.16s17.16,7.02,17.16,17.16v46.02h19.5v-47.58c0-20.28-13.26-33.54-31.2-33.54Z"/>
    <polygon class="st0" points="452.47 103.96 451.35 103.96 438.09 51.71 418.25 51.71 404.99 103.96 403.88 103.96 390.61 51.71 370.33 51.71 390.61 131.26 414.35 131.26 427.61 79.78 428.73 79.78 441.99 131.26 465.73 131.26 486.01 51.71 465.73 51.71 452.47 103.96"/>
    <path class="st0" d="M545.72,58.72h-.78l-1.56-7.02h-16.38v79.56h19.5v-46.02c0-10.14,4.68-14.82,14.82-14.82h10.04v-18.72h-11.6c-9.36,0-14.04,7.02-14.04,7.02Z"/>
    <path class="st0" d="M614.47,50.14c-23.4,0-40.56,17.16-40.56,41.34s16.19,41.34,40.56,41.34c19.73,0,31.6-11.61,36.55-20.15l-17.9-6.38c-1.77,3.24-8.91,9.47-18.66,9.47-11.37,0-19.5-7.12-21.06-18.04h59.28s.78-3.12.78-7.8c0-22.62-17.16-39.78-39-39.78ZM593.42,84.46c2.34-10.14,9.36-17.94,21.06-17.94,10.92,0,17.94,7.8,19.5,17.94h-40.56Z"/>
    <path class="st0" d="M326.4,50.14c-23.4,0-40.56,17.16-40.56,41.34s16.19,41.34,40.56,41.34c19.73,0,31.6-11.61,36.55-20.15l-17.9-6.38c-1.77,3.24-8.91,9.47-18.66,9.47-11.37,0-19.5-7.12-21.06-18.04h59.28s.78-3.12.78-7.8c0-22.62-17.16-39.78-39-39.78ZM305.34,84.46c2.34-10.14,9.36-17.94,21.06-17.94,10.92,0,17.94,7.8,19.5,17.94h-40.56Z"/>
    <rect class="st0" x="702.14" y="20.29" width="19.5" height="19.5"/>
    <path class="st0" d="M775.45,114.88c-11.7,0-21.06-9.36-21.06-23.4s9.36-23.4,21.06-23.4,16.38,7.8,17.94,12.48l17.66-6.28c-4.27-11.11-14.77-24.14-35.59-24.14-23.4,0-40.56,17.16-40.56,41.34s17.16,41.34,40.56,41.34c20.99,0,31.5-13.24,35.7-24.88l-17.76-6.32c-1.56,5.46-6.24,13.26-17.94,13.26Z"/>
    <polygon class="st0" points="655.63 37.63 666.7 37.63 666.7 131.26 686.2 131.26 686.2 20.29 655.63 20.29 655.63 37.63"/>
    <rect class="st0" x="702.14" y="51.71" width="19.5" height="79.56"/>
    <path class="st0" d="M821.59,115.96c-4.28,0-7.41,3.24-7.41,7.52s3.13,7.52,7.41,7.52,7.41-3.24,7.41-7.52-3.13-7.52-7.41-7.52ZM821.59,129.85c-3.66,0-6.27-2.72-6.27-6.37s2.61-6.37,6.27-6.37,6.27,2.72,6.27,6.37-2.61,6.37-6.27,6.37Z"/>
    <path class="st0" d="M824.82,122.13c0-1.46-1.15-2.61-2.82-2.61h-3.34v7.83h1.15v-2.72h1.04l2.72,2.72h1.46l-2.72-2.72c1.46-.1,2.51-1.15,2.51-2.51ZM819.81,123.48v-2.82h2.19c1.04,0,1.67.63,1.67,1.46s-.52,1.36-1.67,1.36h-2.19Z"/>
  </g>
</svg>